<svg width="361" height="48" viewBox="0 0 361 48" fill="none" xmlns="http://www.w3.org/2000/svg">
<path d="M0.472039 21L4.54604 15.442V16.52L0.696039 11.2H2.29204L5.34404 15.386L4.71404 15.4L7.75204 11.2H9.27804L5.45604 16.436V15.428L9.53004 21H7.92004L4.67204 16.534H5.28804L2.08204 21H0.472039Z" fill="black"/>
<path d="M174.885 17V10.3L175.205 10.64H173.235V10H175.605V17H174.885ZM180.068 17.06C179.528 17.06 179.048 16.92 178.628 16.64C178.208 16.3533 177.878 15.9467 177.638 15.42C177.398 14.8867 177.278 14.2467 177.278 13.5C177.278 12.7533 177.398 12.1167 177.638 11.59C177.878 11.0567 178.208 10.65 178.628 10.37C179.048 10.0833 179.528 9.94 180.068 9.94C180.608 9.94 181.088 10.0833 181.508 10.37C181.928 10.65 182.258 11.0567 182.498 11.59C182.744 12.1167 182.868 12.7533 182.868 13.5C182.868 14.2467 182.744 14.8867 182.498 15.42C182.258 15.9467 181.928 16.3533 181.508 16.64C181.088 16.92 180.608 17.06 180.068 17.06ZM180.068 16.4C180.481 16.4 180.841 16.29 181.148 16.07C181.454 15.8433 181.694 15.5167 181.868 15.09C182.041 14.6567 182.128 14.1267 182.128 13.5C182.128 12.8733 182.041 12.3467 181.868 11.92C181.694 11.4867 181.454 11.16 181.148 10.94C180.841 10.7133 180.481 10.6 180.068 10.6C179.668 10.6 179.311 10.7133 178.998 10.94C178.684 11.16 178.441 11.4867 178.268 11.92C178.094 12.3467 178.008 12.8733 178.008 13.5C178.008 14.1267 178.094 14.6567 178.268 15.09C178.441 15.5167 178.684 15.8433 178.998 16.07C179.311 16.29 179.668 16.4 180.068 16.4ZM186.689 17.06C186.149 17.06 185.669 16.92 185.249 16.64C184.829 16.3533 184.499 15.9467 184.259 15.42C184.019 14.8867 183.899 14.2467 183.899 13.5C183.899 12.7533 184.019 12.1167 184.259 11.59C184.499 11.0567 184.829 10.65 185.249 10.37C185.669 10.0833 186.149 9.94 186.689 9.94C187.229 9.94 187.709 10.0833 188.129 10.37C188.549 10.65 188.879 11.0567 189.119 11.59C189.366 12.1167 189.489 12.7533 189.489 13.5C189.489 14.2467 189.366 14.8867 189.119 15.42C188.879 15.9467 188.549 16.3533 188.129 16.64C187.709 16.92 187.229 17.06 186.689 17.06ZM186.689 16.4C187.102 16.4 187.462 16.29 187.769 16.07C188.076 15.8433 188.316 15.5167 188.489 15.09C188.662 14.6567 188.749 14.1267 188.749 13.5C188.749 12.8733 188.662 12.3467 188.489 11.92C188.316 11.4867 188.076 11.16 187.769 10.94C187.462 10.7133 187.102 10.6 186.689 10.6C186.289 10.6 185.932 10.7133 185.619 10.94C185.306 11.16 185.062 11.4867 184.889 11.92C184.716 12.3467 184.629 12.8733 184.629 13.5C184.629 14.1267 184.716 14.6567 184.889 15.09C185.062 15.5167 185.306 15.8433 185.619 16.07C185.932 16.29 186.289 16.4 186.689 16.4Z" fill="#475569"/>
<rect width="67" height="6" rx="3" transform="matrix(-1 0 0 1 190 21)" fill="#D9D9D9"/>
<rect width="17" height="14" rx="7" transform="matrix(-1 0 0 1 128 1)" fill="#334155"/>
<path d="M116.181 12.06C115.621 12.06 115.138 11.98 114.731 11.82C114.331 11.66 114.021 11.43 113.801 11.13C113.588 10.8233 113.481 10.4633 113.481 10.05C113.481 9.65 113.584 9.31 113.791 9.03C114.004 8.74333 114.311 8.52333 114.711 8.37C115.118 8.21667 115.608 8.14 116.181 8.14C116.748 8.14 117.234 8.21667 117.641 8.37C118.048 8.52333 118.358 8.74333 118.571 9.03C118.791 9.31 118.901 9.65 118.901 10.05C118.901 10.4633 118.791 10.8233 118.571 11.13C118.351 11.43 118.038 11.66 117.631 11.82C117.224 11.98 116.741 12.06 116.181 12.06ZM116.181 11.45C116.801 11.45 117.284 11.3233 117.631 11.07C117.984 10.8167 118.161 10.4733 118.161 10.04C118.161 9.60667 117.984 9.26667 117.631 9.02C117.284 8.76667 116.801 8.64 116.181 8.64C115.561 8.64 115.078 8.76667 114.731 9.02C114.384 9.26667 114.211 9.60667 114.211 10.04C114.211 10.4733 114.384 10.8167 114.731 11.07C115.078 11.3233 115.561 11.45 116.181 11.45ZM116.181 8.55C115.661 8.55 115.218 8.48 114.851 8.34C114.491 8.2 114.214 8 114.021 7.74C113.828 7.47333 113.731 7.15667 113.731 6.79C113.731 6.40333 113.831 6.07333 114.031 5.8C114.238 5.52 114.524 5.30667 114.891 5.16C115.258 5.01333 115.688 4.94 116.181 4.94C116.674 4.94 117.104 5.01333 117.471 5.16C117.844 5.30667 118.134 5.52 118.341 5.8C118.548 6.07333 118.651 6.40333 118.651 6.79C118.651 7.15667 118.554 7.47333 118.361 7.74C118.168 8 117.884 8.2 117.511 8.34C117.144 8.48 116.701 8.55 116.181 8.55ZM116.181 8.07C116.728 8.07 117.154 7.95667 117.461 7.73C117.768 7.50333 117.921 7.2 117.921 6.82C117.921 6.42 117.761 6.11 117.441 5.89C117.128 5.66333 116.708 5.55 116.181 5.55C115.654 5.55 115.234 5.66333 114.921 5.89C114.608 6.11 114.451 6.41667 114.451 6.81C114.451 7.19667 114.601 7.50333 114.901 7.73C115.208 7.95667 115.634 8.07 116.181 8.07ZM122.688 12.06C122.148 12.06 121.668 11.92 121.248 11.64C120.828 11.3533 120.498 10.9467 120.258 10.42C120.018 9.88667 119.898 9.24667 119.898 8.5C119.898 7.75333 120.018 7.11667 120.258 6.59C120.498 6.05667 120.828 5.65 121.248 5.37C121.668 5.08333 122.148 4.94 122.688 4.94C123.228 4.94 123.708 5.08333 124.128 5.37C124.548 5.65 124.878 6.05667 125.118 6.59C125.365 7.11667 125.488 7.75333 125.488 8.5C125.488 9.24667 125.365 9.88667 125.118 10.42C124.878 10.9467 124.548 11.3533 124.128 11.64C123.708 11.92 123.228 12.06 122.688 12.06ZM122.688 11.4C123.101 11.4 123.461 11.29 123.768 11.07C124.075 10.8433 124.315 10.5167 124.488 10.09C124.661 9.65667 124.748 9.12667 124.748 8.5C124.748 7.87333 124.661 7.34667 124.488 6.92C124.315 6.48667 124.075 6.16 123.768 5.94C123.461 5.71333 123.101 5.6 122.688 5.6C122.288 5.6 121.931 5.71333 121.618 5.94C121.305 6.16 121.061 6.48667 120.888 6.92C120.715 7.34667 120.628 7.87333 120.628 8.5C120.628 9.12667 120.715 9.65667 120.888 10.09C121.061 10.5167 121.305 10.8433 121.618 11.07C121.931 11.29 122.288 11.4 122.688 11.4Z" fill="#FFDF63"/>
<circle cx="7" cy="7" r="7" transform="matrix(-1 0 0 1 126.5 17)" fill="#FFDF63"/>
<path d="M23.31 17.06C22.77 17.06 22.29 16.92 21.87 16.64C21.45 16.3533 21.12 15.9467 20.88 15.42C20.64 14.8867 20.52 14.2467 20.52 13.5C20.52 12.7533 20.64 12.1167 20.88 11.59C21.12 11.0567 21.45 10.65 21.87 10.37C22.29 10.0833 22.77 9.94 23.31 9.94C23.85 9.94 24.33 10.0833 24.75 10.37C25.17 10.65 25.5 11.0567 25.74 11.59C25.9867 12.1167 26.11 12.7533 26.11 13.5C26.11 14.2467 25.9867 14.8867 25.74 15.42C25.5 15.9467 25.17 16.3533 24.75 16.64C24.33 16.92 23.85 17.06 23.31 17.06ZM23.31 16.4C23.7233 16.4 24.0833 16.29 24.39 16.07C24.6967 15.8433 24.9367 15.5167 25.11 15.09C25.2833 14.6567 25.37 14.1267 25.37 13.5C25.37 12.8733 25.2833 12.3467 25.11 11.92C24.9367 11.4867 24.6967 11.16 24.39 10.94C24.0833 10.7133 23.7233 10.6 23.31 10.6C22.91 10.6 22.5533 10.7133 22.24 10.94C21.9267 11.16 21.6833 11.4867 21.51 11.92C21.3367 12.3467 21.25 12.8733 21.25 13.5C21.25 14.1267 21.3367 14.6567 21.51 15.09C21.6833 15.5167 21.9267 15.8433 22.24 16.07C22.5533 16.29 22.91 16.4 23.31 16.4Z" fill="#475569"/>
<rect width="96" height="6" rx="3" transform="matrix(-1 0 0 1 116 21)" fill="#FFDF63"/>
<rect x="200" y="15" width="132" height="32" rx="5" fill="white"/>
<path d="M207.368 35V26.6H208.256V35H207.368ZM214.025 28.64C214.537 28.64 214.985 28.74 215.369 28.94C215.761 29.132 216.065 29.428 216.281 29.828C216.505 30.228 216.617 30.732 216.617 31.34V35H215.765V31.424C215.765 30.76 215.597 30.26 215.261 29.924C214.933 29.58 214.469 29.408 213.869 29.408C213.421 29.408 213.029 29.5 212.693 29.684C212.365 29.86 212.109 30.12 211.925 30.464C211.749 30.8 211.661 31.208 211.661 31.688V35H210.809V28.7H211.625V30.428L211.493 30.104C211.693 29.648 212.013 29.292 212.453 29.036C212.893 28.772 213.417 28.64 214.025 28.64ZM222.17 35.06C221.626 35.06 221.134 34.936 220.694 34.688C220.254 34.432 219.902 34.068 219.638 33.596C219.382 33.116 219.254 32.532 219.254 31.844C219.254 31.156 219.382 30.576 219.638 30.104C219.894 29.624 220.242 29.26 220.682 29.012C221.122 28.764 221.618 28.64 222.17 28.64C222.77 28.64 223.306 28.776 223.778 29.048C224.258 29.312 224.634 29.688 224.906 30.176C225.178 30.656 225.314 31.212 225.314 31.844C225.314 32.484 225.178 33.044 224.906 33.524C224.634 34.004 224.258 34.38 223.778 34.652C223.306 34.924 222.77 35.06 222.17 35.06ZM218.918 37.328V28.7H219.734V30.596L219.65 31.856L219.77 33.128V37.328H218.918ZM222.11 34.304C222.558 34.304 222.958 34.204 223.31 34.004C223.662 33.796 223.942 33.508 224.15 33.14C224.358 32.764 224.462 32.332 224.462 31.844C224.462 31.356 224.358 30.928 224.15 30.56C223.942 30.192 223.662 29.904 223.31 29.696C222.958 29.488 222.558 29.384 222.11 29.384C221.662 29.384 221.258 29.488 220.898 29.696C220.546 29.904 220.266 30.192 220.058 30.56C219.858 30.928 219.758 31.356 219.758 31.844C219.758 32.332 219.858 32.764 220.058 33.14C220.266 33.508 220.546 33.796 220.898 34.004C221.258 34.204 221.662 34.304 222.11 34.304ZM229.655 35.06C229.119 35.06 228.651 34.96 228.251 34.76C227.851 34.56 227.539 34.26 227.315 33.86C227.099 33.46 226.991 32.96 226.991 32.36V28.7H227.843V32.264C227.843 32.936 228.007 33.444 228.335 33.788C228.671 34.124 229.139 34.292 229.739 34.292C230.179 34.292 230.559 34.204 230.879 34.028C231.207 33.844 231.455 33.58 231.623 33.236C231.799 32.892 231.887 32.48 231.887 32V28.7H232.739V35H231.923V33.272L232.055 33.584C231.855 34.048 231.543 34.412 231.119 34.676C230.703 34.932 230.215 35.06 229.655 35.06ZM237.106 35.06C236.514 35.06 236.058 34.9 235.738 34.58C235.418 34.26 235.258 33.808 235.258 33.224V27.308H236.11V33.176C236.11 33.544 236.202 33.828 236.386 34.028C236.578 34.228 236.85 34.328 237.202 34.328C237.578 34.328 237.89 34.22 238.138 34.004L238.438 34.616C238.27 34.768 238.066 34.88 237.826 34.952C237.594 35.024 237.354 35.06 237.106 35.06ZM234.13 29.408V28.7H238.03V29.408H234.13Z" fill="#94A3B8"/>
<path d="M328 15H356C358.761 15 361 17.2386 361 20V42C361 44.7614 358.761 47 356 47H328V15Z" fill="#94A3B8"/>
<path d="M335.792 35.06C335.256 35.06 334.788 34.96 334.388 34.76C333.988 34.56 333.676 34.26 333.452 33.86C333.236 33.46 333.128 32.96 333.128 32.36V28.7H333.98V32.264C333.98 32.936 334.144 33.444 334.472 33.788C334.808 34.124 335.276 34.292 335.876 34.292C336.316 34.292 336.696 34.204 337.016 34.028C337.344 33.844 337.592 33.58 337.76 33.236C337.936 32.892 338.024 32.48 338.024 32V28.7H338.876V35H338.06V33.272L338.192 33.584C337.992 34.048 337.68 34.412 337.256 34.676C336.84 34.932 336.352 35.06 335.792 35.06ZM344.467 28.64C344.979 28.64 345.427 28.74 345.811 28.94C346.203 29.132 346.507 29.428 346.723 29.828C346.947 30.228 347.059 30.732 347.059 31.34V35H346.207V31.424C346.207 30.76 346.039 30.26 345.703 29.924C345.375 29.58 344.911 29.408 344.311 29.408C343.863 29.408 343.471 29.5 343.135 29.684C342.807 29.86 342.551 30.12 342.367 30.464C342.191 30.8 342.103 31.208 342.103 31.688V35H341.251V28.7H342.067V30.428L341.935 30.104C342.135 29.648 342.455 29.292 342.895 29.036C343.335 28.772 343.859 28.64 344.467 28.64ZM349.36 35V28.7H350.212V35H349.36ZM349.792 27.308C349.616 27.308 349.468 27.248 349.348 27.128C349.228 27.008 349.168 26.864 349.168 26.696C349.168 26.528 349.228 26.388 349.348 26.276C349.468 26.156 349.616 26.096 349.792 26.096C349.968 26.096 350.116 26.152 350.236 26.264C350.356 26.376 350.416 26.516 350.416 26.684C350.416 26.86 350.356 27.008 350.236 27.128C350.124 27.248 349.976 27.308 349.792 27.308ZM354.575 35.06C353.983 35.06 353.527 34.9 353.207 34.58C352.887 34.26 352.727 33.808 352.727 33.224V27.308H353.579V33.176C353.579 33.544 353.671 33.828 353.855 34.028C354.047 34.228 354.319 34.328 354.671 34.328C355.047 34.328 355.359 34.22 355.607 34.004L355.907 34.616C355.739 34.768 355.535 34.88 355.295 34.952C355.063 35.024 354.823 35.06 354.575 35.06ZM351.599 29.408V28.7H355.499V29.408H351.599Z" fill="#334155"/>
</svg>
