<svg width="192" height="120" viewBox="0 0 192 120" fill="none" xmlns="http://www.w3.org/2000/svg">
<rect x="0.5" y="0.5" width="191" height="119" rx="4.5" stroke="#9747FF" stroke-dasharray="10 5"/>
<path d="M156.885 36V29.3L157.205 29.64H155.235V29H157.605V36H156.885ZM162.068 36.06C161.528 36.06 161.048 35.92 160.628 35.64C160.208 35.3533 159.878 34.9467 159.638 34.42C159.398 33.8867 159.278 33.2467 159.278 32.5C159.278 31.7533 159.398 31.1167 159.638 30.59C159.878 30.0567 160.208 29.65 160.628 29.37C161.048 29.0833 161.528 28.94 162.068 28.94C162.608 28.94 163.088 29.0833 163.508 29.37C163.928 29.65 164.258 30.0567 164.498 30.59C164.744 31.1167 164.868 31.7533 164.868 32.5C164.868 33.2467 164.744 33.8867 164.498 34.42C164.258 34.9467 163.928 35.3533 163.508 35.64C163.088 35.92 162.608 36.06 162.068 36.06ZM162.068 35.4C162.481 35.4 162.841 35.29 163.148 35.07C163.454 34.8433 163.694 34.5167 163.868 34.09C164.041 33.6567 164.128 33.1267 164.128 32.5C164.128 31.8733 164.041 31.3467 163.868 30.92C163.694 30.4867 163.454 30.16 163.148 29.94C162.841 29.7133 162.481 29.6 162.068 29.6C161.668 29.6 161.311 29.7133 160.998 29.94C160.684 30.16 160.441 30.4867 160.268 30.92C160.094 31.3467 160.008 31.8733 160.008 32.5C160.008 33.1267 160.094 33.6567 160.268 34.09C160.441 34.5167 160.684 34.8433 160.998 35.07C161.311 35.29 161.668 35.4 162.068 35.4ZM168.689 36.06C168.149 36.06 167.669 35.92 167.249 35.64C166.829 35.3533 166.499 34.9467 166.259 34.42C166.019 33.8867 165.899 33.2467 165.899 32.5C165.899 31.7533 166.019 31.1167 166.259 30.59C166.499 30.0567 166.829 29.65 167.249 29.37C167.669 29.0833 168.149 28.94 168.689 28.94C169.229 28.94 169.709 29.0833 170.129 29.37C170.549 29.65 170.879 30.0567 171.119 30.59C171.366 31.1167 171.489 31.7533 171.489 32.5C171.489 33.2467 171.366 33.8867 171.119 34.42C170.879 34.9467 170.549 35.3533 170.129 35.64C169.709 35.92 169.229 36.06 168.689 36.06ZM168.689 35.4C169.102 35.4 169.462 35.29 169.769 35.07C170.076 34.8433 170.316 34.5167 170.489 34.09C170.662 33.6567 170.749 33.1267 170.749 32.5C170.749 31.8733 170.662 31.3467 170.489 30.92C170.316 30.4867 170.076 30.16 169.769 29.94C169.462 29.7133 169.102 29.6 168.689 29.6C168.289 29.6 167.932 29.7133 167.619 29.94C167.306 30.16 167.062 30.4867 166.889 30.92C166.716 31.3467 166.629 31.8733 166.629 32.5C166.629 33.1267 166.716 33.6567 166.889 34.09C167.062 34.5167 167.306 34.8433 167.619 35.07C167.932 35.29 168.289 35.4 168.689 35.4Z" fill="#475569"/>
<rect width="49" height="6" rx="3" transform="matrix(-1 0 0 1 172 40)" fill="#D9D9D9"/>
<rect width="17" height="14" rx="7" transform="matrix(-1 0 0 1 128 20)" fill="#334155"/>
<path d="M116.181 31.06C115.621 31.06 115.138 30.98 114.731 30.82C114.331 30.66 114.021 30.43 113.801 30.13C113.588 29.8233 113.481 29.4633 113.481 29.05C113.481 28.65 113.584 28.31 113.791 28.03C114.004 27.7433 114.311 27.5233 114.711 27.37C115.118 27.2167 115.608 27.14 116.181 27.14C116.748 27.14 117.234 27.2167 117.641 27.37C118.048 27.5233 118.358 27.7433 118.571 28.03C118.791 28.31 118.901 28.65 118.901 29.05C118.901 29.4633 118.791 29.8233 118.571 30.13C118.351 30.43 118.038 30.66 117.631 30.82C117.224 30.98 116.741 31.06 116.181 31.06ZM116.181 30.45C116.801 30.45 117.284 30.3233 117.631 30.07C117.984 29.8167 118.161 29.4733 118.161 29.04C118.161 28.6067 117.984 28.2667 117.631 28.02C117.284 27.7667 116.801 27.64 116.181 27.64C115.561 27.64 115.078 27.7667 114.731 28.02C114.384 28.2667 114.211 28.6067 114.211 29.04C114.211 29.4733 114.384 29.8167 114.731 30.07C115.078 30.3233 115.561 30.45 116.181 30.45ZM116.181 27.55C115.661 27.55 115.218 27.48 114.851 27.34C114.491 27.2 114.214 27 114.021 26.74C113.828 26.4733 113.731 26.1567 113.731 25.79C113.731 25.4033 113.831 25.0733 114.031 24.8C114.238 24.52 114.524 24.3067 114.891 24.16C115.258 24.0133 115.688 23.94 116.181 23.94C116.674 23.94 117.104 24.0133 117.471 24.16C117.844 24.3067 118.134 24.52 118.341 24.8C118.548 25.0733 118.651 25.4033 118.651 25.79C118.651 26.1567 118.554 26.4733 118.361 26.74C118.168 27 117.884 27.2 117.511 27.34C117.144 27.48 116.701 27.55 116.181 27.55ZM116.181 27.07C116.728 27.07 117.154 26.9567 117.461 26.73C117.768 26.5033 117.921 26.2 117.921 25.82C117.921 25.42 117.761 25.11 117.441 24.89C117.128 24.6633 116.708 24.55 116.181 24.55C115.654 24.55 115.234 24.6633 114.921 24.89C114.608 25.11 114.451 25.4167 114.451 25.81C114.451 26.1967 114.601 26.5033 114.901 26.73C115.208 26.9567 115.634 27.07 116.181 27.07ZM122.688 31.06C122.148 31.06 121.668 30.92 121.248 30.64C120.828 30.3533 120.498 29.9467 120.258 29.42C120.018 28.8867 119.898 28.2467 119.898 27.5C119.898 26.7533 120.018 26.1167 120.258 25.59C120.498 25.0567 120.828 24.65 121.248 24.37C121.668 24.0833 122.148 23.94 122.688 23.94C123.228 23.94 123.708 24.0833 124.128 24.37C124.548 24.65 124.878 25.0567 125.118 25.59C125.365 26.1167 125.488 26.7533 125.488 27.5C125.488 28.2467 125.365 28.8867 125.118 29.42C124.878 29.9467 124.548 30.3533 124.128 30.64C123.708 30.92 123.228 31.06 122.688 31.06ZM122.688 30.4C123.101 30.4 123.461 30.29 123.768 30.07C124.075 29.8433 124.315 29.5167 124.488 29.09C124.661 28.6567 124.748 28.1267 124.748 27.5C124.748 26.8733 124.661 26.3467 124.488 25.92C124.315 25.4867 124.075 25.16 123.768 24.94C123.461 24.7133 123.101 24.6 122.688 24.6C122.288 24.6 121.931 24.7133 121.618 24.94C121.305 25.16 121.061 25.4867 120.888 25.92C120.715 26.3467 120.628 26.8733 120.628 27.5C120.628 28.1267 120.715 28.6567 120.888 29.09C121.061 29.5167 121.305 29.8433 121.618 30.07C121.931 30.29 122.288 30.4 122.688 30.4Z" fill="#FFDF63"/>
<circle cx="7" cy="7" r="7" transform="matrix(-1 0 0 1 126.5 36)" fill="#FFDF63"/>
<path d="M23.31 36.06C22.77 36.06 22.29 35.92 21.87 35.64C21.45 35.3533 21.12 34.9467 20.88 34.42C20.64 33.8867 20.52 33.2467 20.52 32.5C20.52 31.7533 20.64 31.1167 20.88 30.59C21.12 30.0567 21.45 29.65 21.87 29.37C22.29 29.0833 22.77 28.94 23.31 28.94C23.85 28.94 24.33 29.0833 24.75 29.37C25.17 29.65 25.5 30.0567 25.74 30.59C25.9867 31.1167 26.11 31.7533 26.11 32.5C26.11 33.2467 25.9867 33.8867 25.74 34.42C25.5 34.9467 25.17 35.3533 24.75 35.64C24.33 35.92 23.85 36.06 23.31 36.06ZM23.31 35.4C23.7233 35.4 24.0833 35.29 24.39 35.07C24.6967 34.8433 24.9367 34.5167 25.11 34.09C25.2833 33.6567 25.37 33.1267 25.37 32.5C25.37 31.8733 25.2833 31.3467 25.11 30.92C24.9367 30.4867 24.6967 30.16 24.39 29.94C24.0833 29.7133 23.7233 29.6 23.31 29.6C22.91 29.6 22.5533 29.7133 22.24 29.94C21.9267 30.16 21.6833 30.4867 21.51 30.92C21.3367 31.3467 21.25 31.8733 21.25 32.5C21.25 33.1267 21.3367 33.6567 21.51 34.09C21.6833 34.5167 21.9267 34.8433 22.24 35.07C22.5533 35.29 22.91 35.4 23.31 35.4Z" fill="#475569"/>
<rect width="96" height="6" rx="3" transform="matrix(-1 0 0 1 116 40)" fill="#FFDF63"/>
<path d="M156.885 86V79.3L157.205 79.64H155.235V79H157.605V86H156.885ZM162.068 86.06C161.528 86.06 161.048 85.92 160.628 85.64C160.208 85.3533 159.878 84.9467 159.638 84.42C159.398 83.8867 159.278 83.2467 159.278 82.5C159.278 81.7533 159.398 81.1167 159.638 80.59C159.878 80.0567 160.208 79.65 160.628 79.37C161.048 79.0833 161.528 78.94 162.068 78.94C162.608 78.94 163.088 79.0833 163.508 79.37C163.928 79.65 164.258 80.0567 164.498 80.59C164.744 81.1167 164.868 81.7533 164.868 82.5C164.868 83.2467 164.744 83.8867 164.498 84.42C164.258 84.9467 163.928 85.3533 163.508 85.64C163.088 85.92 162.608 86.06 162.068 86.06ZM162.068 85.4C162.481 85.4 162.841 85.29 163.148 85.07C163.454 84.8433 163.694 84.5167 163.868 84.09C164.041 83.6567 164.128 83.1267 164.128 82.5C164.128 81.8733 164.041 81.3467 163.868 80.92C163.694 80.4867 163.454 80.16 163.148 79.94C162.841 79.7133 162.481 79.6 162.068 79.6C161.668 79.6 161.311 79.7133 160.998 79.94C160.684 80.16 160.441 80.4867 160.268 80.92C160.094 81.3467 160.008 81.8733 160.008 82.5C160.008 83.1267 160.094 83.6567 160.268 84.09C160.441 84.5167 160.684 84.8433 160.998 85.07C161.311 85.29 161.668 85.4 162.068 85.4ZM168.689 86.06C168.149 86.06 167.669 85.92 167.249 85.64C166.829 85.3533 166.499 84.9467 166.259 84.42C166.019 83.8867 165.899 83.2467 165.899 82.5C165.899 81.7533 166.019 81.1167 166.259 80.59C166.499 80.0567 166.829 79.65 167.249 79.37C167.669 79.0833 168.149 78.94 168.689 78.94C169.229 78.94 169.709 79.0833 170.129 79.37C170.549 79.65 170.879 80.0567 171.119 80.59C171.366 81.1167 171.489 81.7533 171.489 82.5C171.489 83.2467 171.366 83.8867 171.119 84.42C170.879 84.9467 170.549 85.3533 170.129 85.64C169.709 85.92 169.229 86.06 168.689 86.06ZM168.689 85.4C169.102 85.4 169.462 85.29 169.769 85.07C170.076 84.8433 170.316 84.5167 170.489 84.09C170.662 83.6567 170.749 83.1267 170.749 82.5C170.749 81.8733 170.662 81.3467 170.489 80.92C170.316 80.4867 170.076 80.16 169.769 79.94C169.462 79.7133 169.102 79.6 168.689 79.6C168.289 79.6 167.932 79.7133 167.619 79.94C167.306 80.16 167.062 80.4867 166.889 80.92C166.716 81.3467 166.629 81.8733 166.629 82.5C166.629 83.1267 166.716 83.6567 166.889 84.09C167.062 84.5167 167.306 84.8433 167.619 85.07C167.932 85.29 168.289 85.4 168.689 85.4Z" fill="#475569"/>
<rect width="49" height="6" rx="3" transform="matrix(-1 0 0 1 172 90)" fill="#334155"/>
<rect width="17" height="14" rx="7" transform="matrix(-1 0 0 1 128 70)" fill="#334155"/>
<path d="M116.181 81.06C115.621 81.06 115.138 80.98 114.731 80.82C114.331 80.66 114.021 80.43 113.801 80.13C113.588 79.8233 113.481 79.4633 113.481 79.05C113.481 78.65 113.584 78.31 113.791 78.03C114.004 77.7433 114.311 77.5233 114.711 77.37C115.118 77.2167 115.608 77.14 116.181 77.14C116.748 77.14 117.234 77.2167 117.641 77.37C118.048 77.5233 118.358 77.7433 118.571 78.03C118.791 78.31 118.901 78.65 118.901 79.05C118.901 79.4633 118.791 79.8233 118.571 80.13C118.351 80.43 118.038 80.66 117.631 80.82C117.224 80.98 116.741 81.06 116.181 81.06ZM116.181 80.45C116.801 80.45 117.284 80.3233 117.631 80.07C117.984 79.8167 118.161 79.4733 118.161 79.04C118.161 78.6067 117.984 78.2667 117.631 78.02C117.284 77.7667 116.801 77.64 116.181 77.64C115.561 77.64 115.078 77.7667 114.731 78.02C114.384 78.2667 114.211 78.6067 114.211 79.04C114.211 79.4733 114.384 79.8167 114.731 80.07C115.078 80.3233 115.561 80.45 116.181 80.45ZM116.181 77.55C115.661 77.55 115.218 77.48 114.851 77.34C114.491 77.2 114.214 77 114.021 76.74C113.828 76.4733 113.731 76.1567 113.731 75.79C113.731 75.4033 113.831 75.0733 114.031 74.8C114.238 74.52 114.524 74.3067 114.891 74.16C115.258 74.0133 115.688 73.94 116.181 73.94C116.674 73.94 117.104 74.0133 117.471 74.16C117.844 74.3067 118.134 74.52 118.341 74.8C118.548 75.0733 118.651 75.4033 118.651 75.79C118.651 76.1567 118.554 76.4733 118.361 76.74C118.168 77 117.884 77.2 117.511 77.34C117.144 77.48 116.701 77.55 116.181 77.55ZM116.181 77.07C116.728 77.07 117.154 76.9567 117.461 76.73C117.768 76.5033 117.921 76.2 117.921 75.82C117.921 75.42 117.761 75.11 117.441 74.89C117.128 74.6633 116.708 74.55 116.181 74.55C115.654 74.55 115.234 74.6633 114.921 74.89C114.608 75.11 114.451 75.4167 114.451 75.81C114.451 76.1967 114.601 76.5033 114.901 76.73C115.208 76.9567 115.634 77.07 116.181 77.07ZM122.688 81.06C122.148 81.06 121.668 80.92 121.248 80.64C120.828 80.3533 120.498 79.9467 120.258 79.42C120.018 78.8867 119.898 78.2467 119.898 77.5C119.898 76.7533 120.018 76.1167 120.258 75.59C120.498 75.0567 120.828 74.65 121.248 74.37C121.668 74.0833 122.148 73.94 122.688 73.94C123.228 73.94 123.708 74.0833 124.128 74.37C124.548 74.65 124.878 75.0567 125.118 75.59C125.365 76.1167 125.488 76.7533 125.488 77.5C125.488 78.2467 125.365 78.8867 125.118 79.42C124.878 79.9467 124.548 80.3533 124.128 80.64C123.708 80.92 123.228 81.06 122.688 81.06ZM122.688 80.4C123.101 80.4 123.461 80.29 123.768 80.07C124.075 79.8433 124.315 79.5167 124.488 79.09C124.661 78.6567 124.748 78.1267 124.748 77.5C124.748 76.8733 124.661 76.3467 124.488 75.92C124.315 75.4867 124.075 75.16 123.768 74.94C123.461 74.7133 123.101 74.6 122.688 74.6C122.288 74.6 121.931 74.7133 121.618 74.94C121.305 75.16 121.061 75.4867 120.888 75.92C120.715 76.3467 120.628 76.8733 120.628 77.5C120.628 78.1267 120.715 78.6567 120.888 79.09C121.061 79.5167 121.305 79.8433 121.618 80.07C121.931 80.29 122.288 80.4 122.688 80.4Z" fill="#FFDF63"/>
<circle cx="7" cy="7" r="7" transform="matrix(-1 0 0 1 126.5 86)" fill="#FFDF63"/>
<path d="M23.31 86.06C22.77 86.06 22.29 85.92 21.87 85.64C21.45 85.3533 21.12 84.9467 20.88 84.42C20.64 83.8867 20.52 83.2467 20.52 82.5C20.52 81.7533 20.64 81.1167 20.88 80.59C21.12 80.0567 21.45 79.65 21.87 79.37C22.29 79.0833 22.77 78.94 23.31 78.94C23.85 78.94 24.33 79.0833 24.75 79.37C25.17 79.65 25.5 80.0567 25.74 80.59C25.9867 81.1167 26.11 81.7533 26.11 82.5C26.11 83.2467 25.9867 83.8867 25.74 84.42C25.5 84.9467 25.17 85.3533 24.75 85.64C24.33 85.92 23.85 86.06 23.31 86.06ZM23.31 85.4C23.7233 85.4 24.0833 85.29 24.39 85.07C24.6967 84.8433 24.9367 84.5167 25.11 84.09C25.2833 83.6567 25.37 83.1267 25.37 82.5C25.37 81.8733 25.2833 81.3467 25.11 80.92C24.9367 80.4867 24.6967 80.16 24.39 79.94C24.0833 79.7133 23.7233 79.6 23.31 79.6C22.91 79.6 22.5533 79.7133 22.24 79.94C21.9267 80.16 21.6833 80.4867 21.51 80.92C21.3367 81.3467 21.25 81.8733 21.25 82.5C21.25 83.1267 21.3367 83.6567 21.51 84.09C21.6833 84.5167 21.9267 84.8433 22.24 85.07C22.5533 85.29 22.91 85.4 23.31 85.4Z" fill="#475569"/>
<rect width="96" height="6" rx="3" transform="matrix(-1 0 0 1 116 90)" fill="#FFDF63"/>
</svg>
