<svg width="317" height="366" viewBox="0 0 317 366" fill="none" xmlns="http://www.w3.org/2000/svg">
<rect x="0.5" y="0.5" width="316" height="365" rx="4.5" stroke="#9747FF" stroke-dasharray="10 5"/>
<rect x="20" y="20" width="277" height="32" rx="5" fill="white"/>
<path d="M31.368 40V31.6H32.256V40H31.368ZM38.0251 33.64C38.5371 33.64 38.9851 33.74 39.3691 33.94C39.7611 34.132 40.0651 34.428 40.2811 34.828C40.5051 35.228 40.6171 35.732 40.6171 36.34V40H39.7651V36.424C39.7651 35.76 39.5971 35.26 39.2611 34.924C38.9331 34.58 38.4691 34.408 37.8691 34.408C37.4211 34.408 37.0291 34.5 36.6931 34.684C36.3651 34.86 36.1091 35.12 35.9251 35.464C35.7491 35.8 35.6611 36.208 35.6611 36.688V40H34.8091V33.7H35.6251V35.428L35.4931 35.104C35.6931 34.648 36.0131 34.292 36.4531 34.036C36.8931 33.772 37.4171 33.64 38.0251 33.64ZM46.1705 40.06C45.6265 40.06 45.1345 39.936 44.6945 39.688C44.2545 39.432 43.9025 39.068 43.6385 38.596C43.3825 38.116 43.2545 37.532 43.2545 36.844C43.2545 36.156 43.3825 35.576 43.6385 35.104C43.8945 34.624 44.2425 34.26 44.6825 34.012C45.1225 33.764 45.6185 33.64 46.1705 33.64C46.7705 33.64 47.3065 33.776 47.7785 34.048C48.2585 34.312 48.6345 34.688 48.9065 35.176C49.1785 35.656 49.3145 36.212 49.3145 36.844C49.3145 37.484 49.1785 38.044 48.9065 38.524C48.6345 39.004 48.2585 39.38 47.7785 39.652C47.3065 39.924 46.7705 40.06 46.1705 40.06ZM42.9185 42.328V33.7H43.7345V35.596L43.6505 36.856L43.7705 38.128V42.328H42.9185ZM46.1105 39.304C46.5585 39.304 46.9585 39.204 47.3105 39.004C47.6625 38.796 47.9425 38.508 48.1505 38.14C48.3585 37.764 48.4625 37.332 48.4625 36.844C48.4625 36.356 48.3585 35.928 48.1505 35.56C47.9425 35.192 47.6625 34.904 47.3105 34.696C46.9585 34.488 46.5585 34.384 46.1105 34.384C45.6625 34.384 45.2585 34.488 44.8985 34.696C44.5465 34.904 44.2665 35.192 44.0585 35.56C43.8585 35.928 43.7585 36.356 43.7585 36.844C43.7585 37.332 43.8585 37.764 44.0585 38.14C44.2665 38.508 44.5465 38.796 44.8985 39.004C45.2585 39.204 45.6625 39.304 46.1105 39.304ZM53.6553 40.06C53.1193 40.06 52.6513 39.96 52.2513 39.76C51.8513 39.56 51.5393 39.26 51.3153 38.86C51.0993 38.46 50.9913 37.96 50.9913 37.36V33.7H51.8433V37.264C51.8433 37.936 52.0073 38.444 52.3353 38.788C52.6713 39.124 53.1393 39.292 53.7393 39.292C54.1793 39.292 54.5593 39.204 54.8793 39.028C55.2073 38.844 55.4553 38.58 55.6233 38.236C55.7993 37.892 55.8873 37.48 55.8873 37V33.7H56.7393V40H55.9233V38.272L56.0553 38.584C55.8553 39.048 55.5433 39.412 55.1193 39.676C54.7033 39.932 54.2153 40.06 53.6553 40.06ZM61.1058 40.06C60.5138 40.06 60.0578 39.9 59.7378 39.58C59.4178 39.26 59.2578 38.808 59.2578 38.224V32.308H60.1098V38.176C60.1098 38.544 60.2018 38.828 60.3858 39.028C60.5778 39.228 60.8498 39.328 61.2018 39.328C61.5778 39.328 61.8898 39.22 62.1378 39.004L62.4378 39.616C62.2698 39.768 62.0658 39.88 61.8258 39.952C61.5938 40.024 61.3538 40.06 61.1058 40.06ZM58.1298 34.408V33.7H62.0298V34.408H58.1298Z" fill="#94A3B8"/>
<rect x="20" y="62" width="277" height="32" rx="5" fill="white"/>
<path d="M255.368 82V73.6H256.256V82H255.368ZM262.025 75.64C262.537 75.64 262.985 75.74 263.369 75.94C263.761 76.132 264.065 76.428 264.281 76.828C264.505 77.228 264.617 77.732 264.617 78.34V82H263.765V78.424C263.765 77.76 263.597 77.26 263.261 76.924C262.933 76.58 262.469 76.408 261.869 76.408C261.421 76.408 261.029 76.5 260.693 76.684C260.365 76.86 260.109 77.12 259.925 77.464C259.749 77.8 259.661 78.208 259.661 78.688V82H258.809V75.7H259.625V77.428L259.493 77.104C259.693 76.648 260.013 76.292 260.453 76.036C260.893 75.772 261.417 75.64 262.025 75.64ZM270.17 82.06C269.626 82.06 269.134 81.936 268.694 81.688C268.254 81.432 267.902 81.068 267.638 80.596C267.382 80.116 267.254 79.532 267.254 78.844C267.254 78.156 267.382 77.576 267.638 77.104C267.894 76.624 268.242 76.26 268.682 76.012C269.122 75.764 269.618 75.64 270.17 75.64C270.77 75.64 271.306 75.776 271.778 76.048C272.258 76.312 272.634 76.688 272.906 77.176C273.178 77.656 273.314 78.212 273.314 78.844C273.314 79.484 273.178 80.044 272.906 80.524C272.634 81.004 272.258 81.38 271.778 81.652C271.306 81.924 270.77 82.06 270.17 82.06ZM266.918 84.328V75.7H267.734V77.596L267.65 78.856L267.77 80.128V84.328H266.918ZM270.11 81.304C270.558 81.304 270.958 81.204 271.31 81.004C271.662 80.796 271.942 80.508 272.15 80.14C272.358 79.764 272.462 79.332 272.462 78.844C272.462 78.356 272.358 77.928 272.15 77.56C271.942 77.192 271.662 76.904 271.31 76.696C270.958 76.488 270.558 76.384 270.11 76.384C269.662 76.384 269.258 76.488 268.898 76.696C268.546 76.904 268.266 77.192 268.058 77.56C267.858 77.928 267.758 78.356 267.758 78.844C267.758 79.332 267.858 79.764 268.058 80.14C268.266 80.508 268.546 80.796 268.898 81.004C269.258 81.204 269.662 81.304 270.11 81.304ZM277.655 82.06C277.119 82.06 276.651 81.96 276.251 81.76C275.851 81.56 275.539 81.26 275.315 80.86C275.099 80.46 274.991 79.96 274.991 79.36V75.7H275.843V79.264C275.843 79.936 276.007 80.444 276.335 80.788C276.671 81.124 277.139 81.292 277.739 81.292C278.179 81.292 278.559 81.204 278.879 81.028C279.207 80.844 279.455 80.58 279.623 80.236C279.799 79.892 279.887 79.48 279.887 79V75.7H280.739V82H279.923V80.272L280.055 80.584C279.855 81.048 279.543 81.412 279.119 81.676C278.703 81.932 278.215 82.06 277.655 82.06ZM285.106 82.06C284.514 82.06 284.058 81.9 283.738 81.58C283.418 81.26 283.258 80.808 283.258 80.224V74.308H284.11V80.176C284.11 80.544 284.202 80.828 284.386 81.028C284.578 81.228 284.85 81.328 285.202 81.328C285.578 81.328 285.89 81.22 286.138 81.004L286.438 81.616C286.27 81.768 286.066 81.88 285.826 81.952C285.594 82.024 285.354 82.06 285.106 82.06ZM282.13 76.408V75.7H286.03V76.408H282.13Z" fill="#94A3B8"/>
<rect x="20" y="104" width="277" height="32" rx="5" fill="white"/>
<path d="M31.368 124V115.6H32.256V124H31.368ZM38.0251 117.64C38.5371 117.64 38.9851 117.74 39.3691 117.94C39.7611 118.132 40.0651 118.428 40.2811 118.828C40.5051 119.228 40.6171 119.732 40.6171 120.34V124H39.7651V120.424C39.7651 119.76 39.5971 119.26 39.2611 118.924C38.9331 118.58 38.4691 118.408 37.8691 118.408C37.4211 118.408 37.0291 118.5 36.6931 118.684C36.3651 118.86 36.1091 119.12 35.9251 119.464C35.7491 119.8 35.6611 120.208 35.6611 120.688V124H34.8091V117.7H35.6251V119.428L35.4931 119.104C35.6931 118.648 36.0131 118.292 36.4531 118.036C36.8931 117.772 37.4171 117.64 38.0251 117.64ZM46.1705 124.06C45.6265 124.06 45.1345 123.936 44.6945 123.688C44.2545 123.432 43.9025 123.068 43.6385 122.596C43.3825 122.116 43.2545 121.532 43.2545 120.844C43.2545 120.156 43.3825 119.576 43.6385 119.104C43.8945 118.624 44.2425 118.26 44.6825 118.012C45.1225 117.764 45.6185 117.64 46.1705 117.64C46.7705 117.64 47.3065 117.776 47.7785 118.048C48.2585 118.312 48.6345 118.688 48.9065 119.176C49.1785 119.656 49.3145 120.212 49.3145 120.844C49.3145 121.484 49.1785 122.044 48.9065 122.524C48.6345 123.004 48.2585 123.38 47.7785 123.652C47.3065 123.924 46.7705 124.06 46.1705 124.06ZM42.9185 126.328V117.7H43.7345V119.596L43.6505 120.856L43.7705 122.128V126.328H42.9185ZM46.1105 123.304C46.5585 123.304 46.9585 123.204 47.3105 123.004C47.6625 122.796 47.9425 122.508 48.1505 122.14C48.3585 121.764 48.4625 121.332 48.4625 120.844C48.4625 120.356 48.3585 119.928 48.1505 119.56C47.9425 119.192 47.6625 118.904 47.3105 118.696C46.9585 118.488 46.5585 118.384 46.1105 118.384C45.6625 118.384 45.2585 118.488 44.8985 118.696C44.5465 118.904 44.2665 119.192 44.0585 119.56C43.8585 119.928 43.7585 120.356 43.7585 120.844C43.7585 121.332 43.8585 121.764 44.0585 122.14C44.2665 122.508 44.5465 122.796 44.8985 123.004C45.2585 123.204 45.6625 123.304 46.1105 123.304ZM53.6553 124.06C53.1193 124.06 52.6513 123.96 52.2513 123.76C51.8513 123.56 51.5393 123.26 51.3153 122.86C51.0993 122.46 50.9913 121.96 50.9913 121.36V117.7H51.8433V121.264C51.8433 121.936 52.0073 122.444 52.3353 122.788C52.6713 123.124 53.1393 123.292 53.7393 123.292C54.1793 123.292 54.5593 123.204 54.8793 123.028C55.2073 122.844 55.4553 122.58 55.6233 122.236C55.7993 121.892 55.8873 121.48 55.8873 121V117.7H56.7393V124H55.9233V122.272L56.0553 122.584C55.8553 123.048 55.5433 123.412 55.1193 123.676C54.7033 123.932 54.2153 124.06 53.6553 124.06ZM61.1058 124.06C60.5138 124.06 60.0578 123.9 59.7378 123.58C59.4178 123.26 59.2578 122.808 59.2578 122.224V116.308H60.1098V122.176C60.1098 122.544 60.2018 122.828 60.3858 123.028C60.5778 123.228 60.8498 123.328 61.2018 123.328C61.5778 123.328 61.8898 123.22 62.1378 123.004L62.4378 123.616C62.2698 123.768 62.0658 123.88 61.8258 123.952C61.5938 124.024 61.3538 124.06 61.1058 124.06ZM58.1298 118.408V117.7H62.0298V118.408H58.1298Z" fill="#0F172A"/>
<rect x="20" y="146" width="277" height="32" rx="5" fill="white"/>
<path d="M255.368 166V157.6H256.256V166H255.368ZM262.025 159.64C262.537 159.64 262.985 159.74 263.369 159.94C263.761 160.132 264.065 160.428 264.281 160.828C264.505 161.228 264.617 161.732 264.617 162.34V166H263.765V162.424C263.765 161.76 263.597 161.26 263.261 160.924C262.933 160.58 262.469 160.408 261.869 160.408C261.421 160.408 261.029 160.5 260.693 160.684C260.365 160.86 260.109 161.12 259.925 161.464C259.749 161.8 259.661 162.208 259.661 162.688V166H258.809V159.7H259.625V161.428L259.493 161.104C259.693 160.648 260.013 160.292 260.453 160.036C260.893 159.772 261.417 159.64 262.025 159.64ZM270.17 166.06C269.626 166.06 269.134 165.936 268.694 165.688C268.254 165.432 267.902 165.068 267.638 164.596C267.382 164.116 267.254 163.532 267.254 162.844C267.254 162.156 267.382 161.576 267.638 161.104C267.894 160.624 268.242 160.26 268.682 160.012C269.122 159.764 269.618 159.64 270.17 159.64C270.77 159.64 271.306 159.776 271.778 160.048C272.258 160.312 272.634 160.688 272.906 161.176C273.178 161.656 273.314 162.212 273.314 162.844C273.314 163.484 273.178 164.044 272.906 164.524C272.634 165.004 272.258 165.38 271.778 165.652C271.306 165.924 270.77 166.06 270.17 166.06ZM266.918 168.328V159.7H267.734V161.596L267.65 162.856L267.77 164.128V168.328H266.918ZM270.11 165.304C270.558 165.304 270.958 165.204 271.31 165.004C271.662 164.796 271.942 164.508 272.15 164.14C272.358 163.764 272.462 163.332 272.462 162.844C272.462 162.356 272.358 161.928 272.15 161.56C271.942 161.192 271.662 160.904 271.31 160.696C270.958 160.488 270.558 160.384 270.11 160.384C269.662 160.384 269.258 160.488 268.898 160.696C268.546 160.904 268.266 161.192 268.058 161.56C267.858 161.928 267.758 162.356 267.758 162.844C267.758 163.332 267.858 163.764 268.058 164.14C268.266 164.508 268.546 164.796 268.898 165.004C269.258 165.204 269.662 165.304 270.11 165.304ZM277.655 166.06C277.119 166.06 276.651 165.96 276.251 165.76C275.851 165.56 275.539 165.26 275.315 164.86C275.099 164.46 274.991 163.96 274.991 163.36V159.7H275.843V163.264C275.843 163.936 276.007 164.444 276.335 164.788C276.671 165.124 277.139 165.292 277.739 165.292C278.179 165.292 278.559 165.204 278.879 165.028C279.207 164.844 279.455 164.58 279.623 164.236C279.799 163.892 279.887 163.48 279.887 163V159.7H280.739V166H279.923V164.272L280.055 164.584C279.855 165.048 279.543 165.412 279.119 165.676C278.703 165.932 278.215 166.06 277.655 166.06ZM285.106 166.06C284.514 166.06 284.058 165.9 283.738 165.58C283.418 165.26 283.258 164.808 283.258 164.224V158.308H284.11V164.176C284.11 164.544 284.202 164.828 284.386 165.028C284.578 165.228 284.85 165.328 285.202 165.328C285.578 165.328 285.89 165.22 286.138 165.004L286.438 165.616C286.27 165.768 286.066 165.88 285.826 165.952C285.594 166.024 285.354 166.06 285.106 166.06ZM282.13 160.408V159.7H286.03V160.408H282.13Z" fill="#0F172A"/>
<rect x="20" y="188" width="277" height="32" rx="5" fill="#475569"/>
<path d="M31.368 208V199.6H32.256V208H31.368ZM38.0251 201.64C38.5371 201.64 38.9851 201.74 39.3691 201.94C39.7611 202.132 40.0651 202.428 40.2811 202.828C40.5051 203.228 40.6171 203.732 40.6171 204.34V208H39.7651V204.424C39.7651 203.76 39.5971 203.26 39.2611 202.924C38.9331 202.58 38.4691 202.408 37.8691 202.408C37.4211 202.408 37.0291 202.5 36.6931 202.684C36.3651 202.86 36.1091 203.12 35.9251 203.464C35.7491 203.8 35.6611 204.208 35.6611 204.688V208H34.8091V201.7H35.6251V203.428L35.4931 203.104C35.6931 202.648 36.0131 202.292 36.4531 202.036C36.8931 201.772 37.4171 201.64 38.0251 201.64ZM46.1705 208.06C45.6265 208.06 45.1345 207.936 44.6945 207.688C44.2545 207.432 43.9025 207.068 43.6385 206.596C43.3825 206.116 43.2545 205.532 43.2545 204.844C43.2545 204.156 43.3825 203.576 43.6385 203.104C43.8945 202.624 44.2425 202.26 44.6825 202.012C45.1225 201.764 45.6185 201.64 46.1705 201.64C46.7705 201.64 47.3065 201.776 47.7785 202.048C48.2585 202.312 48.6345 202.688 48.9065 203.176C49.1785 203.656 49.3145 204.212 49.3145 204.844C49.3145 205.484 49.1785 206.044 48.9065 206.524C48.6345 207.004 48.2585 207.38 47.7785 207.652C47.3065 207.924 46.7705 208.06 46.1705 208.06ZM42.9185 210.328V201.7H43.7345V203.596L43.6505 204.856L43.7705 206.128V210.328H42.9185ZM46.1105 207.304C46.5585 207.304 46.9585 207.204 47.3105 207.004C47.6625 206.796 47.9425 206.508 48.1505 206.14C48.3585 205.764 48.4625 205.332 48.4625 204.844C48.4625 204.356 48.3585 203.928 48.1505 203.56C47.9425 203.192 47.6625 202.904 47.3105 202.696C46.9585 202.488 46.5585 202.384 46.1105 202.384C45.6625 202.384 45.2585 202.488 44.8985 202.696C44.5465 202.904 44.2665 203.192 44.0585 203.56C43.8585 203.928 43.7585 204.356 43.7585 204.844C43.7585 205.332 43.8585 205.764 44.0585 206.14C44.2665 206.508 44.5465 206.796 44.8985 207.004C45.2585 207.204 45.6625 207.304 46.1105 207.304ZM53.6553 208.06C53.1193 208.06 52.6513 207.96 52.2513 207.76C51.8513 207.56 51.5393 207.26 51.3153 206.86C51.0993 206.46 50.9913 205.96 50.9913 205.36V201.7H51.8433V205.264C51.8433 205.936 52.0073 206.444 52.3353 206.788C52.6713 207.124 53.1393 207.292 53.7393 207.292C54.1793 207.292 54.5593 207.204 54.8793 207.028C55.2073 206.844 55.4553 206.58 55.6233 206.236C55.7993 205.892 55.8873 205.48 55.8873 205V201.7H56.7393V208H55.9233V206.272L56.0553 206.584C55.8553 207.048 55.5433 207.412 55.1193 207.676C54.7033 207.932 54.2153 208.06 53.6553 208.06ZM61.1058 208.06C60.5138 208.06 60.0578 207.9 59.7378 207.58C59.4178 207.26 59.2578 206.808 59.2578 206.224V200.308H60.1098V206.176C60.1098 206.544 60.2018 206.828 60.3858 207.028C60.5778 207.228 60.8498 207.328 61.2018 207.328C61.5778 207.328 61.8898 207.22 62.1378 207.004L62.4378 207.616C62.2698 207.768 62.0658 207.88 61.8258 207.952C61.5938 208.024 61.3538 208.06 61.1058 208.06ZM58.1298 202.408V201.7H62.0298V202.408H58.1298Z" fill="#1E293B"/>
<rect x="20" y="230" width="277" height="32" rx="5" fill="#475569"/>
<path d="M255.368 250V241.6H256.256V250H255.368ZM262.025 243.64C262.537 243.64 262.985 243.74 263.369 243.94C263.761 244.132 264.065 244.428 264.281 244.828C264.505 245.228 264.617 245.732 264.617 246.34V250H263.765V246.424C263.765 245.76 263.597 245.26 263.261 244.924C262.933 244.58 262.469 244.408 261.869 244.408C261.421 244.408 261.029 244.5 260.693 244.684C260.365 244.86 260.109 245.12 259.925 245.464C259.749 245.8 259.661 246.208 259.661 246.688V250H258.809V243.7H259.625V245.428L259.493 245.104C259.693 244.648 260.013 244.292 260.453 244.036C260.893 243.772 261.417 243.64 262.025 243.64ZM270.17 250.06C269.626 250.06 269.134 249.936 268.694 249.688C268.254 249.432 267.902 249.068 267.638 248.596C267.382 248.116 267.254 247.532 267.254 246.844C267.254 246.156 267.382 245.576 267.638 245.104C267.894 244.624 268.242 244.26 268.682 244.012C269.122 243.764 269.618 243.64 270.17 243.64C270.77 243.64 271.306 243.776 271.778 244.048C272.258 244.312 272.634 244.688 272.906 245.176C273.178 245.656 273.314 246.212 273.314 246.844C273.314 247.484 273.178 248.044 272.906 248.524C272.634 249.004 272.258 249.38 271.778 249.652C271.306 249.924 270.77 250.06 270.17 250.06ZM266.918 252.328V243.7H267.734V245.596L267.65 246.856L267.77 248.128V252.328H266.918ZM270.11 249.304C270.558 249.304 270.958 249.204 271.31 249.004C271.662 248.796 271.942 248.508 272.15 248.14C272.358 247.764 272.462 247.332 272.462 246.844C272.462 246.356 272.358 245.928 272.15 245.56C271.942 245.192 271.662 244.904 271.31 244.696C270.958 244.488 270.558 244.384 270.11 244.384C269.662 244.384 269.258 244.488 268.898 244.696C268.546 244.904 268.266 245.192 268.058 245.56C267.858 245.928 267.758 246.356 267.758 246.844C267.758 247.332 267.858 247.764 268.058 248.14C268.266 248.508 268.546 248.796 268.898 249.004C269.258 249.204 269.662 249.304 270.11 249.304ZM277.655 250.06C277.119 250.06 276.651 249.96 276.251 249.76C275.851 249.56 275.539 249.26 275.315 248.86C275.099 248.46 274.991 247.96 274.991 247.36V243.7H275.843V247.264C275.843 247.936 276.007 248.444 276.335 248.788C276.671 249.124 277.139 249.292 277.739 249.292C278.179 249.292 278.559 249.204 278.879 249.028C279.207 248.844 279.455 248.58 279.623 248.236C279.799 247.892 279.887 247.48 279.887 247V243.7H280.739V250H279.923V248.272L280.055 248.584C279.855 249.048 279.543 249.412 279.119 249.676C278.703 249.932 278.215 250.06 277.655 250.06ZM285.106 250.06C284.514 250.06 284.058 249.9 283.738 249.58C283.418 249.26 283.258 248.808 283.258 248.224V242.308H284.11V248.176C284.11 248.544 284.202 248.828 284.386 249.028C284.578 249.228 284.85 249.328 285.202 249.328C285.578 249.328 285.89 249.22 286.138 249.004L286.438 249.616C286.27 249.768 286.066 249.88 285.826 249.952C285.594 250.024 285.354 250.06 285.106 250.06ZM282.13 244.408V243.7H286.03V244.408H282.13Z" fill="#1E293B"/>
<rect x="20" y="272" width="277" height="32" rx="5" fill="#475569"/>
<path d="M31.368 292V283.6H32.256V292H31.368ZM38.0251 285.64C38.5371 285.64 38.9851 285.74 39.3691 285.94C39.7611 286.132 40.0651 286.428 40.2811 286.828C40.5051 287.228 40.6171 287.732 40.6171 288.34V292H39.7651V288.424C39.7651 287.76 39.5971 287.26 39.2611 286.924C38.9331 286.58 38.4691 286.408 37.8691 286.408C37.4211 286.408 37.0291 286.5 36.6931 286.684C36.3651 286.86 36.1091 287.12 35.9251 287.464C35.7491 287.8 35.6611 288.208 35.6611 288.688V292H34.8091V285.7H35.6251V287.428L35.4931 287.104C35.6931 286.648 36.0131 286.292 36.4531 286.036C36.8931 285.772 37.4171 285.64 38.0251 285.64ZM46.1705 292.06C45.6265 292.06 45.1345 291.936 44.6945 291.688C44.2545 291.432 43.9025 291.068 43.6385 290.596C43.3825 290.116 43.2545 289.532 43.2545 288.844C43.2545 288.156 43.3825 287.576 43.6385 287.104C43.8945 286.624 44.2425 286.26 44.6825 286.012C45.1225 285.764 45.6185 285.64 46.1705 285.64C46.7705 285.64 47.3065 285.776 47.7785 286.048C48.2585 286.312 48.6345 286.688 48.9065 287.176C49.1785 287.656 49.3145 288.212 49.3145 288.844C49.3145 289.484 49.1785 290.044 48.9065 290.524C48.6345 291.004 48.2585 291.38 47.7785 291.652C47.3065 291.924 46.7705 292.06 46.1705 292.06ZM42.9185 294.328V285.7H43.7345V287.596L43.6505 288.856L43.7705 290.128V294.328H42.9185ZM46.1105 291.304C46.5585 291.304 46.9585 291.204 47.3105 291.004C47.6625 290.796 47.9425 290.508 48.1505 290.14C48.3585 289.764 48.4625 289.332 48.4625 288.844C48.4625 288.356 48.3585 287.928 48.1505 287.56C47.9425 287.192 47.6625 286.904 47.3105 286.696C46.9585 286.488 46.5585 286.384 46.1105 286.384C45.6625 286.384 45.2585 286.488 44.8985 286.696C44.5465 286.904 44.2665 287.192 44.0585 287.56C43.8585 287.928 43.7585 288.356 43.7585 288.844C43.7585 289.332 43.8585 289.764 44.0585 290.14C44.2665 290.508 44.5465 290.796 44.8985 291.004C45.2585 291.204 45.6625 291.304 46.1105 291.304ZM53.6553 292.06C53.1193 292.06 52.6513 291.96 52.2513 291.76C51.8513 291.56 51.5393 291.26 51.3153 290.86C51.0993 290.46 50.9913 289.96 50.9913 289.36V285.7H51.8433V289.264C51.8433 289.936 52.0073 290.444 52.3353 290.788C52.6713 291.124 53.1393 291.292 53.7393 291.292C54.1793 291.292 54.5593 291.204 54.8793 291.028C55.2073 290.844 55.4553 290.58 55.6233 290.236C55.7993 289.892 55.8873 289.48 55.8873 289V285.7H56.7393V292H55.9233V290.272L56.0553 290.584C55.8553 291.048 55.5433 291.412 55.1193 291.676C54.7033 291.932 54.2153 292.06 53.6553 292.06ZM61.1058 292.06C60.5138 292.06 60.0578 291.9 59.7378 291.58C59.4178 291.26 59.2578 290.808 59.2578 290.224V284.308H60.1098V290.176C60.1098 290.544 60.2018 290.828 60.3858 291.028C60.5778 291.228 60.8498 291.328 61.2018 291.328C61.5778 291.328 61.8898 291.22 62.1378 291.004L62.4378 291.616C62.2698 291.768 62.0658 291.88 61.8258 291.952C61.5938 292.024 61.3538 292.06 61.1058 292.06ZM58.1298 286.408V285.7H62.0298V286.408H58.1298Z" fill="#FFDF63"/>
<rect x="20" y="314" width="277" height="32" rx="5" fill="#475569"/>
<path d="M255.368 334V325.6H256.256V334H255.368ZM262.025 327.64C262.537 327.64 262.985 327.74 263.369 327.94C263.761 328.132 264.065 328.428 264.281 328.828C264.505 329.228 264.617 329.732 264.617 330.34V334H263.765V330.424C263.765 329.76 263.597 329.26 263.261 328.924C262.933 328.58 262.469 328.408 261.869 328.408C261.421 328.408 261.029 328.5 260.693 328.684C260.365 328.86 260.109 329.12 259.925 329.464C259.749 329.8 259.661 330.208 259.661 330.688V334H258.809V327.7H259.625V329.428L259.493 329.104C259.693 328.648 260.013 328.292 260.453 328.036C260.893 327.772 261.417 327.64 262.025 327.64ZM270.17 334.06C269.626 334.06 269.134 333.936 268.694 333.688C268.254 333.432 267.902 333.068 267.638 332.596C267.382 332.116 267.254 331.532 267.254 330.844C267.254 330.156 267.382 329.576 267.638 329.104C267.894 328.624 268.242 328.26 268.682 328.012C269.122 327.764 269.618 327.64 270.17 327.64C270.77 327.64 271.306 327.776 271.778 328.048C272.258 328.312 272.634 328.688 272.906 329.176C273.178 329.656 273.314 330.212 273.314 330.844C273.314 331.484 273.178 332.044 272.906 332.524C272.634 333.004 272.258 333.38 271.778 333.652C271.306 333.924 270.77 334.06 270.17 334.06ZM266.918 336.328V327.7H267.734V329.596L267.65 330.856L267.77 332.128V336.328H266.918ZM270.11 333.304C270.558 333.304 270.958 333.204 271.31 333.004C271.662 332.796 271.942 332.508 272.15 332.14C272.358 331.764 272.462 331.332 272.462 330.844C272.462 330.356 272.358 329.928 272.15 329.56C271.942 329.192 271.662 328.904 271.31 328.696C270.958 328.488 270.558 328.384 270.11 328.384C269.662 328.384 269.258 328.488 268.898 328.696C268.546 328.904 268.266 329.192 268.058 329.56C267.858 329.928 267.758 330.356 267.758 330.844C267.758 331.332 267.858 331.764 268.058 332.14C268.266 332.508 268.546 332.796 268.898 333.004C269.258 333.204 269.662 333.304 270.11 333.304ZM277.655 334.06C277.119 334.06 276.651 333.96 276.251 333.76C275.851 333.56 275.539 333.26 275.315 332.86C275.099 332.46 274.991 331.96 274.991 331.36V327.7H275.843V331.264C275.843 331.936 276.007 332.444 276.335 332.788C276.671 333.124 277.139 333.292 277.739 333.292C278.179 333.292 278.559 333.204 278.879 333.028C279.207 332.844 279.455 332.58 279.623 332.236C279.799 331.892 279.887 331.48 279.887 331V327.7H280.739V334H279.923V332.272L280.055 332.584C279.855 333.048 279.543 333.412 279.119 333.676C278.703 333.932 278.215 334.06 277.655 334.06ZM285.106 334.06C284.514 334.06 284.058 333.9 283.738 333.58C283.418 333.26 283.258 332.808 283.258 332.224V326.308H284.11V332.176C284.11 332.544 284.202 332.828 284.386 333.028C284.578 333.228 284.85 333.328 285.202 333.328C285.578 333.328 285.89 333.22 286.138 333.004L286.438 333.616C286.27 333.768 286.066 333.88 285.826 333.952C285.594 334.024 285.354 334.06 285.106 334.06ZM282.13 328.408V327.7H286.03V328.408H282.13Z" fill="#FFDF63"/>
</svg>
