<svg width="73" height="124" viewBox="0 0 73 124" fill="none" xmlns="http://www.w3.org/2000/svg">
<rect x="0.5" y="0.5" width="72" height="123" rx="4.5" stroke="#9747FF" stroke-dasharray="10 5"/>
<path d="M20 20H48C50.7614 20 53 22.2386 53 25V47C53 49.7614 50.7614 52 48 52H20V20Z" fill="#94A3B8"/>
<path d="M27.792 40.06C27.256 40.06 26.788 39.96 26.388 39.76C25.988 39.56 25.676 39.26 25.452 38.86C25.236 38.46 25.128 37.96 25.128 37.36V33.7H25.98V37.264C25.98 37.936 26.144 38.444 26.472 38.788C26.808 39.124 27.276 39.292 27.876 39.292C28.316 39.292 28.696 39.204 29.016 39.028C29.344 38.844 29.592 38.58 29.76 38.236C29.936 37.892 30.024 37.48 30.024 37V33.7H30.876V40H30.06V38.272L30.192 38.584C29.992 39.048 29.68 39.412 29.256 39.676C28.84 39.932 28.352 40.06 27.792 40.06ZM36.4665 33.64C36.9785 33.64 37.4265 33.74 37.8105 33.94C38.2025 34.132 38.5065 34.428 38.7225 34.828C38.9465 35.228 39.0585 35.732 39.0585 36.34V40H38.2065V36.424C38.2065 35.76 38.0385 35.26 37.7025 34.924C37.3745 34.58 36.9105 34.408 36.3105 34.408C35.8625 34.408 35.4705 34.5 35.1345 34.684C34.8065 34.86 34.5505 35.12 34.3665 35.464C34.1905 35.8 34.1025 36.208 34.1025 36.688V40H33.2505V33.7H34.0665V35.428L33.9345 35.104C34.1345 34.648 34.4545 34.292 34.8945 34.036C35.3345 33.772 35.8585 33.64 36.4665 33.64ZM41.3599 40V33.7H42.2119V40H41.3599ZM41.7919 32.308C41.6159 32.308 41.4679 32.248 41.3479 32.128C41.2279 32.008 41.1679 31.864 41.1679 31.696C41.1679 31.528 41.2279 31.388 41.3479 31.276C41.4679 31.156 41.6159 31.096 41.7919 31.096C41.9679 31.096 42.1159 31.152 42.2359 31.264C42.3559 31.376 42.4159 31.516 42.4159 31.684C42.4159 31.86 42.3559 32.008 42.2359 32.128C42.1239 32.248 41.9759 32.308 41.7919 32.308ZM46.5745 40.06C45.9825 40.06 45.5265 39.9 45.2065 39.58C44.8865 39.26 44.7265 38.808 44.7265 38.224V32.308H45.5785V38.176C45.5785 38.544 45.6705 38.828 45.8545 39.028C46.0465 39.228 46.3185 39.328 46.6705 39.328C47.0465 39.328 47.3585 39.22 47.6065 39.004L47.9065 39.616C47.7385 39.768 47.5345 39.88 47.2945 39.952C47.0625 40.024 46.8225 40.06 46.5745 40.06ZM43.5985 34.408V33.7H47.4985V34.408H43.5985Z" fill="#334155"/>
<path d="M20 72H48C50.7614 72 53 74.2386 53 77V99C53 101.761 50.7614 104 48 104H20V72Z" fill="#334155"/>
<path d="M27.792 92.06C27.256 92.06 26.788 91.96 26.388 91.76C25.988 91.56 25.676 91.26 25.452 90.86C25.236 90.46 25.128 89.96 25.128 89.36V85.7H25.98V89.264C25.98 89.936 26.144 90.444 26.472 90.788C26.808 91.124 27.276 91.292 27.876 91.292C28.316 91.292 28.696 91.204 29.016 91.028C29.344 90.844 29.592 90.58 29.76 90.236C29.936 89.892 30.024 89.48 30.024 89V85.7H30.876V92H30.06V90.272L30.192 90.584C29.992 91.048 29.68 91.412 29.256 91.676C28.84 91.932 28.352 92.06 27.792 92.06ZM36.4665 85.64C36.9785 85.64 37.4265 85.74 37.8105 85.94C38.2025 86.132 38.5065 86.428 38.7225 86.828C38.9465 87.228 39.0585 87.732 39.0585 88.34V92H38.2065V88.424C38.2065 87.76 38.0385 87.26 37.7025 86.924C37.3745 86.58 36.9105 86.408 36.3105 86.408C35.8625 86.408 35.4705 86.5 35.1345 86.684C34.8065 86.86 34.5505 87.12 34.3665 87.464C34.1905 87.8 34.1025 88.208 34.1025 88.688V92H33.2505V85.7H34.0665V87.428L33.9345 87.104C34.1345 86.648 34.4545 86.292 34.8945 86.036C35.3345 85.772 35.8585 85.64 36.4665 85.64ZM41.3599 92V85.7H42.2119V92H41.3599ZM41.7919 84.308C41.6159 84.308 41.4679 84.248 41.3479 84.128C41.2279 84.008 41.1679 83.864 41.1679 83.696C41.1679 83.528 41.2279 83.388 41.3479 83.276C41.4679 83.156 41.6159 83.096 41.7919 83.096C41.9679 83.096 42.1159 83.152 42.2359 83.264C42.3559 83.376 42.4159 83.516 42.4159 83.684C42.4159 83.86 42.3559 84.008 42.2359 84.128C42.1239 84.248 41.9759 84.308 41.7919 84.308ZM46.5745 92.06C45.9825 92.06 45.5265 91.9 45.2065 91.58C44.8865 91.26 44.7265 90.808 44.7265 90.224V84.308H45.5785V90.176C45.5785 90.544 45.6705 90.828 45.8545 91.028C46.0465 91.228 46.3185 91.328 46.6705 91.328C47.0465 91.328 47.3585 91.22 47.6065 91.004L47.9065 91.616C47.7385 91.768 47.5345 91.88 47.2945 91.952C47.0625 92.024 46.8225 92.06 46.5745 92.06ZM43.5985 86.408V85.7H47.4985V86.408H43.5985Z" fill="#F9FAFB"/>
</svg>
