<svg width="607" height="788" viewBox="0 0 607 788" fill="none" xmlns="http://www.w3.org/2000/svg">
<rect x="0.5" y="0.5" width="606" height="787" rx="4.5" stroke="#9747FF" stroke-dasharray="10 5"/>
<path d="M157.2 165.8C157.2 159.8 152.8 156.1 145.6 156.1H134.8V183.9H138.8V175.4H145.6C146.2 175.4 146.8 175.4 147.3 175.3L153.3 183.8H157.6L151 174.5C154.9 173.2 157.2 170.1 157.2 165.8ZM145.5 172.1H138.8V159.6H145.5C150.6 159.6 153.2 161.9 153.2 165.8C153.2 169.8 150.6 172.1 145.5 172.1Z" fill="#868F93"/>
<path d="M75.7001 156.1H64.1001V183.9H75.8001C84.7001 183.9 90.8001 178.3 90.8001 170C90.7001 161.8 84.6001 156.1 75.7001 156.1ZM75.5001 180.5H68.0001V159.6H75.5001C82.3001 159.6 86.7001 163.8 86.7001 170C86.7001 176.2 82.3001 180.5 75.5001 180.5Z" fill="#868F93"/>
<path d="M261.2 166C263.5 166 265.5 167 266.9 169L269.8 167.1C268.1 164.2 265 162.6 261.3 162.6C254.9 162.6 250.2 167 250.2 173.3C250.2 179.6 254.8 184.1 261.3 184.1C265.1 184.1 268.2 182.5 269.8 179.6L266.9 177.8C265.6 179.9 263.5 180.8 261.2 180.8C257.1 180.8 254 177.9 254 173.4C254 168.9 257.1 166 261.2 166Z" fill="#868F93"/>
<path d="M285.7 162.7C282.3 162.7 279.2 163.7 277 165.4L278.6 168.3C280.2 166.9 282.8 166 285.3 166C289.1 166 290.9 167.9 290.9 171.1V171.9H284.9C278.6 171.9 276.5 174.7 276.5 178.1C276.5 181.8 279.5 184.3 284.3 184.3C287.6 184.3 289.9 183.2 291.2 181.3V184.1H294.8V171.4C294.7 165.4 291.4 162.7 285.7 162.7ZM290.9 177.5C290 179.9 287.7 181.2 284.8 181.2C281.9 181.2 280.2 179.9 280.2 177.8C280.2 176 281.3 174.5 285 174.5H290.9V177.5Z" fill="#868F93"/>
<path d="M316.3 162.7C313 162.7 310.3 163.9 308.7 166.1V162.9H305.1V183.9H308.9V173.1C308.9 168.5 311.5 166.1 315.5 166.1C319.1 166.1 321.2 168.1 321.2 172.3V183.9H325V171.8C325 165.6 321.4 162.7 316.3 162.7Z" fill="#868F93"/>
<path d="M51.5 162.9H47.7V183.9H51.5V162.9Z" fill="#868F93"/>
<path d="M49.6 153.9C48.1 153.9 47 155 47 156.4C47 157.8 48.1 158.9 49.6 158.9C51.1 158.9 52.2 157.8 52.2 156.4C52.2 154.9 51.1 153.9 49.6 153.9Z" fill="#868F93"/>
<path d="M24 180.5V156.1H20V183.9H39V180.5H24Z" fill="#868F93"/>
<path d="M230.7 168.8C230.7 167.1 232.3 165.9 235.6 165.9C237.7 165.9 239.8 166.3 241.7 167.6L243.3 164.6C241.5 163.4 238.4 162.7 235.7 162.7C230.3 162.7 227 165.2 227 169C227 177.4 240.3 173.3 240.3 178C240.3 179.8 238.8 180.9 235.3 180.9C232.6 180.9 229.7 180 227.9 178.7L226.3 181.7C228 183.1 231.5 184.2 235 184.2C240.6 184.2 244.1 181.8 244.1 178C244 169.7 230.7 173.8 230.7 168.8Z" fill="#868F93"/>
<path d="M109.4 156.1L96.8999 183.9H101L104 177H118.7L121.7 183.9H125.9L113.3 156.1H109.4ZM105.4 173.8L111.4 160.2L117.4 173.8H105.4Z" fill="#868F93"/>
<path d="M418.5 173.7C418.5 178.2 416 180.7 412 180.7C408.4 180.7 406.3 178.6 406.3 174.5V162.9H402.5V175C402.5 181.2 406.1 184.2 411.5 184.2C414.5 184.2 417.1 183 418.6 180.8V184H422.2V163H418.4V173.7H418.5Z" fill="#868F93"/>
<path d="M466.8 162.9H463.2L470.9 183.9H474.6L480.7 167.9L486.8 183.9H490.4L498.3 162.9H494.9L488.6 179.7L482.4 162.9H479.2L472.9 179.6L466.8 162.9Z" fill="#868F93"/>
<path d="M436.6 166.4V162.9H433V183.9H436.8V173.4C436.8 168.8 439.3 166.3 443.4 166.3C443.7 166.3 444 166.3 444.3 166.3V162.6C440.5 162.7 437.9 163.9 436.6 166.4Z" fill="#868F93"/>
<path d="M383.3 162.7C377 162.7 372.4 167.1 372.4 173.4C372.4 179.7 377 184.2 383.3 184.2C389.6 184.2 394.2 179.7 394.2 173.4C394.1 167.1 389.6 162.7 383.3 162.7ZM383.3 180.8C379.3 180.8 376.2 177.9 376.2 173.4C376.2 168.9 379.2 166 383.3 166C387.3 166 390.3 168.9 390.3 173.4C390.3 177.9 387.3 180.8 383.3 180.8Z" fill="#868F93"/>
<path d="M513.8 162.7C507.5 162.7 502.9 167.1 502.9 173.4C502.9 179.7 507.5 184.2 513.8 184.2C520.1 184.2 524.7 179.7 524.7 173.4C524.7 167.1 520.1 162.7 513.8 162.7ZM513.8 180.8C509.8 180.8 506.7 177.9 506.7 173.4C506.7 168.9 509.7 166 513.8 166C517.8 166 520.8 168.9 520.8 173.4C520.9 177.9 517.9 180.8 513.8 180.8Z" fill="#868F93"/>
<path d="M583 154.4V166C581.3 163.7 578.6 162.6 575.7 162.6C569.6 162.6 565.1 166.9 565.1 173.3C565.1 179.7 569.6 184.1 575.7 184.1C578.8 184.1 581.5 182.9 583.2 180.5V183.8H586.8V154.3H583V154.4ZM576 180.8C572 180.8 568.9 177.9 568.9 173.4C568.9 168.9 571.9 166 576 166C580 166 583 168.9 583 173.4C583.1 177.9 580 180.8 576 180.8Z" fill="#868F93"/>
<path d="M556.5 154.4H552.7V183.9H556.5V154.4Z" fill="#868F93"/>
<path d="M537 166.4V162.9H533.4V183.9H537.2V173.4C537.2 168.8 539.7 166.3 543.8 166.3C544.1 166.3 544.4 166.3 544.7 166.3V162.6C540.9 162.7 538.3 163.9 537 166.4Z" fill="#868F93"/>
<path d="M357 179.7L349.7 162.9H345.7L355 183.9L354.3 185.4C353.3 187.8 352.1 188.7 350.3 188.7C348.9 188.7 347.6 188.1 346.5 187.2L344.9 190.1C346.2 191.4 348.3 192 350.3 192C353.5 192 355.9 190.6 357.8 186.2L368 163.1H364.3L357 179.7Z" fill="#868F93"/>
<path d="M179.4 187.6L214.4 152.6H210.4L175.5 187.6H179.4Z" fill="#868F93"/>
<path d="M389.1 23.5C387.3 22.4 385.6 21.8 383.3 21.2C380.6 20.4 377.8 20 375 20C368.3 20 363 22.5 359.1 27.5C355.2 32.5 353.2 39.4 353.2 48.2V49.1C353.2 49.1 353.2 49.7 352.6 49.7H344.1C344.1 49.7 343.5 49.7 343.5 50.3V58.6C343.5 58.6 343.5 59.2 344.1 59.2H352.7C352.7 59.2 353.3 59.2 353.3 59.8V120.5C353.3 120.5 353.3 121.1 353.9 121.1H364.8C364.8 121.1 365.4 121.1 365.4 120.5V59.8C365.4 59.8 365.4 59.2 366 59.2H383.8C383.8 59.2 384.4 59.2 384.4 58.6V50.3C384.4 50.3 384.4 49.7 383.8 49.7H365.4V47.8C365.4 42.1 366.4 37.7 368.5 34.7C370.6 31.7 373.6 30.2 377.6 30.2C379.4 30.2 380.9 30.4 382.7 30.9C382.7 30.9 382.9 30.9 383 30.9C383.1 30.9 383.2 30.8 383.2 30.7C384.3 29.6 389.6 24.3 389.6 24.3C389.7 24.2 389.8 24.1 389.7 23.9C389.5 23.7 389.2 23.5 389.1 23.5Z" fill="#30383B"/>
<path d="M162.3 49.7H151.4C151.4 49.7 150.8 49.6999 150.8 50.2999V120.4C150.8 120.4 150.8 121 151.4 121H162.3C162.3 121 162.9 121 162.9 120.4V50.2999C162.8 50.2999 162.8 49.7 162.3 49.7Z" fill="#30383B"/>
<path d="M248.5 104.2C248.5 104.2 248.3 104.1 238 101.1C238 101.1 237.5 100.9 237.3 101.5C236.9 102.5 236 104 234.8 105.3C233.5 106.6 232.1 107.8 230.4 108.8C228.7 109.8 226.9 110.6 224.8 111.2C222.8 111.8 220.7 112.1 218.6 112.1C215.3 112.1 212.3 111.4 209.4 110.1C206.5 108.7 204 106.8 201.9 104.4C199.8 102 198.1 99.0999 196.8 95.8999C195.5 92.5999 194.9 89.0999 194.9 85.3999C194.9 81.5999 195.5 78.0999 196.7 74.8999C197.9 71.6999 199.6 68.8999 201.7 66.5999C203.8 64.1999 206.3 62.3999 209.2 61.0999C212.1 59.7999 215.2 59.0999 218.5 59.0999C222.5 59.0999 226.1 59.9999 229.4 61.8999C232.7 63.7999 235.1 66.1 236.9 69.5C236.9 69.5 237.1 69.6999 237.3 69.6999C237.9 69.4999 240 68.8 248.3 66.2C248.3 66.2 248.8 66 248.6 65.5C246.2 60.7 242.3 56.4999 237.2 53.3999C232.1 50.2999 226 48.7 218.9 48.7C213.4 48.7 208.5 49.6999 204.1 51.5999C199.7 53.5999 195.9 56.2 192.7 59.5C189.5 62.8 187.1 66.6999 185.3 71.1999C183.6 75.6999 182.7 80.3999 182.7 85.3999C182.7 90.3999 183.6 95.1999 185.4 99.6999C187.2 104.2 189.6 108.1 192.8 111.5C196 114.9 199.8 117.6 204.3 119.6C208.8 121.6 213.7 122.6 219 122.6C222.5 122.6 225.9 122.1 229.2 121.2C232.4 120.3 235.4 119.1 238 117.5C240.6 116 242.9 114.1 244.9 111.9C246.7 109.8 248.2 107.6 249.3 105.1C249.1 104.8 249.2 104.4 248.5 104.2Z" fill="#30383B"/>
<path d="M456.8 59.5C453.7 56.2 450 53.5 445.6 51.5C441.2 49.5 436.3 48.5 430.9 48.5C425.5 48.5 420.6 49.5 416.2 51.4C411.7 53.4 407.9 56 404.7 59.4C401.5 62.8 399 66.7 397.2 71.1C395.4 75.6 394.5 80.3 394.5 85.3C394.5 90.3 395.4 95.1 397.2 99.6C399 104.1 401.4 108 404.6 111.4C407.8 114.8 411.6 117.4 416.1 119.4C420.6 121.4 425.5 122.3 430.8 122.3C434.3 122.3 437.8 121.8 441 120.9C444.3 120 447.2 118.7 449.9 117.1C452.6 115.5 454.9 113.6 457 111.4C459 109.2 460.5 107.1 461.7 104.5C461.7 104.5 461.9 104.2 461.4 104C460.6 103.8 458.3 103.1 452.1 101.4C452.1 101.4 451.6 101.3 451.4 101.8C450.9 103.1 449.8 104.7 448.4 106.2C447 107.7 445.4 108.9 443.6 109.9C441.8 110.9 439.8 111.7 437.7 112.3C435.6 112.9 433.5 113.2 431.3 113.2C428.2 113.2 425.3 112.6 422.5 111.4C419.7 110.2 417.2 108.6 415.1 106.5C412.9 104.4 411.1 101.9 409.8 99C408.4 96.1 407.6 92.9 407.3 89.3H465.8C465.8 89.3 466.4 89.3 466.4 89.1C466.4 88.9 466.5 88.2 466.6 87.4C466.6 86.6 466.7 85.7 466.7 84.7C466.7 80 465.9 75.4 464.2 71C462.3 66.7 459.9 62.8 456.8 59.5ZM407.5 80.6C407.5 80.6 406.9 80.6 407 80C407.2 77.2 408 74.1 409.3 71.3C410.6 68.5 412.3 66 414.5 64C416.6 62 419.1 60.4 421.9 59.2C424.7 58.1 427.7 57.5 430.9 57.5C434.1 57.5 437.1 58.1 439.9 59.2C442.7 60.3 445.2 61.9 447.3 63.9C449.4 65.9 451.2 68.3 452.6 71.2C454 74.1 454.8 77.2 455.1 80.5H407.5V80.6Z" fill="#30383B"/>
<path d="M127.3 23.4001C127.3 23.4001 127.3 22.8 126.7 22.8H125.8L116.4 32.2001L115.6 33.1001C115.6 33.1001 115.3 33.3001 115.3 34.1001V120.5C115.3 120.5 115.3 121.1 115.9 121.1H126.8C126.8 121.1 127.4 121.1 127.4 120.5V23.9001V23.4001H127.3Z" fill="#30383B"/>
<path d="M76.8 71.5001C76.8 71.5001 76.3 71.3001 76.8 71.1001C80.7 69.3001 84.2 66.3001 86.6 62.2001C89 58.1001 90.2 53.6001 90.2 48.8001C90.2 45.8001 89.7 42.8001 88.6 39.9001C87.6 36.9001 86.1 34.3001 84.2 32.0001C82.3 29.7001 80 27.8001 77.2 26.3001C76.3 25.8001 75.3 25.4001 74.3 25.1001C74.2 25.1001 74.1 25.1001 74 25.1001C73.9 25.1001 73.8 25.3001 73.8 25.3001L64.5 34.6001C64.5 34.6001 64.4 34.7001 64.4 34.8001C64.4 34.9001 64.5 34.9001 64.5 34.9001C66.6 35.1001 67.9 35.3001 69.6 36.1001C71.4 36.9001 72.9 38.1001 74.1 39.5001C75.3 41.0001 76.3 42.7001 77 44.7001C77.7 46.7001 78.1 48.8001 78.1 51.1001C78.1 53.3001 77.7 55.4001 76.9 57.3001C76.1 59.3001 75.1 61.0001 73.8 62.4001C72.5 63.9001 70.9 65.0001 69.1 65.9001C67.3 66.8001 65.3 67.2001 63.1 67.2001H32.5C32.5 67.2001 32.2 67.2001 32 67.3001C31.8 67.4001 31.7 67.5001 31.7 67.5001L20.3 78.9001C20.3 78.9001 20.1 79.1001 20.1 79.3001C20 79.4001 20 79.6001 20 79.6001V120.6C20 120.6 20 121.2 20.6 121.2H66C69.9 121.2 73.6 120.6 77 119.4C80.4 118.2 83.4 116.5 86 114.3C88.6 112.1 90.6 109.5 92.1 106.4C93.6 103.3 94.3 99.9001 94.3 96.2001C94.3 90.2001 92.7 85.0001 89.5 80.6001C86.1 76.0001 81.8 72.9001 76.8 71.5001ZM80.6 100.1C79.8 102.1 78.6 103.9 77.2 105.4C75.7 106.9 74.1 108.1 72.2 109C70.3 109.9 68.2 110.4 65.9 110.4H32.8C32.8 110.4 32.2 110.4 32.2 109.8V77.6001C32.2 77.6001 32.2 77.0001 32.8 77.0001H66.9C69.1 77.0001 71.1 77.5001 72.9 78.4001C74.7 79.3001 76.3 80.5001 77.6 82.1001C78.9 83.6001 80 85.4001 80.7 87.5001C81.5 89.5001 81.9 91.7001 81.9 93.8001C81.8 96.0001 81.4 98.1001 80.6 100.1Z" fill="#30383B"/>
<path d="M298.6 79.8C298.6 79.8 298.3 79.3001 298.7 78.9001L326.3 50.2001C326.3 50.2001 326.7 49.8 326.1 49.8H314.1C314.1 49.8 313.8 49.8001 313.6 49.9001C313.4 50.0001 313.2 50.1001 313.2 50.1001L313.1 50.2001L312.9 50.4001L268.8 94.5001L265.3 98.0001C265.3 98.0001 265 98.4001 264.9 98.5001C264.8 98.6001 264.8 98.7001 264.8 99.0001C264.8 99.2001 264.8 120.3 264.8 120.3C264.8 120.3 264.8 120.9 265.4 120.9H276.3C276.3 120.9 276.9 120.9 276.9 120.3V99.4001C276.9 99.4001 276.9 98.8001 277.3 98.5001L290.1 86.4001C290.1 86.4001 290.5 86.0001 290.8 86.5001L314.7 120.4C314.7 120.4 315 120.9 315.6 120.9H327.4C327.4 120.9 328 120.9 327.6 120.4L298.6 79.8Z" fill="#30383B"/>
<path d="M495.2 22.9001L495.3 22.8H495.2V22.9001Z" fill="#30383B"/>
<path d="M496.8 23.6C496.8 23.6 496.8 23 496.2 23H495.3L485.9 32.4L485.1 33.3C485.1 33.3 484.8 33.5 484.8 34.3V120.7C484.8 120.7 484.8 121.3 485.4 121.3H496.3C496.3 121.3 496.9 121.3 496.9 120.7V24.1V23.6H496.8Z" fill="#30383B"/>
<path d="M586.8 24.1V23.6C586.8 23.6 586.8 23 586.2 23H585.3L575.9 32.4L575.1 33.3C575.1 33.3 575 33.4 574.9 33.7C574.9 33.8 574.8 34 574.8 34.3V58.9C574.8 59.2 574.5 59.1 574.4 58.9C569.3 54.2 563 50.9 555.9 49.6C555.7 49.6 555.5 49.6 555.4 49.6C555.1 49.7 555 49.8 555 49.8L546.1 58.7C546.1 58.7 545.5 59.3 545.7 59.2C545.8 59.2 545.9 59.2 546 59.1C547.3 58.9 548.6 58.7 550 58.7C563.6 58.7 574.6 70.2 574.9 84.6V85.7C574.6 100 563.6 111.6 550 111.6C536.2 111.6 525.1 99.8 525.1 85.2C525.1 83.2 525.4 81.4 525.8 79.6C525.9 79.4 525.9 79.2 525.9 79.1C525.9 78.9 525.4 79.4 525.4 79.4L514.9 89.9C514.9 89.9 514.6 90.2 514.5 90.5C514.4 90.8 514.5 91.2 514.5 91.5C517.5 108.5 532.2 121.4 550 121.4C559.5 121.4 568 117.7 574.5 111.8C574.6 111.7 574.9 111.3 574.9 111.9V120.5C574.9 120.5 574.9 121.1 575.5 121.1H586.4C586.4 121.1 587 121.1 587 120.5L586.8 24.1Z" fill="#30383B"/>
<path d="M157.2 357.8C157.2 351.8 152.8 348.1 145.6 348.1H134.8V375.9H138.8V367.4H145.6C146.2 367.4 146.8 367.4 147.3 367.3L153.3 375.8H157.6L151 366.5C154.9 365.2 157.2 362.1 157.2 357.8ZM145.5 364.1H138.8V351.6H145.5C150.6 351.6 153.2 353.9 153.2 357.8C153.2 361.8 150.6 364.1 145.5 364.1Z" fill="#868F93"/>
<path d="M75.7001 348.1H64.1001V375.9H75.8001C84.7001 375.9 90.8001 370.3 90.8001 362C90.7001 353.8 84.6001 348.1 75.7001 348.1ZM75.5001 372.5H68.0001V351.6H75.5001C82.3001 351.6 86.7001 355.8 86.7001 362C86.7001 368.2 82.3001 372.5 75.5001 372.5Z" fill="#868F93"/>
<path d="M261.2 358C263.5 358 265.5 359 266.9 361L269.8 359.1C268.1 356.2 265 354.6 261.3 354.6C254.9 354.6 250.2 359 250.2 365.3C250.2 371.6 254.8 376.1 261.3 376.1C265.1 376.1 268.2 374.5 269.8 371.6L266.9 369.8C265.6 371.9 263.5 372.8 261.2 372.8C257.1 372.8 254 369.9 254 365.4C254 360.9 257.1 358 261.2 358Z" fill="#868F93"/>
<path d="M285.7 354.7C282.3 354.7 279.2 355.7 277 357.4L278.6 360.3C280.2 358.9 282.8 358 285.3 358C289.1 358 290.9 359.9 290.9 363.1V363.9H284.9C278.6 363.9 276.5 366.7 276.5 370.1C276.5 373.8 279.5 376.3 284.3 376.3C287.6 376.3 289.9 375.2 291.2 373.3V376.1H294.8V363.4C294.7 357.4 291.4 354.7 285.7 354.7ZM290.9 369.5C290 371.9 287.7 373.2 284.8 373.2C281.9 373.2 280.2 371.9 280.2 369.8C280.2 368 281.3 366.5 285 366.5H290.9V369.5Z" fill="#868F93"/>
<path d="M316.3 354.7C313 354.7 310.3 355.9 308.7 358.1V354.9H305.1V375.9H308.9V365.1C308.9 360.5 311.5 358.1 315.5 358.1C319.1 358.1 321.2 360.1 321.2 364.3V375.9H325V363.8C325 357.6 321.4 354.7 316.3 354.7Z" fill="#868F93"/>
<path d="M51.5 354.9H47.7V375.9H51.5V354.9Z" fill="#868F93"/>
<path d="M49.6 345.9C48.1 345.9 47 347 47 348.4C47 349.8 48.1 350.9 49.6 350.9C51.1 350.9 52.2 349.8 52.2 348.4C52.2 346.9 51.1 345.9 49.6 345.9Z" fill="#868F93"/>
<path d="M24 372.5V348.1H20V375.9H39V372.5H24Z" fill="#868F93"/>
<path d="M230.7 360.8C230.7 359.1 232.3 357.9 235.6 357.9C237.7 357.9 239.8 358.3 241.7 359.6L243.3 356.6C241.5 355.4 238.4 354.7 235.7 354.7C230.3 354.7 227 357.2 227 361C227 369.4 240.3 365.3 240.3 370C240.3 371.8 238.8 372.9 235.3 372.9C232.6 372.9 229.7 372 227.9 370.7L226.3 373.7C228 375.1 231.5 376.2 235 376.2C240.6 376.2 244.1 373.8 244.1 370C244 361.7 230.7 365.8 230.7 360.8Z" fill="#868F93"/>
<path d="M109.4 348.1L96.8999 375.9H101L104 369H118.7L121.7 375.9H125.9L113.3 348.1H109.4ZM105.4 365.8L111.4 352.2L117.4 365.8H105.4Z" fill="#868F93"/>
<path d="M418.5 365.7C418.5 370.2 416 372.7 412 372.7C408.4 372.7 406.3 370.6 406.3 366.5V354.9H402.5V367C402.5 373.2 406.1 376.2 411.5 376.2C414.5 376.2 417.1 375 418.6 372.8V376H422.2V355H418.4V365.7H418.5Z" fill="#868F93"/>
<path d="M466.8 354.9H463.2L470.9 375.9H474.6L480.7 359.9L486.8 375.9H490.4L498.3 354.9H494.9L488.6 371.7L482.4 354.9H479.2L472.9 371.6L466.8 354.9Z" fill="#868F93"/>
<path d="M436.6 358.4V354.9H433V375.9H436.8V365.4C436.8 360.8 439.3 358.3 443.4 358.3C443.7 358.3 444 358.3 444.3 358.3V354.6C440.5 354.7 437.9 355.9 436.6 358.4Z" fill="#868F93"/>
<path d="M383.3 354.7C377 354.7 372.4 359.1 372.4 365.4C372.4 371.7 377 376.2 383.3 376.2C389.6 376.2 394.2 371.7 394.2 365.4C394.1 359.1 389.6 354.7 383.3 354.7ZM383.3 372.8C379.3 372.8 376.2 369.9 376.2 365.4C376.2 360.9 379.2 358 383.3 358C387.3 358 390.3 360.9 390.3 365.4C390.3 369.9 387.3 372.8 383.3 372.8Z" fill="#868F93"/>
<path d="M513.8 354.7C507.5 354.7 502.9 359.1 502.9 365.4C502.9 371.7 507.5 376.2 513.8 376.2C520.1 376.2 524.7 371.7 524.7 365.4C524.7 359.1 520.1 354.7 513.8 354.7ZM513.8 372.8C509.8 372.8 506.7 369.9 506.7 365.4C506.7 360.9 509.7 358 513.8 358C517.8 358 520.8 360.9 520.8 365.4C520.9 369.9 517.9 372.8 513.8 372.8Z" fill="#868F93"/>
<path d="M583 346.4V358C581.3 355.7 578.6 354.6 575.7 354.6C569.6 354.6 565.1 358.9 565.1 365.3C565.1 371.7 569.6 376.1 575.7 376.1C578.8 376.1 581.5 374.9 583.2 372.5V375.8H586.8V346.3H583V346.4ZM576 372.8C572 372.8 568.9 369.9 568.9 365.4C568.9 360.9 571.9 358 576 358C580 358 583 360.9 583 365.4C583.1 369.9 580 372.8 576 372.8Z" fill="#868F93"/>
<path d="M556.5 346.4H552.7V375.9H556.5V346.4Z" fill="#868F93"/>
<path d="M537 358.4V354.9H533.4V375.9H537.2V365.4C537.2 360.8 539.7 358.3 543.8 358.3C544.1 358.3 544.4 358.3 544.7 358.3V354.6C540.9 354.7 538.3 355.9 537 358.4Z" fill="#868F93"/>
<path d="M357 371.7L349.7 354.9H345.7L355 375.9L354.3 377.4C353.3 379.8 352.1 380.7 350.3 380.7C348.9 380.7 347.6 380.1 346.5 379.2L344.9 382.1C346.2 383.4 348.3 384 350.3 384C353.5 384 355.9 382.6 357.8 378.2L368 355.1H364.3L357 371.7Z" fill="#868F93"/>
<path d="M179.4 379.6L214.4 344.6H210.4L175.5 379.6H179.4Z" fill="#868F93"/>
<path d="M389.1 215.5C387.3 214.4 385.6 213.8 383.3 213.2C380.6 212.4 377.8 212 375 212C368.3 212 363 214.5 359.1 219.5C355.2 224.5 353.2 231.4 353.2 240.2V241.1C353.2 241.1 353.2 241.7 352.6 241.7H344.1C344.1 241.7 343.5 241.7 343.5 242.3V250.6C343.5 250.6 343.5 251.2 344.1 251.2H352.7C352.7 251.2 353.3 251.2 353.3 251.8V312.5C353.3 312.5 353.3 313.1 353.9 313.1H364.8C364.8 313.1 365.4 313.1 365.4 312.5V251.8C365.4 251.8 365.4 251.2 366 251.2H383.8C383.8 251.2 384.4 251.2 384.4 250.6V242.3C384.4 242.3 384.4 241.7 383.8 241.7H365.4V239.8C365.4 234.1 366.4 229.7 368.5 226.7C370.6 223.7 373.6 222.2 377.6 222.2C379.4 222.2 380.9 222.4 382.7 222.9C382.7 222.9 382.9 222.9 383 222.9C383.1 222.9 383.2 222.8 383.2 222.7C384.3 221.6 389.6 216.3 389.6 216.3C389.7 216.2 389.8 216.1 389.7 215.9C389.5 215.7 389.2 215.5 389.1 215.5Z" fill="#FFFFFE"/>
<path d="M162.3 241.7H151.4C151.4 241.7 150.8 241.7 150.8 242.3V312.4C150.8 312.4 150.8 313 151.4 313H162.3C162.3 313 162.9 313 162.9 312.4V242.3C162.8 242.3 162.8 241.7 162.3 241.7Z" fill="#FFFFFE"/>
<path d="M248.5 296.2C248.5 296.2 248.3 296.1 238 293.1C238 293.1 237.5 292.9 237.3 293.5C236.9 294.5 236 296 234.8 297.3C233.5 298.6 232.1 299.8 230.4 300.8C228.7 301.8 226.9 302.6 224.8 303.2C222.8 303.8 220.7 304.1 218.6 304.1C215.3 304.1 212.3 303.4 209.4 302.1C206.5 300.7 204 298.8 201.9 296.4C199.8 294 198.1 291.1 196.8 287.9C195.5 284.6 194.9 281.1 194.9 277.4C194.9 273.6 195.5 270.1 196.7 266.9C197.9 263.7 199.6 260.9 201.7 258.6C203.8 256.2 206.3 254.4 209.2 253.1C212.1 251.8 215.2 251.1 218.5 251.1C222.5 251.1 226.1 252 229.4 253.9C232.7 255.8 235.1 258.1 236.9 261.5C236.9 261.5 237.1 261.7 237.3 261.7C237.9 261.5 240 260.8 248.3 258.2C248.3 258.2 248.8 258 248.6 257.5C246.2 252.7 242.3 248.5 237.2 245.4C232.1 242.3 226 240.7 218.9 240.7C213.4 240.7 208.5 241.7 204.1 243.6C199.7 245.6 195.9 248.2 192.7 251.5C189.5 254.8 187.1 258.7 185.3 263.2C183.6 267.7 182.7 272.4 182.7 277.4C182.7 282.4 183.6 287.2 185.4 291.7C187.2 296.2 189.6 300.1 192.8 303.5C196 306.9 199.8 309.6 204.3 311.6C208.8 313.6 213.7 314.6 219 314.6C222.5 314.6 225.9 314.1 229.2 313.2C232.4 312.3 235.4 311.1 238 309.5C240.6 308 242.9 306.1 244.9 303.9C246.7 301.8 248.2 299.6 249.3 297.1C249.1 296.8 249.2 296.4 248.5 296.2Z" fill="#FFFFFE"/>
<path d="M456.8 251.5C453.7 248.2 450 245.5 445.6 243.5C441.2 241.5 436.3 240.5 430.9 240.5C425.5 240.5 420.6 241.5 416.2 243.4C411.7 245.4 407.9 248 404.7 251.4C401.5 254.8 399 258.7 397.2 263.1C395.4 267.6 394.5 272.3 394.5 277.3C394.5 282.3 395.4 287.1 397.2 291.6C399 296.1 401.4 300 404.6 303.4C407.8 306.8 411.6 309.4 416.1 311.4C420.6 313.4 425.5 314.3 430.8 314.3C434.3 314.3 437.8 313.8 441 312.9C444.3 312 447.2 310.7 449.9 309.1C452.6 307.5 454.9 305.6 457 303.4C459 301.2 460.5 299.1 461.7 296.5C461.7 296.5 461.9 296.2 461.4 296C460.6 295.8 458.3 295.1 452.1 293.4C452.1 293.4 451.6 293.3 451.4 293.8C450.9 295.1 449.8 296.7 448.4 298.2C447 299.7 445.4 300.9 443.6 301.9C441.8 302.9 439.8 303.7 437.7 304.3C435.6 304.9 433.5 305.2 431.3 305.2C428.2 305.2 425.3 304.6 422.5 303.4C419.7 302.2 417.2 300.6 415.1 298.5C412.9 296.4 411.1 293.9 409.8 291C408.4 288.1 407.6 284.9 407.3 281.3H465.8C465.8 281.3 466.4 281.3 466.4 281.1C466.4 280.9 466.5 280.2 466.6 279.4C466.6 278.6 466.7 277.7 466.7 276.7C466.7 272 465.9 267.4 464.2 263C462.3 258.7 459.9 254.8 456.8 251.5ZM407.5 272.6C407.5 272.6 406.9 272.6 407 272C407.2 269.2 408 266.1 409.3 263.3C410.6 260.5 412.3 258 414.5 256C416.6 254 419.1 252.4 421.9 251.2C424.7 250.1 427.7 249.5 430.9 249.5C434.1 249.5 437.1 250.1 439.9 251.2C442.7 252.3 445.2 253.9 447.3 255.9C449.4 257.9 451.2 260.3 452.6 263.2C454 266.1 454.8 269.2 455.1 272.5H407.5V272.6Z" fill="#FFFFFE"/>
<path d="M127.3 215.4C127.3 215.4 127.3 214.8 126.7 214.8H125.8L116.4 224.2L115.6 225.1C115.6 225.1 115.3 225.3 115.3 226.1V312.5C115.3 312.5 115.3 313.1 115.9 313.1H126.8C126.8 313.1 127.4 313.1 127.4 312.5V215.9V215.4H127.3Z" fill="#FFFFFE"/>
<path d="M76.8 263.5C76.8 263.5 76.3 263.3 76.8 263.1C80.7 261.3 84.2 258.3 86.6 254.2C89 250.1 90.2 245.6 90.2 240.8C90.2 237.8 89.7 234.8 88.6 231.9C87.6 228.9 86.1 226.3 84.2 224C82.3 221.7 80 219.8 77.2 218.3C76.3 217.8 75.3 217.4 74.3 217.1C74.2 217.1 74.1 217.1 74 217.1C73.9 217.1 73.8 217.3 73.8 217.3L64.5 226.6C64.5 226.6 64.4 226.7 64.4 226.8C64.4 226.9 64.5 226.9 64.5 226.9C66.6 227.1 67.9 227.3 69.6 228.1C71.4 228.9 72.9 230.1 74.1 231.5C75.3 233 76.3 234.7 77 236.7C77.7 238.7 78.1 240.8 78.1 243.1C78.1 245.3 77.7 247.4 76.9 249.3C76.1 251.3 75.1 253 73.8 254.4C72.5 255.9 70.9 257 69.1 257.9C67.3 258.8 65.3 259.2 63.1 259.2H32.5C32.5 259.2 32.2 259.2 32 259.3C31.8 259.4 31.7 259.5 31.7 259.5L20.3 270.9C20.3 270.9 20.1 271.1 20.1 271.3C20 271.4 20 271.6 20 271.6V312.6C20 312.6 20 313.2 20.6 313.2H66C69.9 313.2 73.6 312.6 77 311.4C80.4 310.2 83.4 308.5 86 306.3C88.6 304.1 90.6 301.5 92.1 298.4C93.6 295.3 94.3 291.9 94.3 288.2C94.3 282.2 92.7 277 89.5 272.6C86.1 268 81.8 264.9 76.8 263.5ZM80.6 292.1C79.8 294.1 78.6 295.9 77.2 297.4C75.7 298.9 74.1 300.1 72.2 301C70.3 301.9 68.2 302.4 65.9 302.4H32.8C32.8 302.4 32.2 302.4 32.2 301.8V269.6C32.2 269.6 32.2 269 32.8 269H66.9C69.1 269 71.1 269.5 72.9 270.4C74.7 271.3 76.3 272.5 77.6 274.1C78.9 275.6 80 277.4 80.7 279.5C81.5 281.5 81.9 283.7 81.9 285.8C81.8 288 81.4 290.1 80.6 292.1Z" fill="#FFFFFE"/>
<path d="M298.6 271.8C298.6 271.8 298.3 271.3 298.7 270.9L326.3 242.2C326.3 242.2 326.7 241.8 326.1 241.8H314.1C314.1 241.8 313.8 241.8 313.6 241.9C313.4 242 313.2 242.1 313.2 242.1L313.1 242.2L312.9 242.4L268.8 286.5L265.3 290C265.3 290 265 290.4 264.9 290.5C264.8 290.6 264.8 290.7 264.8 291C264.8 291.2 264.8 312.3 264.8 312.3C264.8 312.3 264.8 312.9 265.4 312.9H276.3C276.3 312.9 276.9 312.9 276.9 312.3V291.4C276.9 291.4 276.9 290.8 277.3 290.5L290.1 278.4C290.1 278.4 290.5 278 290.8 278.5L314.7 312.4C314.7 312.4 315 312.9 315.6 312.9H327.4C327.4 312.9 328 312.9 327.6 312.4L298.6 271.8Z" fill="#FFFFFE"/>
<path d="M495.2 214.9L495.3 214.8H495.2V214.9Z" fill="#FFFFFE"/>
<path d="M496.8 215.6C496.8 215.6 496.8 215 496.2 215H495.3L485.9 224.4L485.1 225.3C485.1 225.3 484.8 225.5 484.8 226.3V312.7C484.8 312.7 484.8 313.3 485.4 313.3H496.3C496.3 313.3 496.9 313.3 496.9 312.7V216.1V215.6H496.8Z" fill="#FFFFFE"/>
<path d="M586.8 216.1V215.6C586.8 215.6 586.8 215 586.2 215H585.3L575.9 224.4L575.1 225.3C575.1 225.3 575 225.4 574.9 225.7C574.9 225.8 574.8 226 574.8 226.3V250.9C574.8 251.2 574.5 251.1 574.4 250.9C569.3 246.2 563 242.9 555.9 241.6C555.7 241.6 555.5 241.6 555.4 241.6C555.1 241.7 555 241.8 555 241.8L546.1 250.7C546.1 250.7 545.5 251.3 545.7 251.2C545.8 251.2 545.9 251.2 546 251.1C547.3 250.9 548.6 250.7 550 250.7C563.6 250.7 574.6 262.2 574.9 276.6V277.7C574.6 292 563.6 303.6 550 303.6C536.2 303.6 525.1 291.8 525.1 277.2C525.1 275.2 525.4 273.4 525.8 271.6C525.9 271.4 525.9 271.2 525.9 271.1C525.9 270.9 525.4 271.4 525.4 271.4L514.9 281.9C514.9 281.9 514.6 282.2 514.5 282.5C514.4 282.8 514.5 283.2 514.5 283.5C517.5 300.5 532.2 313.4 550 313.4C559.5 313.4 568 309.7 574.5 303.8C574.6 303.7 574.9 303.3 574.9 303.9V312.5C574.9 312.5 574.9 313.1 575.5 313.1H586.4C586.4 313.1 587 313.1 587 312.5L586.8 216.1Z" fill="#FFFFFE"/>
<path d="M76.8 647.5C76.8 647.5 76.3 647.3 76.8 647.1C80.7 645.3 84.2 642.3 86.6 638.2C89 634.1 90.2 629.6 90.2 624.8C90.2 621.8 89.7 618.8 88.6 615.9C87.6 612.9 86.1 610.3 84.2 608C82.3 605.7 80 603.8 77.2 602.3C76.3 601.8 75.3 601.4 74.3 601.1C74.2 601.1 74.1 601.1 74 601.1C73.9 601.1 73.8 601.3 73.8 601.3L64.5 610.6C64.5 610.6 64.4 610.7 64.4 610.8C64.4 610.9 64.5 610.9 64.5 610.9C66.6 611.1 67.9 611.3 69.6 612.1C71.4 612.9 72.9 614.1 74.1 615.5C75.3 617 76.3 618.7 77 620.7C77.7 622.7 78.1 624.8 78.1 627.1C78.1 629.3 77.7 631.4 76.9 633.3C76.1 635.3 75.1 637 73.8 638.4C72.5 639.9 70.9 641 69.1 641.9C67.3 642.8 65.3 643.2 63.1 643.2H32.5C32.5 643.2 32.2 643.2 32 643.3C31.8 643.4 31.7 643.5 31.7 643.5L20.3 654.9C20.3 654.9 20.1 655.1 20.1 655.3C20 655.4 20 655.6 20 655.6V696.6C20 696.6 20 697.2 20.6 697.2H66C69.9 697.2 73.6 696.6 77 695.4C80.4 694.2 83.4 692.5 86 690.3C88.6 688.1 90.6 685.5 92.1 682.4C93.6 679.3 94.3 675.9 94.3 672.2C94.3 666.2 92.7 661 89.5 656.6C86.1 652 81.8 648.9 76.8 647.5ZM80.6 676.1C79.8 678.1 78.6 679.9 77.2 681.4C75.7 682.9 74.1 684.1 72.2 685C70.3 685.9 68.2 686.4 65.9 686.4H32.8C32.8 686.4 32.2 686.4 32.2 685.8V653.6C32.2 653.6 32.2 653 32.8 653H66.9C69.1 653 71.1 653.5 72.9 654.4C74.7 655.3 76.3 656.5 77.6 658.1C78.9 659.6 80 661.4 80.7 663.5C81.5 665.5 81.9 667.7 81.9 669.8C81.8 672 81.4 674.1 80.6 676.1Z" fill="#FFFFFE"/>
<path d="M76.8 455.5C76.8 455.5 76.3 455.3 76.8 455.1C80.7 453.3 84.2 450.3 86.6 446.2C89 442.1 90.2 437.6 90.2 432.8C90.2 429.8 89.7 426.8 88.6 423.9C87.6 420.9 86.1 418.3 84.2 416C82.3 413.7 80 411.8 77.2 410.3C76.3 409.8 75.3 409.4 74.3 409.1C74.2 409.1 74.1 409.1 74 409.1C73.9 409.1 73.8 409.3 73.8 409.3L64.5 418.6C64.5 418.6 64.4 418.7 64.4 418.8C64.4 418.9 64.5 418.9 64.5 418.9C66.6 419.1 67.9 419.3 69.6 420.1C71.4 420.9 72.9 422.1 74.1 423.5C75.3 425 76.3 426.7 77 428.7C77.7 430.7 78.1 432.8 78.1 435.1C78.1 437.3 77.7 439.4 76.9 441.3C76.1 443.3 75.1 445 73.8 446.4C72.5 447.9 70.9 449 69.1 449.9C67.3 450.8 65.3 451.2 63.1 451.2H32.5C32.5 451.2 32.2 451.2 32 451.3C31.8 451.4 31.7 451.5 31.7 451.5L20.3 462.9C20.3 462.9 20.1 463.1 20.1 463.3C20 463.4 20 463.6 20 463.6V504.6C20 504.6 20 505.2 20.6 505.2H66C69.9 505.2 73.6 504.6 77 503.4C80.4 502.2 83.4 500.5 86 498.3C88.6 496.1 90.6 493.5 92.1 490.4C93.6 487.3 94.3 483.9 94.3 480.2C94.3 474.2 92.7 469 89.5 464.6C86.1 460 81.8 456.9 76.8 455.5ZM80.6 484.1C79.8 486.1 78.6 487.9 77.2 489.4C75.7 490.9 74.1 492.1 72.2 493C70.3 493.9 68.2 494.4 65.9 494.4H32.8C32.8 494.4 32.2 494.4 32.2 493.8V461.6C32.2 461.6 32.2 461 32.8 461H66.9C69.1 461 71.1 461.5 72.9 462.4C74.7 463.3 76.3 464.5 77.6 466.1C78.9 467.6 80 469.4 80.7 471.5C81.5 473.5 81.9 475.7 81.9 477.8C81.8 480 81.4 482.1 80.6 484.1Z" fill="#30383B"/>
</svg>
