<svg width="68" height="258" viewBox="0 0 68 258" fill="none" xmlns="http://www.w3.org/2000/svg">
<rect x="0.5" y="0.5" width="67" height="257" rx="4.5" stroke="#9747FF" stroke-dasharray="10 5"/>
<circle cx="34" cy="34" r="14" fill="white"/>
<path d="M24.48 29.7608C25.3515 27.6598 26.9136 25.9 28.9214 24.7572C30.9292 23.6144 33.2692 23.1532 35.5748 23.4459C37.8803 23.7386 40.0211 24.7686 41.6616 26.3745C43.3021 27.9805 44.3496 30.0716 44.64 32.3201" stroke="#FFDF63" stroke-width="2" stroke-linecap="round" stroke-linejoin="round"/>
<circle cx="34" cy="72" r="14" fill="#1E293B"/>
<path d="M24.48 67.7608C25.3515 65.6598 26.9136 63.9 28.9214 62.7572C30.9292 61.6144 33.2692 61.1532 35.5748 61.4459C37.8803 61.7386 40.0211 62.7686 41.6616 64.3745C43.3021 65.9805 44.3496 68.0716 44.64 70.3201" stroke="#FFDF63" stroke-width="2" stroke-linecap="round" stroke-linejoin="round"/>
<circle cx="34" cy="110" r="14" fill="white"/>
<path d="M30.5353 112.758C30.3401 112.953 30.3401 113.269 30.5353 113.465C30.7306 113.66 31.0472 113.66 31.2424 113.465L34 110.707L36.7576 113.465C36.9528 113.66 37.2694 113.66 37.4647 113.465C37.6599 113.269 37.6599 112.953 37.4647 112.758L34.7071 110L34.7115 109.996L34.7163 109.991L34.7212 109.986L34.7262 109.981L34.7311 109.976L34.7361 109.971L34.7411 109.966L34.7462 109.961L34.7512 109.956L34.7563 109.951L34.7615 109.946L34.7666 109.94L34.7718 109.935L34.777 109.93L34.7822 109.925L34.7875 109.92L34.7927 109.914L34.798 109.909L34.8034 109.904L34.8087 109.898L34.8141 109.893L34.8195 109.888L34.825 109.882L34.8304 109.877L34.8359 109.871L34.8414 109.866L34.8469 109.86L34.8525 109.855L34.8581 109.849L34.8637 109.843L34.8693 109.838L34.875 109.832L34.8806 109.826L34.8863 109.821L34.8921 109.815L34.8978 109.809L34.9036 109.804L34.9094 109.798L34.9152 109.792L34.921 109.786L34.9269 109.78L34.9328 109.774L34.9387 109.768L34.9446 109.762L34.9506 109.757L34.9566 109.751L34.9626 109.745L34.9686 109.739L34.9746 109.732L34.9807 109.726L34.9868 109.72L34.9929 109.714L34.999 109.708L35.0052 109.702L35.0114 109.696L35.0176 109.69L35.0238 109.683L35.03 109.677L35.0363 109.671L35.0426 109.665L35.0489 109.658L35.0552 109.652L35.0616 109.646L35.0679 109.639L35.0743 109.633L35.0807 109.626L35.0871 109.62L35.0936 109.614L35.1 109.607L35.1065 109.601L35.113 109.594L35.1196 109.588L35.1261 109.581L35.1327 109.574L35.1393 109.568L35.1459 109.561L35.1525 109.555L35.1591 109.548L35.1658 109.541L35.1725 109.535L35.1792 109.528L35.1859 109.521L35.1926 109.515L35.1993 109.508L35.2061 109.501L35.2129 109.494L35.2197 109.487L35.2265 109.481L35.2334 109.474L35.2402 109.467L35.2471 109.46L35.254 109.453L35.2609 109.446L35.2678 109.439L35.2748 109.432L35.2817 109.425L35.2887 109.418L35.2957 109.411L35.3027 109.404L35.3097 109.397L35.3168 109.39L35.3238 109.383L35.3309 109.376L35.338 109.369L35.3451 109.362L35.3522 109.355L35.3594 109.348L35.3665 109.341L35.3737 109.333L35.3809 109.326L35.3881 109.319L35.3953 109.312L35.4025 109.305L35.4097 109.297L35.417 109.29L35.4243 109.283L35.4316 109.276L35.4389 109.268L35.4462 109.261L35.4535 109.254L35.4608 109.246L35.4682 109.239L35.4756 109.232L35.4829 109.224L35.4903 109.217L35.4978 109.209L35.5052 109.202L35.5126 109.194L35.5201 109.187L35.5275 109.18L35.535 109.172L35.5425 109.165L35.55 109.157L35.5575 109.15L35.565 109.142L35.5726 109.135L35.5801 109.127L35.5877 109.119L35.5952 109.112L35.6028 109.104L35.6104 109.097L35.618 109.089L35.6256 109.081L35.6333 109.074L35.6409 109.066L35.6486 109.059L35.6562 109.051L35.6639 109.043L35.6716 109.036L35.6793 109.028L35.687 109.02L35.6947 109.012L35.7024 109.005L35.7102 108.997L35.7179 108.989L35.7257 108.981L35.7334 108.974L35.7412 108.966L35.749 108.958L35.7568 108.95L35.7646 108.943L35.7724 108.935L35.7802 108.927L35.7881 108.919L35.7959 108.911L35.8037 108.903L35.8116 108.896L35.8195 108.888L35.8273 108.88L35.8352 108.872L35.8431 108.864L35.851 108.856L35.8589 108.848L35.8668 108.84L35.8747 108.832L35.8827 108.824L35.8906 108.816L35.8986 108.809L35.9065 108.801L35.9145 108.793L35.9224 108.785L35.9304 108.777L35.9384 108.769L35.9464 108.761L35.9544 108.753L35.9624 108.745L35.9704 108.737L35.9784 108.729L35.9864 108.721L35.9944 108.713L36.0024 108.705L36.0105 108.697L36.0185 108.689L36.0266 108.681L36.0346 108.672L36.0427 108.664L36.0507 108.656L36.0588 108.648L36.0669 108.64L36.0749 108.632L36.083 108.624L36.0911 108.616L36.0992 108.608L36.1073 108.6L36.1154 108.592L36.1235 108.584L36.1316 108.576L36.1397 108.567L36.1478 108.559L36.1559 108.551L36.1641 108.543L36.1722 108.535L36.1803 108.527L36.1885 108.519L36.1966 108.511L36.2047 108.502L36.2129 108.494L36.221 108.486L36.2292 108.478L36.2373 108.47L36.2455 108.462L36.2536 108.454L36.2618 108.445L36.2699 108.437L36.2781 108.429L36.2862 108.421L36.2944 108.413L36.3026 108.405L36.3107 108.396L36.3189 108.388L36.3271 108.38L36.3352 108.372L36.3434 108.364L36.3516 108.356L36.3597 108.347L36.3679 108.339L36.3761 108.331L36.3843 108.323L36.3924 108.315L36.4006 108.306L36.4088 108.298L36.417 108.29L36.4251 108.282L36.4333 108.274L36.4415 108.266L36.4496 108.257L36.4578 108.249L36.466 108.241L36.4742 108.233L36.4823 108.225L36.4905 108.217L36.4987 108.208L36.5068 108.2L36.515 108.192L36.5232 108.184L36.5313 108.176L36.5395 108.168L36.5476 108.159L36.5558 108.151L36.5639 108.143L36.5721 108.135L36.5802 108.127L36.5884 108.119L36.5965 108.111L36.6047 108.102L36.6128 108.094L36.621 108.086L36.6291 108.078L36.6372 108.07L36.6453 108.062L36.6535 108.054L36.6616 108.046L36.6697 108.037L36.6778 108.029L36.6859 108.021L36.694 108.013L36.7021 108.005L36.7102 107.997L36.7183 107.989L36.7264 107.981L36.7345 107.973L36.7426 107.965L36.7506 107.956L36.7587 107.948L36.7668 107.94L36.7748 107.932L36.7829 107.924L36.7909 107.916L36.799 107.908L36.807 107.9L36.815 107.892L36.823 107.884L36.8311 107.876L36.8391 107.868L36.8471 107.86L36.8551 107.852L36.8631 107.844L36.8711 107.836L36.8791 107.828L36.887 107.82L36.895 107.812L36.903 107.804L36.9109 107.796L36.9189 107.788L36.9268 107.78L36.9347 107.772L36.9427 107.764L36.9506 107.757L36.9585 107.749L36.9664 107.741L36.9743 107.733L36.9822 107.725L36.99 107.717L36.9979 107.709L37.0058 107.701L37.0136 107.693L37.0215 107.686L37.0293 107.678L37.0371 107.67L37.0449 107.662L37.0527 107.654L37.0605 107.647L37.0683 107.639L37.0761 107.631L37.0839 107.623L37.0916 107.615L37.0994 107.608L37.1071 107.6L37.1148 107.592L37.1226 107.585L37.1303 107.577L37.138 107.569L37.1457 107.561L37.1533 107.554L37.161 107.546L37.1687 107.538L37.1763 107.531L37.1839 107.523L37.1916 107.516L37.1992 107.508L37.2068 107.5L37.2144 107.493L37.2219 107.485L37.2295 107.478L37.2371 107.47L37.2446 107.463L37.2521 107.455L37.2596 107.447L37.2671 107.44L37.2746 107.432L37.2821 107.425L37.2896 107.418L37.297 107.41L37.3045 107.403L37.3119 107.395L37.3193 107.388L37.3267 107.38L37.3341 107.373L37.3415 107.366L37.3488 107.358L37.3562 107.351L37.3635 107.344L37.3708 107.336L37.3781 107.329L37.3854 107.322L37.3927 107.314L37.4 107.307L37.4072 107.3L37.4145 107.293L37.4217 107.285L37.4289 107.278L37.4361 107.271L37.4432 107.264L37.4504 107.257L37.4575 107.25L37.4647 107.242C37.6599 107.047 37.6599 106.731 37.4647 106.535C37.2694 106.34 36.9528 106.34 36.7576 106.535L36.7504 106.542L36.7433 106.55L36.7361 106.557L36.729 106.564L36.7218 106.571L36.7146 106.578L36.7073 106.586L36.7001 106.593L36.6929 106.6L36.6856 106.607L36.6783 106.615L36.671 106.622L36.6637 106.629L36.6564 106.636L36.6491 106.644L36.6417 106.651L36.6344 106.659L36.627 106.666L36.6196 106.673L36.6122 106.681L36.6048 106.688L36.5974 106.696L36.5899 106.703L36.5825 106.71L36.575 106.718L36.5675 106.725L36.56 106.733L36.5525 106.74L36.545 106.748L36.5375 106.755L36.53 106.763L36.5224 106.77L36.5148 106.778L36.5073 106.786L36.4997 106.793L36.4921 106.801L36.4845 106.808L36.4768 106.816L36.4692 106.824L36.4616 106.831L36.4539 106.839L36.4462 106.847L36.4386 106.854L36.4309 106.862L36.4232 106.87L36.4155 106.877L36.4077 106.885L36.4 106.893L36.3923 106.901L36.3845 106.908L36.3768 106.916L36.369 106.924L36.3612 106.932L36.3534 106.939L36.3456 106.947L36.3378 106.955L36.33 106.963L36.3222 106.971L36.3143 106.979L36.3065 106.986L36.2987 106.994L36.2908 107.002L36.2829 107.01L36.275 107.018L36.2672 107.026L36.2593 107.034L36.2514 107.042L36.2435 107.049L36.2355 107.057L36.2276 107.065L36.2197 107.073L36.2118 107.081L36.2038 107.089L36.1959 107.097L36.1879 107.105L36.1799 107.113L36.1719 107.121L36.164 107.129L36.156 107.137L36.148 107.145L36.14 107.153L36.132 107.161L36.124 107.169L36.1159 107.177L36.1079 107.185L36.0999 107.193L36.0919 107.201L36.0838 107.209L36.0758 107.217L36.0677 107.225L36.0597 107.233L36.0516 107.241L36.0435 107.249L36.0354 107.257L36.0274 107.266L36.0193 107.274L36.0112 107.282L36.0031 107.29L35.995 107.298L35.9869 107.306L35.9788 107.314L35.9707 107.322L35.9626 107.33L35.9545 107.338L35.9464 107.347L35.9382 107.355L35.9301 107.363L35.922 107.371L35.9138 107.379L35.9057 107.387L35.8976 107.395L35.8894 107.403L35.8813 107.412L35.8731 107.42L35.865 107.428L35.8568 107.436L35.8487 107.444L35.8405 107.452L35.8324 107.461L35.8242 107.469L35.8161 107.477L35.8079 107.485L35.7997 107.493L35.7916 107.501L35.7834 107.51L35.7752 107.518L35.7671 107.526L35.7589 107.534L35.7507 107.542L35.7425 107.55L35.7344 107.559L35.7262 107.567L35.718 107.575L35.7098 107.583L35.7017 107.591L35.6935 107.599L35.6853 107.608L35.6772 107.616L35.669 107.624L35.6608 107.632L35.6526 107.64L35.6445 107.648L35.6363 107.657L35.6281 107.665L35.62 107.673L35.6118 107.681L35.6036 107.689L35.5955 107.697L35.5873 107.706L35.5791 107.714L35.571 107.722L35.5628 107.73L35.5547 107.738L35.5465 107.746L35.5383 107.755L35.5302 107.763L35.522 107.771L35.5139 107.779L35.5058 107.787L35.4976 107.795L35.4895 107.803L35.4813 107.812L35.4732 107.82L35.4651 107.828L35.457 107.836L35.4488 107.844L35.4407 107.852L35.4326 107.86L35.4245 107.868L35.4164 107.877L35.4083 107.885L35.4002 107.893L35.3921 107.901L35.384 107.909L35.3759 107.917L35.3678 107.925L35.3598 107.933L35.3517 107.941L35.3436 107.949L35.3356 107.957L35.3275 107.965L35.3195 107.973L35.3114 107.981L35.3034 107.99L35.2953 107.998L35.2873 108.006L35.2793 108.014L35.2713 108.022L35.2633 108.03L35.2553 108.038L35.2473 108.046L35.2393 108.054L35.2313 108.062L35.2233 108.07L35.2153 108.078L35.2074 108.086L35.1994 108.093L35.1915 108.101L35.1835 108.109L35.1756 108.117L35.1676 108.125L35.1597 108.133L35.1518 108.141L35.1439 108.149L35.136 108.157L35.1281 108.165L35.1202 108.173L35.1124 108.181L35.1045 108.188L35.0966 108.196L35.0888 108.204L35.0809 108.212L35.0731 108.22L35.0653 108.228L35.0575 108.235L35.0497 108.243L35.0419 108.251L35.0341 108.259L35.0263 108.267L35.0186 108.274L35.0108 108.282L35.0031 108.29L34.9953 108.298L34.9876 108.305L34.9799 108.313L34.9722 108.321L34.9645 108.328L34.9568 108.336L34.9491 108.344L34.9415 108.351L34.9338 108.359L34.9262 108.367L34.9185 108.374L34.9109 108.382L34.9033 108.39L34.8957 108.397L34.8881 108.405L34.8806 108.412L34.873 108.42L34.8654 108.427L34.8579 108.435L34.8504 108.443L34.8429 108.45L34.8354 108.458L34.8279 108.465L34.8204 108.472L34.813 108.48L34.8055 108.487L34.7981 108.495L34.7906 108.502L34.7832 108.51L34.7758 108.517L34.7685 108.524L34.7611 108.532L34.7537 108.539L34.7464 108.547L34.7391 108.554L34.7317 108.561L34.7244 108.568L34.7172 108.576L34.7099 108.583L34.7026 108.59L34.6954 108.597L34.6882 108.605L34.681 108.612L34.6738 108.619L34.6666 108.626L34.6594 108.633L34.6523 108.641L34.6451 108.648L34.638 108.655L34.6309 108.662L34.6238 108.669L34.6167 108.676L34.6097 108.683L34.6026 108.69L34.5956 108.697L34.5886 108.704L34.5816 108.711L34.5746 108.718L34.5677 108.725L34.5607 108.732L34.5538 108.739L34.5469 108.746L34.54 108.753L34.5331 108.76L34.5263 108.767L34.5194 108.773L34.5126 108.78L34.5058 108.787L34.499 108.794L34.4922 108.801L34.4855 108.807L34.4788 108.814L34.472 108.821L34.4653 108.828L34.4587 108.834L34.452 108.841L34.4454 108.848L34.4388 108.854L34.4321 108.861L34.4256 108.867L34.419 108.874L34.4125 108.88L34.4059 108.887L34.3994 108.893L34.3929 108.9L34.3865 108.906L34.38 108.913L34.3736 108.919L34.3672 108.926L34.3608 108.932L34.3544 108.938L34.3481 108.945L34.3418 108.951L34.3355 108.957L34.3292 108.964L34.3229 108.97L34.3167 108.976L34.3105 108.982L34.3043 108.989L34.2981 108.995L34.2919 109.001L34.2858 109.007L34.2797 109.013L34.2736 109.019L34.2675 109.025L34.2615 109.031L34.2555 109.037L34.2495 109.043L34.2435 109.049L34.2375 109.055L34.2316 109.061L34.2257 109.067L34.2198 109.073L34.2139 109.079L34.2081 109.085L34.2023 109.091L34.1965 109.096L34.1907 109.102L34.1849 109.108L34.1792 109.114L34.1735 109.119L34.1678 109.125L34.1622 109.131L34.1566 109.136L34.151 109.142L34.1454 109.148L34.1398 109.153L34.1343 109.159L34.1288 109.164L34.1233 109.17L34.1178 109.175L34.1124 109.18L34.107 109.186L34.1016 109.191L34.0963 109.197L34.0909 109.202L34.0856 109.207L34.0804 109.213L34.0751 109.218L34.0699 109.223L34.0647 109.228L34.0595 109.233L34.0544 109.239L34.0492 109.244L34.0441 109.249L34.0391 109.254L34.034 109.259L34.029 109.264L34.024 109.269L34.0191 109.274L34.0141 109.279L34.0092 109.284L34.0044 109.289L34 109.293L31.2424 106.535C31.0472 106.34 30.7306 106.34 30.5353 106.535C30.3401 106.731 30.3401 107.047 30.5353 107.242L33.2929 110L30.5353 112.758ZM47.5 110C47.5 111.773 47.1508 113.528 46.4724 115.166C45.7939 116.804 44.7995 118.292 43.5459 119.546C42.2923 120.8 40.8041 121.794 39.1662 122.472C37.5283 123.151 35.7728 123.5 34 123.5C32.2272 123.5 30.4717 123.151 28.8338 122.472C27.1959 121.794 25.7076 120.8 24.4541 119.546C23.2005 118.292 22.2061 116.804 21.5276 115.166C20.8492 113.528 20.5 111.773 20.5 110C20.5 106.42 21.9223 102.986 24.4541 100.454C26.9858 97.9223 30.4196 96.5 34 96.5C37.5804 96.5 41.0142 97.9223 43.5459 100.454C46.0777 102.986 47.5 106.42 47.5 110Z" stroke="#FF5014" stroke-linecap="round" stroke-linejoin="round"/>
<circle cx="34" cy="148" r="14" fill="#1E293B"/>
<path d="M30.5353 150.758C30.3401 150.953 30.3401 151.269 30.5353 151.465C30.7306 151.66 31.0472 151.66 31.2424 151.465L34 148.707L36.7576 151.465C36.9528 151.66 37.2694 151.66 37.4647 151.465C37.6599 151.269 37.6599 150.953 37.4647 150.758L34.7071 148L34.7115 147.996L34.7163 147.991L34.7212 147.986L34.7262 147.981L34.7311 147.976L34.7361 147.971L34.7411 147.966L34.7462 147.961L34.7512 147.956L34.7563 147.951L34.7615 147.946L34.7666 147.94L34.7718 147.935L34.777 147.93L34.7822 147.925L34.7875 147.92L34.7927 147.914L34.798 147.909L34.8034 147.904L34.8087 147.898L34.8141 147.893L34.8195 147.888L34.825 147.882L34.8304 147.877L34.8359 147.871L34.8414 147.866L34.8469 147.86L34.8525 147.855L34.8581 147.849L34.8637 147.843L34.8693 147.838L34.875 147.832L34.8806 147.826L34.8863 147.821L34.8921 147.815L34.8978 147.809L34.9036 147.804L34.9094 147.798L34.9152 147.792L34.921 147.786L34.9269 147.78L34.9328 147.774L34.9387 147.768L34.9446 147.762L34.9506 147.757L34.9566 147.751L34.9626 147.745L34.9686 147.739L34.9746 147.732L34.9807 147.726L34.9868 147.72L34.9929 147.714L34.999 147.708L35.0052 147.702L35.0114 147.696L35.0176 147.69L35.0238 147.683L35.03 147.677L35.0363 147.671L35.0426 147.665L35.0489 147.658L35.0552 147.652L35.0616 147.646L35.0679 147.639L35.0743 147.633L35.0807 147.626L35.0871 147.62L35.0936 147.614L35.1 147.607L35.1065 147.601L35.113 147.594L35.1196 147.588L35.1261 147.581L35.1327 147.574L35.1393 147.568L35.1459 147.561L35.1525 147.555L35.1591 147.548L35.1658 147.541L35.1725 147.535L35.1792 147.528L35.1859 147.521L35.1926 147.515L35.1993 147.508L35.2061 147.501L35.2129 147.494L35.2197 147.487L35.2265 147.481L35.2334 147.474L35.2402 147.467L35.2471 147.46L35.254 147.453L35.2609 147.446L35.2678 147.439L35.2748 147.432L35.2817 147.425L35.2887 147.418L35.2957 147.411L35.3027 147.404L35.3097 147.397L35.3168 147.39L35.3238 147.383L35.3309 147.376L35.338 147.369L35.3451 147.362L35.3522 147.355L35.3594 147.348L35.3665 147.341L35.3737 147.333L35.3809 147.326L35.3881 147.319L35.3953 147.312L35.4025 147.305L35.4097 147.297L35.417 147.29L35.4243 147.283L35.4316 147.276L35.4389 147.268L35.4462 147.261L35.4535 147.254L35.4608 147.246L35.4682 147.239L35.4756 147.232L35.4829 147.224L35.4903 147.217L35.4978 147.209L35.5052 147.202L35.5126 147.194L35.5201 147.187L35.5275 147.18L35.535 147.172L35.5425 147.165L35.55 147.157L35.5575 147.15L35.565 147.142L35.5726 147.135L35.5801 147.127L35.5877 147.119L35.5952 147.112L35.6028 147.104L35.6104 147.097L35.618 147.089L35.6256 147.081L35.6333 147.074L35.6409 147.066L35.6486 147.059L35.6562 147.051L35.6639 147.043L35.6716 147.036L35.6793 147.028L35.687 147.02L35.6947 147.012L35.7024 147.005L35.7102 146.997L35.7179 146.989L35.7257 146.981L35.7334 146.974L35.7412 146.966L35.749 146.958L35.7568 146.95L35.7646 146.943L35.7724 146.935L35.7802 146.927L35.7881 146.919L35.7959 146.911L35.8037 146.903L35.8116 146.896L35.8195 146.888L35.8273 146.88L35.8352 146.872L35.8431 146.864L35.851 146.856L35.8589 146.848L35.8668 146.84L35.8747 146.832L35.8827 146.824L35.8906 146.816L35.8986 146.809L35.9065 146.801L35.9145 146.793L35.9224 146.785L35.9304 146.777L35.9384 146.769L35.9464 146.761L35.9544 146.753L35.9624 146.745L35.9704 146.737L35.9784 146.729L35.9864 146.721L35.9944 146.713L36.0024 146.705L36.0105 146.697L36.0185 146.689L36.0266 146.681L36.0346 146.672L36.0427 146.664L36.0507 146.656L36.0588 146.648L36.0669 146.64L36.0749 146.632L36.083 146.624L36.0911 146.616L36.0992 146.608L36.1073 146.6L36.1154 146.592L36.1235 146.584L36.1316 146.576L36.1397 146.567L36.1478 146.559L36.1559 146.551L36.1641 146.543L36.1722 146.535L36.1803 146.527L36.1885 146.519L36.1966 146.511L36.2047 146.502L36.2129 146.494L36.221 146.486L36.2292 146.478L36.2373 146.47L36.2455 146.462L36.2536 146.454L36.2618 146.445L36.2699 146.437L36.2781 146.429L36.2862 146.421L36.2944 146.413L36.3026 146.405L36.3107 146.396L36.3189 146.388L36.3271 146.38L36.3352 146.372L36.3434 146.364L36.3516 146.356L36.3597 146.347L36.3679 146.339L36.3761 146.331L36.3843 146.323L36.3924 146.315L36.4006 146.306L36.4088 146.298L36.417 146.29L36.4251 146.282L36.4333 146.274L36.4415 146.266L36.4496 146.257L36.4578 146.249L36.466 146.241L36.4742 146.233L36.4823 146.225L36.4905 146.217L36.4987 146.208L36.5068 146.2L36.515 146.192L36.5232 146.184L36.5313 146.176L36.5395 146.168L36.5476 146.159L36.5558 146.151L36.5639 146.143L36.5721 146.135L36.5802 146.127L36.5884 146.119L36.5965 146.111L36.6047 146.102L36.6128 146.094L36.621 146.086L36.6291 146.078L36.6372 146.07L36.6453 146.062L36.6535 146.054L36.6616 146.046L36.6697 146.037L36.6778 146.029L36.6859 146.021L36.694 146.013L36.7021 146.005L36.7102 145.997L36.7183 145.989L36.7264 145.981L36.7345 145.973L36.7426 145.965L36.7506 145.956L36.7587 145.948L36.7668 145.94L36.7748 145.932L36.7829 145.924L36.7909 145.916L36.799 145.908L36.807 145.9L36.815 145.892L36.823 145.884L36.8311 145.876L36.8391 145.868L36.8471 145.86L36.8551 145.852L36.8631 145.844L36.8711 145.836L36.8791 145.828L36.887 145.82L36.895 145.812L36.903 145.804L36.9109 145.796L36.9189 145.788L36.9268 145.78L36.9347 145.772L36.9427 145.764L36.9506 145.757L36.9585 145.749L36.9664 145.741L36.9743 145.733L36.9822 145.725L36.99 145.717L36.9979 145.709L37.0058 145.701L37.0136 145.693L37.0215 145.686L37.0293 145.678L37.0371 145.67L37.0449 145.662L37.0527 145.654L37.0605 145.647L37.0683 145.639L37.0761 145.631L37.0839 145.623L37.0916 145.615L37.0994 145.608L37.1071 145.6L37.1148 145.592L37.1226 145.585L37.1303 145.577L37.138 145.569L37.1457 145.561L37.1533 145.554L37.161 145.546L37.1687 145.538L37.1763 145.531L37.1839 145.523L37.1916 145.516L37.1992 145.508L37.2068 145.5L37.2144 145.493L37.2219 145.485L37.2295 145.478L37.2371 145.47L37.2446 145.463L37.2521 145.455L37.2596 145.447L37.2671 145.44L37.2746 145.432L37.2821 145.425L37.2896 145.418L37.297 145.41L37.3045 145.403L37.3119 145.395L37.3193 145.388L37.3267 145.38L37.3341 145.373L37.3415 145.366L37.3488 145.358L37.3562 145.351L37.3635 145.344L37.3708 145.336L37.3781 145.329L37.3854 145.322L37.3927 145.314L37.4 145.307L37.4072 145.3L37.4145 145.293L37.4217 145.285L37.4289 145.278L37.4361 145.271L37.4432 145.264L37.4504 145.257L37.4575 145.25L37.4647 145.242C37.6599 145.047 37.6599 144.731 37.4647 144.535C37.2694 144.34 36.9528 144.34 36.7576 144.535L36.7504 144.542L36.7433 144.55L36.7361 144.557L36.729 144.564L36.7218 144.571L36.7146 144.578L36.7073 144.586L36.7001 144.593L36.6929 144.6L36.6856 144.607L36.6783 144.615L36.671 144.622L36.6637 144.629L36.6564 144.636L36.6491 144.644L36.6417 144.651L36.6344 144.659L36.627 144.666L36.6196 144.673L36.6122 144.681L36.6048 144.688L36.5974 144.696L36.5899 144.703L36.5825 144.71L36.575 144.718L36.5675 144.725L36.56 144.733L36.5525 144.74L36.545 144.748L36.5375 144.755L36.53 144.763L36.5224 144.77L36.5148 144.778L36.5073 144.786L36.4997 144.793L36.4921 144.801L36.4845 144.808L36.4768 144.816L36.4692 144.824L36.4616 144.831L36.4539 144.839L36.4462 144.847L36.4386 144.854L36.4309 144.862L36.4232 144.87L36.4155 144.877L36.4077 144.885L36.4 144.893L36.3923 144.901L36.3845 144.908L36.3768 144.916L36.369 144.924L36.3612 144.932L36.3534 144.939L36.3456 144.947L36.3378 144.955L36.33 144.963L36.3222 144.971L36.3143 144.979L36.3065 144.986L36.2987 144.994L36.2908 145.002L36.2829 145.01L36.275 145.018L36.2672 145.026L36.2593 145.034L36.2514 145.042L36.2435 145.049L36.2355 145.057L36.2276 145.065L36.2197 145.073L36.2118 145.081L36.2038 145.089L36.1959 145.097L36.1879 145.105L36.1799 145.113L36.1719 145.121L36.164 145.129L36.156 145.137L36.148 145.145L36.14 145.153L36.132 145.161L36.124 145.169L36.1159 145.177L36.1079 145.185L36.0999 145.193L36.0919 145.201L36.0838 145.209L36.0758 145.217L36.0677 145.225L36.0597 145.233L36.0516 145.241L36.0435 145.249L36.0354 145.257L36.0274 145.266L36.0193 145.274L36.0112 145.282L36.0031 145.29L35.995 145.298L35.9869 145.306L35.9788 145.314L35.9707 145.322L35.9626 145.33L35.9545 145.338L35.9464 145.347L35.9382 145.355L35.9301 145.363L35.922 145.371L35.9138 145.379L35.9057 145.387L35.8976 145.395L35.8894 145.403L35.8813 145.412L35.8731 145.42L35.865 145.428L35.8568 145.436L35.8487 145.444L35.8405 145.452L35.8324 145.461L35.8242 145.469L35.8161 145.477L35.8079 145.485L35.7997 145.493L35.7916 145.501L35.7834 145.51L35.7752 145.518L35.7671 145.526L35.7589 145.534L35.7507 145.542L35.7425 145.55L35.7344 145.559L35.7262 145.567L35.718 145.575L35.7098 145.583L35.7017 145.591L35.6935 145.599L35.6853 145.608L35.6772 145.616L35.669 145.624L35.6608 145.632L35.6526 145.64L35.6445 145.648L35.6363 145.657L35.6281 145.665L35.62 145.673L35.6118 145.681L35.6036 145.689L35.5955 145.697L35.5873 145.706L35.5791 145.714L35.571 145.722L35.5628 145.73L35.5547 145.738L35.5465 145.746L35.5383 145.755L35.5302 145.763L35.522 145.771L35.5139 145.779L35.5058 145.787L35.4976 145.795L35.4895 145.803L35.4813 145.812L35.4732 145.82L35.4651 145.828L35.457 145.836L35.4488 145.844L35.4407 145.852L35.4326 145.86L35.4245 145.868L35.4164 145.877L35.4083 145.885L35.4002 145.893L35.3921 145.901L35.384 145.909L35.3759 145.917L35.3678 145.925L35.3598 145.933L35.3517 145.941L35.3436 145.949L35.3356 145.957L35.3275 145.965L35.3195 145.973L35.3114 145.981L35.3034 145.99L35.2953 145.998L35.2873 146.006L35.2793 146.014L35.2713 146.022L35.2633 146.03L35.2553 146.038L35.2473 146.046L35.2393 146.054L35.2313 146.062L35.2233 146.07L35.2153 146.078L35.2074 146.086L35.1994 146.093L35.1915 146.101L35.1835 146.109L35.1756 146.117L35.1676 146.125L35.1597 146.133L35.1518 146.141L35.1439 146.149L35.136 146.157L35.1281 146.165L35.1202 146.173L35.1124 146.181L35.1045 146.188L35.0966 146.196L35.0888 146.204L35.0809 146.212L35.0731 146.22L35.0653 146.228L35.0575 146.235L35.0497 146.243L35.0419 146.251L35.0341 146.259L35.0263 146.267L35.0186 146.274L35.0108 146.282L35.0031 146.29L34.9953 146.298L34.9876 146.305L34.9799 146.313L34.9722 146.321L34.9645 146.328L34.9568 146.336L34.9491 146.344L34.9415 146.351L34.9338 146.359L34.9262 146.367L34.9185 146.374L34.9109 146.382L34.9033 146.39L34.8957 146.397L34.8881 146.405L34.8806 146.412L34.873 146.42L34.8654 146.427L34.8579 146.435L34.8504 146.443L34.8429 146.45L34.8354 146.458L34.8279 146.465L34.8204 146.472L34.813 146.48L34.8055 146.487L34.7981 146.495L34.7906 146.502L34.7832 146.51L34.7758 146.517L34.7685 146.524L34.7611 146.532L34.7537 146.539L34.7464 146.547L34.7391 146.554L34.7317 146.561L34.7244 146.568L34.7172 146.576L34.7099 146.583L34.7026 146.59L34.6954 146.597L34.6882 146.605L34.681 146.612L34.6738 146.619L34.6666 146.626L34.6594 146.633L34.6523 146.641L34.6451 146.648L34.638 146.655L34.6309 146.662L34.6238 146.669L34.6167 146.676L34.6097 146.683L34.6026 146.69L34.5956 146.697L34.5886 146.704L34.5816 146.711L34.5746 146.718L34.5677 146.725L34.5607 146.732L34.5538 146.739L34.5469 146.746L34.54 146.753L34.5331 146.76L34.5263 146.767L34.5194 146.773L34.5126 146.78L34.5058 146.787L34.499 146.794L34.4922 146.801L34.4855 146.807L34.4788 146.814L34.472 146.821L34.4653 146.828L34.4587 146.834L34.452 146.841L34.4454 146.848L34.4388 146.854L34.4321 146.861L34.4256 146.867L34.419 146.874L34.4125 146.88L34.4059 146.887L34.3994 146.893L34.3929 146.9L34.3865 146.906L34.38 146.913L34.3736 146.919L34.3672 146.926L34.3608 146.932L34.3544 146.938L34.3481 146.945L34.3418 146.951L34.3355 146.957L34.3292 146.964L34.3229 146.97L34.3167 146.976L34.3105 146.982L34.3043 146.989L34.2981 146.995L34.2919 147.001L34.2858 147.007L34.2797 147.013L34.2736 147.019L34.2675 147.025L34.2615 147.031L34.2555 147.037L34.2495 147.043L34.2435 147.049L34.2375 147.055L34.2316 147.061L34.2257 147.067L34.2198 147.073L34.2139 147.079L34.2081 147.085L34.2023 147.091L34.1965 147.096L34.1907 147.102L34.1849 147.108L34.1792 147.114L34.1735 147.119L34.1678 147.125L34.1622 147.131L34.1566 147.136L34.151 147.142L34.1454 147.148L34.1398 147.153L34.1343 147.159L34.1288 147.164L34.1233 147.17L34.1178 147.175L34.1124 147.18L34.107 147.186L34.1016 147.191L34.0963 147.197L34.0909 147.202L34.0856 147.207L34.0804 147.213L34.0751 147.218L34.0699 147.223L34.0647 147.228L34.0595 147.233L34.0544 147.239L34.0492 147.244L34.0441 147.249L34.0391 147.254L34.034 147.259L34.029 147.264L34.024 147.269L34.0191 147.274L34.0141 147.279L34.0092 147.284L34.0044 147.289L34 147.293L31.2424 144.535C31.0472 144.34 30.7306 144.34 30.5353 144.535C30.3401 144.731 30.3401 145.047 30.5353 145.242L33.2929 148L30.5353 150.758ZM47.5 148C47.5 149.773 47.1508 151.528 46.4724 153.166C45.7939 154.804 44.7995 156.292 43.5459 157.546C42.2923 158.8 40.8041 159.794 39.1662 160.472C37.5283 161.151 35.7728 161.5 34 161.5C32.2272 161.5 30.4717 161.151 28.8338 160.472C27.1959 159.794 25.7076 158.8 24.4541 157.546C23.2005 156.292 22.2061 154.804 21.5276 153.166C20.8492 151.528 20.5 149.773 20.5 148C20.5 144.42 21.9223 140.986 24.4541 138.454C26.9858 135.922 30.4196 134.5 34 134.5C37.5804 134.5 41.0142 135.922 43.5459 138.454C46.0777 140.986 47.5 144.42 47.5 148Z" stroke="#FF5014" stroke-linecap="round" stroke-linejoin="round"/>
<circle cx="34" cy="186" r="14" fill="white"/>
<path d="M47.5 186C47.5 187.773 47.1508 189.528 46.4724 191.166C45.7939 192.804 44.7995 194.292 43.5459 195.546C42.2923 196.8 40.8041 197.794 39.1662 198.472C37.5283 199.151 35.7728 199.5 34 199.5C32.2272 199.5 30.4717 199.151 28.8338 198.472C27.1959 197.794 25.7076 196.8 24.4541 195.546C23.2005 194.292 22.2061 192.804 21.5276 191.166C20.8492 189.528 20.5 187.773 20.5 186C20.5 182.42 21.9223 178.986 24.4541 176.454C26.9858 173.922 30.4196 172.5 34 172.5C37.5804 172.5 41.0142 173.922 43.5459 176.454C46.0777 178.986 47.5 182.42 47.5 186Z" stroke="#64CDBF" stroke-linecap="round" stroke-linejoin="round"/>
<path d="M30 186.111L33.1111 189.222L39.3333 183" stroke="#64CDBF" stroke-width="2" stroke-linecap="round" stroke-linejoin="round"/>
<circle cx="34" cy="224" r="14" fill="#1E293B"/>
<path d="M47.5 224C47.5 225.773 47.1508 227.528 46.4724 229.166C45.7939 230.804 44.7995 232.292 43.5459 233.546C42.2923 234.8 40.8041 235.794 39.1662 236.472C37.5283 237.151 35.7728 237.5 34 237.5C32.2272 237.5 30.4717 237.151 28.8338 236.472C27.1959 235.794 25.7076 234.8 24.4541 233.546C23.2005 232.292 22.2061 230.804 21.5276 229.166C20.8492 227.528 20.5 225.773 20.5 224C20.5 220.42 21.9223 216.986 24.4541 214.454C26.9858 211.922 30.4196 210.5 34 210.5C37.5804 210.5 41.0142 211.922 43.5459 214.454C46.0777 216.986 47.5 220.42 47.5 224Z" stroke="#64CDBF" stroke-linecap="round" stroke-linejoin="round"/>
<path d="M30 224.111L33.1111 227.222L39.3333 221" stroke="#64CDBF" stroke-width="2" stroke-linecap="round" stroke-linejoin="round"/>
</svg>
