<svg width="145" height="284" viewBox="0 0 145 284" fill="none" xmlns="http://www.w3.org/2000/svg">
<rect x="0.5" y="0.5" width="144" height="283" rx="4.5" stroke="#9747FF" stroke-dasharray="10 5"/>
<rect x="20" y="20" width="105" height="40" rx="5" fill="white"/>
<path fill-rule="evenodd" clip-rule="evenodd" d="M42.6152 29.595C42.9165 29.7629 43.0643 30.1146 42.9736 30.4474L40.982 37.75H48.25C48.5487 37.75 48.8189 37.9272 48.9379 38.2011C49.0569 38.475 49.0021 38.7934 48.7983 39.0118L38.2983 50.2618C38.063 50.5139 37.686 50.573 37.3848 50.4051C37.0836 50.2372 36.9357 49.8854 37.0264 49.5527L39.0181 42.25H31.75C31.4514 42.25 31.1812 42.0728 31.0622 41.7989C30.9431 41.525 30.998 41.2066 31.2017 40.9883L41.7017 29.7383C41.937 29.4862 42.314 29.427 42.6152 29.595Z" fill="#0F172A"/>
<path d="M65.6311 45V35.2H69.7611C70.8065 35.2 71.7258 35.4053 72.5191 35.816C73.3218 36.2267 73.9425 36.8007 74.3811 37.538C74.8291 38.2753 75.0531 39.1293 75.0531 40.1C75.0531 41.0707 74.8291 41.9247 74.3811 42.662C73.9425 43.3993 73.3218 43.9733 72.5191 44.384C71.7258 44.7947 70.8065 45 69.7611 45H65.6311ZM67.0311 43.782H69.6771C70.4891 43.782 71.1891 43.628 71.7771 43.32C72.3745 43.012 72.8365 42.5827 73.1631 42.032C73.4898 41.472 73.6531 40.828 73.6531 40.1C73.6531 39.3627 73.4898 38.7187 73.1631 38.168C72.8365 37.6173 72.3745 37.188 71.7771 36.88C71.1891 36.572 70.4891 36.418 69.6771 36.418H67.0311V43.782ZM80.3055 45.084C79.5122 45.084 78.8122 44.9207 78.2055 44.594C77.6082 44.2673 77.1415 43.8193 76.8055 43.25C76.4789 42.6807 76.3155 42.0273 76.3155 41.29C76.3155 40.5527 76.4742 39.8993 76.7915 39.33C77.1182 38.7607 77.5615 38.3173 78.1215 38C78.6909 37.6733 79.3302 37.51 80.0395 37.51C80.7582 37.51 81.3929 37.6687 81.9435 37.986C82.4942 38.3033 82.9235 38.7513 83.2315 39.33C83.5489 39.8993 83.7075 40.5667 83.7075 41.332C83.7075 41.388 83.7029 41.4533 83.6935 41.528C83.6935 41.6027 83.6889 41.6727 83.6795 41.738H77.3655V40.772H82.9795L82.4335 41.108C82.4429 40.632 82.3449 40.2073 82.1395 39.834C81.9342 39.4607 81.6495 39.1713 81.2855 38.966C80.9309 38.7513 80.5155 38.644 80.0395 38.644C79.5729 38.644 79.1575 38.7513 78.7935 38.966C78.4295 39.1713 78.1449 39.4653 77.9395 39.848C77.7342 40.2213 77.6315 40.6507 77.6315 41.136V41.36C77.6315 41.8547 77.7435 42.298 77.9675 42.69C78.2009 43.0727 78.5229 43.3713 78.9335 43.586C79.3442 43.8007 79.8155 43.908 80.3475 43.908C80.7862 43.908 81.1829 43.8333 81.5375 43.684C81.9015 43.5347 82.2189 43.3107 82.4895 43.012L83.2315 43.88C82.8955 44.272 82.4755 44.5707 81.9715 44.776C81.4769 44.9813 80.9215 45.084 80.3055 45.084ZM85.7698 45V36.922C85.7698 36.194 85.9798 35.6153 86.3998 35.186C86.8291 34.7473 87.4358 34.528 88.2198 34.528C88.5091 34.528 88.7845 34.5653 89.0458 34.64C89.3165 34.7053 89.5451 34.8127 89.7318 34.962L89.3258 35.984C89.1858 35.872 89.0271 35.788 88.8498 35.732C88.6725 35.6667 88.4858 35.634 88.2898 35.634C87.8978 35.634 87.5991 35.746 87.3938 35.97C87.1885 36.1847 87.0858 36.5067 87.0858 36.936V37.93L87.1138 38.546V45H85.7698ZM84.5098 38.686V37.58H89.2418V38.686H84.5098ZM94.9786 45V43.432L94.9086 43.138V40.464C94.9086 39.8947 94.7406 39.456 94.4046 39.148C94.078 38.8307 93.5833 38.672 92.9206 38.672C92.482 38.672 92.0526 38.7467 91.6326 38.896C91.2126 39.036 90.858 39.2273 90.5686 39.47L90.0086 38.462C90.3913 38.154 90.8486 37.9207 91.3806 37.762C91.922 37.594 92.4866 37.51 93.0746 37.51C94.092 37.51 94.876 37.7573 95.4266 38.252C95.9773 38.7467 96.2526 39.5027 96.2526 40.52V45H94.9786ZM92.5426 45.084C91.992 45.084 91.5066 44.9907 91.0866 44.804C90.676 44.6173 90.3586 44.3607 90.1346 44.034C89.9106 43.698 89.7986 43.32 89.7986 42.9C89.7986 42.4987 89.892 42.1347 90.0786 41.808C90.2746 41.4813 90.5873 41.22 91.0166 41.024C91.4553 40.828 92.0433 40.73 92.7806 40.73H95.1326V41.696H92.8366C92.1646 41.696 91.712 41.808 91.4786 42.032C91.2453 42.256 91.1286 42.5267 91.1286 42.844C91.1286 43.208 91.2733 43.502 91.5626 43.726C91.852 43.9407 92.2533 44.048 92.7666 44.048C93.2706 44.048 93.7093 43.936 94.0826 43.712C94.4653 43.488 94.7406 43.1613 94.9086 42.732L95.1746 43.656C94.9973 44.0947 94.6846 44.4447 94.2366 44.706C93.7886 44.958 93.224 45.084 92.5426 45.084ZM101.862 45.084C101.227 45.084 100.667 44.9673 100.182 44.734C99.7058 44.5007 99.3325 44.146 99.0618 43.67C98.8005 43.1847 98.6698 42.578 98.6698 41.85V37.58H100.014V41.696C100.014 42.424 100.186 42.97 100.532 43.334C100.886 43.698 101.381 43.88 102.016 43.88C102.482 43.88 102.888 43.7867 103.234 43.6C103.579 43.404 103.845 43.124 104.032 42.76C104.218 42.3867 104.312 41.9387 104.312 41.416V37.58H105.656V45H104.382V42.998L104.592 43.53C104.349 44.0247 103.985 44.4073 103.5 44.678C103.014 44.9487 102.468 45.084 101.862 45.084ZM108.214 45V34.612H109.558V45H108.214ZM114.864 45.084C114.117 45.084 113.539 44.8833 113.128 44.482C112.717 44.0807 112.512 43.5067 112.512 42.76V35.956H113.856V42.704C113.856 43.1053 113.954 43.4133 114.15 43.628C114.355 43.8427 114.645 43.95 115.018 43.95C115.438 43.95 115.788 43.8333 116.068 43.6L116.488 44.566C116.283 44.7433 116.035 44.874 115.746 44.958C115.466 45.042 115.172 45.084 114.864 45.084ZM111.252 38.686V37.58H115.984V38.686H111.252Z" fill="#0F172A"/>
<rect x="20" y="156" width="105" height="40" rx="5" fill="#1E293B"/>
<path fill-rule="evenodd" clip-rule="evenodd" d="M42.6152 165.595C42.9165 165.763 43.0643 166.115 42.9736 166.447L40.982 173.75H48.25C48.5487 173.75 48.8189 173.927 48.9379 174.201C49.0569 174.475 49.0021 174.793 48.7983 175.012L38.2983 186.262C38.063 186.514 37.686 186.573 37.3848 186.405C37.0836 186.237 36.9357 185.885 37.0264 185.553L39.0181 178.25H31.75C31.4514 178.25 31.1812 178.073 31.0622 177.799C30.9431 177.525 30.998 177.207 31.2017 176.988L41.7017 165.738C41.937 165.486 42.314 165.427 42.6152 165.595Z" fill="#F9FAFB"/>
<path d="M65.6311 181V171.2H69.7611C70.8065 171.2 71.7258 171.405 72.5191 171.816C73.3218 172.227 73.9425 172.801 74.3811 173.538C74.8291 174.275 75.0531 175.129 75.0531 176.1C75.0531 177.071 74.8291 177.925 74.3811 178.662C73.9425 179.399 73.3218 179.973 72.5191 180.384C71.7258 180.795 70.8065 181 69.7611 181H65.6311ZM67.0311 179.782H69.6771C70.4891 179.782 71.1891 179.628 71.7771 179.32C72.3745 179.012 72.8365 178.583 73.1631 178.032C73.4898 177.472 73.6531 176.828 73.6531 176.1C73.6531 175.363 73.4898 174.719 73.1631 174.168C72.8365 173.617 72.3745 173.188 71.7771 172.88C71.1891 172.572 70.4891 172.418 69.6771 172.418H67.0311V179.782ZM80.3055 181.084C79.5122 181.084 78.8122 180.921 78.2055 180.594C77.6082 180.267 77.1415 179.819 76.8055 179.25C76.4789 178.681 76.3155 178.027 76.3155 177.29C76.3155 176.553 76.4742 175.899 76.7915 175.33C77.1182 174.761 77.5615 174.317 78.1215 174C78.6909 173.673 79.3302 173.51 80.0395 173.51C80.7582 173.51 81.3929 173.669 81.9435 173.986C82.4942 174.303 82.9235 174.751 83.2315 175.33C83.5489 175.899 83.7075 176.567 83.7075 177.332C83.7075 177.388 83.7029 177.453 83.6935 177.528C83.6935 177.603 83.6889 177.673 83.6795 177.738H77.3655V176.772H82.9795L82.4335 177.108C82.4429 176.632 82.3449 176.207 82.1395 175.834C81.9342 175.461 81.6495 175.171 81.2855 174.966C80.9309 174.751 80.5155 174.644 80.0395 174.644C79.5729 174.644 79.1575 174.751 78.7935 174.966C78.4295 175.171 78.1449 175.465 77.9395 175.848C77.7342 176.221 77.6315 176.651 77.6315 177.136V177.36C77.6315 177.855 77.7435 178.298 77.9675 178.69C78.2009 179.073 78.5229 179.371 78.9335 179.586C79.3442 179.801 79.8155 179.908 80.3475 179.908C80.7862 179.908 81.1829 179.833 81.5375 179.684C81.9015 179.535 82.2189 179.311 82.4895 179.012L83.2315 179.88C82.8955 180.272 82.4755 180.571 81.9715 180.776C81.4769 180.981 80.9215 181.084 80.3055 181.084ZM85.7698 181V172.922C85.7698 172.194 85.9798 171.615 86.3998 171.186C86.8291 170.747 87.4358 170.528 88.2198 170.528C88.5091 170.528 88.7845 170.565 89.0458 170.64C89.3165 170.705 89.5451 170.813 89.7318 170.962L89.3258 171.984C89.1858 171.872 89.0271 171.788 88.8498 171.732C88.6725 171.667 88.4858 171.634 88.2898 171.634C87.8978 171.634 87.5991 171.746 87.3938 171.97C87.1885 172.185 87.0858 172.507 87.0858 172.936V173.93L87.1138 174.546V181H85.7698ZM84.5098 174.686V173.58H89.2418V174.686H84.5098ZM94.9786 181V179.432L94.9086 179.138V176.464C94.9086 175.895 94.7406 175.456 94.4046 175.148C94.078 174.831 93.5833 174.672 92.9206 174.672C92.482 174.672 92.0526 174.747 91.6326 174.896C91.2126 175.036 90.858 175.227 90.5686 175.47L90.0086 174.462C90.3913 174.154 90.8486 173.921 91.3806 173.762C91.922 173.594 92.4866 173.51 93.0746 173.51C94.092 173.51 94.876 173.757 95.4266 174.252C95.9773 174.747 96.2526 175.503 96.2526 176.52V181H94.9786ZM92.5426 181.084C91.992 181.084 91.5066 180.991 91.0866 180.804C90.676 180.617 90.3586 180.361 90.1346 180.034C89.9106 179.698 89.7986 179.32 89.7986 178.9C89.7986 178.499 89.892 178.135 90.0786 177.808C90.2746 177.481 90.5873 177.22 91.0166 177.024C91.4553 176.828 92.0433 176.73 92.7806 176.73H95.1326V177.696H92.8366C92.1646 177.696 91.712 177.808 91.4786 178.032C91.2453 178.256 91.1286 178.527 91.1286 178.844C91.1286 179.208 91.2733 179.502 91.5626 179.726C91.852 179.941 92.2533 180.048 92.7666 180.048C93.2706 180.048 93.7093 179.936 94.0826 179.712C94.4653 179.488 94.7406 179.161 94.9086 178.732L95.1746 179.656C94.9973 180.095 94.6846 180.445 94.2366 180.706C93.7886 180.958 93.224 181.084 92.5426 181.084ZM101.862 181.084C101.227 181.084 100.667 180.967 100.182 180.734C99.7058 180.501 99.3325 180.146 99.0618 179.67C98.8005 179.185 98.6698 178.578 98.6698 177.85V173.58H100.014V177.696C100.014 178.424 100.186 178.97 100.532 179.334C100.886 179.698 101.381 179.88 102.016 179.88C102.482 179.88 102.888 179.787 103.234 179.6C103.579 179.404 103.845 179.124 104.032 178.76C104.218 178.387 104.312 177.939 104.312 177.416V173.58H105.656V181H104.382V178.998L104.592 179.53C104.349 180.025 103.985 180.407 103.5 180.678C103.014 180.949 102.468 181.084 101.862 181.084ZM108.214 181V170.612H109.558V181H108.214ZM114.864 181.084C114.117 181.084 113.539 180.883 113.128 180.482C112.717 180.081 112.512 179.507 112.512 178.76V171.956H113.856V178.704C113.856 179.105 113.954 179.413 114.15 179.628C114.355 179.843 114.645 179.95 115.018 179.95C115.438 179.95 115.788 179.833 116.068 179.6L116.488 180.566C116.283 180.743 116.035 180.874 115.746 180.958C115.466 181.042 115.172 181.084 114.864 181.084ZM111.252 174.686V173.58H115.984V174.686H111.252Z" fill="#F9FAFB"/>
<g opacity="0.6">
<rect x="20" y="224" width="105" height="40" rx="5" fill="#94A3B8"/>
<path fill-rule="evenodd" clip-rule="evenodd" d="M42.6152 233.595C42.9165 233.763 43.0643 234.115 42.9736 234.447L40.982 241.75H48.25C48.5487 241.75 48.8189 241.927 48.9379 242.201C49.0569 242.475 49.0021 242.793 48.7983 243.012L38.2983 254.262C38.063 254.514 37.686 254.573 37.3848 254.405C37.0836 254.237 36.9357 253.885 37.0264 253.553L39.0181 246.25H31.75C31.4514 246.25 31.1812 246.073 31.0622 245.799C30.9431 245.525 30.998 245.207 31.2017 244.988L41.7017 233.738C41.937 233.486 42.314 233.427 42.6152 233.595Z" fill="#475569"/>
<path d="M65.6311 249V239.2H69.7611C70.8065 239.2 71.7258 239.405 72.5191 239.816C73.3218 240.227 73.9425 240.801 74.3811 241.538C74.8291 242.275 75.0531 243.129 75.0531 244.1C75.0531 245.071 74.8291 245.925 74.3811 246.662C73.9425 247.399 73.3218 247.973 72.5191 248.384C71.7258 248.795 70.8065 249 69.7611 249H65.6311ZM67.0311 247.782H69.6771C70.4891 247.782 71.1891 247.628 71.7771 247.32C72.3745 247.012 72.8365 246.583 73.1631 246.032C73.4898 245.472 73.6531 244.828 73.6531 244.1C73.6531 243.363 73.4898 242.719 73.1631 242.168C72.8365 241.617 72.3745 241.188 71.7771 240.88C71.1891 240.572 70.4891 240.418 69.6771 240.418H67.0311V247.782ZM80.3055 249.084C79.5122 249.084 78.8122 248.921 78.2055 248.594C77.6082 248.267 77.1415 247.819 76.8055 247.25C76.4789 246.681 76.3155 246.027 76.3155 245.29C76.3155 244.553 76.4742 243.899 76.7915 243.33C77.1182 242.761 77.5615 242.317 78.1215 242C78.6909 241.673 79.3302 241.51 80.0395 241.51C80.7582 241.51 81.3929 241.669 81.9435 241.986C82.4942 242.303 82.9235 242.751 83.2315 243.33C83.5489 243.899 83.7075 244.567 83.7075 245.332C83.7075 245.388 83.7029 245.453 83.6935 245.528C83.6935 245.603 83.6889 245.673 83.6795 245.738H77.3655V244.772H82.9795L82.4335 245.108C82.4429 244.632 82.3449 244.207 82.1395 243.834C81.9342 243.461 81.6495 243.171 81.2855 242.966C80.9309 242.751 80.5155 242.644 80.0395 242.644C79.5729 242.644 79.1575 242.751 78.7935 242.966C78.4295 243.171 78.1449 243.465 77.9395 243.848C77.7342 244.221 77.6315 244.651 77.6315 245.136V245.36C77.6315 245.855 77.7435 246.298 77.9675 246.69C78.2009 247.073 78.5229 247.371 78.9335 247.586C79.3442 247.801 79.8155 247.908 80.3475 247.908C80.7862 247.908 81.1829 247.833 81.5375 247.684C81.9015 247.535 82.2189 247.311 82.4895 247.012L83.2315 247.88C82.8955 248.272 82.4755 248.571 81.9715 248.776C81.4769 248.981 80.9215 249.084 80.3055 249.084ZM85.7698 249V240.922C85.7698 240.194 85.9798 239.615 86.3998 239.186C86.8291 238.747 87.4358 238.528 88.2198 238.528C88.5091 238.528 88.7845 238.565 89.0458 238.64C89.3165 238.705 89.5451 238.813 89.7318 238.962L89.3258 239.984C89.1858 239.872 89.0271 239.788 88.8498 239.732C88.6725 239.667 88.4858 239.634 88.2898 239.634C87.8978 239.634 87.5991 239.746 87.3938 239.97C87.1885 240.185 87.0858 240.507 87.0858 240.936V241.93L87.1138 242.546V249H85.7698ZM84.5098 242.686V241.58H89.2418V242.686H84.5098ZM94.9786 249V247.432L94.9086 247.138V244.464C94.9086 243.895 94.7406 243.456 94.4046 243.148C94.078 242.831 93.5833 242.672 92.9206 242.672C92.482 242.672 92.0526 242.747 91.6326 242.896C91.2126 243.036 90.858 243.227 90.5686 243.47L90.0086 242.462C90.3913 242.154 90.8486 241.921 91.3806 241.762C91.922 241.594 92.4866 241.51 93.0746 241.51C94.092 241.51 94.876 241.757 95.4266 242.252C95.9773 242.747 96.2526 243.503 96.2526 244.52V249H94.9786ZM92.5426 249.084C91.992 249.084 91.5066 248.991 91.0866 248.804C90.676 248.617 90.3586 248.361 90.1346 248.034C89.9106 247.698 89.7986 247.32 89.7986 246.9C89.7986 246.499 89.892 246.135 90.0786 245.808C90.2746 245.481 90.5873 245.22 91.0166 245.024C91.4553 244.828 92.0433 244.73 92.7806 244.73H95.1326V245.696H92.8366C92.1646 245.696 91.712 245.808 91.4786 246.032C91.2453 246.256 91.1286 246.527 91.1286 246.844C91.1286 247.208 91.2733 247.502 91.5626 247.726C91.852 247.941 92.2533 248.048 92.7666 248.048C93.2706 248.048 93.7093 247.936 94.0826 247.712C94.4653 247.488 94.7406 247.161 94.9086 246.732L95.1746 247.656C94.9973 248.095 94.6846 248.445 94.2366 248.706C93.7886 248.958 93.224 249.084 92.5426 249.084ZM101.862 249.084C101.227 249.084 100.667 248.967 100.182 248.734C99.7058 248.501 99.3325 248.146 99.0618 247.67C98.8005 247.185 98.6698 246.578 98.6698 245.85V241.58H100.014V245.696C100.014 246.424 100.186 246.97 100.532 247.334C100.886 247.698 101.381 247.88 102.016 247.88C102.482 247.88 102.888 247.787 103.234 247.6C103.579 247.404 103.845 247.124 104.032 246.76C104.218 246.387 104.312 245.939 104.312 245.416V241.58H105.656V249H104.382V246.998L104.592 247.53C104.349 248.025 103.985 248.407 103.5 248.678C103.014 248.949 102.468 249.084 101.862 249.084ZM108.214 249V238.612H109.558V249H108.214ZM114.864 249.084C114.117 249.084 113.539 248.883 113.128 248.482C112.717 248.081 112.512 247.507 112.512 246.76V239.956H113.856V246.704C113.856 247.105 113.954 247.413 114.15 247.628C114.355 247.843 114.645 247.95 115.018 247.95C115.438 247.95 115.788 247.833 116.068 247.6L116.488 248.566C116.283 248.743 116.035 248.874 115.746 248.958C115.466 249.042 115.172 249.084 114.864 249.084ZM111.252 242.686V241.58H115.984V242.686H111.252Z" fill="#475569"/>
</g>
<rect x="20" y="88" width="105" height="40" rx="5" fill="#FFDF63"/>
<path fill-rule="evenodd" clip-rule="evenodd" d="M42.6152 97.595C42.9165 97.7629 43.0643 98.1146 42.9736 98.4474L40.982 105.75H48.25C48.5487 105.75 48.8189 105.927 48.9379 106.201C49.0569 106.475 49.0021 106.793 48.7983 107.012L38.2983 118.262C38.063 118.514 37.686 118.573 37.3848 118.405C37.0836 118.237 36.9357 117.885 37.0264 117.553L39.0181 110.25H31.75C31.4514 110.25 31.1812 110.073 31.0622 109.799C30.9431 109.525 30.998 109.207 31.2017 108.988L41.7017 97.7383C41.937 97.4862 42.314 97.427 42.6152 97.595Z" fill="#0F172A"/>
<path d="M65.6311 113V103.2H69.7611C70.8065 103.2 71.7258 103.405 72.5191 103.816C73.3218 104.227 73.9425 104.801 74.3811 105.538C74.8291 106.275 75.0531 107.129 75.0531 108.1C75.0531 109.071 74.8291 109.925 74.3811 110.662C73.9425 111.399 73.3218 111.973 72.5191 112.384C71.7258 112.795 70.8065 113 69.7611 113H65.6311ZM67.0311 111.782H69.6771C70.4891 111.782 71.1891 111.628 71.7771 111.32C72.3745 111.012 72.8365 110.583 73.1631 110.032C73.4898 109.472 73.6531 108.828 73.6531 108.1C73.6531 107.363 73.4898 106.719 73.1631 106.168C72.8365 105.617 72.3745 105.188 71.7771 104.88C71.1891 104.572 70.4891 104.418 69.6771 104.418H67.0311V111.782ZM80.3055 113.084C79.5122 113.084 78.8122 112.921 78.2055 112.594C77.6082 112.267 77.1415 111.819 76.8055 111.25C76.4789 110.681 76.3155 110.027 76.3155 109.29C76.3155 108.553 76.4742 107.899 76.7915 107.33C77.1182 106.761 77.5615 106.317 78.1215 106C78.6909 105.673 79.3302 105.51 80.0395 105.51C80.7582 105.51 81.3929 105.669 81.9435 105.986C82.4942 106.303 82.9235 106.751 83.2315 107.33C83.5489 107.899 83.7075 108.567 83.7075 109.332C83.7075 109.388 83.7029 109.453 83.6935 109.528C83.6935 109.603 83.6889 109.673 83.6795 109.738H77.3655V108.772H82.9795L82.4335 109.108C82.4429 108.632 82.3449 108.207 82.1395 107.834C81.9342 107.461 81.6495 107.171 81.2855 106.966C80.9309 106.751 80.5155 106.644 80.0395 106.644C79.5729 106.644 79.1575 106.751 78.7935 106.966C78.4295 107.171 78.1449 107.465 77.9395 107.848C77.7342 108.221 77.6315 108.651 77.6315 109.136V109.36C77.6315 109.855 77.7435 110.298 77.9675 110.69C78.2009 111.073 78.5229 111.371 78.9335 111.586C79.3442 111.801 79.8155 111.908 80.3475 111.908C80.7862 111.908 81.1829 111.833 81.5375 111.684C81.9015 111.535 82.2189 111.311 82.4895 111.012L83.2315 111.88C82.8955 112.272 82.4755 112.571 81.9715 112.776C81.4769 112.981 80.9215 113.084 80.3055 113.084ZM85.7698 113V104.922C85.7698 104.194 85.9798 103.615 86.3998 103.186C86.8291 102.747 87.4358 102.528 88.2198 102.528C88.5091 102.528 88.7845 102.565 89.0458 102.64C89.3165 102.705 89.5451 102.813 89.7318 102.962L89.3258 103.984C89.1858 103.872 89.0271 103.788 88.8498 103.732C88.6725 103.667 88.4858 103.634 88.2898 103.634C87.8978 103.634 87.5991 103.746 87.3938 103.97C87.1885 104.185 87.0858 104.507 87.0858 104.936V105.93L87.1138 106.546V113H85.7698ZM84.5098 106.686V105.58H89.2418V106.686H84.5098ZM94.9786 113V111.432L94.9086 111.138V108.464C94.9086 107.895 94.7406 107.456 94.4046 107.148C94.078 106.831 93.5833 106.672 92.9206 106.672C92.482 106.672 92.0526 106.747 91.6326 106.896C91.2126 107.036 90.858 107.227 90.5686 107.47L90.0086 106.462C90.3913 106.154 90.8486 105.921 91.3806 105.762C91.922 105.594 92.4866 105.51 93.0746 105.51C94.092 105.51 94.876 105.757 95.4266 106.252C95.9773 106.747 96.2526 107.503 96.2526 108.52V113H94.9786ZM92.5426 113.084C91.992 113.084 91.5066 112.991 91.0866 112.804C90.676 112.617 90.3586 112.361 90.1346 112.034C89.9106 111.698 89.7986 111.32 89.7986 110.9C89.7986 110.499 89.892 110.135 90.0786 109.808C90.2746 109.481 90.5873 109.22 91.0166 109.024C91.4553 108.828 92.0433 108.73 92.7806 108.73H95.1326V109.696H92.8366C92.1646 109.696 91.712 109.808 91.4786 110.032C91.2453 110.256 91.1286 110.527 91.1286 110.844C91.1286 111.208 91.2733 111.502 91.5626 111.726C91.852 111.941 92.2533 112.048 92.7666 112.048C93.2706 112.048 93.7093 111.936 94.0826 111.712C94.4653 111.488 94.7406 111.161 94.9086 110.732L95.1746 111.656C94.9973 112.095 94.6846 112.445 94.2366 112.706C93.7886 112.958 93.224 113.084 92.5426 113.084ZM101.862 113.084C101.227 113.084 100.667 112.967 100.182 112.734C99.7058 112.501 99.3325 112.146 99.0618 111.67C98.8005 111.185 98.6698 110.578 98.6698 109.85V105.58H100.014V109.696C100.014 110.424 100.186 110.97 100.532 111.334C100.886 111.698 101.381 111.88 102.016 111.88C102.482 111.88 102.888 111.787 103.234 111.6C103.579 111.404 103.845 111.124 104.032 110.76C104.218 110.387 104.312 109.939 104.312 109.416V105.58H105.656V113H104.382V110.998L104.592 111.53C104.349 112.025 103.985 112.407 103.5 112.678C103.014 112.949 102.468 113.084 101.862 113.084ZM108.214 113V102.612H109.558V113H108.214ZM114.864 113.084C114.117 113.084 113.539 112.883 113.128 112.482C112.717 112.081 112.512 111.507 112.512 110.76V103.956H113.856V110.704C113.856 111.105 113.954 111.413 114.15 111.628C114.355 111.843 114.645 111.95 115.018 111.95C115.438 111.95 115.788 111.833 116.068 111.6L116.488 112.566C116.283 112.743 116.035 112.874 115.746 112.958C115.466 113.042 115.172 113.084 114.864 113.084ZM111.252 106.686V105.58H115.984V106.686H111.252Z" fill="#0F172A"/>
</svg>
