<svg width="232" height="710" viewBox="0 0 232 710" fill="none" xmlns="http://www.w3.org/2000/svg">
<rect x="0.5" y="0.5" width="231" height="709" rx="4.5" stroke="#9747FF" stroke-dasharray="10 5"/>
<rect x="16" y="10" width="4" height="48" rx="2" fill="#94A3B8"/>
<rect x="25" y="17" width="197" height="34" rx="5" fill="white"/>
<path d="M37.4 27.0999C37.4 25.6087 38.6089 24.3999 40.1 24.3999H43.1C44.5912 24.3999 45.8 25.6087 45.8 27.0999V30.0999C45.8 31.5911 44.5912 32.7999 43.1 32.7999H40.1C38.6089 32.7999 37.4 31.5911 37.4 30.0999V27.0999Z" fill="#0F172A"/>
<path d="M37.4 37.8999C37.4 36.4087 38.6089 35.1999 40.1 35.1999H43.1C44.5912 35.1999 45.8 36.4087 45.8 37.8999V40.8999C45.8 42.3911 44.5912 43.5999 43.1 43.5999H40.1C38.6089 43.5999 37.4 42.3911 37.4 40.8999V37.8999Z" fill="#0F172A"/>
<path d="M48.2 27.0999C48.2 25.6087 49.4089 24.3999 50.9 24.3999H53.9C55.3912 24.3999 56.6 25.6087 56.6 27.0999V30.0999C56.6 31.5911 55.3912 32.7999 53.9 32.7999H50.9C49.4089 32.7999 48.2 31.5911 48.2 30.0999V27.0999Z" fill="#0F172A"/>
<path d="M53.3 36.0999C53.3 35.6028 52.8971 35.1999 52.4 35.1999C51.903 35.1999 51.5 35.6028 51.5 36.0999V38.4999H49.1C48.603 38.4999 48.2 38.9028 48.2 39.3999C48.2 39.897 48.603 40.2999 49.1 40.2999H51.5V42.6999C51.5 43.197 51.903 43.5999 52.4 43.5999C52.8971 43.5999 53.3 43.197 53.3 42.6999V40.2999H55.7C56.1971 40.2999 56.6 39.897 56.6 39.3999C56.6 38.9028 56.1971 38.4999 55.7 38.4999H53.3V36.0999Z" fill="#0F172A"/>
<path d="M70.368 38V29.6H73.512C74.224 29.6 74.836 29.716 75.348 29.948C75.86 30.172 76.252 30.5 76.524 30.932C76.804 31.356 76.944 31.872 76.944 32.48C76.944 33.072 76.804 33.584 76.524 34.016C76.252 34.44 75.86 34.768 75.348 35C74.836 35.224 74.224 35.336 73.512 35.336H70.86L71.256 34.928V38H70.368ZM76.104 38L73.944 34.952H74.904L77.076 38H76.104ZM71.256 35L70.86 34.58H73.488C74.328 34.58 74.964 34.396 75.396 34.028C75.836 33.66 76.056 33.144 76.056 32.48C76.056 31.808 75.836 31.288 75.396 30.92C74.964 30.552 74.328 30.368 73.488 30.368H70.86L71.256 29.948V35ZM81.5359 38.06C80.8799 38.06 80.3039 37.924 79.8079 37.652C79.3119 37.372 78.9239 36.992 78.6439 36.512C78.3639 36.024 78.2239 35.468 78.2239 34.844C78.2239 34.22 78.3559 33.668 78.6199 33.188C78.8919 32.708 79.2599 32.332 79.7239 32.06C80.1959 31.78 80.7239 31.64 81.3079 31.64C81.8999 31.64 82.4239 31.776 82.8799 32.048C83.3439 32.312 83.7079 32.688 83.9719 33.176C84.2359 33.656 84.3679 34.212 84.3679 34.844C84.3679 34.884 84.3639 34.928 84.3559 34.976C84.3559 35.016 84.3559 35.06 84.3559 35.108H78.8719V34.472H83.8999L83.5639 34.724C83.5639 34.268 83.4639 33.864 83.2639 33.512C83.0719 33.152 82.8079 32.872 82.4719 32.672C82.1359 32.472 81.7479 32.372 81.3079 32.372C80.8759 32.372 80.4879 32.472 80.1439 32.672C79.7999 32.872 79.5319 33.152 79.3399 33.512C79.1479 33.872 79.0519 34.284 79.0519 34.748V34.88C79.0519 35.36 79.1559 35.784 79.3639 36.152C79.5799 36.512 79.8759 36.796 80.2519 37.004C80.6359 37.204 81.0719 37.304 81.5599 37.304C81.9439 37.304 82.2999 37.236 82.6279 37.1C82.9639 36.964 83.2519 36.756 83.4919 36.476L83.9719 37.028C83.6919 37.364 83.3399 37.62 82.9159 37.796C82.4999 37.972 82.0399 38.06 81.5359 38.06ZM88.7901 40.388C88.2141 40.388 87.6621 40.304 87.1341 40.136C86.6061 39.968 86.1781 39.728 85.8501 39.416L86.2821 38.768C86.5781 39.032 86.9421 39.24 87.3741 39.392C87.8141 39.552 88.2781 39.632 88.7661 39.632C89.5661 39.632 90.1541 39.444 90.5301 39.068C90.9061 38.7 91.0941 38.124 91.0941 37.34V35.768L91.2141 34.688L91.1301 33.608V31.7H91.9461V37.232C91.9461 38.32 91.6781 39.116 91.1421 39.62C90.6141 40.132 89.8301 40.388 88.7901 40.388ZM88.6341 37.76C88.0341 37.76 87.4941 37.632 87.0141 37.376C86.5341 37.112 86.1541 36.748 85.8741 36.284C85.6021 35.82 85.4661 35.288 85.4661 34.688C85.4661 34.088 85.6021 33.56 85.8741 33.104C86.1541 32.64 86.5341 32.28 87.0141 32.024C87.4941 31.768 88.0341 31.64 88.6341 31.64C89.1941 31.64 89.6981 31.756 90.1461 31.988C90.5941 32.22 90.9501 32.564 91.2141 33.02C91.4781 33.476 91.6101 34.032 91.6101 34.688C91.6101 35.344 91.4781 35.9 91.2141 36.356C90.9501 36.812 90.5941 37.16 90.1461 37.4C89.6981 37.64 89.1941 37.76 88.6341 37.76ZM88.7181 37.004C89.1821 37.004 89.5941 36.908 89.9541 36.716C90.3141 36.516 90.5981 36.244 90.8061 35.9C91.0141 35.548 91.1181 35.144 91.1181 34.688C91.1181 34.232 91.0141 33.832 90.8061 33.488C90.5981 33.144 90.3141 32.876 89.9541 32.684C89.5941 32.484 89.1821 32.384 88.7181 32.384C88.2621 32.384 87.8501 32.484 87.4821 32.684C87.1221 32.876 86.8381 33.144 86.6301 33.488C86.4301 33.832 86.3301 34.232 86.3301 34.688C86.3301 35.144 86.4301 35.548 86.6301 35.9C86.8381 36.244 87.1221 36.516 87.4821 36.716C87.8501 36.908 88.2621 37.004 88.7181 37.004ZM94.3169 38V31.7H95.1689V38H94.3169ZM94.7489 30.308C94.5729 30.308 94.4249 30.248 94.3049 30.128C94.1849 30.008 94.1249 29.864 94.1249 29.696C94.1249 29.528 94.1849 29.388 94.3049 29.276C94.4249 29.156 94.5729 29.096 94.7489 29.096C94.9249 29.096 95.0729 29.152 95.1929 29.264C95.3129 29.376 95.3729 29.516 95.3729 29.684C95.3729 29.86 95.3129 30.008 95.1929 30.128C95.0809 30.248 94.9329 30.308 94.7489 30.308ZM99.2316 38.06C98.7116 38.06 98.2196 37.988 97.7556 37.844C97.2916 37.692 96.9276 37.504 96.6636 37.28L97.0476 36.608C97.3036 36.8 97.6316 36.968 98.0316 37.112C98.4316 37.248 98.8516 37.316 99.2916 37.316C99.8916 37.316 100.324 37.224 100.588 37.04C100.852 36.848 100.984 36.596 100.984 36.284C100.984 36.052 100.908 35.872 100.756 35.744C100.612 35.608 100.42 35.508 100.18 35.444C99.9396 35.372 99.6716 35.312 99.3756 35.264C99.0796 35.216 98.7836 35.16 98.4876 35.096C98.1996 35.032 97.9356 34.94 97.6956 34.82C97.4556 34.692 97.2596 34.52 97.1076 34.304C96.9636 34.088 96.8916 33.8 96.8916 33.44C96.8916 33.096 96.9876 32.788 97.1796 32.516C97.3716 32.244 97.6516 32.032 98.0196 31.88C98.3956 31.72 98.8516 31.64 99.3876 31.64C99.7956 31.64 100.204 31.696 100.612 31.808C101.02 31.912 101.356 32.052 101.62 32.228L101.248 32.912C100.968 32.72 100.668 32.584 100.348 32.504C100.028 32.416 99.7076 32.372 99.3876 32.372C98.8196 32.372 98.3996 32.472 98.1276 32.672C97.8636 32.864 97.7316 33.112 97.7316 33.416C97.7316 33.656 97.8036 33.844 97.9476 33.98C98.0996 34.116 98.2956 34.224 98.5356 34.304C98.7836 34.376 99.0516 34.436 99.3396 34.484C99.6356 34.532 99.9276 34.592 100.216 34.664C100.512 34.728 100.78 34.82 101.02 34.94C101.268 35.052 101.464 35.216 101.608 35.432C101.76 35.64 101.836 35.916 101.836 36.26C101.836 36.628 101.732 36.948 101.524 37.22C101.324 37.484 101.028 37.692 100.636 37.844C100.252 37.988 99.7836 38.06 99.2316 38.06ZM105.391 38.06C104.799 38.06 104.343 37.9 104.023 37.58C103.703 37.26 103.543 36.808 103.543 36.224V30.308H104.395V36.176C104.395 36.544 104.487 36.828 104.671 37.028C104.863 37.228 105.135 37.328 105.487 37.328C105.863 37.328 106.175 37.22 106.423 37.004L106.723 37.616C106.555 37.768 106.351 37.88 106.111 37.952C105.879 38.024 105.639 38.06 105.391 38.06ZM102.415 32.408V31.7H106.315V32.408H102.415ZM108.274 38V31.7H109.09V33.416L109.006 33.116C109.182 32.636 109.478 32.272 109.894 32.024C110.31 31.768 110.826 31.64 111.442 31.64V32.468C111.41 32.468 111.378 32.468 111.346 32.468C111.314 32.46 111.282 32.456 111.25 32.456C110.586 32.456 110.066 32.66 109.69 33.068C109.314 33.468 109.126 34.04 109.126 34.784V38H108.274ZM116.476 38V36.608L116.44 36.38V34.052C116.44 33.516 116.288 33.104 115.984 32.816C115.688 32.528 115.244 32.384 114.652 32.384C114.244 32.384 113.856 32.452 113.488 32.588C113.12 32.724 112.808 32.904 112.552 33.128L112.168 32.492C112.488 32.22 112.872 32.012 113.32 31.868C113.768 31.716 114.24 31.64 114.736 31.64C115.552 31.64 116.18 31.844 116.62 32.252C117.068 32.652 117.292 33.264 117.292 34.088V38H116.476ZM114.304 38.06C113.832 38.06 113.42 37.984 113.068 37.832C112.724 37.672 112.46 37.456 112.276 37.184C112.092 36.904 112 36.584 112 36.224C112 35.896 112.076 35.6 112.228 35.336C112.388 35.064 112.644 34.848 112.996 34.688C113.356 34.52 113.836 34.436 114.436 34.436H116.608V35.072H114.46C113.852 35.072 113.428 35.18 113.188 35.396C112.956 35.612 112.84 35.88 112.84 36.2C112.84 36.56 112.98 36.848 113.26 37.064C113.54 37.28 113.932 37.388 114.436 37.388C114.916 37.388 115.328 37.28 115.672 37.064C116.024 36.84 116.28 36.52 116.44 36.104L116.632 36.692C116.472 37.108 116.192 37.44 115.792 37.688C115.4 37.936 114.904 38.06 114.304 38.06ZM121.598 38.06C121.006 38.06 120.55 37.9 120.23 37.58C119.91 37.26 119.75 36.808 119.75 36.224V30.308H120.602V36.176C120.602 36.544 120.694 36.828 120.878 37.028C121.07 37.228 121.342 37.328 121.694 37.328C122.07 37.328 122.382 37.22 122.63 37.004L122.93 37.616C122.762 37.768 122.558 37.88 122.318 37.952C122.086 38.024 121.846 38.06 121.598 38.06ZM118.622 32.408V31.7H122.522V32.408H118.622ZM124.481 38V31.7H125.333V38H124.481ZM124.913 30.308C124.737 30.308 124.589 30.248 124.469 30.128C124.349 30.008 124.289 29.864 124.289 29.696C124.289 29.528 124.349 29.388 124.469 29.276C124.589 29.156 124.737 29.096 124.913 29.096C125.089 29.096 125.237 29.152 125.357 29.264C125.477 29.376 125.537 29.516 125.537 29.684C125.537 29.86 125.477 30.008 125.357 30.128C125.245 30.248 125.097 30.308 124.913 30.308ZM130.272 38.06C129.664 38.06 129.116 37.924 128.628 37.652C128.148 37.372 127.768 36.992 127.488 36.512C127.208 36.024 127.068 35.468 127.068 34.844C127.068 34.212 127.208 33.656 127.488 33.176C127.768 32.696 128.148 32.32 128.628 32.048C129.108 31.776 129.656 31.64 130.272 31.64C130.896 31.64 131.448 31.776 131.928 32.048C132.416 32.32 132.796 32.696 133.068 33.176C133.348 33.656 133.488 34.212 133.488 34.844C133.488 35.468 133.348 36.024 133.068 36.512C132.796 36.992 132.416 37.372 131.928 37.652C131.44 37.924 130.888 38.06 130.272 38.06ZM130.272 37.304C130.728 37.304 131.132 37.204 131.484 37.004C131.836 36.796 132.112 36.508 132.312 36.14C132.52 35.764 132.624 35.332 132.624 34.844C132.624 34.348 132.52 33.916 132.312 33.548C132.112 33.18 131.836 32.896 131.484 32.696C131.132 32.488 130.732 32.384 130.284 32.384C129.836 32.384 129.436 32.488 129.084 32.696C128.732 32.896 128.452 33.18 128.244 33.548C128.036 33.916 127.932 34.348 127.932 34.844C127.932 35.332 128.036 35.764 128.244 36.14C128.452 36.508 128.732 36.796 129.084 37.004C129.436 37.204 129.832 37.304 130.272 37.304ZM138.443 31.64C138.955 31.64 139.403 31.74 139.787 31.94C140.179 32.132 140.483 32.428 140.699 32.828C140.923 33.228 141.035 33.732 141.035 34.34V38H140.183V34.424C140.183 33.76 140.015 33.26 139.679 32.924C139.351 32.58 138.887 32.408 138.287 32.408C137.839 32.408 137.447 32.5 137.111 32.684C136.783 32.86 136.527 33.12 136.343 33.464C136.167 33.8 136.079 34.208 136.079 34.688V38H135.227V31.7H136.043V33.428L135.911 33.104C136.111 32.648 136.431 32.292 136.871 32.036C137.311 31.772 137.835 31.64 138.443 31.64Z" fill="#0F172A"/>
<rect x="16" y="53" width="4" height="48" rx="2" fill="#94A3B8"/>
<rect x="25" y="60" width="197" height="34" rx="5" fill="white"/>
<path fill-rule="evenodd" clip-rule="evenodd" d="M38 70.25C38 69.8358 38.3358 69.5 38.75 69.5H55.25C55.6642 69.5 56 69.8358 56 70.25C56 70.6642 55.6642 71 55.25 71H38.75C38.3358 71 38 70.6642 38 70.25ZM38 74.75C38 74.3358 38.3358 74 38.75 74H55.25C55.6642 74 56 74.3358 56 74.75C56 75.1642 55.6642 75.5 55.25 75.5H38.75C38.3358 75.5 38 75.1642 38 74.75ZM38 79.25C38 78.8358 38.3358 78.5 38.75 78.5H55.25C55.6642 78.5 56 78.8358 56 79.25C56 79.6642 55.6642 80 55.25 80H38.75C38.3358 80 38 79.6642 38 79.25ZM38 83.75C38 83.3358 38.3358 83 38.75 83H55.25C55.6642 83 56 83.3358 56 83.75C56 84.1642 55.6642 84.5 55.25 84.5H38.75C38.3358 84.5 38 84.1642 38 83.75Z" fill="#0F172A"/>
<path d="M72.684 81.072C72.06 81.072 71.46 80.972 70.884 80.772C70.316 80.564 69.876 80.3 69.564 79.98L69.912 79.296C70.208 79.584 70.604 79.828 71.1 80.028C71.604 80.22 72.132 80.316 72.684 80.316C73.212 80.316 73.64 80.252 73.968 80.124C74.304 79.988 74.548 79.808 74.7 79.584C74.86 79.36 74.94 79.112 74.94 78.84C74.94 78.512 74.844 78.248 74.652 78.048C74.468 77.848 74.224 77.692 73.92 77.58C73.616 77.46 73.28 77.356 72.912 77.268C72.544 77.18 72.176 77.088 71.808 76.992C71.44 76.888 71.1 76.752 70.788 76.584C70.484 76.416 70.236 76.196 70.044 75.924C69.86 75.644 69.768 75.28 69.768 74.832C69.768 74.416 69.876 74.036 70.092 73.692C70.316 73.34 70.656 73.06 71.112 72.852C71.568 72.636 72.152 72.528 72.864 72.528C73.336 72.528 73.804 72.596 74.268 72.732C74.732 72.86 75.132 73.04 75.468 73.272L75.168 73.98C74.808 73.74 74.424 73.564 74.016 73.452C73.616 73.34 73.228 73.284 72.852 73.284C72.348 73.284 71.932 73.352 71.604 73.488C71.276 73.624 71.032 73.808 70.872 74.04C70.72 74.264 70.644 74.52 70.644 74.808C70.644 75.136 70.736 75.4 70.92 75.6C71.112 75.8 71.36 75.956 71.664 76.068C71.976 76.18 72.316 76.28 72.684 76.368C73.052 76.456 73.416 76.552 73.776 76.656C74.144 76.76 74.48 76.896 74.784 77.064C75.096 77.224 75.344 77.44 75.528 77.712C75.72 77.984 75.816 78.34 75.816 78.78C75.816 79.188 75.704 79.568 75.48 79.92C75.256 80.264 74.912 80.544 74.448 80.76C73.992 80.968 73.404 81.072 72.684 81.072ZM80.1868 81.06C79.5628 81.06 79.0028 80.924 78.5068 80.652C78.0188 80.372 77.6348 79.992 77.3548 79.512C77.0748 79.024 76.9348 78.468 76.9348 77.844C76.9348 77.212 77.0748 76.656 77.3548 76.176C77.6348 75.696 78.0188 75.32 78.5068 75.048C79.0028 74.776 79.5628 74.64 80.1868 74.64C80.7228 74.64 81.2068 74.744 81.6388 74.952C82.0708 75.16 82.4108 75.472 82.6588 75.888L82.0228 76.32C81.8068 76 81.5388 75.764 81.2188 75.612C80.8988 75.46 80.5508 75.384 80.1748 75.384C79.7268 75.384 79.3228 75.488 78.9628 75.696C78.6028 75.896 78.3188 76.18 78.1108 76.548C77.9028 76.916 77.7988 77.348 77.7988 77.844C77.7988 78.34 77.9028 78.772 78.1108 79.14C78.3188 79.508 78.6028 79.796 78.9628 80.004C79.3228 80.204 79.7268 80.304 80.1748 80.304C80.5508 80.304 80.8988 80.228 81.2188 80.076C81.5388 79.924 81.8068 79.692 82.0228 79.38L82.6588 79.812C82.4108 80.22 82.0708 80.532 81.6388 80.748C81.2068 80.956 80.7228 81.06 80.1868 81.06ZM88.2805 81V79.608L88.2445 79.38V77.052C88.2445 76.516 88.0925 76.104 87.7885 75.816C87.4925 75.528 87.0485 75.384 86.4565 75.384C86.0485 75.384 85.6605 75.452 85.2925 75.588C84.9245 75.724 84.6125 75.904 84.3565 76.128L83.9725 75.492C84.2925 75.22 84.6765 75.012 85.1245 74.868C85.5725 74.716 86.0445 74.64 86.5405 74.64C87.3565 74.64 87.9845 74.844 88.4245 75.252C88.8725 75.652 89.0965 76.264 89.0965 77.088V81H88.2805ZM86.1085 81.06C85.6365 81.06 85.2245 80.984 84.8725 80.832C84.5285 80.672 84.2645 80.456 84.0805 80.184C83.8965 79.904 83.8045 79.584 83.8045 79.224C83.8045 78.896 83.8805 78.6 84.0325 78.336C84.1925 78.064 84.4485 77.848 84.8005 77.688C85.1605 77.52 85.6405 77.436 86.2405 77.436H88.4125V78.072H86.2645C85.6565 78.072 85.2325 78.18 84.9925 78.396C84.7605 78.612 84.6445 78.88 84.6445 79.2C84.6445 79.56 84.7845 79.848 85.0645 80.064C85.3445 80.28 85.7365 80.388 86.2405 80.388C86.7205 80.388 87.1325 80.28 87.4765 80.064C87.8285 79.84 88.0845 79.52 88.2445 79.104L88.4365 79.692C88.2765 80.108 87.9965 80.44 87.5965 80.688C87.2045 80.936 86.7085 81.06 86.1085 81.06ZM94.6267 74.64C95.1387 74.64 95.5867 74.74 95.9707 74.94C96.3627 75.132 96.6667 75.428 96.8827 75.828C97.1067 76.228 97.2187 76.732 97.2187 77.34V81H96.3667V77.424C96.3667 76.76 96.1987 76.26 95.8627 75.924C95.5347 75.58 95.0707 75.408 94.4707 75.408C94.0227 75.408 93.6307 75.5 93.2947 75.684C92.9667 75.86 92.7107 76.12 92.5267 76.464C92.3507 76.8 92.2627 77.208 92.2627 77.688V81H91.4107V74.7H92.2267V76.428L92.0947 76.104C92.2947 75.648 92.6147 75.292 93.0547 75.036C93.4947 74.772 94.0187 74.64 94.6267 74.64ZM105.913 81.06C105.369 81.06 104.877 80.936 104.437 80.688C103.997 80.432 103.645 80.068 103.381 79.596C103.125 79.116 102.997 78.532 102.997 77.844C102.997 77.156 103.125 76.576 103.381 76.104C103.637 75.624 103.985 75.26 104.425 75.012C104.865 74.764 105.361 74.64 105.913 74.64C106.513 74.64 107.049 74.776 107.521 75.048C108.001 75.312 108.377 75.688 108.649 76.176C108.921 76.656 109.057 77.212 109.057 77.844C109.057 78.484 108.921 79.044 108.649 79.524C108.377 80.004 108.001 80.38 107.521 80.652C107.049 80.924 106.513 81.06 105.913 81.06ZM102.661 83.328V74.7H103.477V76.596L103.393 77.856L103.513 79.128V83.328H102.661ZM105.853 80.304C106.301 80.304 106.701 80.204 107.053 80.004C107.405 79.796 107.685 79.508 107.893 79.14C108.101 78.764 108.205 78.332 108.205 77.844C108.205 77.356 108.101 76.928 107.893 76.56C107.685 76.192 107.405 75.904 107.053 75.696C106.701 75.488 106.301 75.384 105.853 75.384C105.405 75.384 105.001 75.488 104.641 75.696C104.289 75.904 104.009 76.192 103.801 76.56C103.601 76.928 103.501 77.356 103.501 77.844C103.501 78.332 103.601 78.764 103.801 79.14C104.009 79.508 104.289 79.796 104.641 80.004C105.001 80.204 105.405 80.304 105.853 80.304ZM114.706 81V79.608L114.67 79.38V77.052C114.67 76.516 114.518 76.104 114.214 75.816C113.918 75.528 113.474 75.384 112.882 75.384C112.474 75.384 112.086 75.452 111.718 75.588C111.35 75.724 111.038 75.904 110.782 76.128L110.398 75.492C110.718 75.22 111.102 75.012 111.55 74.868C111.998 74.716 112.47 74.64 112.966 74.64C113.782 74.64 114.41 74.844 114.85 75.252C115.298 75.652 115.522 76.264 115.522 77.088V81H114.706ZM112.534 81.06C112.062 81.06 111.65 80.984 111.298 80.832C110.954 80.672 110.69 80.456 110.506 80.184C110.322 79.904 110.23 79.584 110.23 79.224C110.23 78.896 110.306 78.6 110.458 78.336C110.618 78.064 110.874 77.848 111.226 77.688C111.586 77.52 112.066 77.436 112.666 77.436H114.838V78.072H112.69C112.082 78.072 111.658 78.18 111.418 78.396C111.186 78.612 111.07 78.88 111.07 79.2C111.07 79.56 111.21 79.848 111.49 80.064C111.77 80.28 112.162 80.388 112.666 80.388C113.146 80.388 113.558 80.28 113.902 80.064C114.254 79.84 114.51 79.52 114.67 79.104L114.862 79.692C114.702 80.108 114.422 80.44 114.022 80.688C113.63 80.936 113.134 81.06 112.534 81.06ZM119.828 81.06C119.236 81.06 118.78 80.9 118.46 80.58C118.14 80.26 117.98 79.808 117.98 79.224V73.308H118.832V79.176C118.832 79.544 118.924 79.828 119.108 80.028C119.3 80.228 119.572 80.328 119.924 80.328C120.3 80.328 120.612 80.22 120.86 80.004L121.16 80.616C120.992 80.768 120.788 80.88 120.548 80.952C120.316 81.024 120.076 81.06 119.828 81.06ZM116.852 75.408V74.7H120.752V75.408H116.852ZM124.539 81.06C123.947 81.06 123.491 80.9 123.171 80.58C122.851 80.26 122.691 79.808 122.691 79.224V73.308H123.543V79.176C123.543 79.544 123.635 79.828 123.819 80.028C124.011 80.228 124.283 80.328 124.635 80.328C125.011 80.328 125.323 80.22 125.571 80.004L125.871 80.616C125.703 80.768 125.499 80.88 125.259 80.952C125.027 81.024 124.787 81.06 124.539 81.06ZM121.563 75.408V74.7H125.463V75.408H121.563ZM129.876 81.06C129.22 81.06 128.644 80.924 128.148 80.652C127.652 80.372 127.264 79.992 126.984 79.512C126.704 79.024 126.564 78.468 126.564 77.844C126.564 77.22 126.696 76.668 126.96 76.188C127.232 75.708 127.6 75.332 128.064 75.06C128.536 74.78 129.064 74.64 129.648 74.64C130.24 74.64 130.764 74.776 131.22 75.048C131.684 75.312 132.048 75.688 132.312 76.176C132.576 76.656 132.708 77.212 132.708 77.844C132.708 77.884 132.704 77.928 132.696 77.976C132.696 78.016 132.696 78.06 132.696 78.108H127.212V77.472H132.24L131.904 77.724C131.904 77.268 131.804 76.864 131.604 76.512C131.412 76.152 131.148 75.872 130.812 75.672C130.476 75.472 130.088 75.372 129.648 75.372C129.216 75.372 128.828 75.472 128.484 75.672C128.14 75.872 127.872 76.152 127.68 76.512C127.488 76.872 127.392 77.284 127.392 77.748V77.88C127.392 78.36 127.496 78.784 127.704 79.152C127.92 79.512 128.216 79.796 128.592 80.004C128.976 80.204 129.412 80.304 129.9 80.304C130.284 80.304 130.64 80.236 130.968 80.1C131.304 79.964 131.592 79.756 131.832 79.476L132.312 80.028C132.032 80.364 131.68 80.62 131.256 80.796C130.84 80.972 130.38 81.06 129.876 81.06ZM134.442 81V74.7H135.258V76.416L135.174 76.116C135.35 75.636 135.646 75.272 136.062 75.024C136.478 74.768 136.994 74.64 137.61 74.64V75.468C137.578 75.468 137.546 75.468 137.514 75.468C137.482 75.46 137.45 75.456 137.418 75.456C136.754 75.456 136.234 75.66 135.858 76.068C135.482 76.468 135.294 77.04 135.294 77.784V81H134.442ZM142.381 74.64C142.893 74.64 143.341 74.74 143.725 74.94C144.117 75.132 144.421 75.428 144.637 75.828C144.861 76.228 144.973 76.732 144.973 77.34V81H144.121V77.424C144.121 76.76 143.953 76.26 143.617 75.924C143.289 75.58 142.825 75.408 142.225 75.408C141.777 75.408 141.385 75.5 141.049 75.684C140.721 75.86 140.465 76.12 140.281 76.464C140.105 76.8 140.017 77.208 140.017 77.688V81H139.165V74.7H139.981V76.428L139.849 76.104C140.049 75.648 140.369 75.292 140.809 75.036C141.249 74.772 141.773 74.64 142.381 74.64Z" fill="#0F172A"/>
<rect x="16" y="96" width="4" height="48" rx="2" fill="#94A3B8"/>
<rect x="25" y="103" width="197" height="34" rx="5" fill="white"/>
<path fill-rule="evenodd" clip-rule="evenodd" d="M36.3713 116.143C42.2291 110.286 51.7266 110.286 57.5845 116.143C57.8774 116.436 57.8774 116.911 57.5845 117.204L57.0542 117.734C56.9135 117.875 56.7228 117.954 56.5238 117.954C56.3249 117.954 56.1341 117.875 55.9935 117.734C51.0143 112.755 42.9415 112.755 37.9623 117.734C37.8216 117.875 37.6308 117.954 37.4319 117.954C37.233 117.954 37.0422 117.875 36.9016 117.734L36.3713 117.204C36.0784 116.911 36.0784 116.436 36.3713 116.143ZM39.5533 119.325C43.6538 115.225 50.302 115.225 54.4025 119.325C54.6954 119.618 54.6954 120.093 54.4025 120.386L53.8722 120.916C53.7316 121.057 53.5408 121.136 53.3419 121.136C53.143 121.136 52.9522 121.057 52.8115 120.916C49.5897 117.695 44.3661 117.695 41.1443 120.916C40.8514 121.209 40.3765 121.209 40.0836 120.916L39.5533 120.386C39.4126 120.245 39.3336 120.055 39.3336 119.856C39.3336 119.657 39.4126 119.466 39.5533 119.325ZM42.7573 122.507C45.1005 120.164 48.8995 120.164 51.2426 122.507C51.5355 122.8 51.5355 123.275 51.2426 123.568L50.7123 124.098C50.5716 124.239 50.3809 124.318 50.182 124.318C49.983 124.318 49.7923 124.239 49.6516 124.098C48.1872 122.634 45.8128 122.634 44.3483 124.098C44.0554 124.391 43.5806 124.391 43.2877 124.098L42.7573 123.568C42.4644 123.275 42.4644 122.8 42.7573 122.507ZM45.9393 125.689C46.5251 125.104 47.4748 125.104 48.0606 125.689C48.3535 125.982 48.3535 126.457 48.0606 126.75L47.5303 127.28C47.3896 127.421 47.1989 127.5 47 127.5C46.8011 127.5 46.6103 127.421 46.4696 127.28L45.9393 126.75C45.6464 126.457 45.6464 125.982 45.9393 125.689Z" fill="#0F172A"/>
<path d="M70.368 124V115.6H71.1L76.896 122.896H76.512V115.6H77.388V124H76.656L70.872 116.704H71.256V124H70.368ZM82.6257 124.06C81.9697 124.06 81.3937 123.924 80.8977 123.652C80.4017 123.372 80.0137 122.992 79.7337 122.512C79.4537 122.024 79.3137 121.468 79.3137 120.844C79.3137 120.22 79.4457 119.668 79.7097 119.188C79.9817 118.708 80.3497 118.332 80.8137 118.06C81.2857 117.78 81.8137 117.64 82.3977 117.64C82.9897 117.64 83.5137 117.776 83.9697 118.048C84.4337 118.312 84.7977 118.688 85.0617 119.176C85.3257 119.656 85.4577 120.212 85.4577 120.844C85.4577 120.884 85.4537 120.928 85.4457 120.976C85.4457 121.016 85.4457 121.06 85.4457 121.108H79.9617V120.472H84.9897L84.6537 120.724C84.6537 120.268 84.5537 119.864 84.3537 119.512C84.1617 119.152 83.8977 118.872 83.5617 118.672C83.2257 118.472 82.8377 118.372 82.3977 118.372C81.9657 118.372 81.5777 118.472 81.2337 118.672C80.8897 118.872 80.6217 119.152 80.4297 119.512C80.2377 119.872 80.1417 120.284 80.1417 120.748V120.88C80.1417 121.36 80.2457 121.784 80.4537 122.152C80.6697 122.512 80.9657 122.796 81.3417 123.004C81.7257 123.204 82.1617 123.304 82.6497 123.304C83.0337 123.304 83.3897 123.236 83.7177 123.1C84.0537 122.964 84.3417 122.756 84.5817 122.476L85.0617 123.028C84.7817 123.364 84.4297 123.62 84.0057 123.796C83.5897 123.972 83.1297 124.06 82.6257 124.06ZM89.1839 124.06C88.5919 124.06 88.1359 123.9 87.8159 123.58C87.4959 123.26 87.3359 122.808 87.3359 122.224V116.308H88.1879V122.176C88.1879 122.544 88.2799 122.828 88.4639 123.028C88.6559 123.228 88.9279 123.328 89.2799 123.328C89.6559 123.328 89.9679 123.22 90.2159 123.004L90.5159 123.616C90.3479 123.768 90.1439 123.88 89.9039 123.952C89.6719 124.024 89.4319 124.06 89.1839 124.06ZM86.2079 118.408V117.7H90.1079V118.408H86.2079ZM93.2337 124L90.8577 117.7H91.6737L93.8337 123.544H93.4617L95.6817 117.7H96.4137L98.6097 123.544H98.2377L100.434 117.7H101.214L98.8257 124H98.0217L95.9097 118.504H96.1617L94.0377 124H93.2337ZM104.889 124.06C104.281 124.06 103.733 123.924 103.245 123.652C102.765 123.372 102.385 122.992 102.105 122.512C101.825 122.024 101.685 121.468 101.685 120.844C101.685 120.212 101.825 119.656 102.105 119.176C102.385 118.696 102.765 118.32 103.245 118.048C103.725 117.776 104.273 117.64 104.889 117.64C105.513 117.64 106.065 117.776 106.545 118.048C107.033 118.32 107.413 118.696 107.685 119.176C107.965 119.656 108.105 120.212 108.105 120.844C108.105 121.468 107.965 122.024 107.685 122.512C107.413 122.992 107.033 123.372 106.545 123.652C106.057 123.924 105.505 124.06 104.889 124.06ZM104.889 123.304C105.345 123.304 105.749 123.204 106.101 123.004C106.453 122.796 106.729 122.508 106.929 122.14C107.137 121.764 107.241 121.332 107.241 120.844C107.241 120.348 107.137 119.916 106.929 119.548C106.729 119.18 106.453 118.896 106.101 118.696C105.749 118.488 105.349 118.384 104.901 118.384C104.453 118.384 104.053 118.488 103.701 118.696C103.349 118.896 103.069 119.18 102.861 119.548C102.653 119.916 102.549 120.348 102.549 120.844C102.549 121.332 102.653 121.764 102.861 122.14C103.069 122.508 103.349 122.796 103.701 123.004C104.053 123.204 104.449 123.304 104.889 123.304ZM109.844 124V117.7H110.66V119.416L110.576 119.116C110.752 118.636 111.048 118.272 111.464 118.024C111.88 117.768 112.396 117.64 113.012 117.64V118.468C112.98 118.468 112.948 118.468 112.916 118.468C112.884 118.46 112.852 118.456 112.82 118.456C112.156 118.456 111.636 118.66 111.26 119.068C110.884 119.468 110.696 120.04 110.696 120.784V124H109.844ZM115.239 122.368L115.263 121.276L119.187 117.7H120.231L117.459 120.352L116.979 120.76L115.239 122.368ZM114.567 124V115.096H115.419V124H114.567ZM119.451 124L116.823 120.724L117.375 120.064L120.495 124H119.451ZM126.607 124.06C126.087 124.06 125.595 123.988 125.131 123.844C124.667 123.692 124.303 123.504 124.039 123.28L124.423 122.608C124.679 122.8 125.007 122.968 125.407 123.112C125.807 123.248 126.227 123.316 126.667 123.316C127.267 123.316 127.699 123.224 127.963 123.04C128.227 122.848 128.359 122.596 128.359 122.284C128.359 122.052 128.283 121.872 128.131 121.744C127.987 121.608 127.795 121.508 127.555 121.444C127.315 121.372 127.047 121.312 126.751 121.264C126.455 121.216 126.159 121.16 125.863 121.096C125.575 121.032 125.311 120.94 125.071 120.82C124.831 120.692 124.635 120.52 124.483 120.304C124.339 120.088 124.267 119.8 124.267 119.44C124.267 119.096 124.363 118.788 124.555 118.516C124.747 118.244 125.027 118.032 125.395 117.88C125.771 117.72 126.227 117.64 126.763 117.64C127.171 117.64 127.579 117.696 127.987 117.808C128.395 117.912 128.731 118.052 128.995 118.228L128.623 118.912C128.343 118.72 128.043 118.584 127.723 118.504C127.403 118.416 127.083 118.372 126.763 118.372C126.195 118.372 125.775 118.472 125.503 118.672C125.239 118.864 125.107 119.112 125.107 119.416C125.107 119.656 125.179 119.844 125.323 119.98C125.475 120.116 125.671 120.224 125.911 120.304C126.159 120.376 126.427 120.436 126.715 120.484C127.011 120.532 127.303 120.592 127.591 120.664C127.887 120.728 128.155 120.82 128.395 120.94C128.643 121.052 128.839 121.216 128.983 121.432C129.135 121.64 129.211 121.916 129.211 122.26C129.211 122.628 129.107 122.948 128.899 123.22C128.699 123.484 128.403 123.692 128.011 123.844C127.627 123.988 127.159 124.06 126.607 124.06ZM133.45 124.06C132.794 124.06 132.218 123.924 131.722 123.652C131.226 123.372 130.838 122.992 130.558 122.512C130.278 122.024 130.138 121.468 130.138 120.844C130.138 120.22 130.27 119.668 130.534 119.188C130.806 118.708 131.174 118.332 131.638 118.06C132.11 117.78 132.638 117.64 133.222 117.64C133.814 117.64 134.338 117.776 134.794 118.048C135.258 118.312 135.622 118.688 135.886 119.176C136.15 119.656 136.282 120.212 136.282 120.844C136.282 120.884 136.278 120.928 136.27 120.976C136.27 121.016 136.27 121.06 136.27 121.108H130.786V120.472H135.814L135.478 120.724C135.478 120.268 135.378 119.864 135.178 119.512C134.986 119.152 134.722 118.872 134.386 118.672C134.05 118.472 133.662 118.372 133.222 118.372C132.79 118.372 132.402 118.472 132.058 118.672C131.714 118.872 131.446 119.152 131.254 119.512C131.062 119.872 130.966 120.284 130.966 120.748V120.88C130.966 121.36 131.07 121.784 131.278 122.152C131.494 122.512 131.79 122.796 132.166 123.004C132.55 123.204 132.986 123.304 133.474 123.304C133.858 123.304 134.214 123.236 134.542 123.1C134.878 122.964 135.166 122.756 135.406 122.476L135.886 123.028C135.606 123.364 135.254 123.62 134.83 123.796C134.414 123.972 133.954 124.06 133.45 124.06ZM140.008 124.06C139.416 124.06 138.96 123.9 138.64 123.58C138.32 123.26 138.16 122.808 138.16 122.224V116.308H139.012V122.176C139.012 122.544 139.104 122.828 139.288 123.028C139.48 123.228 139.752 123.328 140.104 123.328C140.48 123.328 140.792 123.22 141.04 123.004L141.34 123.616C141.172 123.768 140.968 123.88 140.728 123.952C140.496 124.024 140.256 124.06 140.008 124.06ZM137.032 118.408V117.7H140.932V118.408H137.032ZM145.495 124.06C144.959 124.06 144.491 123.96 144.091 123.76C143.691 123.56 143.379 123.26 143.155 122.86C142.939 122.46 142.831 121.96 142.831 121.36V117.7H143.683V121.264C143.683 121.936 143.847 122.444 144.175 122.788C144.511 123.124 144.979 123.292 145.579 123.292C146.019 123.292 146.399 123.204 146.719 123.028C147.047 122.844 147.295 122.58 147.463 122.236C147.639 121.892 147.727 121.48 147.727 121V117.7H148.579V124H147.763V122.272L147.895 122.584C147.695 123.048 147.383 123.412 146.959 123.676C146.543 123.932 146.055 124.06 145.495 124.06ZM154.206 124.06C153.662 124.06 153.17 123.936 152.73 123.688C152.29 123.432 151.938 123.068 151.674 122.596C151.418 122.116 151.29 121.532 151.29 120.844C151.29 120.156 151.418 119.576 151.674 119.104C151.93 118.624 152.278 118.26 152.718 118.012C153.158 117.764 153.654 117.64 154.206 117.64C154.806 117.64 155.342 117.776 155.814 118.048C156.294 118.312 156.67 118.688 156.942 119.176C157.214 119.656 157.35 120.212 157.35 120.844C157.35 121.484 157.214 122.044 156.942 122.524C156.67 123.004 156.294 123.38 155.814 123.652C155.342 123.924 154.806 124.06 154.206 124.06ZM150.954 126.328V117.7H151.77V119.596L151.686 120.856L151.806 122.128V126.328H150.954ZM154.146 123.304C154.594 123.304 154.994 123.204 155.346 123.004C155.698 122.796 155.978 122.508 156.186 122.14C156.394 121.764 156.498 121.332 156.498 120.844C156.498 120.356 156.394 119.928 156.186 119.56C155.978 119.192 155.698 118.904 155.346 118.696C154.994 118.488 154.594 118.384 154.146 118.384C153.698 118.384 153.294 118.488 152.934 118.696C152.582 118.904 152.302 119.192 152.094 119.56C151.894 119.928 151.794 120.356 151.794 120.844C151.794 121.332 151.894 121.764 152.094 122.14C152.302 122.508 152.582 122.796 152.934 123.004C153.294 123.204 153.698 123.304 154.146 123.304Z" fill="#0F172A"/>
<rect x="16" y="139" width="4" height="48" rx="2" fill="#94A3B8"/>
<rect x="25" y="146" width="197" height="34" rx="5" fill="white"/>
<path fill-rule="evenodd" clip-rule="evenodd" d="M38.6 156.1C38.6 154.609 39.8088 153.4 41.3 153.4H47.9C49.3911 153.4 50.6 154.609 50.6 156.1V158.5C50.6 158.997 50.197 159.4 49.7 159.4C49.2029 159.4 48.8 158.997 48.8 158.5V156.1C48.8 155.603 48.397 155.2 47.9 155.2H41.3C40.8029 155.2 40.4 155.603 40.4 156.1V169.9C40.4 170.397 40.8029 170.8 41.3 170.8H47.9C48.397 170.8 48.8 170.397 48.8 169.9V167.5C48.8 167.003 49.2029 166.6 49.7 166.6C50.197 166.6 50.6 167.003 50.6 167.5V169.9C50.6 171.391 49.3911 172.6 47.9 172.6H41.3C39.8088 172.6 38.6 171.391 38.6 169.9V156.1Z" fill="#0F172A"/>
<path fill-rule="evenodd" clip-rule="evenodd" d="M42.2 163C42.2 162.503 42.6029 162.1 43.1 162.1H54.5546L53.2979 160.969C52.9284 160.636 52.8985 160.067 53.231 159.698C53.5635 159.328 54.1326 159.298 54.502 159.631L57.502 162.331C57.6917 162.502 57.8 162.745 57.8 163C57.8 163.255 57.6917 163.498 57.502 163.669L54.502 166.369C54.1326 166.701 53.5635 166.671 53.231 166.302C52.8985 165.933 52.9284 165.363 53.2979 165.031L54.5546 163.9H43.1C42.6029 163.9 42.2 163.497 42.2 163Z" fill="#0F172A"/>
<path d="M70.368 167V158.6H73.512C74.224 158.6 74.836 158.716 75.348 158.948C75.86 159.172 76.252 159.5 76.524 159.932C76.804 160.356 76.944 160.872 76.944 161.48C76.944 162.072 76.804 162.584 76.524 163.016C76.252 163.44 75.86 163.768 75.348 164C74.836 164.232 74.224 164.348 73.512 164.348H70.86L71.256 163.928V167H70.368ZM71.256 164L70.86 163.568H73.488C74.328 163.568 74.964 163.388 75.396 163.028C75.836 162.66 76.056 162.144 76.056 161.48C76.056 160.808 75.836 160.288 75.396 159.92C74.964 159.552 74.328 159.368 73.488 159.368H70.86L71.256 158.948V164ZM81.4053 167.06C80.8693 167.06 80.4013 166.96 80.0013 166.76C79.6013 166.56 79.2893 166.26 79.0653 165.86C78.8493 165.46 78.7413 164.96 78.7413 164.36V160.7H79.5933V164.264C79.5933 164.936 79.7573 165.444 80.0853 165.788C80.4213 166.124 80.8893 166.292 81.4893 166.292C81.9293 166.292 82.3093 166.204 82.6293 166.028C82.9573 165.844 83.2053 165.58 83.3733 165.236C83.5493 164.892 83.6373 164.48 83.6373 164V160.7H84.4893V167H83.6733V165.272L83.8053 165.584C83.6053 166.048 83.2933 166.412 82.8693 166.676C82.4533 166.932 81.9653 167.06 81.4053 167.06ZM88.5558 167.06C88.0358 167.06 87.5438 166.988 87.0798 166.844C86.6158 166.692 86.2518 166.504 85.9878 166.28L86.3718 165.608C86.6278 165.8 86.9558 165.968 87.3558 166.112C87.7558 166.248 88.1758 166.316 88.6158 166.316C89.2158 166.316 89.6478 166.224 89.9118 166.04C90.1758 165.848 90.3078 165.596 90.3078 165.284C90.3078 165.052 90.2318 164.872 90.0798 164.744C89.9358 164.608 89.7438 164.508 89.5038 164.444C89.2638 164.372 88.9958 164.312 88.6998 164.264C88.4038 164.216 88.1078 164.16 87.8118 164.096C87.5238 164.032 87.2598 163.94 87.0198 163.82C86.7798 163.692 86.5838 163.52 86.4318 163.304C86.2878 163.088 86.2158 162.8 86.2158 162.44C86.2158 162.096 86.3118 161.788 86.5038 161.516C86.6958 161.244 86.9758 161.032 87.3438 160.88C87.7198 160.72 88.1758 160.64 88.7118 160.64C89.1198 160.64 89.5278 160.696 89.9358 160.808C90.3438 160.912 90.6798 161.052 90.9438 161.228L90.5718 161.912C90.2918 161.72 89.9918 161.584 89.6718 161.504C89.3518 161.416 89.0318 161.372 88.7118 161.372C88.1438 161.372 87.7238 161.472 87.4518 161.672C87.1878 161.864 87.0558 162.112 87.0558 162.416C87.0558 162.656 87.1278 162.844 87.2718 162.98C87.4238 163.116 87.6198 163.224 87.8598 163.304C88.1078 163.376 88.3758 163.436 88.6638 163.484C88.9598 163.532 89.2518 163.592 89.5398 163.664C89.8358 163.728 90.1038 163.82 90.3438 163.94C90.5918 164.052 90.7878 164.216 90.9318 164.432C91.0838 164.64 91.1598 164.916 91.1598 165.26C91.1598 165.628 91.0558 165.948 90.8478 166.22C90.6478 166.484 90.3518 166.692 89.9598 166.844C89.5758 166.988 89.1078 167.06 88.5558 167.06ZM95.9392 160.64C96.4512 160.64 96.8992 160.74 97.2832 160.94C97.6752 161.132 97.9792 161.428 98.1952 161.828C98.4192 162.228 98.5312 162.732 98.5312 163.34V167H97.6792V163.424C97.6792 162.76 97.5112 162.26 97.1752 161.924C96.8472 161.58 96.3832 161.408 95.7832 161.408C95.3352 161.408 94.9432 161.5 94.6072 161.684C94.2792 161.86 94.0232 162.12 93.8392 162.464C93.6632 162.8 93.5752 163.208 93.5752 163.688V167H92.7232V158.096H93.5752V162.428L93.4072 162.104C93.6072 161.648 93.9272 161.292 94.3672 161.036C94.8072 160.772 95.3312 160.64 95.9392 160.64Z" fill="#0F172A"/>
<rect x="16" y="197" width="4" height="48" rx="2" fill="#334155"/>
<rect x="25" y="204" width="197" height="34" rx="5" fill="#334155"/>
<path d="M37.4 214.1C37.4 212.609 38.6089 211.4 40.1 211.4H43.1C44.5912 211.4 45.8 212.609 45.8 214.1V217.1C45.8 218.591 44.5912 219.8 43.1 219.8H40.1C38.6089 219.8 37.4 218.591 37.4 217.1V214.1Z" fill="#FFDF63"/>
<path d="M37.4 224.9C37.4 223.409 38.6089 222.2 40.1 222.2H43.1C44.5912 222.2 45.8 223.409 45.8 224.9V227.9C45.8 229.391 44.5912 230.6 43.1 230.6H40.1C38.6089 230.6 37.4 229.391 37.4 227.9V224.9Z" fill="#FFDF63"/>
<path d="M48.2 214.1C48.2 212.609 49.4089 211.4 50.9 211.4H53.9C55.3912 211.4 56.6 212.609 56.6 214.1V217.1C56.6 218.591 55.3912 219.8 53.9 219.8H50.9C49.4089 219.8 48.2 218.591 48.2 217.1V214.1Z" fill="#FFDF63"/>
<path d="M53.3 223.1C53.3 222.603 52.8971 222.2 52.4 222.2C51.903 222.2 51.5 222.603 51.5 223.1V225.5H49.1C48.603 225.5 48.2 225.903 48.2 226.4C48.2 226.897 48.603 227.3 49.1 227.3H51.5V229.7C51.5 230.197 51.903 230.6 52.4 230.6C52.8971 230.6 53.3 230.197 53.3 229.7V227.3H55.7C56.1971 227.3 56.6 226.897 56.6 226.4C56.6 225.903 56.1971 225.5 55.7 225.5H53.3V223.1Z" fill="#FFDF63"/>
<path d="M70.368 225V216.6H73.512C74.224 216.6 74.836 216.716 75.348 216.948C75.86 217.172 76.252 217.5 76.524 217.932C76.804 218.356 76.944 218.872 76.944 219.48C76.944 220.072 76.804 220.584 76.524 221.016C76.252 221.44 75.86 221.768 75.348 222C74.836 222.224 74.224 222.336 73.512 222.336H70.86L71.256 221.928V225H70.368ZM76.104 225L73.944 221.952H74.904L77.076 225H76.104ZM71.256 222L70.86 221.58H73.488C74.328 221.58 74.964 221.396 75.396 221.028C75.836 220.66 76.056 220.144 76.056 219.48C76.056 218.808 75.836 218.288 75.396 217.92C74.964 217.552 74.328 217.368 73.488 217.368H70.86L71.256 216.948V222ZM81.5359 225.06C80.8799 225.06 80.3039 224.924 79.8079 224.652C79.3119 224.372 78.9239 223.992 78.6439 223.512C78.3639 223.024 78.2239 222.468 78.2239 221.844C78.2239 221.22 78.3559 220.668 78.6199 220.188C78.8919 219.708 79.2599 219.332 79.7239 219.06C80.1959 218.78 80.7239 218.64 81.3079 218.64C81.8999 218.64 82.4239 218.776 82.8799 219.048C83.3439 219.312 83.7079 219.688 83.9719 220.176C84.2359 220.656 84.3679 221.212 84.3679 221.844C84.3679 221.884 84.3639 221.928 84.3559 221.976C84.3559 222.016 84.3559 222.06 84.3559 222.108H78.8719V221.472H83.8999L83.5639 221.724C83.5639 221.268 83.4639 220.864 83.2639 220.512C83.0719 220.152 82.8079 219.872 82.4719 219.672C82.1359 219.472 81.7479 219.372 81.3079 219.372C80.8759 219.372 80.4879 219.472 80.1439 219.672C79.7999 219.872 79.5319 220.152 79.3399 220.512C79.1479 220.872 79.0519 221.284 79.0519 221.748V221.88C79.0519 222.36 79.1559 222.784 79.3639 223.152C79.5799 223.512 79.8759 223.796 80.2519 224.004C80.6359 224.204 81.0719 224.304 81.5599 224.304C81.9439 224.304 82.2999 224.236 82.6279 224.1C82.9639 223.964 83.2519 223.756 83.4919 223.476L83.9719 224.028C83.6919 224.364 83.3399 224.62 82.9159 224.796C82.4999 224.972 82.0399 225.06 81.5359 225.06ZM88.7901 227.388C88.2141 227.388 87.6621 227.304 87.1341 227.136C86.6061 226.968 86.1781 226.728 85.8501 226.416L86.2821 225.768C86.5781 226.032 86.9421 226.24 87.3741 226.392C87.8141 226.552 88.2781 226.632 88.7661 226.632C89.5661 226.632 90.1541 226.444 90.5301 226.068C90.9061 225.7 91.0941 225.124 91.0941 224.34V222.768L91.2141 221.688L91.1301 220.608V218.7H91.9461V224.232C91.9461 225.32 91.6781 226.116 91.1421 226.62C90.6141 227.132 89.8301 227.388 88.7901 227.388ZM88.6341 224.76C88.0341 224.76 87.4941 224.632 87.0141 224.376C86.5341 224.112 86.1541 223.748 85.8741 223.284C85.6021 222.82 85.4661 222.288 85.4661 221.688C85.4661 221.088 85.6021 220.56 85.8741 220.104C86.1541 219.64 86.5341 219.28 87.0141 219.024C87.4941 218.768 88.0341 218.64 88.6341 218.64C89.1941 218.64 89.6981 218.756 90.1461 218.988C90.5941 219.22 90.9501 219.564 91.2141 220.02C91.4781 220.476 91.6101 221.032 91.6101 221.688C91.6101 222.344 91.4781 222.9 91.2141 223.356C90.9501 223.812 90.5941 224.16 90.1461 224.4C89.6981 224.64 89.1941 224.76 88.6341 224.76ZM88.7181 224.004C89.1821 224.004 89.5941 223.908 89.9541 223.716C90.3141 223.516 90.5981 223.244 90.8061 222.9C91.0141 222.548 91.1181 222.144 91.1181 221.688C91.1181 221.232 91.0141 220.832 90.8061 220.488C90.5981 220.144 90.3141 219.876 89.9541 219.684C89.5941 219.484 89.1821 219.384 88.7181 219.384C88.2621 219.384 87.8501 219.484 87.4821 219.684C87.1221 219.876 86.8381 220.144 86.6301 220.488C86.4301 220.832 86.3301 221.232 86.3301 221.688C86.3301 222.144 86.4301 222.548 86.6301 222.9C86.8381 223.244 87.1221 223.516 87.4821 223.716C87.8501 223.908 88.2621 224.004 88.7181 224.004ZM94.3169 225V218.7H95.1689V225H94.3169ZM94.7489 217.308C94.5729 217.308 94.4249 217.248 94.3049 217.128C94.1849 217.008 94.1249 216.864 94.1249 216.696C94.1249 216.528 94.1849 216.388 94.3049 216.276C94.4249 216.156 94.5729 216.096 94.7489 216.096C94.9249 216.096 95.0729 216.152 95.1929 216.264C95.3129 216.376 95.3729 216.516 95.3729 216.684C95.3729 216.86 95.3129 217.008 95.1929 217.128C95.0809 217.248 94.9329 217.308 94.7489 217.308ZM99.2316 225.06C98.7116 225.06 98.2196 224.988 97.7556 224.844C97.2916 224.692 96.9276 224.504 96.6636 224.28L97.0476 223.608C97.3036 223.8 97.6316 223.968 98.0316 224.112C98.4316 224.248 98.8516 224.316 99.2916 224.316C99.8916 224.316 100.324 224.224 100.588 224.04C100.852 223.848 100.984 223.596 100.984 223.284C100.984 223.052 100.908 222.872 100.756 222.744C100.612 222.608 100.42 222.508 100.18 222.444C99.9396 222.372 99.6716 222.312 99.3756 222.264C99.0796 222.216 98.7836 222.16 98.4876 222.096C98.1996 222.032 97.9356 221.94 97.6956 221.82C97.4556 221.692 97.2596 221.52 97.1076 221.304C96.9636 221.088 96.8916 220.8 96.8916 220.44C96.8916 220.096 96.9876 219.788 97.1796 219.516C97.3716 219.244 97.6516 219.032 98.0196 218.88C98.3956 218.72 98.8516 218.64 99.3876 218.64C99.7956 218.64 100.204 218.696 100.612 218.808C101.02 218.912 101.356 219.052 101.62 219.228L101.248 219.912C100.968 219.72 100.668 219.584 100.348 219.504C100.028 219.416 99.7076 219.372 99.3876 219.372C98.8196 219.372 98.3996 219.472 98.1276 219.672C97.8636 219.864 97.7316 220.112 97.7316 220.416C97.7316 220.656 97.8036 220.844 97.9476 220.98C98.0996 221.116 98.2956 221.224 98.5356 221.304C98.7836 221.376 99.0516 221.436 99.3396 221.484C99.6356 221.532 99.9276 221.592 100.216 221.664C100.512 221.728 100.78 221.82 101.02 221.94C101.268 222.052 101.464 222.216 101.608 222.432C101.76 222.64 101.836 222.916 101.836 223.26C101.836 223.628 101.732 223.948 101.524 224.22C101.324 224.484 101.028 224.692 100.636 224.844C100.252 224.988 99.7836 225.06 99.2316 225.06ZM105.391 225.06C104.799 225.06 104.343 224.9 104.023 224.58C103.703 224.26 103.543 223.808 103.543 223.224V217.308H104.395V223.176C104.395 223.544 104.487 223.828 104.671 224.028C104.863 224.228 105.135 224.328 105.487 224.328C105.863 224.328 106.175 224.22 106.423 224.004L106.723 224.616C106.555 224.768 106.351 224.88 106.111 224.952C105.879 225.024 105.639 225.06 105.391 225.06ZM102.415 219.408V218.7H106.315V219.408H102.415ZM108.274 225V218.7H109.09V220.416L109.006 220.116C109.182 219.636 109.478 219.272 109.894 219.024C110.31 218.768 110.826 218.64 111.442 218.64V219.468C111.41 219.468 111.378 219.468 111.346 219.468C111.314 219.46 111.282 219.456 111.25 219.456C110.586 219.456 110.066 219.66 109.69 220.068C109.314 220.468 109.126 221.04 109.126 221.784V225H108.274ZM116.476 225V223.608L116.44 223.38V221.052C116.44 220.516 116.288 220.104 115.984 219.816C115.688 219.528 115.244 219.384 114.652 219.384C114.244 219.384 113.856 219.452 113.488 219.588C113.12 219.724 112.808 219.904 112.552 220.128L112.168 219.492C112.488 219.22 112.872 219.012 113.32 218.868C113.768 218.716 114.24 218.64 114.736 218.64C115.552 218.64 116.18 218.844 116.62 219.252C117.068 219.652 117.292 220.264 117.292 221.088V225H116.476ZM114.304 225.06C113.832 225.06 113.42 224.984 113.068 224.832C112.724 224.672 112.46 224.456 112.276 224.184C112.092 223.904 112 223.584 112 223.224C112 222.896 112.076 222.6 112.228 222.336C112.388 222.064 112.644 221.848 112.996 221.688C113.356 221.52 113.836 221.436 114.436 221.436H116.608V222.072H114.46C113.852 222.072 113.428 222.18 113.188 222.396C112.956 222.612 112.84 222.88 112.84 223.2C112.84 223.56 112.98 223.848 113.26 224.064C113.54 224.28 113.932 224.388 114.436 224.388C114.916 224.388 115.328 224.28 115.672 224.064C116.024 223.84 116.28 223.52 116.44 223.104L116.632 223.692C116.472 224.108 116.192 224.44 115.792 224.688C115.4 224.936 114.904 225.06 114.304 225.06ZM121.598 225.06C121.006 225.06 120.55 224.9 120.23 224.58C119.91 224.26 119.75 223.808 119.75 223.224V217.308H120.602V223.176C120.602 223.544 120.694 223.828 120.878 224.028C121.07 224.228 121.342 224.328 121.694 224.328C122.07 224.328 122.382 224.22 122.63 224.004L122.93 224.616C122.762 224.768 122.558 224.88 122.318 224.952C122.086 225.024 121.846 225.06 121.598 225.06ZM118.622 219.408V218.7H122.522V219.408H118.622ZM124.481 225V218.7H125.333V225H124.481ZM124.913 217.308C124.737 217.308 124.589 217.248 124.469 217.128C124.349 217.008 124.289 216.864 124.289 216.696C124.289 216.528 124.349 216.388 124.469 216.276C124.589 216.156 124.737 216.096 124.913 216.096C125.089 216.096 125.237 216.152 125.357 216.264C125.477 216.376 125.537 216.516 125.537 216.684C125.537 216.86 125.477 217.008 125.357 217.128C125.245 217.248 125.097 217.308 124.913 217.308ZM130.272 225.06C129.664 225.06 129.116 224.924 128.628 224.652C128.148 224.372 127.768 223.992 127.488 223.512C127.208 223.024 127.068 222.468 127.068 221.844C127.068 221.212 127.208 220.656 127.488 220.176C127.768 219.696 128.148 219.32 128.628 219.048C129.108 218.776 129.656 218.64 130.272 218.64C130.896 218.64 131.448 218.776 131.928 219.048C132.416 219.32 132.796 219.696 133.068 220.176C133.348 220.656 133.488 221.212 133.488 221.844C133.488 222.468 133.348 223.024 133.068 223.512C132.796 223.992 132.416 224.372 131.928 224.652C131.44 224.924 130.888 225.06 130.272 225.06ZM130.272 224.304C130.728 224.304 131.132 224.204 131.484 224.004C131.836 223.796 132.112 223.508 132.312 223.14C132.52 222.764 132.624 222.332 132.624 221.844C132.624 221.348 132.52 220.916 132.312 220.548C132.112 220.18 131.836 219.896 131.484 219.696C131.132 219.488 130.732 219.384 130.284 219.384C129.836 219.384 129.436 219.488 129.084 219.696C128.732 219.896 128.452 220.18 128.244 220.548C128.036 220.916 127.932 221.348 127.932 221.844C127.932 222.332 128.036 222.764 128.244 223.14C128.452 223.508 128.732 223.796 129.084 224.004C129.436 224.204 129.832 224.304 130.272 224.304ZM138.443 218.64C138.955 218.64 139.403 218.74 139.787 218.94C140.179 219.132 140.483 219.428 140.699 219.828C140.923 220.228 141.035 220.732 141.035 221.34V225H140.183V221.424C140.183 220.76 140.015 220.26 139.679 219.924C139.351 219.58 138.887 219.408 138.287 219.408C137.839 219.408 137.447 219.5 137.111 219.684C136.783 219.86 136.527 220.12 136.343 220.464C136.167 220.8 136.079 221.208 136.079 221.688V225H135.227V218.7H136.043V220.428L135.911 220.104C136.111 219.648 136.431 219.292 136.871 219.036C137.311 218.772 137.835 218.64 138.443 218.64Z" fill="#FFDF63"/>
<rect x="16" y="240" width="4" height="48" rx="2" fill="#334155"/>
<rect x="25" y="247" width="197" height="34" rx="5" fill="#334155"/>
<path fill-rule="evenodd" clip-rule="evenodd" d="M38 257.25C38 256.836 38.3358 256.5 38.75 256.5H55.25C55.6642 256.5 56 256.836 56 257.25C56 257.664 55.6642 258 55.25 258H38.75C38.3358 258 38 257.664 38 257.25ZM38 261.75C38 261.336 38.3358 261 38.75 261H55.25C55.6642 261 56 261.336 56 261.75C56 262.164 55.6642 262.5 55.25 262.5H38.75C38.3358 262.5 38 262.164 38 261.75ZM38 266.25C38 265.836 38.3358 265.5 38.75 265.5H55.25C55.6642 265.5 56 265.836 56 266.25C56 266.664 55.6642 267 55.25 267H38.75C38.3358 267 38 266.664 38 266.25ZM38 270.75C38 270.336 38.3358 270 38.75 270H55.25C55.6642 270 56 270.336 56 270.75C56 271.164 55.6642 271.5 55.25 271.5H38.75C38.3358 271.5 38 271.164 38 270.75Z" fill="#FFDF63"/>
<path d="M72.684 268.072C72.06 268.072 71.46 267.972 70.884 267.772C70.316 267.564 69.876 267.3 69.564 266.98L69.912 266.296C70.208 266.584 70.604 266.828 71.1 267.028C71.604 267.22 72.132 267.316 72.684 267.316C73.212 267.316 73.64 267.252 73.968 267.124C74.304 266.988 74.548 266.808 74.7 266.584C74.86 266.36 74.94 266.112 74.94 265.84C74.94 265.512 74.844 265.248 74.652 265.048C74.468 264.848 74.224 264.692 73.92 264.58C73.616 264.46 73.28 264.356 72.912 264.268C72.544 264.18 72.176 264.088 71.808 263.992C71.44 263.888 71.1 263.752 70.788 263.584C70.484 263.416 70.236 263.196 70.044 262.924C69.86 262.644 69.768 262.28 69.768 261.832C69.768 261.416 69.876 261.036 70.092 260.692C70.316 260.34 70.656 260.06 71.112 259.852C71.568 259.636 72.152 259.528 72.864 259.528C73.336 259.528 73.804 259.596 74.268 259.732C74.732 259.86 75.132 260.04 75.468 260.272L75.168 260.98C74.808 260.74 74.424 260.564 74.016 260.452C73.616 260.34 73.228 260.284 72.852 260.284C72.348 260.284 71.932 260.352 71.604 260.488C71.276 260.624 71.032 260.808 70.872 261.04C70.72 261.264 70.644 261.52 70.644 261.808C70.644 262.136 70.736 262.4 70.92 262.6C71.112 262.8 71.36 262.956 71.664 263.068C71.976 263.18 72.316 263.28 72.684 263.368C73.052 263.456 73.416 263.552 73.776 263.656C74.144 263.76 74.48 263.896 74.784 264.064C75.096 264.224 75.344 264.44 75.528 264.712C75.72 264.984 75.816 265.34 75.816 265.78C75.816 266.188 75.704 266.568 75.48 266.92C75.256 267.264 74.912 267.544 74.448 267.76C73.992 267.968 73.404 268.072 72.684 268.072ZM80.1868 268.06C79.5628 268.06 79.0028 267.924 78.5068 267.652C78.0188 267.372 77.6348 266.992 77.3548 266.512C77.0748 266.024 76.9348 265.468 76.9348 264.844C76.9348 264.212 77.0748 263.656 77.3548 263.176C77.6348 262.696 78.0188 262.32 78.5068 262.048C79.0028 261.776 79.5628 261.64 80.1868 261.64C80.7228 261.64 81.2068 261.744 81.6388 261.952C82.0708 262.16 82.4108 262.472 82.6588 262.888L82.0228 263.32C81.8068 263 81.5388 262.764 81.2188 262.612C80.8988 262.46 80.5508 262.384 80.1748 262.384C79.7268 262.384 79.3228 262.488 78.9628 262.696C78.6028 262.896 78.3188 263.18 78.1108 263.548C77.9028 263.916 77.7988 264.348 77.7988 264.844C77.7988 265.34 77.9028 265.772 78.1108 266.14C78.3188 266.508 78.6028 266.796 78.9628 267.004C79.3228 267.204 79.7268 267.304 80.1748 267.304C80.5508 267.304 80.8988 267.228 81.2188 267.076C81.5388 266.924 81.8068 266.692 82.0228 266.38L82.6588 266.812C82.4108 267.22 82.0708 267.532 81.6388 267.748C81.2068 267.956 80.7228 268.06 80.1868 268.06ZM88.2805 268V266.608L88.2445 266.38V264.052C88.2445 263.516 88.0925 263.104 87.7885 262.816C87.4925 262.528 87.0485 262.384 86.4565 262.384C86.0485 262.384 85.6605 262.452 85.2925 262.588C84.9245 262.724 84.6125 262.904 84.3565 263.128L83.9725 262.492C84.2925 262.22 84.6765 262.012 85.1245 261.868C85.5725 261.716 86.0445 261.64 86.5405 261.64C87.3565 261.64 87.9845 261.844 88.4245 262.252C88.8725 262.652 89.0965 263.264 89.0965 264.088V268H88.2805ZM86.1085 268.06C85.6365 268.06 85.2245 267.984 84.8725 267.832C84.5285 267.672 84.2645 267.456 84.0805 267.184C83.8965 266.904 83.8045 266.584 83.8045 266.224C83.8045 265.896 83.8805 265.6 84.0325 265.336C84.1925 265.064 84.4485 264.848 84.8005 264.688C85.1605 264.52 85.6405 264.436 86.2405 264.436H88.4125V265.072H86.2645C85.6565 265.072 85.2325 265.18 84.9925 265.396C84.7605 265.612 84.6445 265.88 84.6445 266.2C84.6445 266.56 84.7845 266.848 85.0645 267.064C85.3445 267.28 85.7365 267.388 86.2405 267.388C86.7205 267.388 87.1325 267.28 87.4765 267.064C87.8285 266.84 88.0845 266.52 88.2445 266.104L88.4365 266.692C88.2765 267.108 87.9965 267.44 87.5965 267.688C87.2045 267.936 86.7085 268.06 86.1085 268.06ZM94.6267 261.64C95.1387 261.64 95.5867 261.74 95.9707 261.94C96.3627 262.132 96.6667 262.428 96.8827 262.828C97.1067 263.228 97.2187 263.732 97.2187 264.34V268H96.3667V264.424C96.3667 263.76 96.1987 263.26 95.8627 262.924C95.5347 262.58 95.0707 262.408 94.4707 262.408C94.0227 262.408 93.6307 262.5 93.2947 262.684C92.9667 262.86 92.7107 263.12 92.5267 263.464C92.3507 263.8 92.2627 264.208 92.2627 264.688V268H91.4107V261.7H92.2267V263.428L92.0947 263.104C92.2947 262.648 92.6147 262.292 93.0547 262.036C93.4947 261.772 94.0187 261.64 94.6267 261.64ZM105.913 268.06C105.369 268.06 104.877 267.936 104.437 267.688C103.997 267.432 103.645 267.068 103.381 266.596C103.125 266.116 102.997 265.532 102.997 264.844C102.997 264.156 103.125 263.576 103.381 263.104C103.637 262.624 103.985 262.26 104.425 262.012C104.865 261.764 105.361 261.64 105.913 261.64C106.513 261.64 107.049 261.776 107.521 262.048C108.001 262.312 108.377 262.688 108.649 263.176C108.921 263.656 109.057 264.212 109.057 264.844C109.057 265.484 108.921 266.044 108.649 266.524C108.377 267.004 108.001 267.38 107.521 267.652C107.049 267.924 106.513 268.06 105.913 268.06ZM102.661 270.328V261.7H103.477V263.596L103.393 264.856L103.513 266.128V270.328H102.661ZM105.853 267.304C106.301 267.304 106.701 267.204 107.053 267.004C107.405 266.796 107.685 266.508 107.893 266.14C108.101 265.764 108.205 265.332 108.205 264.844C108.205 264.356 108.101 263.928 107.893 263.56C107.685 263.192 107.405 262.904 107.053 262.696C106.701 262.488 106.301 262.384 105.853 262.384C105.405 262.384 105.001 262.488 104.641 262.696C104.289 262.904 104.009 263.192 103.801 263.56C103.601 263.928 103.501 264.356 103.501 264.844C103.501 265.332 103.601 265.764 103.801 266.14C104.009 266.508 104.289 266.796 104.641 267.004C105.001 267.204 105.405 267.304 105.853 267.304ZM114.706 268V266.608L114.67 266.38V264.052C114.67 263.516 114.518 263.104 114.214 262.816C113.918 262.528 113.474 262.384 112.882 262.384C112.474 262.384 112.086 262.452 111.718 262.588C111.35 262.724 111.038 262.904 110.782 263.128L110.398 262.492C110.718 262.22 111.102 262.012 111.55 261.868C111.998 261.716 112.47 261.64 112.966 261.64C113.782 261.64 114.41 261.844 114.85 262.252C115.298 262.652 115.522 263.264 115.522 264.088V268H114.706ZM112.534 268.06C112.062 268.06 111.65 267.984 111.298 267.832C110.954 267.672 110.69 267.456 110.506 267.184C110.322 266.904 110.23 266.584 110.23 266.224C110.23 265.896 110.306 265.6 110.458 265.336C110.618 265.064 110.874 264.848 111.226 264.688C111.586 264.52 112.066 264.436 112.666 264.436H114.838V265.072H112.69C112.082 265.072 111.658 265.18 111.418 265.396C111.186 265.612 111.07 265.88 111.07 266.2C111.07 266.56 111.21 266.848 111.49 267.064C111.77 267.28 112.162 267.388 112.666 267.388C113.146 267.388 113.558 267.28 113.902 267.064C114.254 266.84 114.51 266.52 114.67 266.104L114.862 266.692C114.702 267.108 114.422 267.44 114.022 267.688C113.63 267.936 113.134 268.06 112.534 268.06ZM119.828 268.06C119.236 268.06 118.78 267.9 118.46 267.58C118.14 267.26 117.98 266.808 117.98 266.224V260.308H118.832V266.176C118.832 266.544 118.924 266.828 119.108 267.028C119.3 267.228 119.572 267.328 119.924 267.328C120.3 267.328 120.612 267.22 120.86 267.004L121.16 267.616C120.992 267.768 120.788 267.88 120.548 267.952C120.316 268.024 120.076 268.06 119.828 268.06ZM116.852 262.408V261.7H120.752V262.408H116.852ZM124.539 268.06C123.947 268.06 123.491 267.9 123.171 267.58C122.851 267.26 122.691 266.808 122.691 266.224V260.308H123.543V266.176C123.543 266.544 123.635 266.828 123.819 267.028C124.011 267.228 124.283 267.328 124.635 267.328C125.011 267.328 125.323 267.22 125.571 267.004L125.871 267.616C125.703 267.768 125.499 267.88 125.259 267.952C125.027 268.024 124.787 268.06 124.539 268.06ZM121.563 262.408V261.7H125.463V262.408H121.563ZM129.876 268.06C129.22 268.06 128.644 267.924 128.148 267.652C127.652 267.372 127.264 266.992 126.984 266.512C126.704 266.024 126.564 265.468 126.564 264.844C126.564 264.22 126.696 263.668 126.96 263.188C127.232 262.708 127.6 262.332 128.064 262.06C128.536 261.78 129.064 261.64 129.648 261.64C130.24 261.64 130.764 261.776 131.22 262.048C131.684 262.312 132.048 262.688 132.312 263.176C132.576 263.656 132.708 264.212 132.708 264.844C132.708 264.884 132.704 264.928 132.696 264.976C132.696 265.016 132.696 265.06 132.696 265.108H127.212V264.472H132.24L131.904 264.724C131.904 264.268 131.804 263.864 131.604 263.512C131.412 263.152 131.148 262.872 130.812 262.672C130.476 262.472 130.088 262.372 129.648 262.372C129.216 262.372 128.828 262.472 128.484 262.672C128.14 262.872 127.872 263.152 127.68 263.512C127.488 263.872 127.392 264.284 127.392 264.748V264.88C127.392 265.36 127.496 265.784 127.704 266.152C127.92 266.512 128.216 266.796 128.592 267.004C128.976 267.204 129.412 267.304 129.9 267.304C130.284 267.304 130.64 267.236 130.968 267.1C131.304 266.964 131.592 266.756 131.832 266.476L132.312 267.028C132.032 267.364 131.68 267.62 131.256 267.796C130.84 267.972 130.38 268.06 129.876 268.06ZM134.442 268V261.7H135.258V263.416L135.174 263.116C135.35 262.636 135.646 262.272 136.062 262.024C136.478 261.768 136.994 261.64 137.61 261.64V262.468C137.578 262.468 137.546 262.468 137.514 262.468C137.482 262.46 137.45 262.456 137.418 262.456C136.754 262.456 136.234 262.66 135.858 263.068C135.482 263.468 135.294 264.04 135.294 264.784V268H134.442ZM142.381 261.64C142.893 261.64 143.341 261.74 143.725 261.94C144.117 262.132 144.421 262.428 144.637 262.828C144.861 263.228 144.973 263.732 144.973 264.34V268H144.121V264.424C144.121 263.76 143.953 263.26 143.617 262.924C143.289 262.58 142.825 262.408 142.225 262.408C141.777 262.408 141.385 262.5 141.049 262.684C140.721 262.86 140.465 263.12 140.281 263.464C140.105 263.8 140.017 264.208 140.017 264.688V268H139.165V261.7H139.981V263.428L139.849 263.104C140.049 262.648 140.369 262.292 140.809 262.036C141.249 261.772 141.773 261.64 142.381 261.64Z" fill="#FFDF63"/>
<rect x="16" y="283" width="4" height="48" rx="2" fill="#334155"/>
<rect x="25" y="290" width="197" height="34" rx="5" fill="#334155"/>
<path fill-rule="evenodd" clip-rule="evenodd" d="M36.3713 303.143C42.2291 297.286 51.7266 297.286 57.5845 303.143C57.8774 303.436 57.8774 303.911 57.5845 304.204L57.0542 304.734C56.9135 304.875 56.7228 304.954 56.5238 304.954C56.3249 304.954 56.1341 304.875 55.9935 304.734C51.0143 299.755 42.9415 299.755 37.9623 304.734C37.8216 304.875 37.6308 304.954 37.4319 304.954C37.233 304.954 37.0422 304.875 36.9016 304.734L36.3713 304.204C36.0784 303.911 36.0784 303.436 36.3713 303.143ZM39.5533 306.325C43.6538 302.225 50.302 302.225 54.4025 306.325C54.6954 306.618 54.6954 307.093 54.4025 307.386L53.8722 307.916C53.7316 308.057 53.5408 308.136 53.3419 308.136C53.143 308.136 52.9522 308.057 52.8115 307.916C49.5897 304.695 44.3661 304.695 41.1443 307.916C40.8514 308.209 40.3765 308.209 40.0836 307.916L39.5533 307.386C39.4126 307.245 39.3336 307.055 39.3336 306.856C39.3336 306.657 39.4126 306.466 39.5533 306.325ZM42.7573 309.507C45.1005 307.164 48.8995 307.164 51.2426 309.507C51.5355 309.8 51.5355 310.275 51.2426 310.568L50.7123 311.098C50.5716 311.239 50.3809 311.318 50.182 311.318C49.983 311.318 49.7923 311.239 49.6516 311.098C48.1872 309.634 45.8128 309.634 44.3483 311.098C44.0554 311.391 43.5806 311.391 43.2877 311.098L42.7573 310.568C42.4644 310.275 42.4644 309.8 42.7573 309.507ZM45.9393 312.689C46.5251 312.104 47.4748 312.104 48.0606 312.689C48.3535 312.982 48.3535 313.457 48.0606 313.75L47.5303 314.28C47.3896 314.421 47.1989 314.5 47 314.5C46.8011 314.5 46.6103 314.421 46.4696 314.28L45.9393 313.75C45.6464 313.457 45.6464 312.982 45.9393 312.689Z" fill="#FFDF63"/>
<path d="M70.368 311V302.6H71.1L76.896 309.896H76.512V302.6H77.388V311H76.656L70.872 303.704H71.256V311H70.368ZM82.6257 311.06C81.9697 311.06 81.3937 310.924 80.8977 310.652C80.4017 310.372 80.0137 309.992 79.7337 309.512C79.4537 309.024 79.3137 308.468 79.3137 307.844C79.3137 307.22 79.4457 306.668 79.7097 306.188C79.9817 305.708 80.3497 305.332 80.8137 305.06C81.2857 304.78 81.8137 304.64 82.3977 304.64C82.9897 304.64 83.5137 304.776 83.9697 305.048C84.4337 305.312 84.7977 305.688 85.0617 306.176C85.3257 306.656 85.4577 307.212 85.4577 307.844C85.4577 307.884 85.4537 307.928 85.4457 307.976C85.4457 308.016 85.4457 308.06 85.4457 308.108H79.9617V307.472H84.9897L84.6537 307.724C84.6537 307.268 84.5537 306.864 84.3537 306.512C84.1617 306.152 83.8977 305.872 83.5617 305.672C83.2257 305.472 82.8377 305.372 82.3977 305.372C81.9657 305.372 81.5777 305.472 81.2337 305.672C80.8897 305.872 80.6217 306.152 80.4297 306.512C80.2377 306.872 80.1417 307.284 80.1417 307.748V307.88C80.1417 308.36 80.2457 308.784 80.4537 309.152C80.6697 309.512 80.9657 309.796 81.3417 310.004C81.7257 310.204 82.1617 310.304 82.6497 310.304C83.0337 310.304 83.3897 310.236 83.7177 310.1C84.0537 309.964 84.3417 309.756 84.5817 309.476L85.0617 310.028C84.7817 310.364 84.4297 310.62 84.0057 310.796C83.5897 310.972 83.1297 311.06 82.6257 311.06ZM89.1839 311.06C88.5919 311.06 88.1359 310.9 87.8159 310.58C87.4959 310.26 87.3359 309.808 87.3359 309.224V303.308H88.1879V309.176C88.1879 309.544 88.2799 309.828 88.4639 310.028C88.6559 310.228 88.9279 310.328 89.2799 310.328C89.6559 310.328 89.9679 310.22 90.2159 310.004L90.5159 310.616C90.3479 310.768 90.1439 310.88 89.9039 310.952C89.6719 311.024 89.4319 311.06 89.1839 311.06ZM86.2079 305.408V304.7H90.1079V305.408H86.2079ZM93.2337 311L90.8577 304.7H91.6737L93.8337 310.544H93.4617L95.6817 304.7H96.4137L98.6097 310.544H98.2377L100.434 304.7H101.214L98.8257 311H98.0217L95.9097 305.504H96.1617L94.0377 311H93.2337ZM104.889 311.06C104.281 311.06 103.733 310.924 103.245 310.652C102.765 310.372 102.385 309.992 102.105 309.512C101.825 309.024 101.685 308.468 101.685 307.844C101.685 307.212 101.825 306.656 102.105 306.176C102.385 305.696 102.765 305.32 103.245 305.048C103.725 304.776 104.273 304.64 104.889 304.64C105.513 304.64 106.065 304.776 106.545 305.048C107.033 305.32 107.413 305.696 107.685 306.176C107.965 306.656 108.105 307.212 108.105 307.844C108.105 308.468 107.965 309.024 107.685 309.512C107.413 309.992 107.033 310.372 106.545 310.652C106.057 310.924 105.505 311.06 104.889 311.06ZM104.889 310.304C105.345 310.304 105.749 310.204 106.101 310.004C106.453 309.796 106.729 309.508 106.929 309.14C107.137 308.764 107.241 308.332 107.241 307.844C107.241 307.348 107.137 306.916 106.929 306.548C106.729 306.18 106.453 305.896 106.101 305.696C105.749 305.488 105.349 305.384 104.901 305.384C104.453 305.384 104.053 305.488 103.701 305.696C103.349 305.896 103.069 306.18 102.861 306.548C102.653 306.916 102.549 307.348 102.549 307.844C102.549 308.332 102.653 308.764 102.861 309.14C103.069 309.508 103.349 309.796 103.701 310.004C104.053 310.204 104.449 310.304 104.889 310.304ZM109.844 311V304.7H110.66V306.416L110.576 306.116C110.752 305.636 111.048 305.272 111.464 305.024C111.88 304.768 112.396 304.64 113.012 304.64V305.468C112.98 305.468 112.948 305.468 112.916 305.468C112.884 305.46 112.852 305.456 112.82 305.456C112.156 305.456 111.636 305.66 111.26 306.068C110.884 306.468 110.696 307.04 110.696 307.784V311H109.844ZM115.239 309.368L115.263 308.276L119.187 304.7H120.231L117.459 307.352L116.979 307.76L115.239 309.368ZM114.567 311V302.096H115.419V311H114.567ZM119.451 311L116.823 307.724L117.375 307.064L120.495 311H119.451ZM126.607 311.06C126.087 311.06 125.595 310.988 125.131 310.844C124.667 310.692 124.303 310.504 124.039 310.28L124.423 309.608C124.679 309.8 125.007 309.968 125.407 310.112C125.807 310.248 126.227 310.316 126.667 310.316C127.267 310.316 127.699 310.224 127.963 310.04C128.227 309.848 128.359 309.596 128.359 309.284C128.359 309.052 128.283 308.872 128.131 308.744C127.987 308.608 127.795 308.508 127.555 308.444C127.315 308.372 127.047 308.312 126.751 308.264C126.455 308.216 126.159 308.16 125.863 308.096C125.575 308.032 125.311 307.94 125.071 307.82C124.831 307.692 124.635 307.52 124.483 307.304C124.339 307.088 124.267 306.8 124.267 306.44C124.267 306.096 124.363 305.788 124.555 305.516C124.747 305.244 125.027 305.032 125.395 304.88C125.771 304.72 126.227 304.64 126.763 304.64C127.171 304.64 127.579 304.696 127.987 304.808C128.395 304.912 128.731 305.052 128.995 305.228L128.623 305.912C128.343 305.72 128.043 305.584 127.723 305.504C127.403 305.416 127.083 305.372 126.763 305.372C126.195 305.372 125.775 305.472 125.503 305.672C125.239 305.864 125.107 306.112 125.107 306.416C125.107 306.656 125.179 306.844 125.323 306.98C125.475 307.116 125.671 307.224 125.911 307.304C126.159 307.376 126.427 307.436 126.715 307.484C127.011 307.532 127.303 307.592 127.591 307.664C127.887 307.728 128.155 307.82 128.395 307.94C128.643 308.052 128.839 308.216 128.983 308.432C129.135 308.64 129.211 308.916 129.211 309.26C129.211 309.628 129.107 309.948 128.899 310.22C128.699 310.484 128.403 310.692 128.011 310.844C127.627 310.988 127.159 311.06 126.607 311.06ZM133.45 311.06C132.794 311.06 132.218 310.924 131.722 310.652C131.226 310.372 130.838 309.992 130.558 309.512C130.278 309.024 130.138 308.468 130.138 307.844C130.138 307.22 130.27 306.668 130.534 306.188C130.806 305.708 131.174 305.332 131.638 305.06C132.11 304.78 132.638 304.64 133.222 304.64C133.814 304.64 134.338 304.776 134.794 305.048C135.258 305.312 135.622 305.688 135.886 306.176C136.15 306.656 136.282 307.212 136.282 307.844C136.282 307.884 136.278 307.928 136.27 307.976C136.27 308.016 136.27 308.06 136.27 308.108H130.786V307.472H135.814L135.478 307.724C135.478 307.268 135.378 306.864 135.178 306.512C134.986 306.152 134.722 305.872 134.386 305.672C134.05 305.472 133.662 305.372 133.222 305.372C132.79 305.372 132.402 305.472 132.058 305.672C131.714 305.872 131.446 306.152 131.254 306.512C131.062 306.872 130.966 307.284 130.966 307.748V307.88C130.966 308.36 131.07 308.784 131.278 309.152C131.494 309.512 131.79 309.796 132.166 310.004C132.55 310.204 132.986 310.304 133.474 310.304C133.858 310.304 134.214 310.236 134.542 310.1C134.878 309.964 135.166 309.756 135.406 309.476L135.886 310.028C135.606 310.364 135.254 310.62 134.83 310.796C134.414 310.972 133.954 311.06 133.45 311.06ZM140.008 311.06C139.416 311.06 138.96 310.9 138.64 310.58C138.32 310.26 138.16 309.808 138.16 309.224V303.308H139.012V309.176C139.012 309.544 139.104 309.828 139.288 310.028C139.48 310.228 139.752 310.328 140.104 310.328C140.48 310.328 140.792 310.22 141.04 310.004L141.34 310.616C141.172 310.768 140.968 310.88 140.728 310.952C140.496 311.024 140.256 311.06 140.008 311.06ZM137.032 305.408V304.7H140.932V305.408H137.032ZM145.495 311.06C144.959 311.06 144.491 310.96 144.091 310.76C143.691 310.56 143.379 310.26 143.155 309.86C142.939 309.46 142.831 308.96 142.831 308.36V304.7H143.683V308.264C143.683 308.936 143.847 309.444 144.175 309.788C144.511 310.124 144.979 310.292 145.579 310.292C146.019 310.292 146.399 310.204 146.719 310.028C147.047 309.844 147.295 309.58 147.463 309.236C147.639 308.892 147.727 308.48 147.727 308V304.7H148.579V311H147.763V309.272L147.895 309.584C147.695 310.048 147.383 310.412 146.959 310.676C146.543 310.932 146.055 311.06 145.495 311.06ZM154.206 311.06C153.662 311.06 153.17 310.936 152.73 310.688C152.29 310.432 151.938 310.068 151.674 309.596C151.418 309.116 151.29 308.532 151.29 307.844C151.29 307.156 151.418 306.576 151.674 306.104C151.93 305.624 152.278 305.26 152.718 305.012C153.158 304.764 153.654 304.64 154.206 304.64C154.806 304.64 155.342 304.776 155.814 305.048C156.294 305.312 156.67 305.688 156.942 306.176C157.214 306.656 157.35 307.212 157.35 307.844C157.35 308.484 157.214 309.044 156.942 309.524C156.67 310.004 156.294 310.38 155.814 310.652C155.342 310.924 154.806 311.06 154.206 311.06ZM150.954 313.328V304.7H151.77V306.596L151.686 307.856L151.806 309.128V313.328H150.954ZM154.146 310.304C154.594 310.304 154.994 310.204 155.346 310.004C155.698 309.796 155.978 309.508 156.186 309.14C156.394 308.764 156.498 308.332 156.498 307.844C156.498 307.356 156.394 306.928 156.186 306.56C155.978 306.192 155.698 305.904 155.346 305.696C154.994 305.488 154.594 305.384 154.146 305.384C153.698 305.384 153.294 305.488 152.934 305.696C152.582 305.904 152.302 306.192 152.094 306.56C151.894 306.928 151.794 307.356 151.794 307.844C151.794 308.332 151.894 308.764 152.094 309.14C152.302 309.508 152.582 309.796 152.934 310.004C153.294 310.204 153.698 310.304 154.146 310.304Z" fill="#FFDF63"/>
<rect x="16" y="326" width="4" height="48" rx="2" fill="#334155"/>
<rect x="25" y="333" width="197" height="34" rx="5" fill="#334155"/>
<path fill-rule="evenodd" clip-rule="evenodd" d="M38.6 343.1C38.6 341.609 39.8088 340.4 41.3 340.4H47.9C49.3911 340.4 50.6 341.609 50.6 343.1V345.5C50.6 345.997 50.197 346.4 49.7 346.4C49.2029 346.4 48.8 345.997 48.8 345.5V343.1C48.8 342.603 48.397 342.2 47.9 342.2H41.3C40.8029 342.2 40.4 342.603 40.4 343.1V356.9C40.4 357.397 40.8029 357.8 41.3 357.8H47.9C48.397 357.8 48.8 357.397 48.8 356.9V354.5C48.8 354.003 49.2029 353.6 49.7 353.6C50.197 353.6 50.6 354.003 50.6 354.5V356.9C50.6 358.391 49.3911 359.6 47.9 359.6H41.3C39.8088 359.6 38.6 358.391 38.6 356.9V343.1Z" fill="#FFDF63"/>
<path fill-rule="evenodd" clip-rule="evenodd" d="M42.2 350C42.2 349.503 42.6029 349.1 43.1 349.1H54.5546L53.2979 347.969C52.9284 347.636 52.8985 347.067 53.231 346.698C53.5635 346.328 54.1326 346.299 54.502 346.631L57.502 349.331C57.6917 349.502 57.8 349.745 57.8 350C57.8 350.255 57.6917 350.498 57.502 350.669L54.502 353.369C54.1326 353.702 53.5635 353.672 53.231 353.302C52.8985 352.933 52.9284 352.364 53.2979 352.031L54.5546 350.9H43.1C42.6029 350.9 42.2 350.497 42.2 350Z" fill="#FFDF63"/>
<path d="M70.368 354V345.6H73.512C74.224 345.6 74.836 345.716 75.348 345.948C75.86 346.172 76.252 346.5 76.524 346.932C76.804 347.356 76.944 347.872 76.944 348.48C76.944 349.072 76.804 349.584 76.524 350.016C76.252 350.44 75.86 350.768 75.348 351C74.836 351.232 74.224 351.348 73.512 351.348H70.86L71.256 350.928V354H70.368ZM71.256 351L70.86 350.568H73.488C74.328 350.568 74.964 350.388 75.396 350.028C75.836 349.66 76.056 349.144 76.056 348.48C76.056 347.808 75.836 347.288 75.396 346.92C74.964 346.552 74.328 346.368 73.488 346.368H70.86L71.256 345.948V351ZM81.4053 354.06C80.8693 354.06 80.4013 353.96 80.0013 353.76C79.6013 353.56 79.2893 353.26 79.0653 352.86C78.8493 352.46 78.7413 351.96 78.7413 351.36V347.7H79.5933V351.264C79.5933 351.936 79.7573 352.444 80.0853 352.788C80.4213 353.124 80.8893 353.292 81.4893 353.292C81.9293 353.292 82.3093 353.204 82.6293 353.028C82.9573 352.844 83.2053 352.58 83.3733 352.236C83.5493 351.892 83.6373 351.48 83.6373 351V347.7H84.4893V354H83.6733V352.272L83.8053 352.584C83.6053 353.048 83.2933 353.412 82.8693 353.676C82.4533 353.932 81.9653 354.06 81.4053 354.06ZM88.5558 354.06C88.0358 354.06 87.5438 353.988 87.0798 353.844C86.6158 353.692 86.2518 353.504 85.9878 353.28L86.3718 352.608C86.6278 352.8 86.9558 352.968 87.3558 353.112C87.7558 353.248 88.1758 353.316 88.6158 353.316C89.2158 353.316 89.6478 353.224 89.9118 353.04C90.1758 352.848 90.3078 352.596 90.3078 352.284C90.3078 352.052 90.2318 351.872 90.0798 351.744C89.9358 351.608 89.7438 351.508 89.5038 351.444C89.2638 351.372 88.9958 351.312 88.6998 351.264C88.4038 351.216 88.1078 351.16 87.8118 351.096C87.5238 351.032 87.2598 350.94 87.0198 350.82C86.7798 350.692 86.5838 350.52 86.4318 350.304C86.2878 350.088 86.2158 349.8 86.2158 349.44C86.2158 349.096 86.3118 348.788 86.5038 348.516C86.6958 348.244 86.9758 348.032 87.3438 347.88C87.7198 347.72 88.1758 347.64 88.7118 347.64C89.1198 347.64 89.5278 347.696 89.9358 347.808C90.3438 347.912 90.6798 348.052 90.9438 348.228L90.5718 348.912C90.2918 348.72 89.9918 348.584 89.6718 348.504C89.3518 348.416 89.0318 348.372 88.7118 348.372C88.1438 348.372 87.7238 348.472 87.4518 348.672C87.1878 348.864 87.0558 349.112 87.0558 349.416C87.0558 349.656 87.1278 349.844 87.2718 349.98C87.4238 350.116 87.6198 350.224 87.8598 350.304C88.1078 350.376 88.3758 350.436 88.6638 350.484C88.9598 350.532 89.2518 350.592 89.5398 350.664C89.8358 350.728 90.1038 350.82 90.3438 350.94C90.5918 351.052 90.7878 351.216 90.9318 351.432C91.0838 351.64 91.1598 351.916 91.1598 352.26C91.1598 352.628 91.0558 352.948 90.8478 353.22C90.6478 353.484 90.3518 353.692 89.9598 353.844C89.5758 353.988 89.1078 354.06 88.5558 354.06ZM95.9392 347.64C96.4512 347.64 96.8992 347.74 97.2832 347.94C97.6752 348.132 97.9792 348.428 98.1952 348.828C98.4192 349.228 98.5312 349.732 98.5312 350.34V354H97.6792V350.424C97.6792 349.76 97.5112 349.26 97.1752 348.924C96.8472 348.58 96.3832 348.408 95.7832 348.408C95.3352 348.408 94.9432 348.5 94.6072 348.684C94.2792 348.86 94.0232 349.12 93.8392 349.464C93.6632 349.8 93.5752 350.208 93.5752 350.688V354H92.7232V345.096H93.5752V349.428L93.4072 349.104C93.6072 348.648 93.9272 348.292 94.3672 348.036C94.8072 347.772 95.3312 347.64 95.9392 347.64Z" fill="#FFDF63"/>
<rect x="16" y="388" width="36" height="34" rx="5" fill="white"/>
<path d="M24.4 398.1C24.4 396.609 25.6089 395.4 27.1 395.4H30.1C31.5912 395.4 32.8 396.609 32.8 398.1V401.1C32.8 402.591 31.5912 403.8 30.1 403.8H27.1C25.6089 403.8 24.4 402.591 24.4 401.1V398.1Z" fill="#0F172A"/>
<path d="M24.4 408.9C24.4 407.409 25.6089 406.2 27.1 406.2H30.1C31.5912 406.2 32.8 407.409 32.8 408.9V411.9C32.8 413.391 31.5912 414.6 30.1 414.6H27.1C25.6089 414.6 24.4 413.391 24.4 411.9V408.9Z" fill="#0F172A"/>
<path d="M35.2 398.1C35.2 396.609 36.4089 395.4 37.9 395.4H40.9C42.3912 395.4 43.6 396.609 43.6 398.1V401.1C43.6 402.591 42.3912 403.8 40.9 403.8H37.9C36.4089 403.8 35.2 402.591 35.2 401.1V398.1Z" fill="#0F172A"/>
<path d="M40.3 407.1C40.3 406.603 39.8971 406.2 39.4 406.2C38.903 406.2 38.5 406.603 38.5 407.1V409.5H36.1C35.603 409.5 35.2 409.903 35.2 410.4C35.2 410.897 35.603 411.3 36.1 411.3H38.5V413.7C38.5 414.197 38.903 414.6 39.4 414.6C39.8971 414.6 40.3 414.197 40.3 413.7V411.3H42.7C43.1971 411.3 43.6 410.897 43.6 410.4C43.6 409.903 43.1971 409.5 42.7 409.5H40.3V407.1Z" fill="#0F172A"/>
<rect x="16" y="425" width="36" height="34" rx="5" fill="white"/>
<path fill-rule="evenodd" clip-rule="evenodd" d="M25 435.25C25 434.836 25.3358 434.5 25.75 434.5H42.25C42.6642 434.5 43 434.836 43 435.25C43 435.664 42.6642 436 42.25 436H25.75C25.3358 436 25 435.664 25 435.25ZM25 439.75C25 439.336 25.3358 439 25.75 439H42.25C42.6642 439 43 439.336 43 439.75C43 440.164 42.6642 440.5 42.25 440.5H25.75C25.3358 440.5 25 440.164 25 439.75ZM25 444.25C25 443.836 25.3358 443.5 25.75 443.5H42.25C42.6642 443.5 43 443.836 43 444.25C43 444.664 42.6642 445 42.25 445H25.75C25.3358 445 25 444.664 25 444.25ZM25 448.75C25 448.336 25.3358 448 25.75 448H42.25C42.6642 448 43 448.336 43 448.75C43 449.164 42.6642 449.5 42.25 449.5H25.75C25.3358 449.5 25 449.164 25 448.75Z" fill="#0F172A"/>
<rect x="16" y="462" width="36" height="34" rx="5" fill="white"/>
<path fill-rule="evenodd" clip-rule="evenodd" d="M23.3713 475.143C29.2291 469.286 38.7266 469.286 44.5845 475.143C44.8774 475.436 44.8774 475.911 44.5845 476.204L44.0542 476.734C43.9135 476.875 43.7228 476.954 43.5238 476.954C43.3249 476.954 43.1341 476.875 42.9935 476.734C38.0143 471.755 29.9415 471.755 24.9623 476.734C24.8216 476.875 24.6308 476.954 24.4319 476.954C24.233 476.954 24.0422 476.875 23.9016 476.734L23.3713 476.204C23.0784 475.911 23.0784 475.436 23.3713 475.143ZM26.5533 478.325C30.6538 474.225 37.302 474.225 41.4025 478.325C41.6954 478.618 41.6954 479.093 41.4025 479.386L40.8722 479.916C40.7316 480.057 40.5408 480.136 40.3419 480.136C40.143 480.136 39.9522 480.057 39.8115 479.916C36.5897 476.695 31.3661 476.695 28.1443 479.916C27.8514 480.209 27.3765 480.209 27.0836 479.916L26.5533 479.386C26.4126 479.245 26.3336 479.055 26.3336 478.856C26.3336 478.657 26.4126 478.466 26.5533 478.325ZM29.7573 481.507C32.1005 479.164 35.8995 479.164 38.2426 481.507C38.5355 481.8 38.5355 482.275 38.2426 482.568L37.7123 483.098C37.5716 483.239 37.3809 483.318 37.182 483.318C36.983 483.318 36.7923 483.239 36.6516 483.098C35.1872 481.634 32.8128 481.634 31.3483 483.098C31.0554 483.391 30.5806 483.391 30.2877 483.098L29.7573 482.568C29.4644 482.275 29.4644 481.8 29.7573 481.507ZM32.9393 484.689C33.5251 484.104 34.4748 484.104 35.0606 484.689C35.3535 484.982 35.3535 485.457 35.0606 485.75L34.5303 486.28C34.3896 486.421 34.1989 486.5 34 486.5C33.8011 486.5 33.6103 486.421 33.4696 486.28L32.9393 485.75C32.6464 485.457 32.6464 484.982 32.9393 484.689Z" fill="#0F172A"/>
<rect x="16" y="499" width="36" height="34" rx="5" fill="white"/>
<path fill-rule="evenodd" clip-rule="evenodd" d="M25.6 509.1C25.6 507.609 26.8088 506.4 28.3 506.4H34.9C36.3911 506.4 37.6 507.609 37.6 509.1V511.5C37.6 511.997 37.197 512.4 36.7 512.4C36.2029 512.4 35.8 511.997 35.8 511.5V509.1C35.8 508.603 35.397 508.2 34.9 508.2H28.3C27.8029 508.2 27.4 508.603 27.4 509.1V522.9C27.4 523.397 27.8029 523.8 28.3 523.8H34.9C35.397 523.8 35.8 523.397 35.8 522.9V520.5C35.8 520.003 36.2029 519.6 36.7 519.6C37.197 519.6 37.6 520.003 37.6 520.5V522.9C37.6 524.391 36.3911 525.6 34.9 525.6H28.3C26.8088 525.6 25.6 524.391 25.6 522.9V509.1Z" fill="#0F172A"/>
<path fill-rule="evenodd" clip-rule="evenodd" d="M29.2 516C29.2 515.503 29.6029 515.1 30.1 515.1H41.5546L40.2979 513.969C39.9284 513.636 39.8985 513.067 40.231 512.698C40.5635 512.328 41.1326 512.299 41.502 512.631L44.502 515.331C44.6917 515.502 44.8 515.745 44.8 516C44.8 516.255 44.6917 516.498 44.502 516.669L41.502 519.369C41.1326 519.702 40.5635 519.672 40.231 519.302C39.8985 518.933 39.9284 518.364 40.2979 518.031L41.5546 516.9H30.1C29.6029 516.9 29.2 516.497 29.2 516Z" fill="#0F172A"/>
<rect x="16" y="551" width="36" height="34" rx="5" fill="#334155"/>
<path d="M24.4 561.1C24.4 559.609 25.6089 558.4 27.1 558.4H30.1C31.5912 558.4 32.8 559.609 32.8 561.1V564.1C32.8 565.591 31.5912 566.8 30.1 566.8H27.1C25.6089 566.8 24.4 565.591 24.4 564.1V561.1Z" fill="#FFDF63"/>
<path d="M24.4 571.9C24.4 570.409 25.6089 569.2 27.1 569.2H30.1C31.5912 569.2 32.8 570.409 32.8 571.9V574.9C32.8 576.391 31.5912 577.6 30.1 577.6H27.1C25.6089 577.6 24.4 576.391 24.4 574.9V571.9Z" fill="#FFDF63"/>
<path d="M35.2 561.1C35.2 559.609 36.4089 558.4 37.9 558.4H40.9C42.3912 558.4 43.6 559.609 43.6 561.1V564.1C43.6 565.591 42.3912 566.8 40.9 566.8H37.9C36.4089 566.8 35.2 565.591 35.2 564.1V561.1Z" fill="#FFDF63"/>
<path d="M40.3 570.1C40.3 569.603 39.8971 569.2 39.4 569.2C38.903 569.2 38.5 569.603 38.5 570.1V572.5H36.1C35.603 572.5 35.2 572.903 35.2 573.4C35.2 573.897 35.603 574.3 36.1 574.3H38.5V576.7C38.5 577.197 38.903 577.6 39.4 577.6C39.8971 577.6 40.3 577.197 40.3 576.7V574.3H42.7C43.1971 574.3 43.6 573.897 43.6 573.4C43.6 572.903 43.1971 572.5 42.7 572.5H40.3V570.1Z" fill="#FFDF63"/>
<rect x="16" y="588" width="36" height="34" rx="5" fill="#334155"/>
<path fill-rule="evenodd" clip-rule="evenodd" d="M25 598.25C25 597.836 25.3358 597.5 25.75 597.5H42.25C42.6642 597.5 43 597.836 43 598.25C43 598.664 42.6642 599 42.25 599H25.75C25.3358 599 25 598.664 25 598.25ZM25 602.75C25 602.336 25.3358 602 25.75 602H42.25C42.6642 602 43 602.336 43 602.75C43 603.164 42.6642 603.5 42.25 603.5H25.75C25.3358 603.5 25 603.164 25 602.75ZM25 607.25C25 606.836 25.3358 606.5 25.75 606.5H42.25C42.6642 606.5 43 606.836 43 607.25C43 607.664 42.6642 608 42.25 608H25.75C25.3358 608 25 607.664 25 607.25ZM25 611.75C25 611.336 25.3358 611 25.75 611H42.25C42.6642 611 43 611.336 43 611.75C43 612.164 42.6642 612.5 42.25 612.5H25.75C25.3358 612.5 25 612.164 25 611.75Z" fill="#FFDF63"/>
<rect x="16" y="625" width="36" height="34" rx="5" fill="#334155"/>
<path fill-rule="evenodd" clip-rule="evenodd" d="M23.3713 638.143C29.2291 632.286 38.7266 632.286 44.5845 638.143C44.8774 638.436 44.8774 638.911 44.5845 639.204L44.0542 639.734C43.9135 639.875 43.7228 639.954 43.5238 639.954C43.3249 639.954 43.1341 639.875 42.9935 639.734C38.0143 634.755 29.9415 634.755 24.9623 639.734C24.8216 639.875 24.6308 639.954 24.4319 639.954C24.233 639.954 24.0422 639.875 23.9016 639.734L23.3713 639.204C23.0784 638.911 23.0784 638.436 23.3713 638.143ZM26.5533 641.325C30.6538 637.225 37.302 637.225 41.4025 641.325C41.6954 641.618 41.6954 642.093 41.4025 642.386L40.8722 642.916C40.7316 643.057 40.5408 643.136 40.3419 643.136C40.143 643.136 39.9522 643.057 39.8115 642.916C36.5897 639.695 31.3661 639.695 28.1443 642.916C27.8514 643.209 27.3765 643.209 27.0836 642.916L26.5533 642.386C26.4126 642.245 26.3336 642.055 26.3336 641.856C26.3336 641.657 26.4126 641.466 26.5533 641.325ZM29.7573 644.507C32.1005 642.164 35.8995 642.164 38.2426 644.507C38.5355 644.8 38.5355 645.275 38.2426 645.568L37.7123 646.098C37.5716 646.239 37.3809 646.318 37.182 646.318C36.983 646.318 36.7923 646.239 36.6516 646.098C35.1872 644.634 32.8128 644.634 31.3483 646.098C31.0554 646.391 30.5806 646.391 30.2877 646.098L29.7573 645.568C29.4644 645.275 29.4644 644.8 29.7573 644.507ZM32.9393 647.689C33.5251 647.104 34.4748 647.104 35.0606 647.689C35.3535 647.982 35.3535 648.457 35.0606 648.75L34.5303 649.28C34.3896 649.421 34.1989 649.5 34 649.5C33.8011 649.5 33.6103 649.421 33.4696 649.28L32.9393 648.75C32.6464 648.457 32.6464 647.982 32.9393 647.689Z" fill="#FFDF63"/>
<rect x="16" y="662" width="36" height="34" rx="5" fill="#334155"/>
<path fill-rule="evenodd" clip-rule="evenodd" d="M25.6 672.1C25.6 670.609 26.8088 669.4 28.3 669.4H34.9C36.3911 669.4 37.6 670.609 37.6 672.1V674.5C37.6 674.997 37.197 675.4 36.7 675.4C36.2029 675.4 35.8 674.997 35.8 674.5V672.1C35.8 671.603 35.397 671.2 34.9 671.2H28.3C27.8029 671.2 27.4 671.603 27.4 672.1V685.9C27.4 686.397 27.8029 686.8 28.3 686.8H34.9C35.397 686.8 35.8 686.397 35.8 685.9V683.5C35.8 683.003 36.2029 682.6 36.7 682.6C37.197 682.6 37.6 683.003 37.6 683.5V685.9C37.6 687.391 36.3911 688.6 34.9 688.6H28.3C26.8088 688.6 25.6 687.391 25.6 685.9V672.1Z" fill="#FFDF63"/>
<path fill-rule="evenodd" clip-rule="evenodd" d="M29.2 679C29.2 678.503 29.6029 678.1 30.1 678.1H41.5546L40.2979 676.969C39.9284 676.636 39.8985 676.067 40.231 675.698C40.5635 675.328 41.1326 675.299 41.502 675.631L44.502 678.331C44.6917 678.502 44.8 678.745 44.8 679C44.8 679.255 44.6917 679.498 44.502 679.669L41.502 682.369C41.1326 682.702 40.5635 682.672 40.231 682.302C39.8985 681.933 39.9284 681.364 40.2979 681.031L41.5546 679.9H30.1C29.6029 679.9 29.2 679.497 29.2 679Z" fill="#FFDF63"/>
</svg>
