<svg width="317" height="436" viewBox="0 0 317 436" fill="none" xmlns="http://www.w3.org/2000/svg">
<rect x="0.5" y="0.5" width="316" height="435" rx="4.5" stroke="#9747FF" stroke-dasharray="10 5"/>
<rect x="20" y="20" width="277" height="32" rx="5" fill="#64CDBF"/>
<path d="M128.016 40.072C127.384 40.072 126.8 39.968 126.264 39.76C125.728 39.544 125.264 39.244 124.872 38.86C124.48 38.476 124.172 38.024 123.948 37.504C123.732 36.984 123.624 36.416 123.624 35.8C123.624 35.184 123.732 34.616 123.948 34.096C124.172 33.576 124.48 33.124 124.872 32.74C125.272 32.356 125.74 32.06 126.276 31.852C126.812 31.636 127.396 31.528 128.028 31.528C128.636 31.528 129.208 31.632 129.744 31.84C130.28 32.04 130.732 32.344 131.1 32.752L130.536 33.316C130.192 32.964 129.812 32.712 129.396 32.56C128.98 32.4 128.532 32.32 128.052 32.32C127.548 32.32 127.08 32.408 126.648 32.584C126.216 32.752 125.84 32.996 125.52 33.316C125.2 33.628 124.948 33.996 124.764 34.42C124.588 34.836 124.5 35.296 124.5 35.8C124.5 36.304 124.588 36.768 124.764 37.192C124.948 37.608 125.2 37.976 125.52 38.296C125.84 38.608 126.216 38.852 126.648 39.028C127.08 39.196 127.548 39.28 128.052 39.28C128.532 39.28 128.98 39.2 129.396 39.04C129.812 38.88 130.192 38.624 130.536 38.272L131.1 38.836C130.732 39.244 130.28 39.552 129.744 39.76C129.208 39.968 128.632 40.072 128.016 40.072ZM135.1 40.06C134.492 40.06 133.944 39.924 133.456 39.652C132.976 39.372 132.596 38.992 132.316 38.512C132.036 38.024 131.896 37.468 131.896 36.844C131.896 36.212 132.036 35.656 132.316 35.176C132.596 34.696 132.976 34.32 133.456 34.048C133.936 33.776 134.484 33.64 135.1 33.64C135.724 33.64 136.276 33.776 136.756 34.048C137.244 34.32 137.624 34.696 137.896 35.176C138.176 35.656 138.316 36.212 138.316 36.844C138.316 37.468 138.176 38.024 137.896 38.512C137.624 38.992 137.244 39.372 136.756 39.652C136.268 39.924 135.716 40.06 135.1 40.06ZM135.1 39.304C135.556 39.304 135.96 39.204 136.312 39.004C136.664 38.796 136.94 38.508 137.14 38.14C137.348 37.764 137.452 37.332 137.452 36.844C137.452 36.348 137.348 35.916 137.14 35.548C136.94 35.18 136.664 34.896 136.312 34.696C135.96 34.488 135.56 34.384 135.112 34.384C134.664 34.384 134.264 34.488 133.912 34.696C133.56 34.896 133.28 35.18 133.072 35.548C132.864 35.916 132.76 36.348 132.76 36.844C132.76 37.332 132.864 37.764 133.072 38.14C133.28 38.508 133.56 38.796 133.912 39.004C134.264 39.204 134.66 39.304 135.1 39.304ZM143.271 33.64C143.783 33.64 144.231 33.74 144.615 33.94C145.007 34.132 145.311 34.428 145.527 34.828C145.751 35.228 145.863 35.732 145.863 36.34V40H145.011V36.424C145.011 35.76 144.843 35.26 144.507 34.924C144.179 34.58 143.715 34.408 143.115 34.408C142.667 34.408 142.275 34.5 141.939 34.684C141.611 34.86 141.355 35.12 141.171 35.464C140.995 35.8 140.907 36.208 140.907 36.688V40H140.055V33.7H140.871V35.428L140.739 35.104C140.939 34.648 141.259 34.292 141.699 34.036C142.139 33.772 142.663 33.64 143.271 33.64ZM151.381 33.64C151.893 33.64 152.341 33.74 152.725 33.94C153.117 34.132 153.421 34.428 153.637 34.828C153.861 35.228 153.973 35.732 153.973 36.34V40H153.121V36.424C153.121 35.76 152.953 35.26 152.617 34.924C152.289 34.58 151.825 34.408 151.225 34.408C150.777 34.408 150.385 34.5 150.049 34.684C149.721 34.86 149.465 35.12 149.281 35.464C149.105 35.8 149.017 36.208 149.017 36.688V40H148.165V33.7H148.981V35.428L148.849 35.104C149.049 34.648 149.369 34.292 149.809 34.036C150.249 33.772 150.773 33.64 151.381 33.64ZM158.95 40.06C158.294 40.06 157.718 39.924 157.222 39.652C156.726 39.372 156.338 38.992 156.058 38.512C155.778 38.024 155.638 37.468 155.638 36.844C155.638 36.22 155.77 35.668 156.034 35.188C156.306 34.708 156.674 34.332 157.138 34.06C157.61 33.78 158.138 33.64 158.722 33.64C159.314 33.64 159.838 33.776 160.294 34.048C160.758 34.312 161.122 34.688 161.386 35.176C161.65 35.656 161.782 36.212 161.782 36.844C161.782 36.884 161.778 36.928 161.77 36.976C161.77 37.016 161.77 37.06 161.77 37.108H156.286V36.472H161.314L160.978 36.724C160.978 36.268 160.878 35.864 160.678 35.512C160.486 35.152 160.222 34.872 159.886 34.672C159.55 34.472 159.162 34.372 158.722 34.372C158.29 34.372 157.902 34.472 157.558 34.672C157.214 34.872 156.946 35.152 156.754 35.512C156.562 35.872 156.466 36.284 156.466 36.748V36.88C156.466 37.36 156.57 37.784 156.778 38.152C156.994 38.512 157.29 38.796 157.666 39.004C158.05 39.204 158.486 39.304 158.974 39.304C159.358 39.304 159.714 39.236 160.042 39.1C160.378 38.964 160.666 38.756 160.906 38.476L161.386 39.028C161.106 39.364 160.754 39.62 160.33 39.796C159.914 39.972 159.454 40.06 158.95 40.06ZM166.132 40.06C165.508 40.06 164.948 39.924 164.452 39.652C163.964 39.372 163.58 38.992 163.3 38.512C163.02 38.024 162.88 37.468 162.88 36.844C162.88 36.212 163.02 35.656 163.3 35.176C163.58 34.696 163.964 34.32 164.452 34.048C164.948 33.776 165.508 33.64 166.132 33.64C166.668 33.64 167.152 33.744 167.584 33.952C168.016 34.16 168.356 34.472 168.604 34.888L167.968 35.32C167.752 35 167.484 34.764 167.164 34.612C166.844 34.46 166.496 34.384 166.12 34.384C165.672 34.384 165.268 34.488 164.908 34.696C164.548 34.896 164.264 35.18 164.056 35.548C163.848 35.916 163.744 36.348 163.744 36.844C163.744 37.34 163.848 37.772 164.056 38.14C164.264 38.508 164.548 38.796 164.908 39.004C165.268 39.204 165.672 39.304 166.12 39.304C166.496 39.304 166.844 39.228 167.164 39.076C167.484 38.924 167.752 38.692 167.968 38.38L168.604 38.812C168.356 39.22 168.016 39.532 167.584 39.748C167.152 39.956 166.668 40.06 166.132 40.06ZM172.34 40.06C171.748 40.06 171.292 39.9 170.972 39.58C170.652 39.26 170.492 38.808 170.492 38.224V32.308H171.344V38.176C171.344 38.544 171.436 38.828 171.62 39.028C171.812 39.228 172.084 39.328 172.436 39.328C172.812 39.328 173.124 39.22 173.372 39.004L173.672 39.616C173.504 39.768 173.3 39.88 173.06 39.952C172.828 40.024 172.588 40.06 172.34 40.06ZM169.364 34.408V33.7H173.264V34.408H169.364ZM175.223 40V33.7H176.075V40H175.223ZM175.655 32.308C175.479 32.308 175.331 32.248 175.211 32.128C175.091 32.008 175.031 31.864 175.031 31.696C175.031 31.528 175.091 31.388 175.211 31.276C175.331 31.156 175.479 31.096 175.655 31.096C175.831 31.096 175.979 31.152 176.099 31.264C176.219 31.376 176.279 31.516 176.279 31.684C176.279 31.86 176.219 32.008 176.099 32.128C175.987 32.248 175.839 32.308 175.655 32.308ZM181.662 33.64C182.174 33.64 182.622 33.74 183.006 33.94C183.398 34.132 183.702 34.428 183.918 34.828C184.142 35.228 184.254 35.732 184.254 36.34V40H183.402V36.424C183.402 35.76 183.234 35.26 182.898 34.924C182.57 34.58 182.106 34.408 181.506 34.408C181.058 34.408 180.666 34.5 180.33 34.684C180.002 34.86 179.746 35.12 179.562 35.464C179.386 35.8 179.298 36.208 179.298 36.688V40H178.446V33.7H179.262V35.428L179.13 35.104C179.33 34.648 179.65 34.292 180.09 34.036C180.53 33.772 181.054 33.64 181.662 33.64ZM189.243 42.388C188.667 42.388 188.115 42.304 187.587 42.136C187.059 41.968 186.631 41.728 186.303 41.416L186.735 40.768C187.031 41.032 187.395 41.24 187.827 41.392C188.267 41.552 188.731 41.632 189.219 41.632C190.019 41.632 190.607 41.444 190.983 41.068C191.359 40.7 191.547 40.124 191.547 39.34V37.768L191.667 36.688L191.583 35.608V33.7H192.399V39.232C192.399 40.32 192.131 41.116 191.595 41.62C191.067 42.132 190.283 42.388 189.243 42.388ZM189.087 39.76C188.487 39.76 187.947 39.632 187.467 39.376C186.987 39.112 186.607 38.748 186.327 38.284C186.055 37.82 185.919 37.288 185.919 36.688C185.919 36.088 186.055 35.56 186.327 35.104C186.607 34.64 186.987 34.28 187.467 34.024C187.947 33.768 188.487 33.64 189.087 33.64C189.647 33.64 190.151 33.756 190.599 33.988C191.047 34.22 191.403 34.564 191.667 35.02C191.931 35.476 192.063 36.032 192.063 36.688C192.063 37.344 191.931 37.9 191.667 38.356C191.403 38.812 191.047 39.16 190.599 39.4C190.151 39.64 189.647 39.76 189.087 39.76ZM189.171 39.004C189.635 39.004 190.047 38.908 190.407 38.716C190.767 38.516 191.051 38.244 191.259 37.9C191.467 37.548 191.571 37.144 191.571 36.688C191.571 36.232 191.467 35.832 191.259 35.488C191.051 35.144 190.767 34.876 190.407 34.684C190.047 34.484 189.635 34.384 189.171 34.384C188.715 34.384 188.303 34.484 187.935 34.684C187.575 34.876 187.291 35.144 187.083 35.488C186.883 35.832 186.783 36.232 186.783 36.688C186.783 37.144 186.883 37.548 187.083 37.9C187.291 38.244 187.575 38.516 187.935 38.716C188.303 38.908 188.715 39.004 189.171 39.004Z" fill="black"/>
<path fill-rule="evenodd" clip-rule="evenodd" d="M32.7552 34.0589C33.8272 30.0579 37.9398 27.6835 41.9408 28.7556C43.2617 29.1096 44.4035 29.7937 45.3034 30.6953L47.2065 32.5984H44.0228C43.6085 32.5984 43.2728 32.9341 43.2728 33.3484C43.2728 33.7626 43.6085 34.0984 44.0228 34.0984H49.0154C49.2143 34.0984 49.4051 34.0193 49.5457 33.8786C49.6864 33.738 49.7654 33.5472 49.7654 33.3482V28.3557C49.7654 27.9415 49.4296 27.6057 49.0154 27.6057C48.6011 27.6057 48.2654 27.9415 48.2654 28.3557V31.5359L46.3651 29.6356C45.2839 28.5525 43.9114 27.7307 42.329 27.3067C37.5278 26.0202 32.5928 28.8695 31.3063 33.6707C31.1991 34.0708 31.4365 34.482 31.8366 34.5892C32.2367 34.6964 32.648 34.459 32.7552 34.0589ZM48.1626 37.4108C47.7625 37.3036 47.3513 37.5411 47.2441 37.9412C46.172 41.9422 42.0595 44.3165 38.0585 43.2445C36.7375 42.8905 35.5957 42.2063 34.6958 41.3048L32.794 39.4017H35.9768C36.391 39.4017 36.7268 39.0659 36.7268 38.6517C36.7268 38.2375 36.391 37.9017 35.9768 37.9017L30.9841 37.9017C30.5699 37.9017 30.2341 38.2375 30.2341 38.6517V43.6443C30.2341 44.0585 30.5699 44.3943 30.9841 44.3943C31.3983 44.3943 31.7341 44.0585 31.7341 43.6443V40.4632L33.6342 42.3645C34.7154 43.4477 36.0877 44.2693 37.6702 44.6934C42.4714 45.9798 47.4065 43.1306 48.6929 38.3294C48.8001 37.9293 48.5627 37.5181 48.1626 37.4108Z" fill="#0F172A"/>
<rect x="20" y="228" width="40" height="40" rx="5" fill="#64CDBF"/>
<path fill-rule="evenodd" clip-rule="evenodd" d="M32.7552 246.059C33.8272 242.058 37.9398 239.684 41.9408 240.756C43.2617 241.11 44.4035 241.794 45.3034 242.695L47.2065 244.598H44.0228C43.6085 244.598 43.2728 244.934 43.2728 245.348C43.2728 245.763 43.6085 246.098 44.0228 246.098H49.0154C49.2143 246.098 49.4051 246.019 49.5457 245.879C49.6864 245.738 49.7654 245.547 49.7654 245.348V240.356C49.7654 239.942 49.4296 239.606 49.0154 239.606C48.6011 239.606 48.2654 239.942 48.2654 240.356V243.536L46.3651 241.636C45.2839 240.553 43.9114 239.731 42.329 239.307C37.5278 238.02 32.5928 240.869 31.3063 245.671C31.1991 246.071 31.4365 246.482 31.8366 246.589C32.2367 246.696 32.648 246.459 32.7552 246.059ZM48.1626 249.411C47.7625 249.304 47.3513 249.541 47.2441 249.941C46.172 253.942 42.0595 256.317 38.0585 255.244C36.7375 254.891 35.5957 254.206 34.6958 253.305L32.794 251.402H35.9768C36.391 251.402 36.7268 251.066 36.7268 250.652C36.7268 250.237 36.391 249.902 35.9768 249.902L30.9841 249.902C30.5699 249.902 30.2341 250.237 30.2341 250.652V255.644C30.2341 256.059 30.5699 256.394 30.9841 256.394C31.3983 256.394 31.7341 256.059 31.7341 255.644V252.463L33.6342 254.364C34.7154 255.448 36.0877 256.269 37.6702 256.693C42.4714 257.98 47.4065 255.131 48.6929 250.329C48.8001 249.929 48.5627 249.518 48.1626 249.411Z" fill="#0F172A"/>
<rect x="20" y="72" width="277" height="32" rx="5" fill="#FFDF63"/>
<path d="M114.868 92V83.6H118.012C118.724 83.6 119.336 83.716 119.848 83.948C120.36 84.172 120.752 84.5 121.024 84.932C121.304 85.356 121.444 85.872 121.444 86.48C121.444 87.072 121.304 87.584 121.024 88.016C120.752 88.44 120.36 88.768 119.848 89C119.336 89.224 118.724 89.336 118.012 89.336H115.36L115.756 88.928V92H114.868ZM120.604 92L118.444 88.952H119.404L121.576 92H120.604ZM115.756 89L115.36 88.58H117.988C118.828 88.58 119.464 88.396 119.896 88.028C120.336 87.66 120.556 87.144 120.556 86.48C120.556 85.808 120.336 85.288 119.896 84.92C119.464 84.552 118.828 84.368 117.988 84.368H115.36L115.756 83.948V89ZM126.036 92.06C125.38 92.06 124.804 91.924 124.308 91.652C123.812 91.372 123.424 90.992 123.144 90.512C122.864 90.024 122.724 89.468 122.724 88.844C122.724 88.22 122.856 87.668 123.12 87.188C123.392 86.708 123.76 86.332 124.224 86.06C124.696 85.78 125.224 85.64 125.808 85.64C126.4 85.64 126.924 85.776 127.38 86.048C127.844 86.312 128.208 86.688 128.472 87.176C128.736 87.656 128.868 88.212 128.868 88.844C128.868 88.884 128.864 88.928 128.856 88.976C128.856 89.016 128.856 89.06 128.856 89.108H123.372V88.472H128.4L128.064 88.724C128.064 88.268 127.964 87.864 127.764 87.512C127.572 87.152 127.308 86.872 126.972 86.672C126.636 86.472 126.248 86.372 125.808 86.372C125.376 86.372 124.988 86.472 124.644 86.672C124.3 86.872 124.032 87.152 123.84 87.512C123.648 87.872 123.552 88.284 123.552 88.748V88.88C123.552 89.36 123.656 89.784 123.864 90.152C124.08 90.512 124.376 90.796 124.752 91.004C125.136 91.204 125.572 91.304 126.06 91.304C126.444 91.304 126.8 91.236 127.128 91.1C127.464 90.964 127.752 90.756 127.992 90.476L128.472 91.028C128.192 91.364 127.84 91.62 127.416 91.796C127 91.972 126.54 92.06 126.036 92.06ZM130.251 89.12V88.376H133.395V89.12H130.251ZM138.034 92.06C137.41 92.06 136.85 91.924 136.354 91.652C135.866 91.372 135.482 90.992 135.202 90.512C134.922 90.024 134.782 89.468 134.782 88.844C134.782 88.212 134.922 87.656 135.202 87.176C135.482 86.696 135.866 86.32 136.354 86.048C136.85 85.776 137.41 85.64 138.034 85.64C138.57 85.64 139.054 85.744 139.486 85.952C139.918 86.16 140.258 86.472 140.506 86.888L139.87 87.32C139.654 87 139.386 86.764 139.066 86.612C138.746 86.46 138.398 86.384 138.022 86.384C137.574 86.384 137.17 86.488 136.81 86.696C136.45 86.896 136.166 87.18 135.958 87.548C135.75 87.916 135.646 88.348 135.646 88.844C135.646 89.34 135.75 89.772 135.958 90.14C136.166 90.508 136.45 90.796 136.81 91.004C137.17 91.204 137.574 91.304 138.022 91.304C138.398 91.304 138.746 91.228 139.066 91.076C139.386 90.924 139.654 90.692 139.87 90.38L140.506 90.812C140.258 91.22 139.918 91.532 139.486 91.748C139.054 91.956 138.57 92.06 138.034 92.06ZM144.643 92.06C144.035 92.06 143.487 91.924 142.999 91.652C142.519 91.372 142.139 90.992 141.859 90.512C141.579 90.024 141.439 89.468 141.439 88.844C141.439 88.212 141.579 87.656 141.859 87.176C142.139 86.696 142.519 86.32 142.999 86.048C143.479 85.776 144.027 85.64 144.643 85.64C145.267 85.64 145.819 85.776 146.299 86.048C146.787 86.32 147.167 86.696 147.439 87.176C147.719 87.656 147.859 88.212 147.859 88.844C147.859 89.468 147.719 90.024 147.439 90.512C147.167 90.992 146.787 91.372 146.299 91.652C145.811 91.924 145.259 92.06 144.643 92.06ZM144.643 91.304C145.099 91.304 145.503 91.204 145.855 91.004C146.207 90.796 146.483 90.508 146.683 90.14C146.891 89.764 146.995 89.332 146.995 88.844C146.995 88.348 146.891 87.916 146.683 87.548C146.483 87.18 146.207 86.896 145.855 86.696C145.503 86.488 145.103 86.384 144.655 86.384C144.207 86.384 143.807 86.488 143.455 86.696C143.103 86.896 142.823 87.18 142.615 87.548C142.407 87.916 142.303 88.348 142.303 88.844C142.303 89.332 142.407 89.764 142.615 90.14C142.823 90.508 143.103 90.796 143.455 91.004C143.807 91.204 144.203 91.304 144.643 91.304ZM152.814 85.64C153.326 85.64 153.774 85.74 154.158 85.94C154.55 86.132 154.854 86.428 155.07 86.828C155.294 87.228 155.406 87.732 155.406 88.34V92H154.554V88.424C154.554 87.76 154.386 87.26 154.05 86.924C153.722 86.58 153.258 86.408 152.658 86.408C152.21 86.408 151.818 86.5 151.482 86.684C151.154 86.86 150.898 87.12 150.714 87.464C150.538 87.8 150.45 88.208 150.45 88.688V92H149.598V85.7H150.414V87.428L150.282 87.104C150.482 86.648 150.802 86.292 151.242 86.036C151.682 85.772 152.206 85.64 152.814 85.64ZM160.924 85.64C161.436 85.64 161.884 85.74 162.268 85.94C162.66 86.132 162.964 86.428 163.18 86.828C163.404 87.228 163.516 87.732 163.516 88.34V92H162.664V88.424C162.664 87.76 162.496 87.26 162.16 86.924C161.832 86.58 161.368 86.408 160.768 86.408C160.32 86.408 159.928 86.5 159.592 86.684C159.264 86.86 159.008 87.12 158.824 87.464C158.648 87.8 158.56 88.208 158.56 88.688V92H157.708V85.7H158.524V87.428L158.392 87.104C158.592 86.648 158.912 86.292 159.352 86.036C159.792 85.772 160.316 85.64 160.924 85.64ZM168.493 92.06C167.837 92.06 167.261 91.924 166.765 91.652C166.269 91.372 165.881 90.992 165.601 90.512C165.321 90.024 165.181 89.468 165.181 88.844C165.181 88.22 165.313 87.668 165.577 87.188C165.849 86.708 166.217 86.332 166.681 86.06C167.153 85.78 167.681 85.64 168.265 85.64C168.857 85.64 169.381 85.776 169.837 86.048C170.301 86.312 170.665 86.688 170.929 87.176C171.193 87.656 171.325 88.212 171.325 88.844C171.325 88.884 171.321 88.928 171.313 88.976C171.313 89.016 171.313 89.06 171.313 89.108H165.829V88.472H170.857L170.521 88.724C170.521 88.268 170.421 87.864 170.221 87.512C170.029 87.152 169.765 86.872 169.429 86.672C169.093 86.472 168.705 86.372 168.265 86.372C167.833 86.372 167.445 86.472 167.101 86.672C166.757 86.872 166.489 87.152 166.297 87.512C166.105 87.872 166.009 88.284 166.009 88.748V88.88C166.009 89.36 166.113 89.784 166.321 90.152C166.537 90.512 166.833 90.796 167.209 91.004C167.593 91.204 168.029 91.304 168.517 91.304C168.901 91.304 169.257 91.236 169.585 91.1C169.921 90.964 170.209 90.756 170.449 90.476L170.929 91.028C170.649 91.364 170.297 91.62 169.873 91.796C169.457 91.972 168.997 92.06 168.493 92.06ZM175.675 92.06C175.051 92.06 174.491 91.924 173.995 91.652C173.507 91.372 173.123 90.992 172.843 90.512C172.563 90.024 172.423 89.468 172.423 88.844C172.423 88.212 172.563 87.656 172.843 87.176C173.123 86.696 173.507 86.32 173.995 86.048C174.491 85.776 175.051 85.64 175.675 85.64C176.211 85.64 176.695 85.744 177.127 85.952C177.559 86.16 177.899 86.472 178.147 86.888L177.511 87.32C177.295 87 177.027 86.764 176.707 86.612C176.387 86.46 176.039 86.384 175.663 86.384C175.215 86.384 174.811 86.488 174.451 86.696C174.091 86.896 173.807 87.18 173.599 87.548C173.391 87.916 173.287 88.348 173.287 88.844C173.287 89.34 173.391 89.772 173.599 90.14C173.807 90.508 174.091 90.796 174.451 91.004C174.811 91.204 175.215 91.304 175.663 91.304C176.039 91.304 176.387 91.228 176.707 91.076C177.027 90.924 177.295 90.692 177.511 90.38L178.147 90.812C177.899 91.22 177.559 91.532 177.127 91.748C176.695 91.956 176.211 92.06 175.675 92.06ZM181.883 92.06C181.291 92.06 180.835 91.9 180.515 91.58C180.195 91.26 180.035 90.808 180.035 90.224V84.308H180.887V90.176C180.887 90.544 180.979 90.828 181.163 91.028C181.355 91.228 181.627 91.328 181.979 91.328C182.355 91.328 182.667 91.22 182.915 91.004L183.215 91.616C183.047 91.768 182.843 91.88 182.603 91.952C182.371 92.024 182.131 92.06 181.883 92.06ZM178.907 86.408V85.7H182.807V86.408H178.907ZM184.766 92V85.7H185.618V92H184.766ZM185.198 84.308C185.022 84.308 184.874 84.248 184.754 84.128C184.634 84.008 184.574 83.864 184.574 83.696C184.574 83.528 184.634 83.388 184.754 83.276C184.874 83.156 185.022 83.096 185.198 83.096C185.374 83.096 185.522 83.152 185.642 83.264C185.762 83.376 185.822 83.516 185.822 83.684C185.822 83.86 185.762 84.008 185.642 84.128C185.53 84.248 185.382 84.308 185.198 84.308ZM191.205 85.64C191.717 85.64 192.165 85.74 192.549 85.94C192.941 86.132 193.245 86.428 193.461 86.828C193.685 87.228 193.797 87.732 193.797 88.34V92H192.945V88.424C192.945 87.76 192.777 87.26 192.441 86.924C192.113 86.58 191.649 86.408 191.049 86.408C190.601 86.408 190.209 86.5 189.873 86.684C189.545 86.86 189.289 87.12 189.105 87.464C188.929 87.8 188.841 88.208 188.841 88.688V92H187.989V85.7H188.805V87.428L188.673 87.104C188.873 86.648 189.193 86.292 189.633 86.036C190.073 85.772 190.597 85.64 191.205 85.64ZM198.786 94.388C198.21 94.388 197.658 94.304 197.13 94.136C196.602 93.968 196.174 93.728 195.846 93.416L196.278 92.768C196.574 93.032 196.938 93.24 197.37 93.392C197.81 93.552 198.274 93.632 198.762 93.632C199.562 93.632 200.15 93.444 200.526 93.068C200.902 92.7 201.09 92.124 201.09 91.34V89.768L201.21 88.688L201.126 87.608V85.7H201.942V91.232C201.942 92.32 201.674 93.116 201.138 93.62C200.61 94.132 199.826 94.388 198.786 94.388ZM198.63 91.76C198.03 91.76 197.49 91.632 197.01 91.376C196.53 91.112 196.15 90.748 195.87 90.284C195.598 89.82 195.462 89.288 195.462 88.688C195.462 88.088 195.598 87.56 195.87 87.104C196.15 86.64 196.53 86.28 197.01 86.024C197.49 85.768 198.03 85.64 198.63 85.64C199.19 85.64 199.694 85.756 200.142 85.988C200.59 86.22 200.946 86.564 201.21 87.02C201.474 87.476 201.606 88.032 201.606 88.688C201.606 89.344 201.474 89.9 201.21 90.356C200.946 90.812 200.59 91.16 200.142 91.4C199.694 91.64 199.19 91.76 198.63 91.76ZM198.714 91.004C199.178 91.004 199.59 90.908 199.95 90.716C200.31 90.516 200.594 90.244 200.802 89.9C201.01 89.548 201.114 89.144 201.114 88.688C201.114 88.232 201.01 87.832 200.802 87.488C200.594 87.144 200.31 86.876 199.95 86.684C199.59 86.484 199.178 86.384 198.714 86.384C198.258 86.384 197.846 86.484 197.478 86.684C197.118 86.876 196.834 87.144 196.626 87.488C196.426 87.832 196.326 88.232 196.326 88.688C196.326 89.144 196.426 89.548 196.626 89.9C196.834 90.244 197.118 90.516 197.478 90.716C197.846 90.908 198.258 91.004 198.714 91.004Z" fill="black"/>
<path fill-rule="evenodd" clip-rule="evenodd" d="M32.7552 86.0589C33.8272 82.0579 37.9398 79.6835 41.9408 80.7556C43.2617 81.1096 44.4035 81.7937 45.3034 82.6953L47.2065 84.5984H44.0228C43.6085 84.5984 43.2728 84.9341 43.2728 85.3484C43.2728 85.7626 43.6085 86.0984 44.0228 86.0984H49.0154C49.2143 86.0984 49.4051 86.0193 49.5457 85.8786C49.6864 85.738 49.7654 85.5472 49.7654 85.3482V80.3557C49.7654 79.9415 49.4296 79.6057 49.0154 79.6057C48.6011 79.6057 48.2654 79.9415 48.2654 80.3557V83.5359L46.3651 81.6356C45.2839 80.5525 43.9114 79.7307 42.329 79.3067C37.5278 78.0202 32.5928 80.8695 31.3063 85.6707C31.1991 86.0708 31.4365 86.482 31.8366 86.5892C32.2367 86.6964 32.648 86.459 32.7552 86.0589ZM48.1626 89.4108C47.7625 89.3036 47.3513 89.5411 47.2441 89.9412C46.172 93.9422 42.0595 96.3165 38.0585 95.2445C36.7375 94.8905 35.5957 94.2063 34.6958 93.3048L32.794 91.4017H35.9768C36.391 91.4017 36.7268 91.0659 36.7268 90.6517C36.7268 90.2375 36.391 89.9017 35.9768 89.9017L30.9841 89.9017C30.5699 89.9017 30.2341 90.2375 30.2341 90.6517V95.6443C30.2341 96.0585 30.5699 96.3943 30.9841 96.3943C31.3983 96.3943 31.7341 96.0585 31.7341 95.6443V92.4632L33.6342 94.3645C34.7154 95.4477 36.0877 96.2693 37.6702 96.6934C42.4714 97.9798 47.4065 95.1306 48.6929 90.3294C48.8001 89.9293 48.5627 89.5181 48.1626 89.4108Z" fill="#0F172A"/>
<rect x="20" y="280" width="40" height="40" rx="5" fill="#FFDF63"/>
<path fill-rule="evenodd" clip-rule="evenodd" d="M32.7552 298.059C33.8272 294.058 37.9398 291.684 41.9408 292.756C43.2617 293.11 44.4035 293.794 45.3034 294.695L47.2065 296.598H44.0228C43.6085 296.598 43.2728 296.934 43.2728 297.348C43.2728 297.763 43.6085 298.098 44.0228 298.098H49.0154C49.2143 298.098 49.4051 298.019 49.5457 297.879C49.6864 297.738 49.7654 297.547 49.7654 297.348V292.356C49.7654 291.942 49.4296 291.606 49.0154 291.606C48.6011 291.606 48.2654 291.942 48.2654 292.356V295.536L46.3651 293.636C45.2839 292.553 43.9114 291.731 42.329 291.307C37.5278 290.02 32.5928 292.869 31.3063 297.671C31.1991 298.071 31.4365 298.482 31.8366 298.589C32.2367 298.696 32.648 298.459 32.7552 298.059ZM48.1626 301.411C47.7625 301.304 47.3513 301.541 47.2441 301.941C46.172 305.942 42.0595 308.317 38.0585 307.244C36.7375 306.891 35.5957 306.206 34.6958 305.305L32.794 303.402H35.9768C36.391 303.402 36.7268 303.066 36.7268 302.652C36.7268 302.237 36.391 301.902 35.9768 301.902L30.9841 301.902C30.5699 301.902 30.2341 302.237 30.2341 302.652V307.644C30.2341 308.059 30.5699 308.394 30.9841 308.394C31.3983 308.394 31.7341 308.059 31.7341 307.644V304.463L33.6342 306.364C34.7154 307.448 36.0877 308.269 37.6702 308.693C42.4714 309.98 47.4065 307.131 48.6929 302.329C48.8001 301.929 48.5627 301.518 48.1626 301.411Z" fill="#0F172A"/>
<rect x="20" y="124" width="277" height="32" rx="5" fill="#FF5014"/>
<path d="M108.16 139.668H112.6V140.436H108.16V139.668ZM108.256 144H107.368V135.6H113.128V136.368H108.256V144ZM118.472 144V142.608L118.436 142.38V140.052C118.436 139.516 118.284 139.104 117.98 138.816C117.684 138.528 117.24 138.384 116.648 138.384C116.24 138.384 115.852 138.452 115.484 138.588C115.116 138.724 114.804 138.904 114.548 139.128L114.164 138.492C114.484 138.22 114.868 138.012 115.316 137.868C115.764 137.716 116.236 137.64 116.732 137.64C117.548 137.64 118.176 137.844 118.616 138.252C119.064 138.652 119.288 139.264 119.288 140.088V144H118.472ZM116.3 144.06C115.828 144.06 115.416 143.984 115.064 143.832C114.72 143.672 114.456 143.456 114.272 143.184C114.088 142.904 113.996 142.584 113.996 142.224C113.996 141.896 114.072 141.6 114.224 141.336C114.384 141.064 114.64 140.848 114.992 140.688C115.352 140.52 115.832 140.436 116.432 140.436H118.604V141.072H116.456C115.848 141.072 115.424 141.18 115.184 141.396C114.952 141.612 114.836 141.88 114.836 142.2C114.836 142.56 114.976 142.848 115.256 143.064C115.536 143.28 115.928 143.388 116.432 143.388C116.912 143.388 117.324 143.28 117.668 143.064C118.02 142.84 118.276 142.52 118.436 142.104L118.628 142.692C118.468 143.108 118.188 143.44 117.788 143.688C117.396 143.936 116.9 144.06 116.3 144.06ZM121.602 144V137.7H122.454V144H121.602ZM122.034 136.308C121.858 136.308 121.71 136.248 121.59 136.128C121.47 136.008 121.41 135.864 121.41 135.696C121.41 135.528 121.47 135.388 121.59 135.276C121.71 135.156 121.858 135.096 122.034 135.096C122.21 135.096 122.358 135.152 122.478 135.264C122.598 135.376 122.658 135.516 122.658 135.684C122.658 135.86 122.598 136.008 122.478 136.128C122.366 136.248 122.218 136.308 122.034 136.308ZM124.825 144V135.096H125.677V144H124.825ZM130.723 144.06C130.067 144.06 129.491 143.924 128.995 143.652C128.499 143.372 128.111 142.992 127.831 142.512C127.551 142.024 127.411 141.468 127.411 140.844C127.411 140.22 127.543 139.668 127.807 139.188C128.079 138.708 128.447 138.332 128.911 138.06C129.383 137.78 129.911 137.64 130.495 137.64C131.087 137.64 131.611 137.776 132.067 138.048C132.531 138.312 132.895 138.688 133.159 139.176C133.423 139.656 133.555 140.212 133.555 140.844C133.555 140.884 133.551 140.928 133.543 140.976C133.543 141.016 133.543 141.06 133.543 141.108H128.059V140.472H133.087L132.751 140.724C132.751 140.268 132.651 139.864 132.451 139.512C132.259 139.152 131.995 138.872 131.659 138.672C131.323 138.472 130.935 138.372 130.495 138.372C130.063 138.372 129.675 138.472 129.331 138.672C128.987 138.872 128.719 139.152 128.527 139.512C128.335 139.872 128.239 140.284 128.239 140.748V140.88C128.239 141.36 128.343 141.784 128.551 142.152C128.767 142.512 129.063 142.796 129.439 143.004C129.823 143.204 130.259 143.304 130.747 143.304C131.131 143.304 131.487 143.236 131.815 143.1C132.151 142.964 132.439 142.756 132.679 142.476L133.159 143.028C132.879 143.364 132.527 143.62 132.103 143.796C131.687 143.972 131.227 144.06 130.723 144.06ZM137.798 144.06C137.198 144.06 136.658 143.924 136.178 143.652C135.706 143.38 135.334 143.004 135.062 142.524C134.79 142.036 134.654 141.476 134.654 140.844C134.654 140.204 134.79 139.644 135.062 139.164C135.334 138.684 135.706 138.312 136.178 138.048C136.658 137.776 137.198 137.64 137.798 137.64C138.35 137.64 138.842 137.764 139.274 138.012C139.714 138.26 140.062 138.624 140.318 139.104C140.582 139.576 140.714 140.156 140.714 140.844C140.714 141.524 140.586 142.104 140.33 142.584C140.074 143.064 139.726 143.432 139.286 143.688C138.854 143.936 138.358 144.06 137.798 144.06ZM137.858 143.304C138.306 143.304 138.706 143.204 139.058 143.004C139.418 142.796 139.698 142.508 139.898 142.14C140.106 141.764 140.21 141.332 140.21 140.844C140.21 140.348 140.106 139.916 139.898 139.548C139.698 139.18 139.418 138.896 139.058 138.696C138.706 138.488 138.306 138.384 137.858 138.384C137.418 138.384 137.022 138.488 136.67 138.696C136.318 138.896 136.038 139.18 135.83 139.548C135.622 139.916 135.518 140.348 135.518 140.844C135.518 141.332 135.622 141.764 135.83 142.14C136.038 142.508 136.318 142.796 136.67 143.004C137.022 143.204 137.418 143.304 137.858 143.304ZM140.234 144V142.104L140.318 140.832L140.198 139.56V135.096H141.05V144H140.234ZM148.555 144.06C147.963 144.06 147.507 143.9 147.187 143.58C146.867 143.26 146.707 142.808 146.707 142.224V136.308H147.559V142.176C147.559 142.544 147.651 142.828 147.835 143.028C148.027 143.228 148.299 143.328 148.651 143.328C149.027 143.328 149.339 143.22 149.587 143.004L149.887 143.616C149.719 143.768 149.515 143.88 149.275 143.952C149.043 144.024 148.803 144.06 148.555 144.06ZM145.579 138.408V137.7H149.479V138.408H145.579ZM153.783 144.06C153.175 144.06 152.627 143.924 152.139 143.652C151.659 143.372 151.279 142.992 150.999 142.512C150.719 142.024 150.579 141.468 150.579 140.844C150.579 140.212 150.719 139.656 150.999 139.176C151.279 138.696 151.659 138.32 152.139 138.048C152.619 137.776 153.167 137.64 153.783 137.64C154.407 137.64 154.959 137.776 155.439 138.048C155.927 138.32 156.307 138.696 156.579 139.176C156.859 139.656 156.999 140.212 156.999 140.844C156.999 141.468 156.859 142.024 156.579 142.512C156.307 142.992 155.927 143.372 155.439 143.652C154.951 143.924 154.399 144.06 153.783 144.06ZM153.783 143.304C154.239 143.304 154.643 143.204 154.995 143.004C155.347 142.796 155.623 142.508 155.823 142.14C156.031 141.764 156.135 141.332 156.135 140.844C156.135 140.348 156.031 139.916 155.823 139.548C155.623 139.18 155.347 138.896 154.995 138.696C154.643 138.488 154.243 138.384 153.795 138.384C153.347 138.384 152.947 138.488 152.595 138.696C152.243 138.896 151.963 139.18 151.755 139.548C151.547 139.916 151.443 140.348 151.443 140.844C151.443 141.332 151.547 141.764 151.755 142.14C151.963 142.508 152.243 142.796 152.595 143.004C152.947 143.204 153.343 143.304 153.783 143.304ZM164.495 144.06C163.871 144.06 163.311 143.924 162.815 143.652C162.327 143.372 161.943 142.992 161.663 142.512C161.383 142.024 161.243 141.468 161.243 140.844C161.243 140.212 161.383 139.656 161.663 139.176C161.943 138.696 162.327 138.32 162.815 138.048C163.311 137.776 163.871 137.64 164.495 137.64C165.031 137.64 165.515 137.744 165.947 137.952C166.379 138.16 166.719 138.472 166.967 138.888L166.331 139.32C166.115 139 165.847 138.764 165.527 138.612C165.207 138.46 164.859 138.384 164.483 138.384C164.035 138.384 163.631 138.488 163.271 138.696C162.911 138.896 162.627 139.18 162.419 139.548C162.211 139.916 162.107 140.348 162.107 140.844C162.107 141.34 162.211 141.772 162.419 142.14C162.627 142.508 162.911 142.796 163.271 143.004C163.631 143.204 164.035 143.304 164.483 143.304C164.859 143.304 165.207 143.228 165.527 143.076C165.847 142.924 166.115 142.692 166.331 142.38L166.967 142.812C166.719 143.22 166.379 143.532 165.947 143.748C165.515 143.956 165.031 144.06 164.495 144.06ZM171.104 144.06C170.496 144.06 169.948 143.924 169.46 143.652C168.98 143.372 168.6 142.992 168.32 142.512C168.04 142.024 167.9 141.468 167.9 140.844C167.9 140.212 168.04 139.656 168.32 139.176C168.6 138.696 168.98 138.32 169.46 138.048C169.94 137.776 170.488 137.64 171.104 137.64C171.728 137.64 172.28 137.776 172.76 138.048C173.248 138.32 173.628 138.696 173.9 139.176C174.18 139.656 174.32 140.212 174.32 140.844C174.32 141.468 174.18 142.024 173.9 142.512C173.628 142.992 173.248 143.372 172.76 143.652C172.272 143.924 171.72 144.06 171.104 144.06ZM171.104 143.304C171.56 143.304 171.964 143.204 172.316 143.004C172.668 142.796 172.944 142.508 173.144 142.14C173.352 141.764 173.456 141.332 173.456 140.844C173.456 140.348 173.352 139.916 173.144 139.548C172.944 139.18 172.668 138.896 172.316 138.696C171.964 138.488 171.564 138.384 171.116 138.384C170.668 138.384 170.268 138.488 169.916 138.696C169.564 138.896 169.284 139.18 169.076 139.548C168.868 139.916 168.764 140.348 168.764 140.844C168.764 141.332 168.868 141.764 169.076 142.14C169.284 142.508 169.564 142.796 169.916 143.004C170.268 143.204 170.664 143.304 171.104 143.304ZM179.275 137.64C179.787 137.64 180.235 137.74 180.619 137.94C181.011 138.132 181.315 138.428 181.531 138.828C181.755 139.228 181.867 139.732 181.867 140.34V144H181.015V140.424C181.015 139.76 180.847 139.26 180.511 138.924C180.183 138.58 179.719 138.408 179.119 138.408C178.671 138.408 178.279 138.5 177.943 138.684C177.615 138.86 177.359 139.12 177.175 139.464C176.999 139.8 176.911 140.208 176.911 140.688V144H176.059V137.7H176.875V139.428L176.743 139.104C176.943 138.648 177.263 138.292 177.703 138.036C178.143 137.772 178.667 137.64 179.275 137.64ZM187.384 137.64C187.896 137.64 188.344 137.74 188.728 137.94C189.12 138.132 189.424 138.428 189.64 138.828C189.864 139.228 189.976 139.732 189.976 140.34V144H189.124V140.424C189.124 139.76 188.956 139.26 188.62 138.924C188.292 138.58 187.828 138.408 187.228 138.408C186.78 138.408 186.388 138.5 186.052 138.684C185.724 138.86 185.468 139.12 185.284 139.464C185.108 139.8 185.02 140.208 185.02 140.688V144H184.168V137.7H184.984V139.428L184.852 139.104C185.052 138.648 185.372 138.292 185.812 138.036C186.252 137.772 186.776 137.64 187.384 137.64ZM194.954 144.06C194.298 144.06 193.722 143.924 193.226 143.652C192.73 143.372 192.342 142.992 192.062 142.512C191.782 142.024 191.642 141.468 191.642 140.844C191.642 140.22 191.774 139.668 192.038 139.188C192.31 138.708 192.678 138.332 193.142 138.06C193.614 137.78 194.142 137.64 194.726 137.64C195.318 137.64 195.842 137.776 196.298 138.048C196.762 138.312 197.126 138.688 197.39 139.176C197.654 139.656 197.786 140.212 197.786 140.844C197.786 140.884 197.782 140.928 197.774 140.976C197.774 141.016 197.774 141.06 197.774 141.108H192.29V140.472H197.318L196.982 140.724C196.982 140.268 196.882 139.864 196.682 139.512C196.49 139.152 196.226 138.872 195.89 138.672C195.554 138.472 195.166 138.372 194.726 138.372C194.294 138.372 193.906 138.472 193.562 138.672C193.218 138.872 192.95 139.152 192.758 139.512C192.566 139.872 192.47 140.284 192.47 140.748V140.88C192.47 141.36 192.574 141.784 192.782 142.152C192.998 142.512 193.294 142.796 193.67 143.004C194.054 143.204 194.49 143.304 194.978 143.304C195.362 143.304 195.718 143.236 196.046 143.1C196.382 142.964 196.67 142.756 196.91 142.476L197.39 143.028C197.11 143.364 196.758 143.62 196.334 143.796C195.918 143.972 195.458 144.06 194.954 144.06ZM202.136 144.06C201.512 144.06 200.952 143.924 200.456 143.652C199.968 143.372 199.584 142.992 199.304 142.512C199.024 142.024 198.884 141.468 198.884 140.844C198.884 140.212 199.024 139.656 199.304 139.176C199.584 138.696 199.968 138.32 200.456 138.048C200.952 137.776 201.512 137.64 202.136 137.64C202.672 137.64 203.156 137.744 203.588 137.952C204.02 138.16 204.36 138.472 204.608 138.888L203.972 139.32C203.756 139 203.488 138.764 203.168 138.612C202.848 138.46 202.5 138.384 202.124 138.384C201.676 138.384 201.272 138.488 200.912 138.696C200.552 138.896 200.268 139.18 200.06 139.548C199.852 139.916 199.748 140.348 199.748 140.844C199.748 141.34 199.852 141.772 200.06 142.14C200.268 142.508 200.552 142.796 200.912 143.004C201.272 143.204 201.676 143.304 202.124 143.304C202.5 143.304 202.848 143.228 203.168 143.076C203.488 142.924 203.756 142.692 203.972 142.38L204.608 142.812C204.36 143.22 204.02 143.532 203.588 143.748C203.156 143.956 202.672 144.06 202.136 144.06ZM208.344 144.06C207.752 144.06 207.296 143.9 206.976 143.58C206.656 143.26 206.496 142.808 206.496 142.224V136.308H207.348V142.176C207.348 142.544 207.44 142.828 207.624 143.028C207.816 143.228 208.088 143.328 208.44 143.328C208.816 143.328 209.128 143.22 209.376 143.004L209.676 143.616C209.508 143.768 209.304 143.88 209.064 143.952C208.832 144.024 208.592 144.06 208.344 144.06ZM205.368 138.408V137.7H209.268V138.408H205.368Z" fill="black"/>
<path fill-rule="evenodd" clip-rule="evenodd" d="M33.4697 133.47C33.7626 133.177 34.2374 133.177 34.5303 133.47L40 138.939L45.4697 133.47C45.7626 133.177 46.2374 133.177 46.5303 133.47C46.8232 133.763 46.8232 134.237 46.5303 134.53L41.0607 140L46.5303 145.47C46.8232 145.763 46.8232 146.237 46.5303 146.53C46.2374 146.823 45.7626 146.823 45.4697 146.53L40 141.061L34.5303 146.53C34.2374 146.823 33.7626 146.823 33.4697 146.53C33.1768 146.237 33.1768 145.763 33.4697 145.47L38.9393 140L33.4697 134.53C33.1768 134.237 33.1768 133.763 33.4697 133.47Z" fill="#0F172A"/>
<rect x="20" y="332" width="40" height="40" rx="5" fill="#FF5014"/>
<path fill-rule="evenodd" clip-rule="evenodd" d="M33.4697 345.47C33.7626 345.177 34.2374 345.177 34.5303 345.47L40 350.939L45.4697 345.47C45.7626 345.177 46.2374 345.177 46.5303 345.47C46.8232 345.763 46.8232 346.237 46.5303 346.53L41.0607 352L46.5303 357.47C46.8232 357.763 46.8232 358.237 46.5303 358.53C46.2374 358.823 45.7626 358.823 45.4697 358.53L40 353.061L34.5303 358.53C34.2374 358.823 33.7626 358.823 33.4697 358.53C33.1768 358.237 33.1768 357.763 33.4697 357.47L38.9393 352L33.4697 346.53C33.1768 346.237 33.1768 345.763 33.4697 345.47Z" fill="#0F172A"/>
<rect x="20" y="176" width="277" height="32" rx="5" fill="#334155"/>
<path d="M130.016 196.072C129.384 196.072 128.8 195.968 128.264 195.76C127.728 195.544 127.264 195.244 126.872 194.86C126.48 194.476 126.172 194.024 125.948 193.504C125.732 192.984 125.624 192.416 125.624 191.8C125.624 191.184 125.732 190.616 125.948 190.096C126.172 189.576 126.48 189.124 126.872 188.74C127.272 188.356 127.74 188.06 128.276 187.852C128.812 187.636 129.396 187.528 130.028 187.528C130.636 187.528 131.208 187.632 131.744 187.84C132.28 188.04 132.732 188.344 133.1 188.752L132.536 189.316C132.192 188.964 131.812 188.712 131.396 188.56C130.98 188.4 130.532 188.32 130.052 188.32C129.548 188.32 129.08 188.408 128.648 188.584C128.216 188.752 127.84 188.996 127.52 189.316C127.2 189.628 126.948 189.996 126.764 190.42C126.588 190.836 126.5 191.296 126.5 191.8C126.5 192.304 126.588 192.768 126.764 193.192C126.948 193.608 127.2 193.976 127.52 194.296C127.84 194.608 128.216 194.852 128.648 195.028C129.08 195.196 129.548 195.28 130.052 195.28C130.532 195.28 130.98 195.2 131.396 195.04C131.812 194.88 132.192 194.624 132.536 194.272L133.1 194.836C132.732 195.244 132.28 195.552 131.744 195.76C131.208 195.968 130.632 196.072 130.016 196.072ZM137.1 196.06C136.492 196.06 135.944 195.924 135.456 195.652C134.976 195.372 134.596 194.992 134.316 194.512C134.036 194.024 133.896 193.468 133.896 192.844C133.896 192.212 134.036 191.656 134.316 191.176C134.596 190.696 134.976 190.32 135.456 190.048C135.936 189.776 136.484 189.64 137.1 189.64C137.724 189.64 138.276 189.776 138.756 190.048C139.244 190.32 139.624 190.696 139.896 191.176C140.176 191.656 140.316 192.212 140.316 192.844C140.316 193.468 140.176 194.024 139.896 194.512C139.624 194.992 139.244 195.372 138.756 195.652C138.268 195.924 137.716 196.06 137.1 196.06ZM137.1 195.304C137.556 195.304 137.96 195.204 138.312 195.004C138.664 194.796 138.94 194.508 139.14 194.14C139.348 193.764 139.452 193.332 139.452 192.844C139.452 192.348 139.348 191.916 139.14 191.548C138.94 191.18 138.664 190.896 138.312 190.696C137.96 190.488 137.56 190.384 137.112 190.384C136.664 190.384 136.264 190.488 135.912 190.696C135.56 190.896 135.28 191.18 135.072 191.548C134.864 191.916 134.76 192.348 134.76 192.844C134.76 193.332 134.864 193.764 135.072 194.14C135.28 194.508 135.56 194.796 135.912 195.004C136.264 195.204 136.66 195.304 137.1 195.304ZM145.271 189.64C145.783 189.64 146.231 189.74 146.615 189.94C147.007 190.132 147.311 190.428 147.527 190.828C147.751 191.228 147.863 191.732 147.863 192.34V196H147.011V192.424C147.011 191.76 146.843 191.26 146.507 190.924C146.179 190.58 145.715 190.408 145.115 190.408C144.667 190.408 144.275 190.5 143.939 190.684C143.611 190.86 143.355 191.12 143.171 191.464C142.995 191.8 142.907 192.208 142.907 192.688V196H142.055V189.7H142.871V191.428L142.739 191.104C142.939 190.648 143.259 190.292 143.699 190.036C144.139 189.772 144.663 189.64 145.271 189.64ZM153.381 189.64C153.893 189.64 154.341 189.74 154.725 189.94C155.117 190.132 155.421 190.428 155.637 190.828C155.861 191.228 155.973 191.732 155.973 192.34V196H155.121V192.424C155.121 191.76 154.953 191.26 154.617 190.924C154.289 190.58 153.825 190.408 153.225 190.408C152.777 190.408 152.385 190.5 152.049 190.684C151.721 190.86 151.465 191.12 151.281 191.464C151.105 191.8 151.017 192.208 151.017 192.688V196H150.165V189.7H150.981V191.428L150.849 191.104C151.049 190.648 151.369 190.292 151.809 190.036C152.249 189.772 152.773 189.64 153.381 189.64ZM160.95 196.06C160.294 196.06 159.718 195.924 159.222 195.652C158.726 195.372 158.338 194.992 158.058 194.512C157.778 194.024 157.638 193.468 157.638 192.844C157.638 192.22 157.77 191.668 158.034 191.188C158.306 190.708 158.674 190.332 159.138 190.06C159.61 189.78 160.138 189.64 160.722 189.64C161.314 189.64 161.838 189.776 162.294 190.048C162.758 190.312 163.122 190.688 163.386 191.176C163.65 191.656 163.782 192.212 163.782 192.844C163.782 192.884 163.778 192.928 163.77 192.976C163.77 193.016 163.77 193.06 163.77 193.108H158.286V192.472H163.314L162.978 192.724C162.978 192.268 162.878 191.864 162.678 191.512C162.486 191.152 162.222 190.872 161.886 190.672C161.55 190.472 161.162 190.372 160.722 190.372C160.29 190.372 159.902 190.472 159.558 190.672C159.214 190.872 158.946 191.152 158.754 191.512C158.562 191.872 158.466 192.284 158.466 192.748V192.88C158.466 193.36 158.57 193.784 158.778 194.152C158.994 194.512 159.29 194.796 159.666 195.004C160.05 195.204 160.486 195.304 160.974 195.304C161.358 195.304 161.714 195.236 162.042 195.1C162.378 194.964 162.666 194.756 162.906 194.476L163.386 195.028C163.106 195.364 162.754 195.62 162.33 195.796C161.914 195.972 161.454 196.06 160.95 196.06ZM168.132 196.06C167.508 196.06 166.948 195.924 166.452 195.652C165.964 195.372 165.58 194.992 165.3 194.512C165.02 194.024 164.88 193.468 164.88 192.844C164.88 192.212 165.02 191.656 165.3 191.176C165.58 190.696 165.964 190.32 166.452 190.048C166.948 189.776 167.508 189.64 168.132 189.64C168.668 189.64 169.152 189.744 169.584 189.952C170.016 190.16 170.356 190.472 170.604 190.888L169.968 191.32C169.752 191 169.484 190.764 169.164 190.612C168.844 190.46 168.496 190.384 168.12 190.384C167.672 190.384 167.268 190.488 166.908 190.696C166.548 190.896 166.264 191.18 166.056 191.548C165.848 191.916 165.744 192.348 165.744 192.844C165.744 193.34 165.848 193.772 166.056 194.14C166.264 194.508 166.548 194.796 166.908 195.004C167.268 195.204 167.672 195.304 168.12 195.304C168.496 195.304 168.844 195.228 169.164 195.076C169.484 194.924 169.752 194.692 169.968 194.38L170.604 194.812C170.356 195.22 170.016 195.532 169.584 195.748C169.152 195.956 168.668 196.06 168.132 196.06ZM174.34 196.06C173.748 196.06 173.292 195.9 172.972 195.58C172.652 195.26 172.492 194.808 172.492 194.224V188.308H173.344V194.176C173.344 194.544 173.436 194.828 173.62 195.028C173.812 195.228 174.084 195.328 174.436 195.328C174.812 195.328 175.124 195.22 175.372 195.004L175.672 195.616C175.504 195.768 175.3 195.88 175.06 195.952C174.828 196.024 174.588 196.06 174.34 196.06ZM171.364 190.408V189.7H175.264V190.408H171.364ZM179.677 196.06C179.021 196.06 178.445 195.924 177.949 195.652C177.453 195.372 177.065 194.992 176.785 194.512C176.505 194.024 176.365 193.468 176.365 192.844C176.365 192.22 176.497 191.668 176.761 191.188C177.033 190.708 177.401 190.332 177.865 190.06C178.337 189.78 178.865 189.64 179.449 189.64C180.041 189.64 180.565 189.776 181.021 190.048C181.485 190.312 181.849 190.688 182.113 191.176C182.377 191.656 182.509 192.212 182.509 192.844C182.509 192.884 182.505 192.928 182.497 192.976C182.497 193.016 182.497 193.06 182.497 193.108H177.013V192.472H182.041L181.705 192.724C181.705 192.268 181.605 191.864 181.405 191.512C181.213 191.152 180.949 190.872 180.613 190.672C180.277 190.472 179.889 190.372 179.449 190.372C179.017 190.372 178.629 190.472 178.285 190.672C177.941 190.872 177.673 191.152 177.481 191.512C177.289 191.872 177.193 192.284 177.193 192.748V192.88C177.193 193.36 177.297 193.784 177.505 194.152C177.721 194.512 178.017 194.796 178.393 195.004C178.777 195.204 179.213 195.304 179.701 195.304C180.085 195.304 180.441 195.236 180.769 195.1C181.105 194.964 181.393 194.756 181.633 194.476L182.113 195.028C181.833 195.364 181.481 195.62 181.057 195.796C180.641 195.972 180.181 196.06 179.677 196.06ZM186.751 196.06C186.151 196.06 185.611 195.924 185.131 195.652C184.659 195.38 184.287 195.004 184.015 194.524C183.743 194.036 183.607 193.476 183.607 192.844C183.607 192.204 183.743 191.644 184.015 191.164C184.287 190.684 184.659 190.312 185.131 190.048C185.611 189.776 186.151 189.64 186.751 189.64C187.303 189.64 187.795 189.764 188.227 190.012C188.667 190.26 189.015 190.624 189.271 191.104C189.535 191.576 189.667 192.156 189.667 192.844C189.667 193.524 189.539 194.104 189.283 194.584C189.027 195.064 188.679 195.432 188.239 195.688C187.807 195.936 187.311 196.06 186.751 196.06ZM186.811 195.304C187.259 195.304 187.659 195.204 188.011 195.004C188.371 194.796 188.651 194.508 188.851 194.14C189.059 193.764 189.163 193.332 189.163 192.844C189.163 192.348 189.059 191.916 188.851 191.548C188.651 191.18 188.371 190.896 188.011 190.696C187.659 190.488 187.259 190.384 186.811 190.384C186.371 190.384 185.975 190.488 185.623 190.696C185.271 190.896 184.991 191.18 184.783 191.548C184.575 191.916 184.471 192.348 184.471 192.844C184.471 193.332 184.575 193.764 184.783 194.14C184.991 194.508 185.271 194.796 185.623 195.004C185.975 195.204 186.371 195.304 186.811 195.304ZM189.187 196V194.104L189.271 192.832L189.151 191.56V187.096H190.003V196H189.187Z" fill="black"/>
<path fill-rule="evenodd" clip-rule="evenodd" d="M47.916 184.626C48.2607 184.856 48.3538 185.321 48.124 185.666L39.124 199.166C38.9994 199.353 38.7975 199.474 38.5739 199.496C38.3503 199.519 38.1286 199.439 37.9697 199.28L31.9697 193.28C31.6768 192.987 31.6768 192.513 31.9697 192.22C32.2626 191.927 32.7374 191.927 33.0303 192.22L38.3834 197.573L46.876 184.834C47.1057 184.489 47.5714 184.396 47.916 184.626Z" fill="#64CDBF"/>
<rect x="20" y="384" width="40" height="40" rx="5" fill="#334155"/>
<path fill-rule="evenodd" clip-rule="evenodd" d="M47.916 396.626C48.2607 396.856 48.3538 397.321 48.124 397.666L39.124 411.166C38.9994 411.353 38.7975 411.474 38.5739 411.496C38.3503 411.519 38.1286 411.439 37.9697 411.28L31.9697 405.28C31.6768 404.987 31.6768 404.513 31.9697 404.22C32.2626 403.927 32.7374 403.927 33.0303 404.22L38.3834 409.573L46.876 396.834C47.1057 396.489 47.5714 396.396 47.916 396.626Z" fill="#64CDBF"/>
</svg>
