<svg width="215" height="144" viewBox="0 0 215 144" fill="none" xmlns="http://www.w3.org/2000/svg">
<rect x="0.5" y="0.5" width="214" height="143" rx="4.5" stroke="#9747FF" stroke-dasharray="10 5"/>
<rect x="20" y="20" width="175" height="28" rx="5" fill="white"/>
<path d="M30.4279 38L26.7079 29.6H27.6679L31.1479 37.508H30.6199L34.1239 29.6H35.0239L31.3039 38H30.4279ZM39.5305 38V36.608L39.4945 36.38V34.052C39.4945 33.516 39.3425 33.104 39.0385 32.816C38.7425 32.528 38.2985 32.384 37.7065 32.384C37.2985 32.384 36.9105 32.452 36.5425 32.588C36.1745 32.724 35.8625 32.904 35.6065 33.128L35.2225 32.492C35.5425 32.22 35.9265 32.012 36.3745 31.868C36.8225 31.716 37.2945 31.64 37.7905 31.64C38.6065 31.64 39.2345 31.844 39.6745 32.252C40.1225 32.652 40.3465 33.264 40.3465 34.088V38H39.5305ZM37.3585 38.06C36.8865 38.06 36.4745 37.984 36.1225 37.832C35.7785 37.672 35.5145 37.456 35.3305 37.184C35.1465 36.904 35.0545 36.584 35.0545 36.224C35.0545 35.896 35.1305 35.6 35.2825 35.336C35.4425 35.064 35.6985 34.848 36.0505 34.688C36.4105 34.52 36.8905 34.436 37.4905 34.436H39.6625V35.072H37.5145C36.9065 35.072 36.4825 35.18 36.2425 35.396C36.0105 35.612 35.8945 35.88 35.8945 36.2C35.8945 36.56 36.0345 36.848 36.3145 37.064C36.5945 37.28 36.9865 37.388 37.4905 37.388C37.9705 37.388 38.3825 37.28 38.7265 37.064C39.0785 36.84 39.3345 36.52 39.4945 36.104L39.6865 36.692C39.5265 37.108 39.2465 37.44 38.8465 37.688C38.4545 37.936 37.9585 38.06 37.3585 38.06ZM42.6607 38V29.096H43.5127V38H42.6607ZM48.4873 38.06C47.9513 38.06 47.4833 37.96 47.0833 37.76C46.6833 37.56 46.3713 37.26 46.1473 36.86C45.9313 36.46 45.8233 35.96 45.8233 35.36V31.7H46.6753V35.264C46.6753 35.936 46.8393 36.444 47.1673 36.788C47.5033 37.124 47.9713 37.292 48.5713 37.292C49.0113 37.292 49.3913 37.204 49.7113 37.028C50.0393 36.844 50.2873 36.58 50.4553 36.236C50.6313 35.892 50.7193 35.48 50.7193 35V31.7H51.5713V38H50.7553V36.272L50.8873 36.584C50.6873 37.048 50.3753 37.412 49.9513 37.676C49.5353 37.932 49.0473 38.06 48.4873 38.06ZM56.6218 38.06C55.9658 38.06 55.3898 37.924 54.8938 37.652C54.3978 37.372 54.0098 36.992 53.7298 36.512C53.4498 36.024 53.3098 35.468 53.3098 34.844C53.3098 34.22 53.4418 33.668 53.7058 33.188C53.9778 32.708 54.3458 32.332 54.8098 32.06C55.2818 31.78 55.8098 31.64 56.3938 31.64C56.9858 31.64 57.5098 31.776 57.9658 32.048C58.4298 32.312 58.7938 32.688 59.0578 33.176C59.3218 33.656 59.4538 34.212 59.4538 34.844C59.4538 34.884 59.4498 34.928 59.4418 34.976C59.4418 35.016 59.4418 35.06 59.4418 35.108H53.9578V34.472H58.9858L58.6498 34.724C58.6498 34.268 58.5498 33.864 58.3498 33.512C58.1578 33.152 57.8938 32.872 57.5578 32.672C57.2218 32.472 56.8338 32.372 56.3938 32.372C55.9618 32.372 55.5738 32.472 55.2298 32.672C54.8858 32.872 54.6178 33.152 54.4258 33.512C54.2338 33.872 54.1378 34.284 54.1378 34.748V34.88C54.1378 35.36 54.2418 35.784 54.4498 36.152C54.6658 36.512 54.9618 36.796 55.3378 37.004C55.7218 37.204 56.1578 37.304 56.6458 37.304C57.0298 37.304 57.3858 37.236 57.7138 37.1C58.0498 36.964 58.3378 36.756 58.5778 36.476L59.0578 37.028C58.7778 37.364 58.4258 37.62 58.0018 37.796C57.5858 37.972 57.1258 38.06 56.6218 38.06Z" fill="black"/>
<g clip-path="url(#clip0_760_725)">
<path fill-rule="evenodd" clip-rule="evenodd" d="M179 28.375C179.345 28.375 179.625 28.6548 179.625 29V33.375H184C184.345 33.375 184.625 33.6548 184.625 34C184.625 34.3452 184.345 34.625 184 34.625H179.625V39C179.625 39.3452 179.345 39.625 179 39.625C178.655 39.625 178.375 39.3452 178.375 39V34.625H174C173.655 34.625 173.375 34.3452 173.375 34C173.375 33.6548 173.655 33.375 174 33.375L178.375 33.375V29C178.375 28.6548 178.655 28.375 179 28.375Z" fill="#0F172A"/>
</g>
<rect x="20" y="58" width="175" height="28" rx="5" fill="#334155"/>
<path d="M30.4279 76L26.7079 67.6H27.6679L31.1479 75.508H30.6199L34.1239 67.6H35.0239L31.3039 76H30.4279ZM39.5305 76V74.608L39.4945 74.38V72.052C39.4945 71.516 39.3425 71.104 39.0385 70.816C38.7425 70.528 38.2985 70.384 37.7065 70.384C37.2985 70.384 36.9105 70.452 36.5425 70.588C36.1745 70.724 35.8625 70.904 35.6065 71.128L35.2225 70.492C35.5425 70.22 35.9265 70.012 36.3745 69.868C36.8225 69.716 37.2945 69.64 37.7905 69.64C38.6065 69.64 39.2345 69.844 39.6745 70.252C40.1225 70.652 40.3465 71.264 40.3465 72.088V76H39.5305ZM37.3585 76.06C36.8865 76.06 36.4745 75.984 36.1225 75.832C35.7785 75.672 35.5145 75.456 35.3305 75.184C35.1465 74.904 35.0545 74.584 35.0545 74.224C35.0545 73.896 35.1305 73.6 35.2825 73.336C35.4425 73.064 35.6985 72.848 36.0505 72.688C36.4105 72.52 36.8905 72.436 37.4905 72.436H39.6625V73.072H37.5145C36.9065 73.072 36.4825 73.18 36.2425 73.396C36.0105 73.612 35.8945 73.88 35.8945 74.2C35.8945 74.56 36.0345 74.848 36.3145 75.064C36.5945 75.28 36.9865 75.388 37.4905 75.388C37.9705 75.388 38.3825 75.28 38.7265 75.064C39.0785 74.84 39.3345 74.52 39.4945 74.104L39.6865 74.692C39.5265 75.108 39.2465 75.44 38.8465 75.688C38.4545 75.936 37.9585 76.06 37.3585 76.06ZM42.6607 76V67.096H43.5127V76H42.6607ZM48.4873 76.06C47.9513 76.06 47.4833 75.96 47.0833 75.76C46.6833 75.56 46.3713 75.26 46.1473 74.86C45.9313 74.46 45.8233 73.96 45.8233 73.36V69.7H46.6753V73.264C46.6753 73.936 46.8393 74.444 47.1673 74.788C47.5033 75.124 47.9713 75.292 48.5713 75.292C49.0113 75.292 49.3913 75.204 49.7113 75.028C50.0393 74.844 50.2873 74.58 50.4553 74.236C50.6313 73.892 50.7193 73.48 50.7193 73V69.7H51.5713V76H50.7553V74.272L50.8873 74.584C50.6873 75.048 50.3753 75.412 49.9513 75.676C49.5353 75.932 49.0473 76.06 48.4873 76.06ZM56.6218 76.06C55.9658 76.06 55.3898 75.924 54.8938 75.652C54.3978 75.372 54.0098 74.992 53.7298 74.512C53.4498 74.024 53.3098 73.468 53.3098 72.844C53.3098 72.22 53.4418 71.668 53.7058 71.188C53.9778 70.708 54.3458 70.332 54.8098 70.06C55.2818 69.78 55.8098 69.64 56.3938 69.64C56.9858 69.64 57.5098 69.776 57.9658 70.048C58.4298 70.312 58.7938 70.688 59.0578 71.176C59.3218 71.656 59.4538 72.212 59.4538 72.844C59.4538 72.884 59.4498 72.928 59.4418 72.976C59.4418 73.016 59.4418 73.06 59.4418 73.108H53.9578V72.472H58.9858L58.6498 72.724C58.6498 72.268 58.5498 71.864 58.3498 71.512C58.1578 71.152 57.8938 70.872 57.5578 70.672C57.2218 70.472 56.8338 70.372 56.3938 70.372C55.9618 70.372 55.5738 70.472 55.2298 70.672C54.8858 70.872 54.6178 71.152 54.4258 71.512C54.2338 71.872 54.1378 72.284 54.1378 72.748V72.88C54.1378 73.36 54.2418 73.784 54.4498 74.152C54.6658 74.512 54.9618 74.796 55.3378 75.004C55.7218 75.204 56.1578 75.304 56.6458 75.304C57.0298 75.304 57.3858 75.236 57.7138 75.1C58.0498 74.964 58.3378 74.756 58.5778 74.476L59.0578 75.028C58.7778 75.364 58.4258 75.62 58.0018 75.796C57.5858 75.972 57.1258 76.06 56.6218 76.06Z" fill="#F9FAFB"/>
<g clip-path="url(#clip1_760_725)">
<path fill-rule="evenodd" clip-rule="evenodd" d="M179 66.375C179.345 66.375 179.625 66.6548 179.625 67V71.375H184C184.345 71.375 184.625 71.6548 184.625 72C184.625 72.3452 184.345 72.625 184 72.625H179.625V77C179.625 77.3452 179.345 77.625 179 77.625C178.655 77.625 178.375 77.3452 178.375 77V72.625H174C173.655 72.625 173.375 72.3452 173.375 72C173.375 71.6548 173.655 71.375 174 71.375L178.375 71.375V67C178.375 66.6548 178.655 66.375 179 66.375Z" fill="#F9FAFB"/>
</g>
<rect x="20" y="96" width="175" height="28" rx="5" fill="#FFDF63"/>
<path d="M30.4279 114L26.7079 105.6H27.6679L31.1479 113.508H30.6199L34.1239 105.6H35.0239L31.3039 114H30.4279ZM39.5305 114V112.608L39.4945 112.38V110.052C39.4945 109.516 39.3425 109.104 39.0385 108.816C38.7425 108.528 38.2985 108.384 37.7065 108.384C37.2985 108.384 36.9105 108.452 36.5425 108.588C36.1745 108.724 35.8625 108.904 35.6065 109.128L35.2225 108.492C35.5425 108.22 35.9265 108.012 36.3745 107.868C36.8225 107.716 37.2945 107.64 37.7905 107.64C38.6065 107.64 39.2345 107.844 39.6745 108.252C40.1225 108.652 40.3465 109.264 40.3465 110.088V114H39.5305ZM37.3585 114.06C36.8865 114.06 36.4745 113.984 36.1225 113.832C35.7785 113.672 35.5145 113.456 35.3305 113.184C35.1465 112.904 35.0545 112.584 35.0545 112.224C35.0545 111.896 35.1305 111.6 35.2825 111.336C35.4425 111.064 35.6985 110.848 36.0505 110.688C36.4105 110.52 36.8905 110.436 37.4905 110.436H39.6625V111.072H37.5145C36.9065 111.072 36.4825 111.18 36.2425 111.396C36.0105 111.612 35.8945 111.88 35.8945 112.2C35.8945 112.56 36.0345 112.848 36.3145 113.064C36.5945 113.28 36.9865 113.388 37.4905 113.388C37.9705 113.388 38.3825 113.28 38.7265 113.064C39.0785 112.84 39.3345 112.52 39.4945 112.104L39.6865 112.692C39.5265 113.108 39.2465 113.44 38.8465 113.688C38.4545 113.936 37.9585 114.06 37.3585 114.06ZM42.6607 114V105.096H43.5127V114H42.6607ZM48.4873 114.06C47.9513 114.06 47.4833 113.96 47.0833 113.76C46.6833 113.56 46.3713 113.26 46.1473 112.86C45.9313 112.46 45.8233 111.96 45.8233 111.36V107.7H46.6753V111.264C46.6753 111.936 46.8393 112.444 47.1673 112.788C47.5033 113.124 47.9713 113.292 48.5713 113.292C49.0113 113.292 49.3913 113.204 49.7113 113.028C50.0393 112.844 50.2873 112.58 50.4553 112.236C50.6313 111.892 50.7193 111.48 50.7193 111V107.7H51.5713V114H50.7553V112.272L50.8873 112.584C50.6873 113.048 50.3753 113.412 49.9513 113.676C49.5353 113.932 49.0473 114.06 48.4873 114.06ZM56.6218 114.06C55.9658 114.06 55.3898 113.924 54.8938 113.652C54.3978 113.372 54.0098 112.992 53.7298 112.512C53.4498 112.024 53.3098 111.468 53.3098 110.844C53.3098 110.22 53.4418 109.668 53.7058 109.188C53.9778 108.708 54.3458 108.332 54.8098 108.06C55.2818 107.78 55.8098 107.64 56.3938 107.64C56.9858 107.64 57.5098 107.776 57.9658 108.048C58.4298 108.312 58.7938 108.688 59.0578 109.176C59.3218 109.656 59.4538 110.212 59.4538 110.844C59.4538 110.884 59.4498 110.928 59.4418 110.976C59.4418 111.016 59.4418 111.06 59.4418 111.108H53.9578V110.472H58.9858L58.6498 110.724C58.6498 110.268 58.5498 109.864 58.3498 109.512C58.1578 109.152 57.8938 108.872 57.5578 108.672C57.2218 108.472 56.8338 108.372 56.3938 108.372C55.9618 108.372 55.5738 108.472 55.2298 108.672C54.8858 108.872 54.6178 109.152 54.4258 109.512C54.2338 109.872 54.1378 110.284 54.1378 110.748V110.88C54.1378 111.36 54.2418 111.784 54.4498 112.152C54.6658 112.512 54.9618 112.796 55.3378 113.004C55.7218 113.204 56.1578 113.304 56.6458 113.304C57.0298 113.304 57.3858 113.236 57.7138 113.1C58.0498 112.964 58.3378 112.756 58.5778 112.476L59.0578 113.028C58.7778 113.364 58.4258 113.62 58.0018 113.796C57.5858 113.972 57.1258 114.06 56.6218 114.06Z" fill="black"/>
<g clip-path="url(#clip2_760_725)">
<path fill-rule="evenodd" clip-rule="evenodd" d="M179 104.375C179.345 104.375 179.625 104.655 179.625 105V109.375H184C184.345 109.375 184.625 109.655 184.625 110C184.625 110.345 184.345 110.625 184 110.625H179.625V115C179.625 115.345 179.345 115.625 179 115.625C178.655 115.625 178.375 115.345 178.375 115V110.625H174C173.655 110.625 173.375 110.345 173.375 110C173.375 109.655 173.655 109.375 174 109.375L178.375 109.375V105C178.375 104.655 178.655 104.375 179 104.375Z" fill="#0F172A"/>
</g>
<defs>
<clipPath id="clip0_760_725">
<rect width="20" height="20" fill="white" transform="translate(169 24)"/>
</clipPath>
<clipPath id="clip1_760_725">
<rect width="20" height="20" fill="white" transform="translate(169 62)"/>
</clipPath>
<clipPath id="clip2_760_725">
<rect width="20" height="20" fill="white" transform="translate(169 100)"/>
</clipPath>
</defs>
</svg>
