<svg width="258" height="494" viewBox="0 0 258 494" fill="none" xmlns="http://www.w3.org/2000/svg">
<rect x="0.5" y="0.5" width="257" height="493" rx="4.5" stroke="#9747FF" stroke-dasharray="10 5"/>
<rect x="20" y="20" width="218" height="48" rx="5" fill="white"/>
<path d="M36 33.7143C36 33.2596 36.1806 32.8236 36.5021 32.5021C36.8236 32.1806 37.2596 32 37.7143 32H58.2857C58.7404 32 59.1764 32.1806 59.4979 32.5021C59.8194 32.8236 60 33.2596 60 33.7143V37.1429C60 37.5975 59.8194 38.0335 59.4979 38.355C59.1764 38.6765 58.7404 38.8571 58.2857 38.8571H37.7143C37.2596 38.8571 36.8236 38.6765 36.5021 38.355C36.1806 38.0335 36 37.5975 36 37.1429V33.7143ZM36 44C36 43.5453 36.1806 43.1093 36.5021 42.7878C36.8236 42.4663 37.2596 42.2857 37.7143 42.2857H48C48.4547 42.2857 48.8907 42.4663 49.2122 42.7878C49.5337 43.1093 49.7143 43.5453 49.7143 44V54.2857C49.7143 54.7404 49.5337 55.1764 49.2122 55.4979C48.8907 55.8194 48.4547 56 48 56H37.7143C37.2596 56 36.8236 55.8194 36.5021 55.4979C36.1806 55.1764 36 54.7404 36 54.2857V44ZM54.8571 42.2857C54.4025 42.2857 53.9665 42.4663 53.645 42.7878C53.3235 43.1093 53.1429 43.5453 53.1429 44V54.2857C53.1429 54.7404 53.3235 55.1764 53.645 55.4979C53.9665 55.8194 54.4025 56 54.8571 56H58.2857C58.7404 56 59.1764 55.8194 59.4979 55.4979C59.8194 55.1764 60 54.7404 60 54.2857V44C60 43.5453 59.8194 43.1093 59.4979 42.7878C59.1764 42.4663 58.7404 42.2857 58.2857 42.2857H54.8571Z" fill="#0F172A"/>
<path d="M71.368 48V39.6H74.788C75.684 39.6 76.468 39.78 77.14 40.14C77.82 40.492 78.348 40.984 78.724 41.616C79.1 42.248 79.288 42.976 79.288 43.8C79.288 44.624 79.1 45.352 78.724 45.984C78.348 46.616 77.82 47.112 77.14 47.472C76.468 47.824 75.684 48 74.788 48H71.368ZM72.256 47.232H74.74C75.484 47.232 76.128 47.088 76.672 46.8C77.224 46.504 77.652 46.1 77.956 45.588C78.26 45.068 78.412 44.472 78.412 43.8C78.412 43.12 78.26 42.524 77.956 42.012C77.652 41.5 77.224 41.1 76.672 40.812C76.128 40.516 75.484 40.368 74.74 40.368H72.256V47.232ZM83.7781 48.06C83.1221 48.06 82.5461 47.924 82.0501 47.652C81.5541 47.372 81.1661 46.992 80.8861 46.512C80.6061 46.024 80.4661 45.468 80.4661 44.844C80.4661 44.22 80.5981 43.668 80.8621 43.188C81.1341 42.708 81.5021 42.332 81.9661 42.06C82.4381 41.78 82.9661 41.64 83.5501 41.64C84.1421 41.64 84.6661 41.776 85.1221 42.048C85.5861 42.312 85.9501 42.688 86.2141 43.176C86.4781 43.656 86.6101 44.212 86.6101 44.844C86.6101 44.884 86.6061 44.928 86.5981 44.976C86.5981 45.016 86.5981 45.06 86.5981 45.108H81.1141V44.472H86.1421L85.8061 44.724C85.8061 44.268 85.7061 43.864 85.5061 43.512C85.3141 43.152 85.0501 42.872 84.7141 42.672C84.3781 42.472 83.9901 42.372 83.5501 42.372C83.1181 42.372 82.7301 42.472 82.3861 42.672C82.0421 42.872 81.7741 43.152 81.5821 43.512C81.3901 43.872 81.2941 44.284 81.2941 44.748V44.88C81.2941 45.36 81.3981 45.784 81.6061 46.152C81.8221 46.512 82.1181 46.796 82.4941 47.004C82.8781 47.204 83.3141 47.304 83.8021 47.304C84.1861 47.304 84.5421 47.236 84.8701 47.1C85.2061 46.964 85.4941 46.756 85.7341 46.476L86.2141 47.028C85.9341 47.364 85.5821 47.62 85.1581 47.796C84.7421 47.972 84.2821 48.06 83.7781 48.06ZM88.4883 48V40.908C88.4883 40.348 88.6523 39.896 88.9803 39.552C89.3083 39.208 89.7803 39.036 90.3963 39.036C90.6363 39.036 90.8683 39.068 91.0923 39.132C91.3163 39.196 91.5043 39.296 91.6563 39.432L91.3683 40.068C91.2483 39.964 91.1083 39.888 90.9483 39.84C90.7883 39.784 90.6163 39.756 90.4323 39.756C90.0723 39.756 89.7963 39.856 89.6043 40.056C89.4123 40.256 89.3163 40.552 89.3163 40.944V41.904L89.3403 42.3V48H88.4883ZM87.3603 42.408V41.7H91.2603V42.408H87.3603ZM96.2415 48V46.608L96.2055 46.38V44.052C96.2055 43.516 96.0535 43.104 95.7495 42.816C95.4535 42.528 95.0095 42.384 94.4175 42.384C94.0095 42.384 93.6215 42.452 93.2535 42.588C92.8855 42.724 92.5735 42.904 92.3175 43.128L91.9335 42.492C92.2535 42.22 92.6375 42.012 93.0855 41.868C93.5335 41.716 94.0055 41.64 94.5015 41.64C95.3175 41.64 95.9455 41.844 96.3855 42.252C96.8335 42.652 97.0575 43.264 97.0575 44.088V48H96.2415ZM94.0695 48.06C93.5975 48.06 93.1855 47.984 92.8335 47.832C92.4895 47.672 92.2255 47.456 92.0415 47.184C91.8575 46.904 91.7655 46.584 91.7655 46.224C91.7655 45.896 91.8415 45.6 91.9935 45.336C92.1535 45.064 92.4095 44.848 92.7615 44.688C93.1215 44.52 93.6015 44.436 94.2015 44.436H96.3735V45.072H94.2255C93.6175 45.072 93.1935 45.18 92.9535 45.396C92.7215 45.612 92.6055 45.88 92.6055 46.2C92.6055 46.56 92.7455 46.848 93.0255 47.064C93.3055 47.28 93.6975 47.388 94.2015 47.388C94.6815 47.388 95.0935 47.28 95.4375 47.064C95.7895 46.84 96.0455 46.52 96.2055 46.104L96.3975 46.692C96.2375 47.108 95.9575 47.44 95.5575 47.688C95.1655 47.936 94.6695 48.06 94.0695 48.06ZM101.976 48.06C101.44 48.06 100.972 47.96 100.572 47.76C100.172 47.56 99.8596 47.26 99.6356 46.86C99.4196 46.46 99.3116 45.96 99.3116 45.36V41.7H100.164V45.264C100.164 45.936 100.328 46.444 100.656 46.788C100.992 47.124 101.46 47.292 102.06 47.292C102.5 47.292 102.88 47.204 103.2 47.028C103.528 46.844 103.776 46.58 103.944 46.236C104.12 45.892 104.208 45.48 104.208 45V41.7H105.06V48H104.244V46.272L104.376 46.584C104.176 47.048 103.864 47.412 103.44 47.676C103.024 47.932 102.536 48.06 101.976 48.06ZM107.434 48V39.096H108.286V48H107.434ZM112.684 48.06C112.092 48.06 111.636 47.9 111.316 47.58C110.996 47.26 110.836 46.808 110.836 46.224V40.308H111.688V46.176C111.688 46.544 111.78 46.828 111.964 47.028C112.156 47.228 112.428 47.328 112.78 47.328C113.156 47.328 113.468 47.22 113.716 47.004L114.016 47.616C113.848 47.768 113.644 47.88 113.404 47.952C113.172 48.024 112.932 48.06 112.684 48.06ZM109.708 42.408V41.7H113.608V42.408H109.708Z" fill="#0F172A"/>
<rect x="20" y="78" width="218" height="48" rx="5" fill="#334155"/>
<path d="M36 91.7143C36 91.2596 36.1806 90.8236 36.5021 90.5021C36.8236 90.1806 37.2596 90 37.7143 90H58.2857C58.7404 90 59.1764 90.1806 59.4979 90.5021C59.8194 90.8236 60 91.2596 60 91.7143V95.1429C60 95.5975 59.8194 96.0335 59.4979 96.355C59.1764 96.6765 58.7404 96.8571 58.2857 96.8571H37.7143C37.2596 96.8571 36.8236 96.6765 36.5021 96.355C36.1806 96.0335 36 95.5975 36 95.1429V91.7143ZM36 102C36 101.545 36.1806 101.109 36.5021 100.788C36.8236 100.466 37.2596 100.286 37.7143 100.286H48C48.4547 100.286 48.8907 100.466 49.2122 100.788C49.5337 101.109 49.7143 101.545 49.7143 102V112.286C49.7143 112.74 49.5337 113.176 49.2122 113.498C48.8907 113.819 48.4547 114 48 114H37.7143C37.2596 114 36.8236 113.819 36.5021 113.498C36.1806 113.176 36 112.74 36 112.286V102ZM54.8571 100.286C54.4025 100.286 53.9665 100.466 53.645 100.788C53.3235 101.109 53.1429 101.545 53.1429 102V112.286C53.1429 112.74 53.3235 113.176 53.645 113.498C53.9665 113.819 54.4025 114 54.8571 114H58.2857C58.7404 114 59.1764 113.819 59.4979 113.498C59.8194 113.176 60 112.74 60 112.286V102C60 101.545 59.8194 101.109 59.4979 100.788C59.1764 100.466 58.7404 100.286 58.2857 100.286H54.8571Z" fill="#FFDF63"/>
<path d="M71.368 106V97.6H74.788C75.684 97.6 76.468 97.78 77.14 98.14C77.82 98.492 78.348 98.984 78.724 99.616C79.1 100.248 79.288 100.976 79.288 101.8C79.288 102.624 79.1 103.352 78.724 103.984C78.348 104.616 77.82 105.112 77.14 105.472C76.468 105.824 75.684 106 74.788 106H71.368ZM72.256 105.232H74.74C75.484 105.232 76.128 105.088 76.672 104.8C77.224 104.504 77.652 104.1 77.956 103.588C78.26 103.068 78.412 102.472 78.412 101.8C78.412 101.12 78.26 100.524 77.956 100.012C77.652 99.5 77.224 99.1 76.672 98.812C76.128 98.516 75.484 98.368 74.74 98.368H72.256V105.232ZM83.7781 106.06C83.1221 106.06 82.5461 105.924 82.0501 105.652C81.5541 105.372 81.1661 104.992 80.8861 104.512C80.6061 104.024 80.4661 103.468 80.4661 102.844C80.4661 102.22 80.5981 101.668 80.8621 101.188C81.1341 100.708 81.5021 100.332 81.9661 100.06C82.4381 99.78 82.9661 99.64 83.5501 99.64C84.1421 99.64 84.6661 99.776 85.1221 100.048C85.5861 100.312 85.9501 100.688 86.2141 101.176C86.4781 101.656 86.6101 102.212 86.6101 102.844C86.6101 102.884 86.6061 102.928 86.5981 102.976C86.5981 103.016 86.5981 103.06 86.5981 103.108H81.1141V102.472H86.1421L85.8061 102.724C85.8061 102.268 85.7061 101.864 85.5061 101.512C85.3141 101.152 85.0501 100.872 84.7141 100.672C84.3781 100.472 83.9901 100.372 83.5501 100.372C83.1181 100.372 82.7301 100.472 82.3861 100.672C82.0421 100.872 81.7741 101.152 81.5821 101.512C81.3901 101.872 81.2941 102.284 81.2941 102.748V102.88C81.2941 103.36 81.3981 103.784 81.6061 104.152C81.8221 104.512 82.1181 104.796 82.4941 105.004C82.8781 105.204 83.3141 105.304 83.8021 105.304C84.1861 105.304 84.5421 105.236 84.8701 105.1C85.2061 104.964 85.4941 104.756 85.7341 104.476L86.2141 105.028C85.9341 105.364 85.5821 105.62 85.1581 105.796C84.7421 105.972 84.2821 106.06 83.7781 106.06ZM88.4883 106V98.908C88.4883 98.348 88.6523 97.896 88.9803 97.552C89.3083 97.208 89.7803 97.036 90.3963 97.036C90.6363 97.036 90.8683 97.068 91.0923 97.132C91.3163 97.196 91.5043 97.296 91.6563 97.432L91.3683 98.068C91.2483 97.964 91.1083 97.888 90.9483 97.84C90.7883 97.784 90.6163 97.756 90.4323 97.756C90.0723 97.756 89.7963 97.856 89.6043 98.056C89.4123 98.256 89.3163 98.552 89.3163 98.944V99.904L89.3403 100.3V106H88.4883ZM87.3603 100.408V99.7H91.2603V100.408H87.3603ZM96.2415 106V104.608L96.2055 104.38V102.052C96.2055 101.516 96.0535 101.104 95.7495 100.816C95.4535 100.528 95.0095 100.384 94.4175 100.384C94.0095 100.384 93.6215 100.452 93.2535 100.588C92.8855 100.724 92.5735 100.904 92.3175 101.128L91.9335 100.492C92.2535 100.22 92.6375 100.012 93.0855 99.868C93.5335 99.716 94.0055 99.64 94.5015 99.64C95.3175 99.64 95.9455 99.844 96.3855 100.252C96.8335 100.652 97.0575 101.264 97.0575 102.088V106H96.2415ZM94.0695 106.06C93.5975 106.06 93.1855 105.984 92.8335 105.832C92.4895 105.672 92.2255 105.456 92.0415 105.184C91.8575 104.904 91.7655 104.584 91.7655 104.224C91.7655 103.896 91.8415 103.6 91.9935 103.336C92.1535 103.064 92.4095 102.848 92.7615 102.688C93.1215 102.52 93.6015 102.436 94.2015 102.436H96.3735V103.072H94.2255C93.6175 103.072 93.1935 103.18 92.9535 103.396C92.7215 103.612 92.6055 103.88 92.6055 104.2C92.6055 104.56 92.7455 104.848 93.0255 105.064C93.3055 105.28 93.6975 105.388 94.2015 105.388C94.6815 105.388 95.0935 105.28 95.4375 105.064C95.7895 104.84 96.0455 104.52 96.2055 104.104L96.3975 104.692C96.2375 105.108 95.9575 105.44 95.5575 105.688C95.1655 105.936 94.6695 106.06 94.0695 106.06ZM101.976 106.06C101.44 106.06 100.972 105.96 100.572 105.76C100.172 105.56 99.8596 105.26 99.6356 104.86C99.4196 104.46 99.3116 103.96 99.3116 103.36V99.7H100.164V103.264C100.164 103.936 100.328 104.444 100.656 104.788C100.992 105.124 101.46 105.292 102.06 105.292C102.5 105.292 102.88 105.204 103.2 105.028C103.528 104.844 103.776 104.58 103.944 104.236C104.12 103.892 104.208 103.48 104.208 103V99.7H105.06V106H104.244V104.272L104.376 104.584C104.176 105.048 103.864 105.412 103.44 105.676C103.024 105.932 102.536 106.06 101.976 106.06ZM107.434 106V97.096H108.286V106H107.434ZM112.684 106.06C112.092 106.06 111.636 105.9 111.316 105.58C110.996 105.26 110.836 104.808 110.836 104.224V98.308H111.688V104.176C111.688 104.544 111.78 104.828 111.964 105.028C112.156 105.228 112.428 105.328 112.78 105.328C113.156 105.328 113.468 105.22 113.716 105.004L114.016 105.616C113.848 105.768 113.644 105.88 113.404 105.952C113.172 106.024 112.932 106.06 112.684 106.06ZM109.708 100.408V99.7H113.608V100.408H109.708Z" fill="#FFDF63"/>
<rect x="20" y="136" width="218" height="48" rx="5" fill="#334155"/>
<path d="M36 149.714C36 149.26 36.1806 148.824 36.5021 148.502C36.8236 148.181 37.2596 148 37.7143 148H58.2857C58.7404 148 59.1764 148.181 59.4979 148.502C59.8194 148.824 60 149.26 60 149.714V153.143C60 153.598 59.8194 154.034 59.4979 154.355C59.1764 154.677 58.7404 154.857 58.2857 154.857H37.7143C37.2596 154.857 36.8236 154.677 36.5021 154.355C36.1806 154.034 36 153.598 36 153.143V149.714ZM36 160C36 159.545 36.1806 159.109 36.5021 158.788C36.8236 158.466 37.2596 158.286 37.7143 158.286H48C48.4547 158.286 48.8907 158.466 49.2122 158.788C49.5337 159.109 49.7143 159.545 49.7143 160V170.286C49.7143 170.74 49.5337 171.176 49.2122 171.498C48.8907 171.819 48.4547 172 48 172H37.7143C37.2596 172 36.8236 171.819 36.5021 171.498C36.1806 171.176 36 170.74 36 170.286V160ZM54.8571 158.286C54.4025 158.286 53.9665 158.466 53.645 158.788C53.3235 159.109 53.1429 159.545 53.1429 160V170.286C53.1429 170.74 53.3235 171.176 53.645 171.498C53.9665 171.819 54.4025 172 54.8571 172H58.2857C58.7404 172 59.1764 171.819 59.4979 171.498C59.8194 171.176 60 170.74 60 170.286V160C60 159.545 59.8194 159.109 59.4979 158.788C59.1764 158.466 58.7404 158.286 58.2857 158.286H54.8571Z" fill="#FFDF63"/>
<path d="M71.368 164V155.6H74.788C75.684 155.6 76.468 155.78 77.14 156.14C77.82 156.492 78.348 156.984 78.724 157.616C79.1 158.248 79.288 158.976 79.288 159.8C79.288 160.624 79.1 161.352 78.724 161.984C78.348 162.616 77.82 163.112 77.14 163.472C76.468 163.824 75.684 164 74.788 164H71.368ZM72.256 163.232H74.74C75.484 163.232 76.128 163.088 76.672 162.8C77.224 162.504 77.652 162.1 77.956 161.588C78.26 161.068 78.412 160.472 78.412 159.8C78.412 159.12 78.26 158.524 77.956 158.012C77.652 157.5 77.224 157.1 76.672 156.812C76.128 156.516 75.484 156.368 74.74 156.368H72.256V163.232ZM83.7781 164.06C83.1221 164.06 82.5461 163.924 82.0501 163.652C81.5541 163.372 81.1661 162.992 80.8861 162.512C80.6061 162.024 80.4661 161.468 80.4661 160.844C80.4661 160.22 80.5981 159.668 80.8621 159.188C81.1341 158.708 81.5021 158.332 81.9661 158.06C82.4381 157.78 82.9661 157.64 83.5501 157.64C84.1421 157.64 84.6661 157.776 85.1221 158.048C85.5861 158.312 85.9501 158.688 86.2141 159.176C86.4781 159.656 86.6101 160.212 86.6101 160.844C86.6101 160.884 86.6061 160.928 86.5981 160.976C86.5981 161.016 86.5981 161.06 86.5981 161.108H81.1141V160.472H86.1421L85.8061 160.724C85.8061 160.268 85.7061 159.864 85.5061 159.512C85.3141 159.152 85.0501 158.872 84.7141 158.672C84.3781 158.472 83.9901 158.372 83.5501 158.372C83.1181 158.372 82.7301 158.472 82.3861 158.672C82.0421 158.872 81.7741 159.152 81.5821 159.512C81.3901 159.872 81.2941 160.284 81.2941 160.748V160.88C81.2941 161.36 81.3981 161.784 81.6061 162.152C81.8221 162.512 82.1181 162.796 82.4941 163.004C82.8781 163.204 83.3141 163.304 83.8021 163.304C84.1861 163.304 84.5421 163.236 84.8701 163.1C85.2061 162.964 85.4941 162.756 85.7341 162.476L86.2141 163.028C85.9341 163.364 85.5821 163.62 85.1581 163.796C84.7421 163.972 84.2821 164.06 83.7781 164.06ZM88.4883 164V156.908C88.4883 156.348 88.6523 155.896 88.9803 155.552C89.3083 155.208 89.7803 155.036 90.3963 155.036C90.6363 155.036 90.8683 155.068 91.0923 155.132C91.3163 155.196 91.5043 155.296 91.6563 155.432L91.3683 156.068C91.2483 155.964 91.1083 155.888 90.9483 155.84C90.7883 155.784 90.6163 155.756 90.4323 155.756C90.0723 155.756 89.7963 155.856 89.6043 156.056C89.4123 156.256 89.3163 156.552 89.3163 156.944V157.904L89.3403 158.3V164H88.4883ZM87.3603 158.408V157.7H91.2603V158.408H87.3603ZM96.2415 164V162.608L96.2055 162.38V160.052C96.2055 159.516 96.0535 159.104 95.7495 158.816C95.4535 158.528 95.0095 158.384 94.4175 158.384C94.0095 158.384 93.6215 158.452 93.2535 158.588C92.8855 158.724 92.5735 158.904 92.3175 159.128L91.9335 158.492C92.2535 158.22 92.6375 158.012 93.0855 157.868C93.5335 157.716 94.0055 157.64 94.5015 157.64C95.3175 157.64 95.9455 157.844 96.3855 158.252C96.8335 158.652 97.0575 159.264 97.0575 160.088V164H96.2415ZM94.0695 164.06C93.5975 164.06 93.1855 163.984 92.8335 163.832C92.4895 163.672 92.2255 163.456 92.0415 163.184C91.8575 162.904 91.7655 162.584 91.7655 162.224C91.7655 161.896 91.8415 161.6 91.9935 161.336C92.1535 161.064 92.4095 160.848 92.7615 160.688C93.1215 160.52 93.6015 160.436 94.2015 160.436H96.3735V161.072H94.2255C93.6175 161.072 93.1935 161.18 92.9535 161.396C92.7215 161.612 92.6055 161.88 92.6055 162.2C92.6055 162.56 92.7455 162.848 93.0255 163.064C93.3055 163.28 93.6975 163.388 94.2015 163.388C94.6815 163.388 95.0935 163.28 95.4375 163.064C95.7895 162.84 96.0455 162.52 96.2055 162.104L96.3975 162.692C96.2375 163.108 95.9575 163.44 95.5575 163.688C95.1655 163.936 94.6695 164.06 94.0695 164.06ZM101.976 164.06C101.44 164.06 100.972 163.96 100.572 163.76C100.172 163.56 99.8596 163.26 99.6356 162.86C99.4196 162.46 99.3116 161.96 99.3116 161.36V157.7H100.164V161.264C100.164 161.936 100.328 162.444 100.656 162.788C100.992 163.124 101.46 163.292 102.06 163.292C102.5 163.292 102.88 163.204 103.2 163.028C103.528 162.844 103.776 162.58 103.944 162.236C104.12 161.892 104.208 161.48 104.208 161V157.7H105.06V164H104.244V162.272L104.376 162.584C104.176 163.048 103.864 163.412 103.44 163.676C103.024 163.932 102.536 164.06 101.976 164.06ZM107.434 164V155.096H108.286V164H107.434ZM112.684 164.06C112.092 164.06 111.636 163.9 111.316 163.58C110.996 163.26 110.836 162.808 110.836 162.224V156.308H111.688V162.176C111.688 162.544 111.78 162.828 111.964 163.028C112.156 163.228 112.428 163.328 112.78 163.328C113.156 163.328 113.468 163.22 113.716 163.004L114.016 163.616C113.848 163.768 113.644 163.88 113.404 163.952C113.172 164.024 112.932 164.06 112.684 164.06ZM109.708 158.408V157.7H113.608V158.408H109.708Z" fill="#FFDF63"/>
<rect x="20" y="194" width="218" height="48" rx="5" fill="#FFDF63"/>
<path d="M36 207.714C36 207.26 36.1806 206.824 36.5021 206.502C36.8236 206.181 37.2596 206 37.7143 206H58.2857C58.7404 206 59.1764 206.181 59.4979 206.502C59.8194 206.824 60 207.26 60 207.714V211.143C60 211.598 59.8194 212.034 59.4979 212.355C59.1764 212.677 58.7404 212.857 58.2857 212.857H37.7143C37.2596 212.857 36.8236 212.677 36.5021 212.355C36.1806 212.034 36 211.598 36 211.143V207.714ZM36 218C36 217.545 36.1806 217.109 36.5021 216.788C36.8236 216.466 37.2596 216.286 37.7143 216.286H48C48.4547 216.286 48.8907 216.466 49.2122 216.788C49.5337 217.109 49.7143 217.545 49.7143 218V228.286C49.7143 228.74 49.5337 229.176 49.2122 229.498C48.8907 229.819 48.4547 230 48 230H37.7143C37.2596 230 36.8236 229.819 36.5021 229.498C36.1806 229.176 36 228.74 36 228.286V218ZM54.8571 216.286C54.4025 216.286 53.9665 216.466 53.645 216.788C53.3235 217.109 53.1429 217.545 53.1429 218V228.286C53.1429 228.74 53.3235 229.176 53.645 229.498C53.9665 229.819 54.4025 230 54.8571 230H58.2857C58.7404 230 59.1764 229.819 59.4979 229.498C59.8194 229.176 60 228.74 60 228.286V218C60 217.545 59.8194 217.109 59.4979 216.788C59.1764 216.466 58.7404 216.286 58.2857 216.286H54.8571Z" fill="#0F172A"/>
<path d="M71.368 222V213.6H74.788C75.684 213.6 76.468 213.78 77.14 214.14C77.82 214.492 78.348 214.984 78.724 215.616C79.1 216.248 79.288 216.976 79.288 217.8C79.288 218.624 79.1 219.352 78.724 219.984C78.348 220.616 77.82 221.112 77.14 221.472C76.468 221.824 75.684 222 74.788 222H71.368ZM72.256 221.232H74.74C75.484 221.232 76.128 221.088 76.672 220.8C77.224 220.504 77.652 220.1 77.956 219.588C78.26 219.068 78.412 218.472 78.412 217.8C78.412 217.12 78.26 216.524 77.956 216.012C77.652 215.5 77.224 215.1 76.672 214.812C76.128 214.516 75.484 214.368 74.74 214.368H72.256V221.232ZM83.7781 222.06C83.1221 222.06 82.5461 221.924 82.0501 221.652C81.5541 221.372 81.1661 220.992 80.8861 220.512C80.6061 220.024 80.4661 219.468 80.4661 218.844C80.4661 218.22 80.5981 217.668 80.8621 217.188C81.1341 216.708 81.5021 216.332 81.9661 216.06C82.4381 215.78 82.9661 215.64 83.5501 215.64C84.1421 215.64 84.6661 215.776 85.1221 216.048C85.5861 216.312 85.9501 216.688 86.2141 217.176C86.4781 217.656 86.6101 218.212 86.6101 218.844C86.6101 218.884 86.6061 218.928 86.5981 218.976C86.5981 219.016 86.5981 219.06 86.5981 219.108H81.1141V218.472H86.1421L85.8061 218.724C85.8061 218.268 85.7061 217.864 85.5061 217.512C85.3141 217.152 85.0501 216.872 84.7141 216.672C84.3781 216.472 83.9901 216.372 83.5501 216.372C83.1181 216.372 82.7301 216.472 82.3861 216.672C82.0421 216.872 81.7741 217.152 81.5821 217.512C81.3901 217.872 81.2941 218.284 81.2941 218.748V218.88C81.2941 219.36 81.3981 219.784 81.6061 220.152C81.8221 220.512 82.1181 220.796 82.4941 221.004C82.8781 221.204 83.3141 221.304 83.8021 221.304C84.1861 221.304 84.5421 221.236 84.8701 221.1C85.2061 220.964 85.4941 220.756 85.7341 220.476L86.2141 221.028C85.9341 221.364 85.5821 221.62 85.1581 221.796C84.7421 221.972 84.2821 222.06 83.7781 222.06ZM88.4883 222V214.908C88.4883 214.348 88.6523 213.896 88.9803 213.552C89.3083 213.208 89.7803 213.036 90.3963 213.036C90.6363 213.036 90.8683 213.068 91.0923 213.132C91.3163 213.196 91.5043 213.296 91.6563 213.432L91.3683 214.068C91.2483 213.964 91.1083 213.888 90.9483 213.84C90.7883 213.784 90.6163 213.756 90.4323 213.756C90.0723 213.756 89.7963 213.856 89.6043 214.056C89.4123 214.256 89.3163 214.552 89.3163 214.944V215.904L89.3403 216.3V222H88.4883ZM87.3603 216.408V215.7H91.2603V216.408H87.3603ZM96.2415 222V220.608L96.2055 220.38V218.052C96.2055 217.516 96.0535 217.104 95.7495 216.816C95.4535 216.528 95.0095 216.384 94.4175 216.384C94.0095 216.384 93.6215 216.452 93.2535 216.588C92.8855 216.724 92.5735 216.904 92.3175 217.128L91.9335 216.492C92.2535 216.22 92.6375 216.012 93.0855 215.868C93.5335 215.716 94.0055 215.64 94.5015 215.64C95.3175 215.64 95.9455 215.844 96.3855 216.252C96.8335 216.652 97.0575 217.264 97.0575 218.088V222H96.2415ZM94.0695 222.06C93.5975 222.06 93.1855 221.984 92.8335 221.832C92.4895 221.672 92.2255 221.456 92.0415 221.184C91.8575 220.904 91.7655 220.584 91.7655 220.224C91.7655 219.896 91.8415 219.6 91.9935 219.336C92.1535 219.064 92.4095 218.848 92.7615 218.688C93.1215 218.52 93.6015 218.436 94.2015 218.436H96.3735V219.072H94.2255C93.6175 219.072 93.1935 219.18 92.9535 219.396C92.7215 219.612 92.6055 219.88 92.6055 220.2C92.6055 220.56 92.7455 220.848 93.0255 221.064C93.3055 221.28 93.6975 221.388 94.2015 221.388C94.6815 221.388 95.0935 221.28 95.4375 221.064C95.7895 220.84 96.0455 220.52 96.2055 220.104L96.3975 220.692C96.2375 221.108 95.9575 221.44 95.5575 221.688C95.1655 221.936 94.6695 222.06 94.0695 222.06ZM101.976 222.06C101.44 222.06 100.972 221.96 100.572 221.76C100.172 221.56 99.8596 221.26 99.6356 220.86C99.4196 220.46 99.3116 219.96 99.3116 219.36V215.7H100.164V219.264C100.164 219.936 100.328 220.444 100.656 220.788C100.992 221.124 101.46 221.292 102.06 221.292C102.5 221.292 102.88 221.204 103.2 221.028C103.528 220.844 103.776 220.58 103.944 220.236C104.12 219.892 104.208 219.48 104.208 219V215.7H105.06V222H104.244V220.272L104.376 220.584C104.176 221.048 103.864 221.412 103.44 221.676C103.024 221.932 102.536 222.06 101.976 222.06ZM107.434 222V213.096H108.286V222H107.434ZM112.684 222.06C112.092 222.06 111.636 221.9 111.316 221.58C110.996 221.26 110.836 220.808 110.836 220.224V214.308H111.688V220.176C111.688 220.544 111.78 220.828 111.964 221.028C112.156 221.228 112.428 221.328 112.78 221.328C113.156 221.328 113.468 221.22 113.716 221.004L114.016 221.616C113.848 221.768 113.644 221.88 113.404 221.952C113.172 222.024 112.932 222.06 112.684 222.06ZM109.708 216.408V215.7H113.608V216.408H109.708Z" fill="#0F172A"/>
<rect x="20" y="252" width="48" height="48" rx="5" fill="white"/>
<path d="M32 265.714C32 265.26 32.1806 264.824 32.5021 264.502C32.8236 264.181 33.2596 264 33.7143 264H54.2857C54.7404 264 55.1764 264.181 55.4979 264.502C55.8194 264.824 56 265.26 56 265.714V269.143C56 269.598 55.8194 270.034 55.4979 270.355C55.1764 270.677 54.7404 270.857 54.2857 270.857H33.7143C33.2596 270.857 32.8236 270.677 32.5021 270.355C32.1806 270.034 32 269.598 32 269.143V265.714ZM32 276C32 275.545 32.1806 275.109 32.5021 274.788C32.8236 274.466 33.2596 274.286 33.7143 274.286H44C44.4547 274.286 44.8907 274.466 45.2122 274.788C45.5337 275.109 45.7143 275.545 45.7143 276V286.286C45.7143 286.74 45.5337 287.176 45.2122 287.498C44.8907 287.819 44.4547 288 44 288H33.7143C33.2596 288 32.8236 287.819 32.5021 287.498C32.1806 287.176 32 286.74 32 286.286V276ZM50.8571 274.286C50.4025 274.286 49.9665 274.466 49.645 274.788C49.3235 275.109 49.1429 275.545 49.1429 276V286.286C49.1429 286.74 49.3235 287.176 49.645 287.498C49.9665 287.819 50.4025 288 50.8571 288H54.2857C54.7404 288 55.1764 287.819 55.4979 287.498C55.8194 287.176 56 286.74 56 286.286V276C56 275.545 55.8194 275.109 55.4979 274.788C55.1764 274.466 54.7404 274.286 54.2857 274.286H50.8571Z" fill="#0F172A"/>
<rect x="20" y="310" width="48" height="48" rx="5" fill="#334155"/>
<path d="M32 323.714C32 323.26 32.1806 322.824 32.5021 322.502C32.8236 322.181 33.2596 322 33.7143 322H54.2857C54.7404 322 55.1764 322.181 55.4979 322.502C55.8194 322.824 56 323.26 56 323.714V327.143C56 327.598 55.8194 328.034 55.4979 328.355C55.1764 328.677 54.7404 328.857 54.2857 328.857H33.7143C33.2596 328.857 32.8236 328.677 32.5021 328.355C32.1806 328.034 32 327.598 32 327.143V323.714ZM32 334C32 333.545 32.1806 333.109 32.5021 332.788C32.8236 332.466 33.2596 332.286 33.7143 332.286H44C44.4547 332.286 44.8907 332.466 45.2122 332.788C45.5337 333.109 45.7143 333.545 45.7143 334V344.286C45.7143 344.74 45.5337 345.176 45.2122 345.498C44.8907 345.819 44.4547 346 44 346H33.7143C33.2596 346 32.8236 345.819 32.5021 345.498C32.1806 345.176 32 344.74 32 344.286V334ZM50.8571 332.286C50.4025 332.286 49.9665 332.466 49.645 332.788C49.3235 333.109 49.1429 333.545 49.1429 334V344.286C49.1429 344.74 49.3235 345.176 49.645 345.498C49.9665 345.819 50.4025 346 50.8571 346H54.2857C54.7404 346 55.1764 345.819 55.4979 345.498C55.8194 345.176 56 344.74 56 344.286V334C56 333.545 55.8194 333.109 55.4979 332.788C55.1764 332.466 54.7404 332.286 54.2857 332.286H50.8571Z" fill="#FFDF63"/>
<rect x="20" y="368" width="48" height="48" rx="5" fill="#334155"/>
<path d="M32 381.714C32 381.26 32.1806 380.824 32.5021 380.502C32.8236 380.181 33.2596 380 33.7143 380H54.2857C54.7404 380 55.1764 380.181 55.4979 380.502C55.8194 380.824 56 381.26 56 381.714V385.143C56 385.598 55.8194 386.034 55.4979 386.355C55.1764 386.677 54.7404 386.857 54.2857 386.857H33.7143C33.2596 386.857 32.8236 386.677 32.5021 386.355C32.1806 386.034 32 385.598 32 385.143V381.714ZM32 392C32 391.545 32.1806 391.109 32.5021 390.788C32.8236 390.466 33.2596 390.286 33.7143 390.286H44C44.4547 390.286 44.8907 390.466 45.2122 390.788C45.5337 391.109 45.7143 391.545 45.7143 392V402.286C45.7143 402.74 45.5337 403.176 45.2122 403.498C44.8907 403.819 44.4547 404 44 404H33.7143C33.2596 404 32.8236 403.819 32.5021 403.498C32.1806 403.176 32 402.74 32 402.286V392ZM50.8571 390.286C50.4025 390.286 49.9665 390.466 49.645 390.788C49.3235 391.109 49.1429 391.545 49.1429 392V402.286C49.1429 402.74 49.3235 403.176 49.645 403.498C49.9665 403.819 50.4025 404 50.8571 404H54.2857C54.7404 404 55.1764 403.819 55.4979 403.498C55.8194 403.176 56 402.74 56 402.286V392C56 391.545 55.8194 391.109 55.4979 390.788C55.1764 390.466 54.7404 390.286 54.2857 390.286H50.8571Z" fill="#FFDF63"/>
<rect x="20" y="426" width="48" height="48" rx="5" fill="#FFDF63"/>
<path d="M32 439.714C32 439.26 32.1806 438.824 32.5021 438.502C32.8236 438.181 33.2596 438 33.7143 438H54.2857C54.7404 438 55.1764 438.181 55.4979 438.502C55.8194 438.824 56 439.26 56 439.714V443.143C56 443.598 55.8194 444.034 55.4979 444.355C55.1764 444.677 54.7404 444.857 54.2857 444.857H33.7143C33.2596 444.857 32.8236 444.677 32.5021 444.355C32.1806 444.034 32 443.598 32 443.143V439.714ZM32 450C32 449.545 32.1806 449.109 32.5021 448.788C32.8236 448.466 33.2596 448.286 33.7143 448.286H44C44.4547 448.286 44.8907 448.466 45.2122 448.788C45.5337 449.109 45.7143 449.545 45.7143 450V460.286C45.7143 460.74 45.5337 461.176 45.2122 461.498C44.8907 461.819 44.4547 462 44 462H33.7143C33.2596 462 32.8236 461.819 32.5021 461.498C32.1806 461.176 32 460.74 32 460.286V450ZM50.8571 448.286C50.4025 448.286 49.9665 448.466 49.645 448.788C49.3235 449.109 49.1429 449.545 49.1429 450V460.286C49.1429 460.74 49.3235 461.176 49.645 461.498C49.9665 461.819 50.4025 462 50.8571 462H54.2857C54.7404 462 55.1764 461.819 55.4979 461.498C55.8194 461.176 56 460.74 56 460.286V450C56 449.545 55.8194 449.109 55.4979 448.788C55.1764 448.466 54.7404 448.286 54.2857 448.286H50.8571Z" fill="#0F172A"/>
</svg>
