<svg width="60" height="120" viewBox="0 0 60 120" fill="none" xmlns="http://www.w3.org/2000/svg">
<rect x="0.5" y="0.5" width="59" height="119" rx="4.5" stroke="#9747FF" stroke-dasharray="10 5"/>
<g clip-path="url(#clip0_760_695)">
<path fill-rule="evenodd" clip-rule="evenodd" d="M30 24.375C30.3452 24.375 30.625 24.6548 30.625 25V29.375H35C35.3452 29.375 35.625 29.6548 35.625 30C35.625 30.3452 35.3452 30.625 35 30.625H30.625V35C30.625 35.3452 30.3452 35.625 30 35.625C29.6548 35.625 29.375 35.3452 29.375 35V30.625H25C24.6548 30.625 24.375 30.3452 24.375 30C24.375 29.6548 24.6548 29.375 25 29.375L29.375 29.375V25C29.375 24.6548 29.6548 24.375 30 24.375Z" fill="#0F172A"/>
</g>
<g clip-path="url(#clip1_760_695)">
<path fill-rule="evenodd" clip-rule="evenodd" d="M30 54.375C30.3452 54.375 30.625 54.6548 30.625 55V59.375H35C35.3452 59.375 35.625 59.6548 35.625 60C35.625 60.3452 35.3452 60.625 35 60.625H30.625V65C30.625 65.3452 30.3452 65.625 30 65.625C29.6548 65.625 29.375 65.3452 29.375 65V60.625H25C24.6548 60.625 24.375 60.3452 24.375 60C24.375 59.6548 24.6548 59.375 25 59.375L29.375 59.375V55C29.375 54.6548 29.6548 54.375 30 54.375Z" fill="white"/>
</g>
<g clip-path="url(#clip2_760_695)">
<circle cx="30" cy="90" r="10" fill="#FFDF63"/>
<path fill-rule="evenodd" clip-rule="evenodd" d="M30 84.375C30.3452 84.375 30.625 84.6548 30.625 85V89.375H35C35.3452 89.375 35.625 89.6548 35.625 90C35.625 90.3452 35.3452 90.625 35 90.625H30.625V95C30.625 95.3452 30.3452 95.625 30 95.625C29.6548 95.625 29.375 95.3452 29.375 95V90.625H25C24.6548 90.625 24.375 90.3452 24.375 90C24.375 89.6548 24.6548 89.375 25 89.375L29.375 89.375V85C29.375 84.6548 29.6548 84.375 30 84.375Z" fill="#0F172A"/>
</g>
<defs>
<clipPath id="clip0_760_695">
<rect width="20" height="20" fill="white" transform="translate(20 20)"/>
</clipPath>
<clipPath id="clip1_760_695">
<rect width="20" height="20" fill="white" transform="translate(20 50)"/>
</clipPath>
<clipPath id="clip2_760_695">
<rect width="20" height="20" fill="white" transform="translate(20 80)"/>
</clipPath>
</defs>
</svg>
