<svg width="317" height="148" viewBox="0 0 317 148" fill="none" xmlns="http://www.w3.org/2000/svg">
<rect x="0.5" y="0.5" width="316" height="147" rx="4.5" stroke="#9747FF" stroke-dasharray="10 5"/>
<rect x="20" y="20" width="277" height="40" rx="5" fill="white"/>
<path fill-rule="evenodd" clip-rule="evenodd" d="M42.8 32.2C39.1549 32.2 36.2 35.1549 36.2 38.8C36.2 42.4451 39.1549 45.4 42.8 45.4C44.6228 45.4 46.2716 44.6622 47.4669 43.4669C48.6623 42.2715 49.4 40.6228 49.4 38.8C49.4 35.1549 46.4451 32.2 42.8 32.2ZM34.4 38.8C34.4 34.1608 38.1608 30.4 42.8 30.4C47.4392 30.4 51.2 34.1608 51.2 38.8C51.2 40.795 50.5036 42.6287 49.3421 44.0693L53.3364 48.0636C53.6879 48.4151 53.6879 48.9849 53.3364 49.3364C52.9849 49.6879 52.4151 49.6879 52.0636 49.3364L48.0693 45.3421C46.6287 46.5036 44.795 47.2 42.8 47.2C38.1608 47.2 34.4 43.4392 34.4 38.8Z" fill="#0F172A"/>
<path d="M69.684 44.072C69.06 44.072 68.46 43.972 67.884 43.772C67.316 43.564 66.876 43.3 66.564 42.98L66.912 42.296C67.208 42.584 67.604 42.828 68.1 43.028C68.604 43.22 69.132 43.316 69.684 43.316C70.212 43.316 70.64 43.252 70.968 43.124C71.304 42.988 71.548 42.808 71.7 42.584C71.86 42.36 71.94 42.112 71.94 41.84C71.94 41.512 71.844 41.248 71.652 41.048C71.468 40.848 71.224 40.692 70.92 40.58C70.616 40.46 70.28 40.356 69.912 40.268C69.544 40.18 69.176 40.088 68.808 39.992C68.44 39.888 68.1 39.752 67.788 39.584C67.484 39.416 67.236 39.196 67.044 38.924C66.86 38.644 66.768 38.28 66.768 37.832C66.768 37.416 66.876 37.036 67.092 36.692C67.316 36.34 67.656 36.06 68.112 35.852C68.568 35.636 69.152 35.528 69.864 35.528C70.336 35.528 70.804 35.596 71.268 35.732C71.732 35.86 72.132 36.04 72.468 36.272L72.168 36.98C71.808 36.74 71.424 36.564 71.016 36.452C70.616 36.34 70.228 36.284 69.852 36.284C69.348 36.284 68.932 36.352 68.604 36.488C68.276 36.624 68.032 36.808 67.872 37.04C67.72 37.264 67.644 37.52 67.644 37.808C67.644 38.136 67.736 38.4 67.92 38.6C68.112 38.8 68.36 38.956 68.664 39.068C68.976 39.18 69.316 39.28 69.684 39.368C70.052 39.456 70.416 39.552 70.776 39.656C71.144 39.76 71.48 39.896 71.784 40.064C72.096 40.224 72.344 40.44 72.528 40.712C72.72 40.984 72.816 41.34 72.816 41.78C72.816 42.188 72.704 42.568 72.48 42.92C72.256 43.264 71.912 43.544 71.448 43.76C70.992 43.968 70.404 44.072 69.684 44.072ZM77.2468 44.06C76.5908 44.06 76.0148 43.924 75.5188 43.652C75.0228 43.372 74.6348 42.992 74.3548 42.512C74.0748 42.024 73.9348 41.468 73.9348 40.844C73.9348 40.22 74.0668 39.668 74.3308 39.188C74.6028 38.708 74.9708 38.332 75.4348 38.06C75.9068 37.78 76.4348 37.64 77.0188 37.64C77.6108 37.64 78.1348 37.776 78.5908 38.048C79.0548 38.312 79.4188 38.688 79.6828 39.176C79.9468 39.656 80.0788 40.212 80.0788 40.844C80.0788 40.884 80.0748 40.928 80.0668 40.976C80.0668 41.016 80.0668 41.06 80.0668 41.108H74.5828V40.472H79.6108L79.2748 40.724C79.2748 40.268 79.1748 39.864 78.9748 39.512C78.7828 39.152 78.5188 38.872 78.1828 38.672C77.8468 38.472 77.4588 38.372 77.0188 38.372C76.5868 38.372 76.1988 38.472 75.8548 38.672C75.5108 38.872 75.2428 39.152 75.0508 39.512C74.8588 39.872 74.7628 40.284 74.7628 40.748V40.88C74.7628 41.36 74.8668 41.784 75.0748 42.152C75.2908 42.512 75.5868 42.796 75.9628 43.004C76.3468 43.204 76.7828 43.304 77.2708 43.304C77.6548 43.304 78.0108 43.236 78.3388 43.1C78.6748 42.964 78.9628 42.756 79.2028 42.476L79.6828 43.028C79.4028 43.364 79.0508 43.62 78.6268 43.796C78.2108 43.972 77.7508 44.06 77.2468 44.06ZM85.5852 44V42.608L85.5492 42.38V40.052C85.5492 39.516 85.3972 39.104 85.0932 38.816C84.7972 38.528 84.3532 38.384 83.7612 38.384C83.3532 38.384 82.9652 38.452 82.5972 38.588C82.2292 38.724 81.9172 38.904 81.6612 39.128L81.2772 38.492C81.5972 38.22 81.9812 38.012 82.4292 37.868C82.8772 37.716 83.3492 37.64 83.8452 37.64C84.6612 37.64 85.2892 37.844 85.7292 38.252C86.1772 38.652 86.4012 39.264 86.4012 40.088V44H85.5852ZM83.4132 44.06C82.9412 44.06 82.5292 43.984 82.1772 43.832C81.8332 43.672 81.5692 43.456 81.3852 43.184C81.2012 42.904 81.1092 42.584 81.1092 42.224C81.1092 41.896 81.1852 41.6 81.3372 41.336C81.4972 41.064 81.7532 40.848 82.1052 40.688C82.4652 40.52 82.9452 40.436 83.5452 40.436H85.7172V41.072H83.5692C82.9612 41.072 82.5372 41.18 82.2972 41.396C82.0652 41.612 81.9492 41.88 81.9492 42.2C81.9492 42.56 82.0892 42.848 82.3692 43.064C82.6492 43.28 83.0412 43.388 83.5452 43.388C84.0252 43.388 84.4372 43.28 84.7812 43.064C85.1332 42.84 85.3892 42.52 85.5492 42.104L85.7412 42.692C85.5812 43.108 85.3012 43.44 84.9012 43.688C84.5092 43.936 84.0132 44.06 83.4132 44.06ZM88.7153 44V37.7H89.5313V39.416L89.4473 39.116C89.6233 38.636 89.9193 38.272 90.3353 38.024C90.7513 37.768 91.2673 37.64 91.8833 37.64V38.468C91.8513 38.468 91.8193 38.468 91.7873 38.468C91.7553 38.46 91.7233 38.456 91.6913 38.456C91.0273 38.456 90.5073 38.66 90.1313 39.068C89.7553 39.468 89.5673 40.04 89.5673 40.784V44H88.7153ZM95.9954 44.06C95.3714 44.06 94.8114 43.924 94.3154 43.652C93.8274 43.372 93.4434 42.992 93.1634 42.512C92.8834 42.024 92.7434 41.468 92.7434 40.844C92.7434 40.212 92.8834 39.656 93.1634 39.176C93.4434 38.696 93.8274 38.32 94.3154 38.048C94.8114 37.776 95.3714 37.64 95.9954 37.64C96.5314 37.64 97.0154 37.744 97.4474 37.952C97.8794 38.16 98.2194 38.472 98.4674 38.888L97.8314 39.32C97.6154 39 97.3474 38.764 97.0274 38.612C96.7074 38.46 96.3594 38.384 95.9834 38.384C95.5354 38.384 95.1314 38.488 94.7714 38.696C94.4114 38.896 94.1274 39.18 93.9194 39.548C93.7114 39.916 93.6074 40.348 93.6074 40.844C93.6074 41.34 93.7114 41.772 93.9194 42.14C94.1274 42.508 94.4114 42.796 94.7714 43.004C95.1314 43.204 95.5354 43.304 95.9834 43.304C96.3594 43.304 96.7074 43.228 97.0274 43.076C97.3474 42.924 97.6154 42.692 97.8314 42.38L98.4674 42.812C98.2194 43.22 97.8794 43.532 97.4474 43.748C97.0154 43.956 96.5314 44.06 95.9954 44.06ZM103.263 37.64C103.775 37.64 104.223 37.74 104.607 37.94C104.999 38.132 105.303 38.428 105.519 38.828C105.743 39.228 105.855 39.732 105.855 40.34V44H105.003V40.424C105.003 39.76 104.835 39.26 104.499 38.924C104.171 38.58 103.707 38.408 103.107 38.408C102.659 38.408 102.267 38.5 101.931 38.684C101.603 38.86 101.347 39.12 101.163 39.464C100.987 39.8 100.899 40.208 100.899 40.688V44H100.047V35.096H100.899V39.428L100.731 39.104C100.931 38.648 101.251 38.292 101.691 38.036C102.131 37.772 102.655 37.64 103.263 37.64Z" fill="black"/>
<rect x="20" y="84" width="277" height="40" rx="5" fill="#334155"/>
<path fill-rule="evenodd" clip-rule="evenodd" d="M42.8 96.2C39.1549 96.2 36.2 99.1549 36.2 102.8C36.2 106.445 39.1549 109.4 42.8 109.4C44.6228 109.4 46.2716 108.662 47.4669 107.467C48.6623 106.272 49.4 104.623 49.4 102.8C49.4 99.1549 46.4451 96.2 42.8 96.2ZM34.4 102.8C34.4 98.1608 38.1608 94.4 42.8 94.4C47.4392 94.4 51.2 98.1608 51.2 102.8C51.2 104.795 50.5036 106.629 49.3421 108.069L53.3364 112.064C53.6879 112.415 53.6879 112.985 53.3364 113.336C52.9849 113.688 52.4151 113.688 52.0636 113.336L48.0693 109.342C46.6287 110.504 44.795 111.2 42.8 111.2C38.1608 111.2 34.4 107.439 34.4 102.8Z" fill="#F9FAFB"/>
<path d="M69.684 108.072C69.06 108.072 68.46 107.972 67.884 107.772C67.316 107.564 66.876 107.3 66.564 106.98L66.912 106.296C67.208 106.584 67.604 106.828 68.1 107.028C68.604 107.22 69.132 107.316 69.684 107.316C70.212 107.316 70.64 107.252 70.968 107.124C71.304 106.988 71.548 106.808 71.7 106.584C71.86 106.36 71.94 106.112 71.94 105.84C71.94 105.512 71.844 105.248 71.652 105.048C71.468 104.848 71.224 104.692 70.92 104.58C70.616 104.46 70.28 104.356 69.912 104.268C69.544 104.18 69.176 104.088 68.808 103.992C68.44 103.888 68.1 103.752 67.788 103.584C67.484 103.416 67.236 103.196 67.044 102.924C66.86 102.644 66.768 102.28 66.768 101.832C66.768 101.416 66.876 101.036 67.092 100.692C67.316 100.34 67.656 100.06 68.112 99.852C68.568 99.636 69.152 99.528 69.864 99.528C70.336 99.528 70.804 99.596 71.268 99.732C71.732 99.86 72.132 100.04 72.468 100.272L72.168 100.98C71.808 100.74 71.424 100.564 71.016 100.452C70.616 100.34 70.228 100.284 69.852 100.284C69.348 100.284 68.932 100.352 68.604 100.488C68.276 100.624 68.032 100.808 67.872 101.04C67.72 101.264 67.644 101.52 67.644 101.808C67.644 102.136 67.736 102.4 67.92 102.6C68.112 102.8 68.36 102.956 68.664 103.068C68.976 103.18 69.316 103.28 69.684 103.368C70.052 103.456 70.416 103.552 70.776 103.656C71.144 103.76 71.48 103.896 71.784 104.064C72.096 104.224 72.344 104.44 72.528 104.712C72.72 104.984 72.816 105.34 72.816 105.78C72.816 106.188 72.704 106.568 72.48 106.92C72.256 107.264 71.912 107.544 71.448 107.76C70.992 107.968 70.404 108.072 69.684 108.072ZM77.2468 108.06C76.5908 108.06 76.0148 107.924 75.5188 107.652C75.0228 107.372 74.6348 106.992 74.3548 106.512C74.0748 106.024 73.9348 105.468 73.9348 104.844C73.9348 104.22 74.0668 103.668 74.3308 103.188C74.6028 102.708 74.9708 102.332 75.4348 102.06C75.9068 101.78 76.4348 101.64 77.0188 101.64C77.6108 101.64 78.1348 101.776 78.5908 102.048C79.0548 102.312 79.4188 102.688 79.6828 103.176C79.9468 103.656 80.0788 104.212 80.0788 104.844C80.0788 104.884 80.0748 104.928 80.0668 104.976C80.0668 105.016 80.0668 105.06 80.0668 105.108H74.5828V104.472H79.6108L79.2748 104.724C79.2748 104.268 79.1748 103.864 78.9748 103.512C78.7828 103.152 78.5188 102.872 78.1828 102.672C77.8468 102.472 77.4588 102.372 77.0188 102.372C76.5868 102.372 76.1988 102.472 75.8548 102.672C75.5108 102.872 75.2428 103.152 75.0508 103.512C74.8588 103.872 74.7628 104.284 74.7628 104.748V104.88C74.7628 105.36 74.8668 105.784 75.0748 106.152C75.2908 106.512 75.5868 106.796 75.9628 107.004C76.3468 107.204 76.7828 107.304 77.2708 107.304C77.6548 107.304 78.0108 107.236 78.3388 107.1C78.6748 106.964 78.9628 106.756 79.2028 106.476L79.6828 107.028C79.4028 107.364 79.0508 107.62 78.6268 107.796C78.2108 107.972 77.7508 108.06 77.2468 108.06ZM85.5852 108V106.608L85.5492 106.38V104.052C85.5492 103.516 85.3972 103.104 85.0932 102.816C84.7972 102.528 84.3532 102.384 83.7612 102.384C83.3532 102.384 82.9652 102.452 82.5972 102.588C82.2292 102.724 81.9172 102.904 81.6612 103.128L81.2772 102.492C81.5972 102.22 81.9812 102.012 82.4292 101.868C82.8772 101.716 83.3492 101.64 83.8452 101.64C84.6612 101.64 85.2892 101.844 85.7292 102.252C86.1772 102.652 86.4012 103.264 86.4012 104.088V108H85.5852ZM83.4132 108.06C82.9412 108.06 82.5292 107.984 82.1772 107.832C81.8332 107.672 81.5692 107.456 81.3852 107.184C81.2012 106.904 81.1092 106.584 81.1092 106.224C81.1092 105.896 81.1852 105.6 81.3372 105.336C81.4972 105.064 81.7532 104.848 82.1052 104.688C82.4652 104.52 82.9452 104.436 83.5452 104.436H85.7172V105.072H83.5692C82.9612 105.072 82.5372 105.18 82.2972 105.396C82.0652 105.612 81.9492 105.88 81.9492 106.2C81.9492 106.56 82.0892 106.848 82.3692 107.064C82.6492 107.28 83.0412 107.388 83.5452 107.388C84.0252 107.388 84.4372 107.28 84.7812 107.064C85.1332 106.84 85.3892 106.52 85.5492 106.104L85.7412 106.692C85.5812 107.108 85.3012 107.44 84.9012 107.688C84.5092 107.936 84.0132 108.06 83.4132 108.06ZM88.7153 108V101.7H89.5313V103.416L89.4473 103.116C89.6233 102.636 89.9193 102.272 90.3353 102.024C90.7513 101.768 91.2673 101.64 91.8833 101.64V102.468C91.8513 102.468 91.8193 102.468 91.7873 102.468C91.7553 102.46 91.7233 102.456 91.6913 102.456C91.0273 102.456 90.5073 102.66 90.1313 103.068C89.7553 103.468 89.5673 104.04 89.5673 104.784V108H88.7153ZM95.9954 108.06C95.3714 108.06 94.8114 107.924 94.3154 107.652C93.8274 107.372 93.4434 106.992 93.1634 106.512C92.8834 106.024 92.7434 105.468 92.7434 104.844C92.7434 104.212 92.8834 103.656 93.1634 103.176C93.4434 102.696 93.8274 102.32 94.3154 102.048C94.8114 101.776 95.3714 101.64 95.9954 101.64C96.5314 101.64 97.0154 101.744 97.4474 101.952C97.8794 102.16 98.2194 102.472 98.4674 102.888L97.8314 103.32C97.6154 103 97.3474 102.764 97.0274 102.612C96.7074 102.46 96.3594 102.384 95.9834 102.384C95.5354 102.384 95.1314 102.488 94.7714 102.696C94.4114 102.896 94.1274 103.18 93.9194 103.548C93.7114 103.916 93.6074 104.348 93.6074 104.844C93.6074 105.34 93.7114 105.772 93.9194 106.14C94.1274 106.508 94.4114 106.796 94.7714 107.004C95.1314 107.204 95.5354 107.304 95.9834 107.304C96.3594 107.304 96.7074 107.228 97.0274 107.076C97.3474 106.924 97.6154 106.692 97.8314 106.38L98.4674 106.812C98.2194 107.22 97.8794 107.532 97.4474 107.748C97.0154 107.956 96.5314 108.06 95.9954 108.06ZM103.263 101.64C103.775 101.64 104.223 101.74 104.607 101.94C104.999 102.132 105.303 102.428 105.519 102.828C105.743 103.228 105.855 103.732 105.855 104.34V108H105.003V104.424C105.003 103.76 104.835 103.26 104.499 102.924C104.171 102.58 103.707 102.408 103.107 102.408C102.659 102.408 102.267 102.5 101.931 102.684C101.603 102.86 101.347 103.12 101.163 103.464C100.987 103.8 100.899 104.208 100.899 104.688V108H100.047V99.096H100.899V103.428L100.731 103.104C100.931 102.648 101.251 102.292 101.691 102.036C102.131 101.772 102.655 101.64 103.263 101.64Z" fill="#F9FAFB"/>
</svg>
