<svg width="383" height="138" viewBox="0 0 383 138" fill="none" xmlns="http://www.w3.org/2000/svg">
<rect x="0.5" y="0.5" width="382" height="137" rx="4.5" stroke="#9747FF" stroke-dasharray="10 5"/>
<rect x="7" y="9" width="369" height="54" rx="5" fill="#E5E7EB"/>
<path d="M11.472 34L15.546 28.442V29.52L11.696 24.2H13.292L16.344 28.386L15.714 28.4L18.752 24.2H20.278L16.456 29.436V28.428L20.53 34H18.92L15.672 29.534H16.288L13.082 34H11.472Z" fill="black"/>
<path d="M185.885 30V23.3L186.205 23.64H184.235V23H186.605V30H185.885ZM191.068 30.06C190.528 30.06 190.048 29.92 189.628 29.64C189.208 29.3533 188.878 28.9467 188.638 28.42C188.398 27.8867 188.278 27.2467 188.278 26.5C188.278 25.7533 188.398 25.1167 188.638 24.59C188.878 24.0567 189.208 23.65 189.628 23.37C190.048 23.0833 190.528 22.94 191.068 22.94C191.608 22.94 192.088 23.0833 192.508 23.37C192.928 23.65 193.258 24.0567 193.498 24.59C193.744 25.1167 193.868 25.7533 193.868 26.5C193.868 27.2467 193.744 27.8867 193.498 28.42C193.258 28.9467 192.928 29.3533 192.508 29.64C192.088 29.92 191.608 30.06 191.068 30.06ZM191.068 29.4C191.481 29.4 191.841 29.29 192.148 29.07C192.454 28.8433 192.694 28.5167 192.868 28.09C193.041 27.6567 193.128 27.1267 193.128 26.5C193.128 25.8733 193.041 25.3467 192.868 24.92C192.694 24.4867 192.454 24.16 192.148 23.94C191.841 23.7133 191.481 23.6 191.068 23.6C190.668 23.6 190.311 23.7133 189.998 23.94C189.684 24.16 189.441 24.4867 189.268 24.92C189.094 25.3467 189.008 25.8733 189.008 26.5C189.008 27.1267 189.094 27.6567 189.268 28.09C189.441 28.5167 189.684 28.8433 189.998 29.07C190.311 29.29 190.668 29.4 191.068 29.4ZM197.689 30.06C197.149 30.06 196.669 29.92 196.249 29.64C195.829 29.3533 195.499 28.9467 195.259 28.42C195.019 27.8867 194.899 27.2467 194.899 26.5C194.899 25.7533 195.019 25.1167 195.259 24.59C195.499 24.0567 195.829 23.65 196.249 23.37C196.669 23.0833 197.149 22.94 197.689 22.94C198.229 22.94 198.709 23.0833 199.129 23.37C199.549 23.65 199.879 24.0567 200.119 24.59C200.366 25.1167 200.489 25.7533 200.489 26.5C200.489 27.2467 200.366 27.8867 200.119 28.42C199.879 28.9467 199.549 29.3533 199.129 29.64C198.709 29.92 198.229 30.06 197.689 30.06ZM197.689 29.4C198.102 29.4 198.462 29.29 198.769 29.07C199.076 28.8433 199.316 28.5167 199.489 28.09C199.662 27.6567 199.749 27.1267 199.749 26.5C199.749 25.8733 199.662 25.3467 199.489 24.92C199.316 24.4867 199.076 24.16 198.769 23.94C198.462 23.7133 198.102 23.6 197.689 23.6C197.289 23.6 196.932 23.7133 196.619 23.94C196.306 24.16 196.062 24.4867 195.889 24.92C195.716 25.3467 195.629 25.8733 195.629 26.5C195.629 27.1267 195.716 27.6567 195.889 28.09C196.062 28.5167 196.306 28.8433 196.619 29.07C196.932 29.29 197.289 29.4 197.689 29.4Z" fill="#475569"/>
<rect width="67" height="6" rx="3" transform="matrix(-1 0 0 1 201 34)" fill="#D9D9D9"/>
<rect width="17" height="14" rx="7" transform="matrix(-1 0 0 1 139 14)" fill="#334155"/>
<path d="M127.181 25.06C126.621 25.06 126.138 24.98 125.731 24.82C125.331 24.66 125.021 24.43 124.801 24.13C124.588 23.8233 124.481 23.4633 124.481 23.05C124.481 22.65 124.584 22.31 124.791 22.03C125.004 21.7433 125.311 21.5233 125.711 21.37C126.118 21.2167 126.608 21.14 127.181 21.14C127.748 21.14 128.234 21.2167 128.641 21.37C129.048 21.5233 129.358 21.7433 129.571 22.03C129.791 22.31 129.901 22.65 129.901 23.05C129.901 23.4633 129.791 23.8233 129.571 24.13C129.351 24.43 129.038 24.66 128.631 24.82C128.224 24.98 127.741 25.06 127.181 25.06ZM127.181 24.45C127.801 24.45 128.284 24.3233 128.631 24.07C128.984 23.8167 129.161 23.4733 129.161 23.04C129.161 22.6067 128.984 22.2667 128.631 22.02C128.284 21.7667 127.801 21.64 127.181 21.64C126.561 21.64 126.078 21.7667 125.731 22.02C125.384 22.2667 125.211 22.6067 125.211 23.04C125.211 23.4733 125.384 23.8167 125.731 24.07C126.078 24.3233 126.561 24.45 127.181 24.45ZM127.181 21.55C126.661 21.55 126.218 21.48 125.851 21.34C125.491 21.2 125.214 21 125.021 20.74C124.828 20.4733 124.731 20.1567 124.731 19.79C124.731 19.4033 124.831 19.0733 125.031 18.8C125.238 18.52 125.524 18.3067 125.891 18.16C126.258 18.0133 126.688 17.94 127.181 17.94C127.674 17.94 128.104 18.0133 128.471 18.16C128.844 18.3067 129.134 18.52 129.341 18.8C129.548 19.0733 129.651 19.4033 129.651 19.79C129.651 20.1567 129.554 20.4733 129.361 20.74C129.168 21 128.884 21.2 128.511 21.34C128.144 21.48 127.701 21.55 127.181 21.55ZM127.181 21.07C127.728 21.07 128.154 20.9567 128.461 20.73C128.768 20.5033 128.921 20.2 128.921 19.82C128.921 19.42 128.761 19.11 128.441 18.89C128.128 18.6633 127.708 18.55 127.181 18.55C126.654 18.55 126.234 18.6633 125.921 18.89C125.608 19.11 125.451 19.4167 125.451 19.81C125.451 20.1967 125.601 20.5033 125.901 20.73C126.208 20.9567 126.634 21.07 127.181 21.07ZM133.688 25.06C133.148 25.06 132.668 24.92 132.248 24.64C131.828 24.3533 131.498 23.9467 131.258 23.42C131.018 22.8867 130.898 22.2467 130.898 21.5C130.898 20.7533 131.018 20.1167 131.258 19.59C131.498 19.0567 131.828 18.65 132.248 18.37C132.668 18.0833 133.148 17.94 133.688 17.94C134.228 17.94 134.708 18.0833 135.128 18.37C135.548 18.65 135.878 19.0567 136.118 19.59C136.365 20.1167 136.488 20.7533 136.488 21.5C136.488 22.2467 136.365 22.8867 136.118 23.42C135.878 23.9467 135.548 24.3533 135.128 24.64C134.708 24.92 134.228 25.06 133.688 25.06ZM133.688 24.4C134.101 24.4 134.461 24.29 134.768 24.07C135.075 23.8433 135.315 23.5167 135.488 23.09C135.661 22.6567 135.748 22.1267 135.748 21.5C135.748 20.8733 135.661 20.3467 135.488 19.92C135.315 19.4867 135.075 19.16 134.768 18.94C134.461 18.7133 134.101 18.6 133.688 18.6C133.288 18.6 132.931 18.7133 132.618 18.94C132.305 19.16 132.061 19.4867 131.888 19.92C131.715 20.3467 131.628 20.8733 131.628 21.5C131.628 22.1267 131.715 22.6567 131.888 23.09C132.061 23.5167 132.305 23.8433 132.618 24.07C132.931 24.29 133.288 24.4 133.688 24.4Z" fill="#FFDF63"/>
<circle cx="7" cy="7" r="7" transform="matrix(-1 0 0 1 137.5 30)" fill="#FFDF63"/>
<path d="M34.31 30.06C33.77 30.06 33.29 29.92 32.87 29.64C32.45 29.3533 32.12 28.9467 31.88 28.42C31.64 27.8867 31.52 27.2467 31.52 26.5C31.52 25.7533 31.64 25.1167 31.88 24.59C32.12 24.0567 32.45 23.65 32.87 23.37C33.29 23.0833 33.77 22.94 34.31 22.94C34.85 22.94 35.33 23.0833 35.75 23.37C36.17 23.65 36.5 24.0567 36.74 24.59C36.9867 25.1167 37.11 25.7533 37.11 26.5C37.11 27.2467 36.9867 27.8867 36.74 28.42C36.5 28.9467 36.17 29.3533 35.75 29.64C35.33 29.92 34.85 30.06 34.31 30.06ZM34.31 29.4C34.7233 29.4 35.0833 29.29 35.39 29.07C35.6967 28.8433 35.9367 28.5167 36.11 28.09C36.2833 27.6567 36.37 27.1267 36.37 26.5C36.37 25.8733 36.2833 25.3467 36.11 24.92C35.9367 24.4867 35.6967 24.16 35.39 23.94C35.0833 23.7133 34.7233 23.6 34.31 23.6C33.91 23.6 33.5533 23.7133 33.24 23.94C32.9267 24.16 32.6833 24.4867 32.51 24.92C32.3367 25.3467 32.25 25.8733 32.25 26.5C32.25 27.1267 32.3367 27.6567 32.51 28.09C32.6833 28.5167 32.9267 28.8433 33.24 29.07C33.5533 29.29 33.91 29.4 34.31 29.4Z" fill="#475569"/>
<rect width="96" height="6" rx="3" transform="matrix(-1 0 0 1 127 34)" fill="#FFDF63"/>
<rect x="211" y="28" width="132" height="32" rx="5" fill="white"/>
<path d="M218.368 48V39.6H219.256V48H218.368ZM225.025 41.64C225.537 41.64 225.985 41.74 226.369 41.94C226.761 42.132 227.065 42.428 227.281 42.828C227.505 43.228 227.617 43.732 227.617 44.34V48H226.765V44.424C226.765 43.76 226.597 43.26 226.261 42.924C225.933 42.58 225.469 42.408 224.869 42.408C224.421 42.408 224.029 42.5 223.693 42.684C223.365 42.86 223.109 43.12 222.925 43.464C222.749 43.8 222.661 44.208 222.661 44.688V48H221.809V41.7H222.625V43.428L222.493 43.104C222.693 42.648 223.013 42.292 223.453 42.036C223.893 41.772 224.417 41.64 225.025 41.64ZM233.17 48.06C232.626 48.06 232.134 47.936 231.694 47.688C231.254 47.432 230.902 47.068 230.638 46.596C230.382 46.116 230.254 45.532 230.254 44.844C230.254 44.156 230.382 43.576 230.638 43.104C230.894 42.624 231.242 42.26 231.682 42.012C232.122 41.764 232.618 41.64 233.17 41.64C233.77 41.64 234.306 41.776 234.778 42.048C235.258 42.312 235.634 42.688 235.906 43.176C236.178 43.656 236.314 44.212 236.314 44.844C236.314 45.484 236.178 46.044 235.906 46.524C235.634 47.004 235.258 47.38 234.778 47.652C234.306 47.924 233.77 48.06 233.17 48.06ZM229.918 50.328V41.7H230.734V43.596L230.65 44.856L230.77 46.128V50.328H229.918ZM233.11 47.304C233.558 47.304 233.958 47.204 234.31 47.004C234.662 46.796 234.942 46.508 235.15 46.14C235.358 45.764 235.462 45.332 235.462 44.844C235.462 44.356 235.358 43.928 235.15 43.56C234.942 43.192 234.662 42.904 234.31 42.696C233.958 42.488 233.558 42.384 233.11 42.384C232.662 42.384 232.258 42.488 231.898 42.696C231.546 42.904 231.266 43.192 231.058 43.56C230.858 43.928 230.758 44.356 230.758 44.844C230.758 45.332 230.858 45.764 231.058 46.14C231.266 46.508 231.546 46.796 231.898 47.004C232.258 47.204 232.662 47.304 233.11 47.304ZM240.655 48.06C240.119 48.06 239.651 47.96 239.251 47.76C238.851 47.56 238.539 47.26 238.315 46.86C238.099 46.46 237.991 45.96 237.991 45.36V41.7H238.843V45.264C238.843 45.936 239.007 46.444 239.335 46.788C239.671 47.124 240.139 47.292 240.739 47.292C241.179 47.292 241.559 47.204 241.879 47.028C242.207 46.844 242.455 46.58 242.623 46.236C242.799 45.892 242.887 45.48 242.887 45V41.7H243.739V48H242.923V46.272L243.055 46.584C242.855 47.048 242.543 47.412 242.119 47.676C241.703 47.932 241.215 48.06 240.655 48.06ZM248.106 48.06C247.514 48.06 247.058 47.9 246.738 47.58C246.418 47.26 246.258 46.808 246.258 46.224V40.308H247.11V46.176C247.11 46.544 247.202 46.828 247.386 47.028C247.578 47.228 247.85 47.328 248.202 47.328C248.578 47.328 248.89 47.22 249.138 47.004L249.438 47.616C249.27 47.768 249.066 47.88 248.826 47.952C248.594 48.024 248.354 48.06 248.106 48.06ZM245.13 42.408V41.7H249.03V42.408H245.13Z" fill="#94A3B8"/>
<path d="M339 28H367C369.761 28 372 30.2386 372 33V55C372 57.7614 369.761 60 367 60H339V28Z" fill="#94A3B8"/>
<path d="M346.792 48.06C346.256 48.06 345.788 47.96 345.388 47.76C344.988 47.56 344.676 47.26 344.452 46.86C344.236 46.46 344.128 45.96 344.128 45.36V41.7H344.98V45.264C344.98 45.936 345.144 46.444 345.472 46.788C345.808 47.124 346.276 47.292 346.876 47.292C347.316 47.292 347.696 47.204 348.016 47.028C348.344 46.844 348.592 46.58 348.76 46.236C348.936 45.892 349.024 45.48 349.024 45V41.7H349.876V48H349.06V46.272L349.192 46.584C348.992 47.048 348.68 47.412 348.256 47.676C347.84 47.932 347.352 48.06 346.792 48.06ZM355.467 41.64C355.979 41.64 356.427 41.74 356.811 41.94C357.203 42.132 357.507 42.428 357.723 42.828C357.947 43.228 358.059 43.732 358.059 44.34V48H357.207V44.424C357.207 43.76 357.039 43.26 356.703 42.924C356.375 42.58 355.911 42.408 355.311 42.408C354.863 42.408 354.471 42.5 354.135 42.684C353.807 42.86 353.551 43.12 353.367 43.464C353.191 43.8 353.103 44.208 353.103 44.688V48H352.251V41.7H353.067V43.428L352.935 43.104C353.135 42.648 353.455 42.292 353.895 42.036C354.335 41.772 354.859 41.64 355.467 41.64ZM360.36 48V41.7H361.212V48H360.36ZM360.792 40.308C360.616 40.308 360.468 40.248 360.348 40.128C360.228 40.008 360.168 39.864 360.168 39.696C360.168 39.528 360.228 39.388 360.348 39.276C360.468 39.156 360.616 39.096 360.792 39.096C360.968 39.096 361.116 39.152 361.236 39.264C361.356 39.376 361.416 39.516 361.416 39.684C361.416 39.86 361.356 40.008 361.236 40.128C361.124 40.248 360.976 40.308 360.792 40.308ZM365.575 48.06C364.983 48.06 364.527 47.9 364.207 47.58C363.887 47.26 363.727 46.808 363.727 46.224V40.308H364.579V46.176C364.579 46.544 364.671 46.828 364.855 47.028C365.047 47.228 365.319 47.328 365.671 47.328C366.047 47.328 366.359 47.22 366.607 47.004L366.907 47.616C366.739 47.768 366.535 47.88 366.295 47.952C366.063 48.024 365.823 48.06 365.575 48.06ZM362.599 42.408V41.7H366.499V42.408H362.599Z" fill="#334155"/>
<rect x="7" y="73" width="369" height="56" rx="5" fill="#1E293B"/>
<path d="M11.472 98L15.546 92.442V93.52L11.696 88.2H13.292L16.344 92.386L15.714 92.4L18.752 88.2H20.278L16.456 93.436V92.428L20.53 98H18.92L15.672 93.534H16.288L13.082 98H11.472Z" fill="#F1F5F9"/>
<path d="M185.885 94V87.3L186.205 87.64H184.235V87H186.605V94H185.885ZM191.068 94.06C190.528 94.06 190.048 93.92 189.628 93.64C189.208 93.3533 188.878 92.9467 188.638 92.42C188.398 91.8867 188.278 91.2467 188.278 90.5C188.278 89.7533 188.398 89.1167 188.638 88.59C188.878 88.0567 189.208 87.65 189.628 87.37C190.048 87.0833 190.528 86.94 191.068 86.94C191.608 86.94 192.088 87.0833 192.508 87.37C192.928 87.65 193.258 88.0567 193.498 88.59C193.744 89.1167 193.868 89.7533 193.868 90.5C193.868 91.2467 193.744 91.8867 193.498 92.42C193.258 92.9467 192.928 93.3533 192.508 93.64C192.088 93.92 191.608 94.06 191.068 94.06ZM191.068 93.4C191.481 93.4 191.841 93.29 192.148 93.07C192.454 92.8433 192.694 92.5167 192.868 92.09C193.041 91.6567 193.128 91.1267 193.128 90.5C193.128 89.8733 193.041 89.3467 192.868 88.92C192.694 88.4867 192.454 88.16 192.148 87.94C191.841 87.7133 191.481 87.6 191.068 87.6C190.668 87.6 190.311 87.7133 189.998 87.94C189.684 88.16 189.441 88.4867 189.268 88.92C189.094 89.3467 189.008 89.8733 189.008 90.5C189.008 91.1267 189.094 91.6567 189.268 92.09C189.441 92.5167 189.684 92.8433 189.998 93.07C190.311 93.29 190.668 93.4 191.068 93.4ZM197.689 94.06C197.149 94.06 196.669 93.92 196.249 93.64C195.829 93.3533 195.499 92.9467 195.259 92.42C195.019 91.8867 194.899 91.2467 194.899 90.5C194.899 89.7533 195.019 89.1167 195.259 88.59C195.499 88.0567 195.829 87.65 196.249 87.37C196.669 87.0833 197.149 86.94 197.689 86.94C198.229 86.94 198.709 87.0833 199.129 87.37C199.549 87.65 199.879 88.0567 200.119 88.59C200.366 89.1167 200.489 89.7533 200.489 90.5C200.489 91.2467 200.366 91.8867 200.119 92.42C199.879 92.9467 199.549 93.3533 199.129 93.64C198.709 93.92 198.229 94.06 197.689 94.06ZM197.689 93.4C198.102 93.4 198.462 93.29 198.769 93.07C199.076 92.8433 199.316 92.5167 199.489 92.09C199.662 91.6567 199.749 91.1267 199.749 90.5C199.749 89.8733 199.662 89.3467 199.489 88.92C199.316 88.4867 199.076 88.16 198.769 87.94C198.462 87.7133 198.102 87.6 197.689 87.6C197.289 87.6 196.932 87.7133 196.619 87.94C196.306 88.16 196.062 88.4867 195.889 88.92C195.716 89.3467 195.629 89.8733 195.629 90.5C195.629 91.1267 195.716 91.6567 195.889 92.09C196.062 92.5167 196.306 92.8433 196.619 93.07C196.932 93.29 197.289 93.4 197.689 93.4Z" fill="#475569"/>
<rect width="67" height="6" rx="3" transform="matrix(-1 0 0 1 201 98)" fill="#334155"/>
<rect width="17" height="14" rx="7" transform="matrix(-1 0 0 1 139 78)" fill="#334155"/>
<path d="M127.181 89.06C126.621 89.06 126.138 88.98 125.731 88.82C125.331 88.66 125.021 88.43 124.801 88.13C124.588 87.8233 124.481 87.4633 124.481 87.05C124.481 86.65 124.584 86.31 124.791 86.03C125.004 85.7433 125.311 85.5233 125.711 85.37C126.118 85.2167 126.608 85.14 127.181 85.14C127.748 85.14 128.234 85.2167 128.641 85.37C129.048 85.5233 129.358 85.7433 129.571 86.03C129.791 86.31 129.901 86.65 129.901 87.05C129.901 87.4633 129.791 87.8233 129.571 88.13C129.351 88.43 129.038 88.66 128.631 88.82C128.224 88.98 127.741 89.06 127.181 89.06ZM127.181 88.45C127.801 88.45 128.284 88.3233 128.631 88.07C128.984 87.8167 129.161 87.4733 129.161 87.04C129.161 86.6067 128.984 86.2667 128.631 86.02C128.284 85.7667 127.801 85.64 127.181 85.64C126.561 85.64 126.078 85.7667 125.731 86.02C125.384 86.2667 125.211 86.6067 125.211 87.04C125.211 87.4733 125.384 87.8167 125.731 88.07C126.078 88.3233 126.561 88.45 127.181 88.45ZM127.181 85.55C126.661 85.55 126.218 85.48 125.851 85.34C125.491 85.2 125.214 85 125.021 84.74C124.828 84.4733 124.731 84.1567 124.731 83.79C124.731 83.4033 124.831 83.0733 125.031 82.8C125.238 82.52 125.524 82.3067 125.891 82.16C126.258 82.0133 126.688 81.94 127.181 81.94C127.674 81.94 128.104 82.0133 128.471 82.16C128.844 82.3067 129.134 82.52 129.341 82.8C129.548 83.0733 129.651 83.4033 129.651 83.79C129.651 84.1567 129.554 84.4733 129.361 84.74C129.168 85 128.884 85.2 128.511 85.34C128.144 85.48 127.701 85.55 127.181 85.55ZM127.181 85.07C127.728 85.07 128.154 84.9567 128.461 84.73C128.768 84.5033 128.921 84.2 128.921 83.82C128.921 83.42 128.761 83.11 128.441 82.89C128.128 82.6633 127.708 82.55 127.181 82.55C126.654 82.55 126.234 82.6633 125.921 82.89C125.608 83.11 125.451 83.4167 125.451 83.81C125.451 84.1967 125.601 84.5033 125.901 84.73C126.208 84.9567 126.634 85.07 127.181 85.07ZM133.688 89.06C133.148 89.06 132.668 88.92 132.248 88.64C131.828 88.3533 131.498 87.9467 131.258 87.42C131.018 86.8867 130.898 86.2467 130.898 85.5C130.898 84.7533 131.018 84.1167 131.258 83.59C131.498 83.0567 131.828 82.65 132.248 82.37C132.668 82.0833 133.148 81.94 133.688 81.94C134.228 81.94 134.708 82.0833 135.128 82.37C135.548 82.65 135.878 83.0567 136.118 83.59C136.365 84.1167 136.488 84.7533 136.488 85.5C136.488 86.2467 136.365 86.8867 136.118 87.42C135.878 87.9467 135.548 88.3533 135.128 88.64C134.708 88.92 134.228 89.06 133.688 89.06ZM133.688 88.4C134.101 88.4 134.461 88.29 134.768 88.07C135.075 87.8433 135.315 87.5167 135.488 87.09C135.661 86.6567 135.748 86.1267 135.748 85.5C135.748 84.8733 135.661 84.3467 135.488 83.92C135.315 83.4867 135.075 83.16 134.768 82.94C134.461 82.7133 134.101 82.6 133.688 82.6C133.288 82.6 132.931 82.7133 132.618 82.94C132.305 83.16 132.061 83.4867 131.888 83.92C131.715 84.3467 131.628 84.8733 131.628 85.5C131.628 86.1267 131.715 86.6567 131.888 87.09C132.061 87.5167 132.305 87.8433 132.618 88.07C132.931 88.29 133.288 88.4 133.688 88.4Z" fill="#FFDF63"/>
<circle cx="7" cy="7" r="7" transform="matrix(-1 0 0 1 137.5 94)" fill="#FFDF63"/>
<path d="M34.31 94.06C33.77 94.06 33.29 93.92 32.87 93.64C32.45 93.3533 32.12 92.9467 31.88 92.42C31.64 91.8867 31.52 91.2467 31.52 90.5C31.52 89.7533 31.64 89.1167 31.88 88.59C32.12 88.0567 32.45 87.65 32.87 87.37C33.29 87.0833 33.77 86.94 34.31 86.94C34.85 86.94 35.33 87.0833 35.75 87.37C36.17 87.65 36.5 88.0567 36.74 88.59C36.9867 89.1167 37.11 89.7533 37.11 90.5C37.11 91.2467 36.9867 91.8867 36.74 92.42C36.5 92.9467 36.17 93.3533 35.75 93.64C35.33 93.92 34.85 94.06 34.31 94.06ZM34.31 93.4C34.7233 93.4 35.0833 93.29 35.39 93.07C35.6967 92.8433 35.9367 92.5167 36.11 92.09C36.2833 91.6567 36.37 91.1267 36.37 90.5C36.37 89.8733 36.2833 89.3467 36.11 88.92C35.9367 88.4867 35.6967 88.16 35.39 87.94C35.0833 87.7133 34.7233 87.6 34.31 87.6C33.91 87.6 33.5533 87.7133 33.24 87.94C32.9267 88.16 32.6833 88.4867 32.51 88.92C32.3367 89.3467 32.25 89.8733 32.25 90.5C32.25 91.1267 32.3367 91.6567 32.51 92.09C32.6833 92.5167 32.9267 92.8433 33.24 93.07C33.5533 93.29 33.91 93.4 34.31 93.4Z" fill="#475569"/>
<rect width="96" height="6" rx="3" transform="matrix(-1 0 0 1 127 98)" fill="#FFDF63"/>
<rect x="211" y="82" width="132" height="32" rx="5" fill="#475569"/>
<path d="M218.368 102V93.6H219.256V102H218.368ZM225.025 95.64C225.537 95.64 225.985 95.74 226.369 95.94C226.761 96.132 227.065 96.428 227.281 96.828C227.505 97.228 227.617 97.732 227.617 98.34V102H226.765V98.424C226.765 97.76 226.597 97.26 226.261 96.924C225.933 96.58 225.469 96.408 224.869 96.408C224.421 96.408 224.029 96.5 223.693 96.684C223.365 96.86 223.109 97.12 222.925 97.464C222.749 97.8 222.661 98.208 222.661 98.688V102H221.809V95.7H222.625V97.428L222.493 97.104C222.693 96.648 223.013 96.292 223.453 96.036C223.893 95.772 224.417 95.64 225.025 95.64ZM233.17 102.06C232.626 102.06 232.134 101.936 231.694 101.688C231.254 101.432 230.902 101.068 230.638 100.596C230.382 100.116 230.254 99.532 230.254 98.844C230.254 98.156 230.382 97.576 230.638 97.104C230.894 96.624 231.242 96.26 231.682 96.012C232.122 95.764 232.618 95.64 233.17 95.64C233.77 95.64 234.306 95.776 234.778 96.048C235.258 96.312 235.634 96.688 235.906 97.176C236.178 97.656 236.314 98.212 236.314 98.844C236.314 99.484 236.178 100.044 235.906 100.524C235.634 101.004 235.258 101.38 234.778 101.652C234.306 101.924 233.77 102.06 233.17 102.06ZM229.918 104.328V95.7H230.734V97.596L230.65 98.856L230.77 100.128V104.328H229.918ZM233.11 101.304C233.558 101.304 233.958 101.204 234.31 101.004C234.662 100.796 234.942 100.508 235.15 100.14C235.358 99.764 235.462 99.332 235.462 98.844C235.462 98.356 235.358 97.928 235.15 97.56C234.942 97.192 234.662 96.904 234.31 96.696C233.958 96.488 233.558 96.384 233.11 96.384C232.662 96.384 232.258 96.488 231.898 96.696C231.546 96.904 231.266 97.192 231.058 97.56C230.858 97.928 230.758 98.356 230.758 98.844C230.758 99.332 230.858 99.764 231.058 100.14C231.266 100.508 231.546 100.796 231.898 101.004C232.258 101.204 232.662 101.304 233.11 101.304ZM240.655 102.06C240.119 102.06 239.651 101.96 239.251 101.76C238.851 101.56 238.539 101.26 238.315 100.86C238.099 100.46 237.991 99.96 237.991 99.36V95.7H238.843V99.264C238.843 99.936 239.007 100.444 239.335 100.788C239.671 101.124 240.139 101.292 240.739 101.292C241.179 101.292 241.559 101.204 241.879 101.028C242.207 100.844 242.455 100.58 242.623 100.236C242.799 99.892 242.887 99.48 242.887 99V95.7H243.739V102H242.923V100.272L243.055 100.584C242.855 101.048 242.543 101.412 242.119 101.676C241.703 101.932 241.215 102.06 240.655 102.06ZM248.106 102.06C247.514 102.06 247.058 101.9 246.738 101.58C246.418 101.26 246.258 100.808 246.258 100.224V94.308H247.11V100.176C247.11 100.544 247.202 100.828 247.386 101.028C247.578 101.228 247.85 101.328 248.202 101.328C248.578 101.328 248.89 101.22 249.138 101.004L249.438 101.616C249.27 101.768 249.066 101.88 248.826 101.952C248.594 102.024 248.354 102.06 248.106 102.06ZM245.13 96.408V95.7H249.03V96.408H245.13Z" fill="#1E293B"/>
<path d="M339 82H367C369.761 82 372 84.2386 372 87V109C372 111.761 369.761 114 367 114H339V82Z" fill="#334155"/>
<path d="M346.792 102.06C346.256 102.06 345.788 101.96 345.388 101.76C344.988 101.56 344.676 101.26 344.452 100.86C344.236 100.46 344.128 99.96 344.128 99.36V95.7H344.98V99.264C344.98 99.936 345.144 100.444 345.472 100.788C345.808 101.124 346.276 101.292 346.876 101.292C347.316 101.292 347.696 101.204 348.016 101.028C348.344 100.844 348.592 100.58 348.76 100.236C348.936 99.892 349.024 99.48 349.024 99V95.7H349.876V102H349.06V100.272L349.192 100.584C348.992 101.048 348.68 101.412 348.256 101.676C347.84 101.932 347.352 102.06 346.792 102.06ZM355.467 95.64C355.979 95.64 356.427 95.74 356.811 95.94C357.203 96.132 357.507 96.428 357.723 96.828C357.947 97.228 358.059 97.732 358.059 98.34V102H357.207V98.424C357.207 97.76 357.039 97.26 356.703 96.924C356.375 96.58 355.911 96.408 355.311 96.408C354.863 96.408 354.471 96.5 354.135 96.684C353.807 96.86 353.551 97.12 353.367 97.464C353.191 97.8 353.103 98.208 353.103 98.688V102H352.251V95.7H353.067V97.428L352.935 97.104C353.135 96.648 353.455 96.292 353.895 96.036C354.335 95.772 354.859 95.64 355.467 95.64ZM360.36 102V95.7H361.212V102H360.36ZM360.792 94.308C360.616 94.308 360.468 94.248 360.348 94.128C360.228 94.008 360.168 93.864 360.168 93.696C360.168 93.528 360.228 93.388 360.348 93.276C360.468 93.156 360.616 93.096 360.792 93.096C360.968 93.096 361.116 93.152 361.236 93.264C361.356 93.376 361.416 93.516 361.416 93.684C361.416 93.86 361.356 94.008 361.236 94.128C361.124 94.248 360.976 94.308 360.792 94.308ZM365.575 102.06C364.983 102.06 364.527 101.9 364.207 101.58C363.887 101.26 363.727 100.808 363.727 100.224V94.308H364.579V100.176C364.579 100.544 364.671 100.828 364.855 101.028C365.047 101.228 365.319 101.328 365.671 101.328C366.047 101.328 366.359 101.22 366.607 101.004L366.907 101.616C366.739 101.768 366.535 101.88 366.295 101.952C366.063 102.024 365.823 102.06 365.575 102.06ZM362.599 96.408V95.7H366.499V96.408H362.599Z" fill="#F9FAFB"/>
</svg>
