<svg width="238" height="250" viewBox="0 0 238 250" fill="none" xmlns="http://www.w3.org/2000/svg">
<rect x="0.5" y="0.5" width="237" height="249" rx="4.5" stroke="#9747FF" stroke-dasharray="10 5"/>
<rect x="19" y="20" width="4" height="48" rx="2" fill="#94A3B8"/>
<rect x="28" y="27" width="197" height="34" rx="5" fill="white"/>
<path d="M38 33.7143C38 33.2596 38.1806 32.8236 38.5021 32.5021C38.8236 32.1806 39.2596 32 39.7143 32H60.2857C60.7404 32 61.1764 32.1806 61.4979 32.5021C61.8194 32.8236 62 33.2596 62 33.7143V37.1429C62 37.5975 61.8194 38.0335 61.4979 38.355C61.1764 38.6765 60.7404 38.8571 60.2857 38.8571H39.7143C39.2596 38.8571 38.8236 38.6765 38.5021 38.355C38.1806 38.0335 38 37.5975 38 37.1429V33.7143ZM38 44C38 43.5453 38.1806 43.1093 38.5021 42.7878C38.8236 42.4663 39.2596 42.2857 39.7143 42.2857H50C50.4547 42.2857 50.8907 42.4663 51.2122 42.7878C51.5337 43.1093 51.7143 43.5453 51.7143 44V54.2857C51.7143 54.7404 51.5337 55.1764 51.2122 55.4979C50.8907 55.8194 50.4547 56 50 56H39.7143C39.2596 56 38.8236 55.8194 38.5021 55.4979C38.1806 55.1764 38 54.7404 38 54.2857V44ZM56.8571 42.2857C56.4025 42.2857 55.9665 42.4663 55.645 42.7878C55.3235 43.1093 55.1429 43.5453 55.1429 44V54.2857C55.1429 54.7404 55.3235 55.1764 55.645 55.4979C55.9665 55.8194 56.4025 56 56.8571 56H60.2857C60.7404 56 61.1764 55.8194 61.4979 55.4979C61.8194 55.1764 62 54.7404 62 54.2857V44C62 43.5453 61.8194 43.1093 61.4979 42.7878C61.1764 42.4663 60.7404 42.2857 60.2857 42.2857H56.8571Z" fill="#0F172A"/>
<path d="M73.368 48V39.6H76.788C77.684 39.6 78.468 39.78 79.14 40.14C79.82 40.492 80.348 40.984 80.724 41.616C81.1 42.248 81.288 42.976 81.288 43.8C81.288 44.624 81.1 45.352 80.724 45.984C80.348 46.616 79.82 47.112 79.14 47.472C78.468 47.824 77.684 48 76.788 48H73.368ZM74.256 47.232H76.74C77.484 47.232 78.128 47.088 78.672 46.8C79.224 46.504 79.652 46.1 79.956 45.588C80.26 45.068 80.412 44.472 80.412 43.8C80.412 43.12 80.26 42.524 79.956 42.012C79.652 41.5 79.224 41.1 78.672 40.812C78.128 40.516 77.484 40.368 76.74 40.368H74.256V47.232ZM85.7781 48.06C85.1221 48.06 84.5461 47.924 84.0501 47.652C83.5541 47.372 83.1661 46.992 82.8861 46.512C82.6061 46.024 82.4661 45.468 82.4661 44.844C82.4661 44.22 82.5981 43.668 82.8621 43.188C83.1341 42.708 83.5021 42.332 83.9661 42.06C84.4381 41.78 84.9661 41.64 85.5501 41.64C86.1421 41.64 86.6661 41.776 87.1221 42.048C87.5861 42.312 87.9501 42.688 88.2141 43.176C88.4781 43.656 88.6101 44.212 88.6101 44.844C88.6101 44.884 88.6061 44.928 88.5981 44.976C88.5981 45.016 88.5981 45.06 88.5981 45.108H83.1141V44.472H88.1421L87.8061 44.724C87.8061 44.268 87.7061 43.864 87.5061 43.512C87.3141 43.152 87.0501 42.872 86.7141 42.672C86.3781 42.472 85.9901 42.372 85.5501 42.372C85.1181 42.372 84.7301 42.472 84.3861 42.672C84.0421 42.872 83.7741 43.152 83.5821 43.512C83.3901 43.872 83.2941 44.284 83.2941 44.748V44.88C83.2941 45.36 83.3981 45.784 83.6061 46.152C83.8221 46.512 84.1181 46.796 84.4941 47.004C84.8781 47.204 85.3141 47.304 85.8021 47.304C86.1861 47.304 86.5421 47.236 86.8701 47.1C87.2061 46.964 87.4941 46.756 87.7341 46.476L88.2141 47.028C87.9341 47.364 87.5821 47.62 87.1581 47.796C86.7421 47.972 86.2821 48.06 85.7781 48.06ZM90.4883 48V40.908C90.4883 40.348 90.6523 39.896 90.9803 39.552C91.3083 39.208 91.7803 39.036 92.3963 39.036C92.6363 39.036 92.8683 39.068 93.0923 39.132C93.3163 39.196 93.5043 39.296 93.6563 39.432L93.3683 40.068C93.2483 39.964 93.1083 39.888 92.9483 39.84C92.7883 39.784 92.6163 39.756 92.4323 39.756C92.0723 39.756 91.7963 39.856 91.6043 40.056C91.4123 40.256 91.3163 40.552 91.3163 40.944V41.904L91.3403 42.3V48H90.4883ZM89.3603 42.408V41.7H93.2603V42.408H89.3603ZM98.2415 48V46.608L98.2055 46.38V44.052C98.2055 43.516 98.0535 43.104 97.7495 42.816C97.4535 42.528 97.0095 42.384 96.4175 42.384C96.0095 42.384 95.6215 42.452 95.2535 42.588C94.8855 42.724 94.5735 42.904 94.3175 43.128L93.9335 42.492C94.2535 42.22 94.6375 42.012 95.0855 41.868C95.5335 41.716 96.0055 41.64 96.5015 41.64C97.3175 41.64 97.9455 41.844 98.3855 42.252C98.8335 42.652 99.0575 43.264 99.0575 44.088V48H98.2415ZM96.0695 48.06C95.5975 48.06 95.1855 47.984 94.8335 47.832C94.4895 47.672 94.2255 47.456 94.0415 47.184C93.8575 46.904 93.7655 46.584 93.7655 46.224C93.7655 45.896 93.8415 45.6 93.9935 45.336C94.1535 45.064 94.4095 44.848 94.7615 44.688C95.1215 44.52 95.6015 44.436 96.2015 44.436H98.3735V45.072H96.2255C95.6175 45.072 95.1935 45.18 94.9535 45.396C94.7215 45.612 94.6055 45.88 94.6055 46.2C94.6055 46.56 94.7455 46.848 95.0255 47.064C95.3055 47.28 95.6975 47.388 96.2015 47.388C96.6815 47.388 97.0935 47.28 97.4375 47.064C97.7895 46.84 98.0455 46.52 98.2055 46.104L98.3975 46.692C98.2375 47.108 97.9575 47.44 97.5575 47.688C97.1655 47.936 96.6695 48.06 96.0695 48.06ZM103.976 48.06C103.44 48.06 102.972 47.96 102.572 47.76C102.172 47.56 101.86 47.26 101.636 46.86C101.42 46.46 101.312 45.96 101.312 45.36V41.7H102.164V45.264C102.164 45.936 102.328 46.444 102.656 46.788C102.992 47.124 103.46 47.292 104.06 47.292C104.5 47.292 104.88 47.204 105.2 47.028C105.528 46.844 105.776 46.58 105.944 46.236C106.12 45.892 106.208 45.48 106.208 45V41.7H107.06V48H106.244V46.272L106.376 46.584C106.176 47.048 105.864 47.412 105.44 47.676C105.024 47.932 104.536 48.06 103.976 48.06ZM109.434 48V39.096H110.286V48H109.434ZM114.684 48.06C114.092 48.06 113.636 47.9 113.316 47.58C112.996 47.26 112.836 46.808 112.836 46.224V40.308H113.688V46.176C113.688 46.544 113.78 46.828 113.964 47.028C114.156 47.228 114.428 47.328 114.78 47.328C115.156 47.328 115.468 47.22 115.716 47.004L116.016 47.616C115.848 47.768 115.644 47.88 115.404 47.952C115.172 48.024 114.932 48.06 114.684 48.06ZM111.708 42.408V41.7H115.608V42.408H111.708Z" fill="#0F172A"/>
<rect x="19" y="78" width="4" height="48" rx="2" fill="#334155"/>
<rect x="28" y="85" width="197" height="34" rx="5" fill="#334155"/>
<path d="M38 91.7143C38 91.2596 38.1806 90.8236 38.5021 90.5021C38.8236 90.1806 39.2596 90 39.7143 90H60.2857C60.7404 90 61.1764 90.1806 61.4979 90.5021C61.8194 90.8236 62 91.2596 62 91.7143V95.1429C62 95.5975 61.8194 96.0335 61.4979 96.355C61.1764 96.6765 60.7404 96.8571 60.2857 96.8571H39.7143C39.2596 96.8571 38.8236 96.6765 38.5021 96.355C38.1806 96.0335 38 95.5975 38 95.1429V91.7143ZM38 102C38 101.545 38.1806 101.109 38.5021 100.788C38.8236 100.466 39.2596 100.286 39.7143 100.286H50C50.4547 100.286 50.8907 100.466 51.2122 100.788C51.5337 101.109 51.7143 101.545 51.7143 102V112.286C51.7143 112.74 51.5337 113.176 51.2122 113.498C50.8907 113.819 50.4547 114 50 114H39.7143C39.2596 114 38.8236 113.819 38.5021 113.498C38.1806 113.176 38 112.74 38 112.286V102ZM56.8571 100.286C56.4025 100.286 55.9665 100.466 55.645 100.788C55.3235 101.109 55.1429 101.545 55.1429 102V112.286C55.1429 112.74 55.3235 113.176 55.645 113.498C55.9665 113.819 56.4025 114 56.8571 114H60.2857C60.7404 114 61.1764 113.819 61.4979 113.498C61.8194 113.176 62 112.74 62 112.286V102C62 101.545 61.8194 101.109 61.4979 100.788C61.1764 100.466 60.7404 100.286 60.2857 100.286H56.8571Z" fill="#FFDF63"/>
<path d="M73.368 106V97.6H76.788C77.684 97.6 78.468 97.78 79.14 98.14C79.82 98.492 80.348 98.984 80.724 99.616C81.1 100.248 81.288 100.976 81.288 101.8C81.288 102.624 81.1 103.352 80.724 103.984C80.348 104.616 79.82 105.112 79.14 105.472C78.468 105.824 77.684 106 76.788 106H73.368ZM74.256 105.232H76.74C77.484 105.232 78.128 105.088 78.672 104.8C79.224 104.504 79.652 104.1 79.956 103.588C80.26 103.068 80.412 102.472 80.412 101.8C80.412 101.12 80.26 100.524 79.956 100.012C79.652 99.5 79.224 99.1 78.672 98.812C78.128 98.516 77.484 98.368 76.74 98.368H74.256V105.232ZM85.7781 106.06C85.1221 106.06 84.5461 105.924 84.0501 105.652C83.5541 105.372 83.1661 104.992 82.8861 104.512C82.6061 104.024 82.4661 103.468 82.4661 102.844C82.4661 102.22 82.5981 101.668 82.8621 101.188C83.1341 100.708 83.5021 100.332 83.9661 100.06C84.4381 99.78 84.9661 99.64 85.5501 99.64C86.1421 99.64 86.6661 99.776 87.1221 100.048C87.5861 100.312 87.9501 100.688 88.2141 101.176C88.4781 101.656 88.6101 102.212 88.6101 102.844C88.6101 102.884 88.6061 102.928 88.5981 102.976C88.5981 103.016 88.5981 103.06 88.5981 103.108H83.1141V102.472H88.1421L87.8061 102.724C87.8061 102.268 87.7061 101.864 87.5061 101.512C87.3141 101.152 87.0501 100.872 86.7141 100.672C86.3781 100.472 85.9901 100.372 85.5501 100.372C85.1181 100.372 84.7301 100.472 84.3861 100.672C84.0421 100.872 83.7741 101.152 83.5821 101.512C83.3901 101.872 83.2941 102.284 83.2941 102.748V102.88C83.2941 103.36 83.3981 103.784 83.6061 104.152C83.8221 104.512 84.1181 104.796 84.4941 105.004C84.8781 105.204 85.3141 105.304 85.8021 105.304C86.1861 105.304 86.5421 105.236 86.8701 105.1C87.2061 104.964 87.4941 104.756 87.7341 104.476L88.2141 105.028C87.9341 105.364 87.5821 105.62 87.1581 105.796C86.7421 105.972 86.2821 106.06 85.7781 106.06ZM90.4883 106V98.908C90.4883 98.348 90.6523 97.896 90.9803 97.552C91.3083 97.208 91.7803 97.036 92.3963 97.036C92.6363 97.036 92.8683 97.068 93.0923 97.132C93.3163 97.196 93.5043 97.296 93.6563 97.432L93.3683 98.068C93.2483 97.964 93.1083 97.888 92.9483 97.84C92.7883 97.784 92.6163 97.756 92.4323 97.756C92.0723 97.756 91.7963 97.856 91.6043 98.056C91.4123 98.256 91.3163 98.552 91.3163 98.944V99.904L91.3403 100.3V106H90.4883ZM89.3603 100.408V99.7H93.2603V100.408H89.3603ZM98.2415 106V104.608L98.2055 104.38V102.052C98.2055 101.516 98.0535 101.104 97.7495 100.816C97.4535 100.528 97.0095 100.384 96.4175 100.384C96.0095 100.384 95.6215 100.452 95.2535 100.588C94.8855 100.724 94.5735 100.904 94.3175 101.128L93.9335 100.492C94.2535 100.22 94.6375 100.012 95.0855 99.868C95.5335 99.716 96.0055 99.64 96.5015 99.64C97.3175 99.64 97.9455 99.844 98.3855 100.252C98.8335 100.652 99.0575 101.264 99.0575 102.088V106H98.2415ZM96.0695 106.06C95.5975 106.06 95.1855 105.984 94.8335 105.832C94.4895 105.672 94.2255 105.456 94.0415 105.184C93.8575 104.904 93.7655 104.584 93.7655 104.224C93.7655 103.896 93.8415 103.6 93.9935 103.336C94.1535 103.064 94.4095 102.848 94.7615 102.688C95.1215 102.52 95.6015 102.436 96.2015 102.436H98.3735V103.072H96.2255C95.6175 103.072 95.1935 103.18 94.9535 103.396C94.7215 103.612 94.6055 103.88 94.6055 104.2C94.6055 104.56 94.7455 104.848 95.0255 105.064C95.3055 105.28 95.6975 105.388 96.2015 105.388C96.6815 105.388 97.0935 105.28 97.4375 105.064C97.7895 104.84 98.0455 104.52 98.2055 104.104L98.3975 104.692C98.2375 105.108 97.9575 105.44 97.5575 105.688C97.1655 105.936 96.6695 106.06 96.0695 106.06ZM103.976 106.06C103.44 106.06 102.972 105.96 102.572 105.76C102.172 105.56 101.86 105.26 101.636 104.86C101.42 104.46 101.312 103.96 101.312 103.36V99.7H102.164V103.264C102.164 103.936 102.328 104.444 102.656 104.788C102.992 105.124 103.46 105.292 104.06 105.292C104.5 105.292 104.88 105.204 105.2 105.028C105.528 104.844 105.776 104.58 105.944 104.236C106.12 103.892 106.208 103.48 106.208 103V99.7H107.06V106H106.244V104.272L106.376 104.584C106.176 105.048 105.864 105.412 105.44 105.676C105.024 105.932 104.536 106.06 103.976 106.06ZM109.434 106V97.096H110.286V106H109.434ZM114.684 106.06C114.092 106.06 113.636 105.9 113.316 105.58C112.996 105.26 112.836 104.808 112.836 104.224V98.308H113.688V104.176C113.688 104.544 113.78 104.828 113.964 105.028C114.156 105.228 114.428 105.328 114.78 105.328C115.156 105.328 115.468 105.22 115.716 105.004L116.016 105.616C115.848 105.768 115.644 105.88 115.404 105.952C115.172 106.024 114.932 106.06 114.684 106.06ZM111.708 100.408V99.7H115.608V100.408H111.708Z" fill="#FFDF63"/>
<rect x="19" y="140" width="36" height="34" rx="5" fill="white"/>
<path d="M25 146.714C25 146.26 25.1806 145.824 25.5021 145.502C25.8236 145.181 26.2596 145 26.7143 145H47.2857C47.7404 145 48.1764 145.181 48.4979 145.502C48.8194 145.824 49 146.26 49 146.714V150.143C49 150.598 48.8194 151.034 48.4979 151.355C48.1764 151.677 47.7404 151.857 47.2857 151.857H26.7143C26.2596 151.857 25.8236 151.677 25.5021 151.355C25.1806 151.034 25 150.598 25 150.143V146.714ZM25 157C25 156.545 25.1806 156.109 25.5021 155.788C25.8236 155.466 26.2596 155.286 26.7143 155.286H37C37.4547 155.286 37.8907 155.466 38.2122 155.788C38.5337 156.109 38.7143 156.545 38.7143 157V167.286C38.7143 167.74 38.5337 168.176 38.2122 168.498C37.8907 168.819 37.4547 169 37 169H26.7143C26.2596 169 25.8236 168.819 25.5021 168.498C25.1806 168.176 25 167.74 25 167.286V157ZM43.8571 155.286C43.4025 155.286 42.9665 155.466 42.645 155.788C42.3235 156.109 42.1429 156.545 42.1429 157V167.286C42.1429 167.74 42.3235 168.176 42.645 168.498C42.9665 168.819 43.4025 169 43.8571 169H47.2857C47.7404 169 48.1764 168.819 48.4979 168.498C48.8194 168.176 49 167.74 49 167.286V157C49 156.545 48.8194 156.109 48.4979 155.788C48.1764 155.466 47.7404 155.286 47.2857 155.286H43.8571Z" fill="#0F172A"/>
<rect x="19" y="192" width="36" height="34" rx="5" fill="#334155"/>
<path d="M25 198.714C25 198.26 25.1806 197.824 25.5021 197.502C25.8236 197.181 26.2596 197 26.7143 197H47.2857C47.7404 197 48.1764 197.181 48.4979 197.502C48.8194 197.824 49 198.26 49 198.714V202.143C49 202.598 48.8194 203.034 48.4979 203.355C48.1764 203.677 47.7404 203.857 47.2857 203.857H26.7143C26.2596 203.857 25.8236 203.677 25.5021 203.355C25.1806 203.034 25 202.598 25 202.143V198.714ZM25 209C25 208.545 25.1806 208.109 25.5021 207.788C25.8236 207.466 26.2596 207.286 26.7143 207.286H37C37.4547 207.286 37.8907 207.466 38.2122 207.788C38.5337 208.109 38.7143 208.545 38.7143 209V219.286C38.7143 219.74 38.5337 220.176 38.2122 220.498C37.8907 220.819 37.4547 221 37 221H26.7143C26.2596 221 25.8236 220.819 25.5021 220.498C25.1806 220.176 25 219.74 25 219.286V209ZM43.8571 207.286C43.4025 207.286 42.9665 207.466 42.645 207.788C42.3235 208.109 42.1429 208.545 42.1429 209V219.286C42.1429 219.74 42.3235 220.176 42.645 220.498C42.9665 220.819 43.4025 221 43.8571 221H47.2857C47.7404 221 48.1764 220.819 48.4979 220.498C48.8194 220.176 49 219.74 49 219.286V209C49 208.545 48.8194 208.109 48.4979 207.788C48.1764 207.466 47.7404 207.286 47.2857 207.286H43.8571Z" fill="#FFDF63"/>
</svg>
