<svg width="232" height="390" viewBox="0 0 232 390" fill="none" xmlns="http://www.w3.org/2000/svg">
<rect x="0.5" y="0.5" width="231" height="389" rx="4.5" stroke="#9747FF" stroke-dasharray="10 5"/>
<rect x="16" y="10" width="4" height="48" rx="2" fill="#94A3B8"/>
<rect x="25" y="17" width="197" height="34" rx="5" fill="white"/>
<path d="M51.8 29.2H42.2V38.8H51.8V29.2Z" fill="#0F172A"/>
<path fill-rule="evenodd" clip-rule="evenodd" d="M46.1 25.6V24.1C46.1 23.6029 46.503 23.2 47 23.2C47.4971 23.2 47.9 23.6029 47.9 24.1V25.6H49.7V24.1C49.7 23.6029 50.103 23.2 50.6 23.2C51.0971 23.2 51.5 23.6029 51.5 24.1V25.6H52.1C53.9226 25.6 55.4 27.0774 55.4 28.9V29.5H56.9C57.3971 29.5 57.8 29.9029 57.8 30.4C57.8 30.897 57.3971 31.3 56.9 31.3H55.4V33.1H56.9C57.3971 33.1 57.8 33.5029 57.8 34C57.8 34.497 57.3971 34.9 56.9 34.9H55.4V36.7H56.9C57.3971 36.7 57.8 37.1029 57.8 37.6C57.8 38.097 57.3971 38.5 56.9 38.5H55.4V39.0999C55.4 40.9225 53.9226 42.4 52.1 42.4H51.5V43.9C51.5 44.397 51.0971 44.7999 50.6 44.7999C50.103 44.7999 49.7 44.397 49.7 43.9V42.4H47.9V43.9C47.9 44.397 47.4971 44.7999 47 44.7999C46.503 44.7999 46.1 44.397 46.1 43.9V42.4H44.3V43.9C44.3 44.397 43.8971 44.7999 43.4 44.7999C42.903 44.7999 42.5 44.397 42.5 43.9V42.4H41.9C40.0775 42.4 38.6 40.9225 38.6 39.0999V38.5H37.1C36.603 38.5 36.2 38.097 36.2 37.6C36.2 37.1029 36.603 36.7 37.1 36.7H38.6V34.9H37.1C36.603 34.9 36.2 34.497 36.2 34C36.2 33.5029 36.603 33.1 37.1 33.1H38.6V31.3H37.1C36.603 31.3 36.2 30.897 36.2 30.4C36.2 29.9029 36.603 29.5 37.1 29.5H38.6V28.9C38.6 27.0774 40.0775 25.6 41.9 25.6H42.5V24.1C42.5 23.6029 42.903 23.2 43.4 23.2C43.8971 23.2 44.3 23.6029 44.3 24.1V25.6H46.1ZM40.4 28.9C40.4 28.0715 41.0716 27.4 41.9 27.4H52.1C52.9284 27.4 53.6 28.0715 53.6 28.9V39.0999C53.6 39.9284 52.9284 40.6 52.1 40.6H41.9C41.0716 40.6 40.4 39.9284 40.4 39.0999V28.9Z" fill="#0F172A"/>
<path d="M71.16 33.668H75.6V34.436H71.16V33.668ZM71.256 38H70.368V29.6H76.128V30.368H71.256V38ZM77.7818 38V31.7H78.6338V38H77.7818ZM78.2138 30.308C78.0378 30.308 77.8898 30.248 77.7698 30.128C77.6498 30.008 77.5898 29.864 77.5898 29.696C77.5898 29.528 77.6498 29.388 77.7698 29.276C77.8898 29.156 78.0378 29.096 78.2138 29.096C78.3898 29.096 78.5378 29.152 78.6578 29.264C78.7778 29.376 78.8378 29.516 78.8378 29.684C78.8378 29.86 78.7778 30.008 78.6578 30.128C78.5458 30.248 78.3978 30.308 78.2138 30.308ZM81.0044 38V31.7H81.8204V33.416L81.7364 33.116C81.9124 32.636 82.2084 32.272 82.6244 32.024C83.0404 31.768 83.5564 31.64 84.1724 31.64V32.468C84.1404 32.468 84.1084 32.468 84.0764 32.468C84.0444 32.46 84.0124 32.456 83.9804 32.456C83.3164 32.456 82.7964 32.66 82.4204 33.068C82.0444 33.468 81.8564 34.04 81.8564 34.784V38H81.0044ZM93.5991 31.64C94.1111 31.64 94.5551 31.74 94.9311 31.94C95.3151 32.132 95.6111 32.428 95.8191 32.828C96.0351 33.228 96.1431 33.732 96.1431 34.34V38H95.2911V34.424C95.2911 33.76 95.1311 33.26 94.8111 32.924C94.4991 32.58 94.0551 32.408 93.4791 32.408C93.0471 32.408 92.6711 32.5 92.3511 32.684C92.0391 32.86 91.7951 33.12 91.6191 33.464C91.4511 33.8 91.3671 34.208 91.3671 34.688V38H90.5151V34.424C90.5151 33.76 90.3551 33.26 90.0351 32.924C89.7151 32.58 89.2671 32.408 88.6911 32.408C88.2671 32.408 87.8951 32.5 87.5751 32.684C87.2551 32.86 87.0071 33.12 86.8311 33.464C86.6631 33.8 86.5791 34.208 86.5791 34.688V38H85.7271V31.7H86.5431V33.404L86.4111 33.104C86.6031 32.648 86.9111 32.292 87.3351 32.036C87.7671 31.772 88.2751 31.64 88.8591 31.64C89.4751 31.64 89.9991 31.796 90.4311 32.108C90.8631 32.412 91.1431 32.872 91.2711 33.488L90.9351 33.356C91.1191 32.844 91.4431 32.432 91.9071 32.12C92.3791 31.8 92.9431 31.64 93.5991 31.64ZM99.6204 38L97.2444 31.7H98.0604L100.22 37.544H99.8484L102.068 31.7H102.8L104.996 37.544H104.624L106.82 31.7H107.6L105.212 38H104.408L102.296 32.504H102.548L100.424 38H99.6204ZM112.644 38V36.608L112.608 36.38V34.052C112.608 33.516 112.456 33.104 112.152 32.816C111.856 32.528 111.412 32.384 110.82 32.384C110.412 32.384 110.024 32.452 109.656 32.588C109.288 32.724 108.976 32.904 108.72 33.128L108.336 32.492C108.656 32.22 109.04 32.012 109.488 31.868C109.936 31.716 110.408 31.64 110.904 31.64C111.72 31.64 112.348 31.844 112.788 32.252C113.236 32.652 113.46 33.264 113.46 34.088V38H112.644ZM110.472 38.06C110 38.06 109.588 37.984 109.236 37.832C108.892 37.672 108.628 37.456 108.444 37.184C108.26 36.904 108.168 36.584 108.168 36.224C108.168 35.896 108.244 35.6 108.396 35.336C108.556 35.064 108.812 34.848 109.164 34.688C109.524 34.52 110.004 34.436 110.604 34.436H112.776V35.072H110.628C110.02 35.072 109.596 35.18 109.356 35.396C109.124 35.612 109.008 35.88 109.008 36.2C109.008 36.56 109.148 36.848 109.428 37.064C109.708 37.28 110.1 37.388 110.604 37.388C111.084 37.388 111.496 37.28 111.84 37.064C112.192 36.84 112.448 36.52 112.608 36.104L112.8 36.692C112.64 37.108 112.36 37.44 111.96 37.688C111.568 37.936 111.072 38.06 110.472 38.06ZM115.774 38V31.7H116.59V33.416L116.506 33.116C116.682 32.636 116.978 32.272 117.394 32.024C117.81 31.768 118.326 31.64 118.942 31.64V32.468C118.91 32.468 118.878 32.468 118.846 32.468C118.814 32.46 118.782 32.456 118.75 32.456C118.086 32.456 117.566 32.66 117.19 33.068C116.814 33.468 116.626 34.04 116.626 34.784V38H115.774ZM123.114 38.06C122.458 38.06 121.882 37.924 121.386 37.652C120.89 37.372 120.502 36.992 120.222 36.512C119.942 36.024 119.802 35.468 119.802 34.844C119.802 34.22 119.934 33.668 120.198 33.188C120.47 32.708 120.838 32.332 121.302 32.06C121.774 31.78 122.302 31.64 122.886 31.64C123.478 31.64 124.002 31.776 124.458 32.048C124.922 32.312 125.286 32.688 125.55 33.176C125.814 33.656 125.946 34.212 125.946 34.844C125.946 34.884 125.942 34.928 125.934 34.976C125.934 35.016 125.934 35.06 125.934 35.108H120.45V34.472H125.478L125.142 34.724C125.142 34.268 125.042 33.864 124.842 33.512C124.65 33.152 124.386 32.872 124.05 32.672C123.714 32.472 123.326 32.372 122.886 32.372C122.454 32.372 122.066 32.472 121.722 32.672C121.378 32.872 121.11 33.152 120.918 33.512C120.726 33.872 120.63 34.284 120.63 34.748V34.88C120.63 35.36 120.734 35.784 120.942 36.152C121.158 36.512 121.454 36.796 121.83 37.004C122.214 37.204 122.65 37.304 123.138 37.304C123.522 37.304 123.878 37.236 124.206 37.1C124.542 36.964 124.83 36.756 125.07 36.476L125.55 37.028C125.27 37.364 124.918 37.62 124.494 37.796C124.078 37.972 123.618 38.06 123.114 38.06Z" fill="#0F172A"/>
<rect x="16" y="53" width="4" height="48" rx="2" fill="#94A3B8"/>
<rect x="25" y="60" width="197" height="34" rx="5" fill="white"/>
<path d="M38.375 84.5H55.625M38.375 84.5C37.7537 84.5 37.25 83.9963 37.25 83.375M38.375 84.5H45.875C46.4963 84.5 47 83.9963 47 83.375M37.25 83.375V70.625M37.25 83.375V81.875C37.25 81.2537 37.7537 80.75 38.375 80.75M56.75 83.375V70.625M56.75 83.375C56.75 83.9963 56.2463 84.5 55.625 84.5M56.75 83.375V81.875C56.75 81.2537 56.2463 80.75 55.625 80.75M55.625 84.5H48.125C47.5037 84.5 47 83.9963 47 83.375M56.75 70.625C56.75 70.0037 56.2463 69.5 55.625 69.5H38.375C37.7537 69.5 37.25 70.0037 37.25 70.625M56.75 70.625V72.125C56.75 72.7463 56.2463 73.25 55.625 73.25M37.25 70.625V72.125C37.25 72.7463 37.7537 73.25 38.375 73.25M38.375 73.25H55.625M38.375 73.25H45.875C46.4963 73.25 47 73.7537 47 74.375M38.375 73.25C37.7537 73.25 37.25 73.7537 37.25 74.375V75.875C37.25 76.4963 37.7537 77 38.375 77M55.625 73.25H48.125C47.5037 73.25 47 73.7537 47 74.375M55.625 73.25C56.2463 73.25 56.75 73.7537 56.75 74.375V75.875C56.75 76.4963 56.2463 77 55.625 77M38.375 77H45.875M38.375 77C37.7537 77 37.25 77.5037 37.25 78.125V79.625C37.25 80.2463 37.7537 80.75 38.375 80.75M47 75.875V74.375M47 75.875C47 76.4963 46.4963 77 45.875 77M47 75.875C47 76.4963 47.5037 77 48.125 77M45.875 77C46.4963 77 47 77.5037 47 78.125M48.125 77H55.625M48.125 77C47.5037 77 47 77.5037 47 78.125M55.625 77C56.2463 77 56.75 77.5037 56.75 78.125V79.625C56.75 80.2463 56.2463 80.75 55.625 80.75M38.375 80.75H45.875M47 79.625V78.125M47 79.625C47 80.2463 46.4963 80.75 45.875 80.75M47 79.625C47 80.2463 47.5037 80.75 48.125 80.75M45.875 80.75C46.4963 80.75 47 81.2537 47 81.875M47 83.375V81.875M47 81.875C47 81.2537 47.5037 80.75 48.125 80.75M48.125 80.75H55.625" stroke="#0F172A" stroke-width="1.5" stroke-linecap="round" stroke-linejoin="round"/>
<path d="M70.368 81V72.6H71.256V80.232H75.96V81H70.368ZM79.7287 81.06C79.1207 81.06 78.5727 80.924 78.0847 80.652C77.6047 80.372 77.2247 79.992 76.9447 79.512C76.6647 79.024 76.5247 78.468 76.5247 77.844C76.5247 77.212 76.6647 76.656 76.9447 76.176C77.2247 75.696 77.6047 75.32 78.0847 75.048C78.5647 74.776 79.1127 74.64 79.7287 74.64C80.3527 74.64 80.9047 74.776 81.3847 75.048C81.8727 75.32 82.2527 75.696 82.5247 76.176C82.8047 76.656 82.9447 77.212 82.9447 77.844C82.9447 78.468 82.8047 79.024 82.5247 79.512C82.2527 79.992 81.8727 80.372 81.3847 80.652C80.8967 80.924 80.3447 81.06 79.7287 81.06ZM79.7287 80.304C80.1847 80.304 80.5887 80.204 80.9407 80.004C81.2927 79.796 81.5687 79.508 81.7687 79.14C81.9767 78.764 82.0807 78.332 82.0807 77.844C82.0807 77.348 81.9767 76.916 81.7687 76.548C81.5687 76.18 81.2927 75.896 80.9407 75.696C80.5887 75.488 80.1887 75.384 79.7407 75.384C79.2927 75.384 78.8927 75.488 78.5407 75.696C78.1887 75.896 77.9087 76.18 77.7007 76.548C77.4927 76.916 77.3887 77.348 77.3887 77.844C77.3887 78.332 77.4927 78.764 77.7007 79.14C77.9087 79.508 78.1887 79.796 78.5407 80.004C78.8927 80.204 79.2887 80.304 79.7287 80.304ZM87.3721 83.388C86.7961 83.388 86.2441 83.304 85.7161 83.136C85.1881 82.968 84.7601 82.728 84.4321 82.416L84.8641 81.768C85.1601 82.032 85.5241 82.24 85.9561 82.392C86.3961 82.552 86.8601 82.632 87.3481 82.632C88.1481 82.632 88.7361 82.444 89.1121 82.068C89.4881 81.7 89.6761 81.124 89.6761 80.34V78.768L89.7961 77.688L89.7121 76.608V74.7H90.5281V80.232C90.5281 81.32 90.2601 82.116 89.7241 82.62C89.1961 83.132 88.4121 83.388 87.3721 83.388ZM87.2161 80.76C86.6161 80.76 86.0761 80.632 85.5961 80.376C85.1161 80.112 84.7361 79.748 84.4561 79.284C84.1841 78.82 84.0481 78.288 84.0481 77.688C84.0481 77.088 84.1841 76.56 84.4561 76.104C84.7361 75.64 85.1161 75.28 85.5961 75.024C86.0761 74.768 86.6161 74.64 87.2161 74.64C87.7761 74.64 88.2801 74.756 88.7281 74.988C89.1761 75.22 89.5321 75.564 89.7961 76.02C90.0601 76.476 90.1921 77.032 90.1921 77.688C90.1921 78.344 90.0601 78.9 89.7961 79.356C89.5321 79.812 89.1761 80.16 88.7281 80.4C88.2801 80.64 87.7761 80.76 87.2161 80.76ZM87.3001 80.004C87.7641 80.004 88.1761 79.908 88.5361 79.716C88.8961 79.516 89.1801 79.244 89.3881 78.9C89.5961 78.548 89.7001 78.144 89.7001 77.688C89.7001 77.232 89.5961 76.832 89.3881 76.488C89.1801 76.144 88.8961 75.876 88.5361 75.684C88.1761 75.484 87.7641 75.384 87.3001 75.384C86.8441 75.384 86.4321 75.484 86.0641 75.684C85.7041 75.876 85.4201 76.144 85.2121 76.488C85.0121 76.832 84.9121 77.232 84.9121 77.688C84.9121 78.144 85.0121 78.548 85.2121 78.9C85.4201 79.244 85.7041 79.516 86.0641 79.716C86.4321 79.908 86.8441 80.004 87.3001 80.004ZM94.5909 81.06C94.0709 81.06 93.5789 80.988 93.1149 80.844C92.6509 80.692 92.2869 80.504 92.0229 80.28L92.4069 79.608C92.6629 79.8 92.9909 79.968 93.3909 80.112C93.7909 80.248 94.2109 80.316 94.6509 80.316C95.2509 80.316 95.6829 80.224 95.9469 80.04C96.2109 79.848 96.3429 79.596 96.3429 79.284C96.3429 79.052 96.2669 78.872 96.1149 78.744C95.9709 78.608 95.7789 78.508 95.5389 78.444C95.2989 78.372 95.0309 78.312 94.7349 78.264C94.4389 78.216 94.1429 78.16 93.8469 78.096C93.5589 78.032 93.2949 77.94 93.0549 77.82C92.8149 77.692 92.6189 77.52 92.4669 77.304C92.3229 77.088 92.2509 76.8 92.2509 76.44C92.2509 76.096 92.3469 75.788 92.5389 75.516C92.7309 75.244 93.0109 75.032 93.3789 74.88C93.7549 74.72 94.2109 74.64 94.7469 74.64C95.1549 74.64 95.5629 74.696 95.9709 74.808C96.3789 74.912 96.7149 75.052 96.9789 75.228L96.6069 75.912C96.3269 75.72 96.0269 75.584 95.7069 75.504C95.3869 75.416 95.0669 75.372 94.7469 75.372C94.1789 75.372 93.7589 75.472 93.4869 75.672C93.2229 75.864 93.0909 76.112 93.0909 76.416C93.0909 76.656 93.1629 76.844 93.3069 76.98C93.4589 77.116 93.6549 77.224 93.8949 77.304C94.1429 77.376 94.4109 77.436 94.6989 77.484C94.9949 77.532 95.2869 77.592 95.5749 77.664C95.8709 77.728 96.1389 77.82 96.3789 77.94C96.6269 78.052 96.8229 78.216 96.9669 78.432C97.1189 78.64 97.1949 78.916 97.1949 79.26C97.1949 79.628 97.0909 79.948 96.8829 80.22C96.6829 80.484 96.3869 80.692 95.9949 80.844C95.6109 80.988 95.1429 81.06 94.5909 81.06Z" fill="#0F172A"/>
<rect x="16" y="111" width="4" height="48" rx="2" fill="#334155"/>
<rect x="25" y="118" width="197" height="34" rx="5" fill="#334155"/>
<path d="M51.8 130.2H42.2V139.8H51.8V130.2Z" fill="#FFDF63"/>
<path fill-rule="evenodd" clip-rule="evenodd" d="M46.1 126.6V125.1C46.1 124.603 46.503 124.2 47 124.2C47.4971 124.2 47.9 124.603 47.9 125.1V126.6H49.7V125.1C49.7 124.603 50.103 124.2 50.6 124.2C51.0971 124.2 51.5 124.603 51.5 125.1V126.6H52.1C53.9226 126.6 55.4 128.077 55.4 129.9V130.5H56.9C57.3971 130.5 57.8 130.903 57.8 131.4C57.8 131.897 57.3971 132.3 56.9 132.3H55.4V134.1H56.9C57.3971 134.1 57.8 134.503 57.8 135C57.8 135.497 57.3971 135.9 56.9 135.9H55.4V137.7H56.9C57.3971 137.7 57.8 138.103 57.8 138.6C57.8 139.097 57.3971 139.5 56.9 139.5H55.4V140.1C55.4 141.922 53.9226 143.4 52.1 143.4H51.5V144.9C51.5 145.397 51.0971 145.8 50.6 145.8C50.103 145.8 49.7 145.397 49.7 144.9V143.4H47.9V144.9C47.9 145.397 47.4971 145.8 47 145.8C46.503 145.8 46.1 145.397 46.1 144.9V143.4H44.3V144.9C44.3 145.397 43.8971 145.8 43.4 145.8C42.903 145.8 42.5 145.397 42.5 144.9V143.4H41.9C40.0775 143.4 38.6 141.922 38.6 140.1V139.5H37.1C36.603 139.5 36.2 139.097 36.2 138.6C36.2 138.103 36.603 137.7 37.1 137.7H38.6V135.9H37.1C36.603 135.9 36.2 135.497 36.2 135C36.2 134.503 36.603 134.1 37.1 134.1H38.6V132.3H37.1C36.603 132.3 36.2 131.897 36.2 131.4C36.2 130.903 36.603 130.5 37.1 130.5H38.6V129.9C38.6 128.077 40.0775 126.6 41.9 126.6H42.5V125.1C42.5 124.603 42.903 124.2 43.4 124.2C43.8971 124.2 44.3 124.603 44.3 125.1V126.6H46.1ZM40.4 129.9C40.4 129.072 41.0716 128.4 41.9 128.4H52.1C52.9284 128.4 53.6 129.072 53.6 129.9V140.1C53.6 140.928 52.9284 141.6 52.1 141.6H41.9C41.0716 141.6 40.4 140.928 40.4 140.1V129.9Z" fill="#FFDF63"/>
<path d="M71.16 134.668H75.6V135.436H71.16V134.668ZM71.256 139H70.368V130.6H76.128V131.368H71.256V139ZM77.7818 139V132.7H78.6338V139H77.7818ZM78.2138 131.308C78.0378 131.308 77.8898 131.248 77.7698 131.128C77.6498 131.008 77.5898 130.864 77.5898 130.696C77.5898 130.528 77.6498 130.388 77.7698 130.276C77.8898 130.156 78.0378 130.096 78.2138 130.096C78.3898 130.096 78.5378 130.152 78.6578 130.264C78.7778 130.376 78.8378 130.516 78.8378 130.684C78.8378 130.86 78.7778 131.008 78.6578 131.128C78.5458 131.248 78.3978 131.308 78.2138 131.308ZM81.0044 139V132.7H81.8204V134.416L81.7364 134.116C81.9124 133.636 82.2084 133.272 82.6244 133.024C83.0404 132.768 83.5564 132.64 84.1724 132.64V133.468C84.1404 133.468 84.1084 133.468 84.0764 133.468C84.0444 133.46 84.0124 133.456 83.9804 133.456C83.3164 133.456 82.7964 133.66 82.4204 134.068C82.0444 134.468 81.8564 135.04 81.8564 135.784V139H81.0044ZM93.5991 132.64C94.1111 132.64 94.5551 132.74 94.9311 132.94C95.3151 133.132 95.6111 133.428 95.8191 133.828C96.0351 134.228 96.1431 134.732 96.1431 135.34V139H95.2911V135.424C95.2911 134.76 95.1311 134.26 94.8111 133.924C94.4991 133.58 94.0551 133.408 93.4791 133.408C93.0471 133.408 92.6711 133.5 92.3511 133.684C92.0391 133.86 91.7951 134.12 91.6191 134.464C91.4511 134.8 91.3671 135.208 91.3671 135.688V139H90.5151V135.424C90.5151 134.76 90.3551 134.26 90.0351 133.924C89.7151 133.58 89.2671 133.408 88.6911 133.408C88.2671 133.408 87.8951 133.5 87.5751 133.684C87.2551 133.86 87.0071 134.12 86.8311 134.464C86.6631 134.8 86.5791 135.208 86.5791 135.688V139H85.7271V132.7H86.5431V134.404L86.4111 134.104C86.6031 133.648 86.9111 133.292 87.3351 133.036C87.7671 132.772 88.2751 132.64 88.8591 132.64C89.4751 132.64 89.9991 132.796 90.4311 133.108C90.8631 133.412 91.1431 133.872 91.2711 134.488L90.9351 134.356C91.1191 133.844 91.4431 133.432 91.9071 133.12C92.3791 132.8 92.9431 132.64 93.5991 132.64ZM99.6204 139L97.2444 132.7H98.0604L100.22 138.544H99.8484L102.068 132.7H102.8L104.996 138.544H104.624L106.82 132.7H107.6L105.212 139H104.408L102.296 133.504H102.548L100.424 139H99.6204ZM112.644 139V137.608L112.608 137.38V135.052C112.608 134.516 112.456 134.104 112.152 133.816C111.856 133.528 111.412 133.384 110.82 133.384C110.412 133.384 110.024 133.452 109.656 133.588C109.288 133.724 108.976 133.904 108.72 134.128L108.336 133.492C108.656 133.22 109.04 133.012 109.488 132.868C109.936 132.716 110.408 132.64 110.904 132.64C111.72 132.64 112.348 132.844 112.788 133.252C113.236 133.652 113.46 134.264 113.46 135.088V139H112.644ZM110.472 139.06C110 139.06 109.588 138.984 109.236 138.832C108.892 138.672 108.628 138.456 108.444 138.184C108.26 137.904 108.168 137.584 108.168 137.224C108.168 136.896 108.244 136.6 108.396 136.336C108.556 136.064 108.812 135.848 109.164 135.688C109.524 135.52 110.004 135.436 110.604 135.436H112.776V136.072H110.628C110.02 136.072 109.596 136.18 109.356 136.396C109.124 136.612 109.008 136.88 109.008 137.2C109.008 137.56 109.148 137.848 109.428 138.064C109.708 138.28 110.1 138.388 110.604 138.388C111.084 138.388 111.496 138.28 111.84 138.064C112.192 137.84 112.448 137.52 112.608 137.104L112.8 137.692C112.64 138.108 112.36 138.44 111.96 138.688C111.568 138.936 111.072 139.06 110.472 139.06ZM115.774 139V132.7H116.59V134.416L116.506 134.116C116.682 133.636 116.978 133.272 117.394 133.024C117.81 132.768 118.326 132.64 118.942 132.64V133.468C118.91 133.468 118.878 133.468 118.846 133.468C118.814 133.46 118.782 133.456 118.75 133.456C118.086 133.456 117.566 133.66 117.19 134.068C116.814 134.468 116.626 135.04 116.626 135.784V139H115.774ZM123.114 139.06C122.458 139.06 121.882 138.924 121.386 138.652C120.89 138.372 120.502 137.992 120.222 137.512C119.942 137.024 119.802 136.468 119.802 135.844C119.802 135.22 119.934 134.668 120.198 134.188C120.47 133.708 120.838 133.332 121.302 133.06C121.774 132.78 122.302 132.64 122.886 132.64C123.478 132.64 124.002 132.776 124.458 133.048C124.922 133.312 125.286 133.688 125.55 134.176C125.814 134.656 125.946 135.212 125.946 135.844C125.946 135.884 125.942 135.928 125.934 135.976C125.934 136.016 125.934 136.06 125.934 136.108H120.45V135.472H125.478L125.142 135.724C125.142 135.268 125.042 134.864 124.842 134.512C124.65 134.152 124.386 133.872 124.05 133.672C123.714 133.472 123.326 133.372 122.886 133.372C122.454 133.372 122.066 133.472 121.722 133.672C121.378 133.872 121.11 134.152 120.918 134.512C120.726 134.872 120.63 135.284 120.63 135.748V135.88C120.63 136.36 120.734 136.784 120.942 137.152C121.158 137.512 121.454 137.796 121.83 138.004C122.214 138.204 122.65 138.304 123.138 138.304C123.522 138.304 123.878 138.236 124.206 138.1C124.542 137.964 124.83 137.756 125.07 137.476L125.55 138.028C125.27 138.364 124.918 138.62 124.494 138.796C124.078 138.972 123.618 139.06 123.114 139.06Z" fill="#FFDF63"/>
<rect x="16" y="154" width="4" height="48" rx="2" fill="#334155"/>
<rect x="25" y="161" width="197" height="34" rx="5" fill="#334155"/>
<path d="M38.375 185.5H55.625M38.375 185.5C37.7537 185.5 37.25 184.996 37.25 184.375M38.375 185.5H45.875C46.4963 185.5 47 184.996 47 184.375M37.25 184.375V171.625M37.25 184.375V182.875C37.25 182.254 37.7537 181.75 38.375 181.75M56.75 184.375V171.625M56.75 184.375C56.75 184.996 56.2463 185.5 55.625 185.5M56.75 184.375V182.875C56.75 182.254 56.2463 181.75 55.625 181.75M55.625 185.5H48.125C47.5037 185.5 47 184.996 47 184.375M56.75 171.625C56.75 171.004 56.2463 170.5 55.625 170.5H38.375C37.7537 170.5 37.25 171.004 37.25 171.625M56.75 171.625V173.125C56.75 173.746 56.2463 174.25 55.625 174.25M37.25 171.625V173.125C37.25 173.746 37.7537 174.25 38.375 174.25M38.375 174.25H55.625M38.375 174.25H45.875C46.4963 174.25 47 174.754 47 175.375M38.375 174.25C37.7537 174.25 37.25 174.754 37.25 175.375V176.875C37.25 177.496 37.7537 178 38.375 178M55.625 174.25H48.125C47.5037 174.25 47 174.754 47 175.375M55.625 174.25C56.2463 174.25 56.75 174.754 56.75 175.375V176.875C56.75 177.496 56.2463 178 55.625 178M38.375 178H45.875M38.375 178C37.7537 178 37.25 178.504 37.25 179.125V180.625C37.25 181.246 37.7537 181.75 38.375 181.75M47 176.875V175.375M47 176.875C47 177.496 46.4963 178 45.875 178M47 176.875C47 177.496 47.5037 178 48.125 178M45.875 178C46.4963 178 47 178.504 47 179.125M48.125 178H55.625M48.125 178C47.5037 178 47 178.504 47 179.125M55.625 178C56.2463 178 56.75 178.504 56.75 179.125V180.625C56.75 181.246 56.2463 181.75 55.625 181.75M38.375 181.75H45.875M47 180.625V179.125M47 180.625C47 181.246 46.4963 181.75 45.875 181.75M47 180.625C47 181.246 47.5037 181.75 48.125 181.75M45.875 181.75C46.4963 181.75 47 182.254 47 182.875M47 184.375V182.875M47 182.875C47 182.254 47.5037 181.75 48.125 181.75M48.125 181.75H55.625" stroke="#FFDF63" stroke-width="1.5" stroke-linecap="round" stroke-linejoin="round"/>
<path d="M70.368 182V173.6H71.256V181.232H75.96V182H70.368ZM79.7287 182.06C79.1207 182.06 78.5727 181.924 78.0847 181.652C77.6047 181.372 77.2247 180.992 76.9447 180.512C76.6647 180.024 76.5247 179.468 76.5247 178.844C76.5247 178.212 76.6647 177.656 76.9447 177.176C77.2247 176.696 77.6047 176.32 78.0847 176.048C78.5647 175.776 79.1127 175.64 79.7287 175.64C80.3527 175.64 80.9047 175.776 81.3847 176.048C81.8727 176.32 82.2527 176.696 82.5247 177.176C82.8047 177.656 82.9447 178.212 82.9447 178.844C82.9447 179.468 82.8047 180.024 82.5247 180.512C82.2527 180.992 81.8727 181.372 81.3847 181.652C80.8967 181.924 80.3447 182.06 79.7287 182.06ZM79.7287 181.304C80.1847 181.304 80.5887 181.204 80.9407 181.004C81.2927 180.796 81.5687 180.508 81.7687 180.14C81.9767 179.764 82.0807 179.332 82.0807 178.844C82.0807 178.348 81.9767 177.916 81.7687 177.548C81.5687 177.18 81.2927 176.896 80.9407 176.696C80.5887 176.488 80.1887 176.384 79.7407 176.384C79.2927 176.384 78.8927 176.488 78.5407 176.696C78.1887 176.896 77.9087 177.18 77.7007 177.548C77.4927 177.916 77.3887 178.348 77.3887 178.844C77.3887 179.332 77.4927 179.764 77.7007 180.14C77.9087 180.508 78.1887 180.796 78.5407 181.004C78.8927 181.204 79.2887 181.304 79.7287 181.304ZM87.3721 184.388C86.7961 184.388 86.2441 184.304 85.7161 184.136C85.1881 183.968 84.7601 183.728 84.4321 183.416L84.8641 182.768C85.1601 183.032 85.5241 183.24 85.9561 183.392C86.3961 183.552 86.8601 183.632 87.3481 183.632C88.1481 183.632 88.7361 183.444 89.1121 183.068C89.4881 182.7 89.6761 182.124 89.6761 181.34V179.768L89.7961 178.688L89.7121 177.608V175.7H90.5281V181.232C90.5281 182.32 90.2601 183.116 89.7241 183.62C89.1961 184.132 88.4121 184.388 87.3721 184.388ZM87.2161 181.76C86.6161 181.76 86.0761 181.632 85.5961 181.376C85.1161 181.112 84.7361 180.748 84.4561 180.284C84.1841 179.82 84.0481 179.288 84.0481 178.688C84.0481 178.088 84.1841 177.56 84.4561 177.104C84.7361 176.64 85.1161 176.28 85.5961 176.024C86.0761 175.768 86.6161 175.64 87.2161 175.64C87.7761 175.64 88.2801 175.756 88.7281 175.988C89.1761 176.22 89.5321 176.564 89.7961 177.02C90.0601 177.476 90.1921 178.032 90.1921 178.688C90.1921 179.344 90.0601 179.9 89.7961 180.356C89.5321 180.812 89.1761 181.16 88.7281 181.4C88.2801 181.64 87.7761 181.76 87.2161 181.76ZM87.3001 181.004C87.7641 181.004 88.1761 180.908 88.5361 180.716C88.8961 180.516 89.1801 180.244 89.3881 179.9C89.5961 179.548 89.7001 179.144 89.7001 178.688C89.7001 178.232 89.5961 177.832 89.3881 177.488C89.1801 177.144 88.8961 176.876 88.5361 176.684C88.1761 176.484 87.7641 176.384 87.3001 176.384C86.8441 176.384 86.4321 176.484 86.0641 176.684C85.7041 176.876 85.4201 177.144 85.2121 177.488C85.0121 177.832 84.9121 178.232 84.9121 178.688C84.9121 179.144 85.0121 179.548 85.2121 179.9C85.4201 180.244 85.7041 180.516 86.0641 180.716C86.4321 180.908 86.8441 181.004 87.3001 181.004ZM94.5909 182.06C94.0709 182.06 93.5789 181.988 93.1149 181.844C92.6509 181.692 92.2869 181.504 92.0229 181.28L92.4069 180.608C92.6629 180.8 92.9909 180.968 93.3909 181.112C93.7909 181.248 94.2109 181.316 94.6509 181.316C95.2509 181.316 95.6829 181.224 95.9469 181.04C96.2109 180.848 96.3429 180.596 96.3429 180.284C96.3429 180.052 96.2669 179.872 96.1149 179.744C95.9709 179.608 95.7789 179.508 95.5389 179.444C95.2989 179.372 95.0309 179.312 94.7349 179.264C94.4389 179.216 94.1429 179.16 93.8469 179.096C93.5589 179.032 93.2949 178.94 93.0549 178.82C92.8149 178.692 92.6189 178.52 92.4669 178.304C92.3229 178.088 92.2509 177.8 92.2509 177.44C92.2509 177.096 92.3469 176.788 92.5389 176.516C92.7309 176.244 93.0109 176.032 93.3789 175.88C93.7549 175.72 94.2109 175.64 94.7469 175.64C95.1549 175.64 95.5629 175.696 95.9709 175.808C96.3789 175.912 96.7149 176.052 96.9789 176.228L96.6069 176.912C96.3269 176.72 96.0269 176.584 95.7069 176.504C95.3869 176.416 95.0669 176.372 94.7469 176.372C94.1789 176.372 93.7589 176.472 93.4869 176.672C93.2229 176.864 93.0909 177.112 93.0909 177.416C93.0909 177.656 93.1629 177.844 93.3069 177.98C93.4589 178.116 93.6549 178.224 93.8949 178.304C94.1429 178.376 94.4109 178.436 94.6989 178.484C94.9949 178.532 95.2869 178.592 95.5749 178.664C95.8709 178.728 96.1389 178.82 96.3789 178.94C96.6269 179.052 96.8229 179.216 96.9669 179.432C97.1189 179.64 97.1949 179.916 97.1949 180.26C97.1949 180.628 97.0909 180.948 96.8829 181.22C96.6829 181.484 96.3869 181.692 95.9949 181.844C95.6109 181.988 95.1429 182.06 94.5909 182.06Z" fill="#FFDF63"/>
<rect x="16" y="216" width="36" height="34" rx="5" fill="white"/>
<path d="M38.8 228.2H29.2V237.8H38.8V228.2Z" fill="#0F172A"/>
<path fill-rule="evenodd" clip-rule="evenodd" d="M33.1 224.6V223.1C33.1 222.603 33.503 222.2 34 222.2C34.4971 222.2 34.9 222.603 34.9 223.1V224.6H36.7V223.1C36.7 222.603 37.103 222.2 37.6 222.2C38.0971 222.2 38.5 222.603 38.5 223.1V224.6H39.1C40.9226 224.6 42.4 226.077 42.4 227.9V228.5H43.9C44.3971 228.5 44.8 228.903 44.8 229.4C44.8 229.897 44.3971 230.3 43.9 230.3H42.4V232.1H43.9C44.3971 232.1 44.8 232.503 44.8 233C44.8 233.497 44.3971 233.9 43.9 233.9H42.4V235.7H43.9C44.3971 235.7 44.8 236.103 44.8 236.6C44.8 237.097 44.3971 237.5 43.9 237.5H42.4V238.1C42.4 239.922 40.9226 241.4 39.1 241.4H38.5V242.9C38.5 243.397 38.0971 243.8 37.6 243.8C37.103 243.8 36.7 243.397 36.7 242.9V241.4H34.9V242.9C34.9 243.397 34.4971 243.8 34 243.8C33.503 243.8 33.1 243.397 33.1 242.9V241.4H31.3V242.9C31.3 243.397 30.8971 243.8 30.4 243.8C29.903 243.8 29.5 243.397 29.5 242.9V241.4H28.9C27.0775 241.4 25.6 239.922 25.6 238.1V237.5H24.1C23.603 237.5 23.2 237.097 23.2 236.6C23.2 236.103 23.603 235.7 24.1 235.7H25.6V233.9H24.1C23.603 233.9 23.2 233.497 23.2 233C23.2 232.503 23.603 232.1 24.1 232.1H25.6V230.3H24.1C23.603 230.3 23.2 229.897 23.2 229.4C23.2 228.903 23.603 228.5 24.1 228.5H25.6V227.9C25.6 226.077 27.0775 224.6 28.9 224.6H29.5V223.1C29.5 222.603 29.903 222.2 30.4 222.2C30.8971 222.2 31.3 222.603 31.3 223.1V224.6H33.1ZM27.4 227.9C27.4 227.072 28.0716 226.4 28.9 226.4H39.1C39.9284 226.4 40.6 227.072 40.6 227.9V238.1C40.6 238.928 39.9284 239.6 39.1 239.6H28.9C28.0716 239.6 27.4 238.928 27.4 238.1V227.9Z" fill="#0F172A"/>
<rect x="16" y="253" width="36" height="34" rx="5" fill="white"/>
<path d="M25.375 277.5H42.625M25.375 277.5C24.7537 277.5 24.25 276.996 24.25 276.375M25.375 277.5H32.875C33.4963 277.5 34 276.996 34 276.375M24.25 276.375V263.625M24.25 276.375V274.875C24.25 274.254 24.7537 273.75 25.375 273.75M43.75 276.375V263.625M43.75 276.375C43.75 276.996 43.2463 277.5 42.625 277.5M43.75 276.375V274.875C43.75 274.254 43.2463 273.75 42.625 273.75M42.625 277.5H35.125C34.5037 277.5 34 276.996 34 276.375M43.75 263.625C43.75 263.004 43.2463 262.5 42.625 262.5H25.375C24.7537 262.5 24.25 263.004 24.25 263.625M43.75 263.625V265.125C43.75 265.746 43.2463 266.25 42.625 266.25M24.25 263.625V265.125C24.25 265.746 24.7537 266.25 25.375 266.25M25.375 266.25H42.625M25.375 266.25H32.875C33.4963 266.25 34 266.754 34 267.375M25.375 266.25C24.7537 266.25 24.25 266.754 24.25 267.375V268.875C24.25 269.496 24.7537 270 25.375 270M42.625 266.25H35.125C34.5037 266.25 34 266.754 34 267.375M42.625 266.25C43.2463 266.25 43.75 266.754 43.75 267.375V268.875C43.75 269.496 43.2463 270 42.625 270M25.375 270H32.875M25.375 270C24.7537 270 24.25 270.504 24.25 271.125V272.625C24.25 273.246 24.7537 273.75 25.375 273.75M34 268.875V267.375M34 268.875C34 269.496 33.4963 270 32.875 270M34 268.875C34 269.496 34.5037 270 35.125 270M32.875 270C33.4963 270 34 270.504 34 271.125M35.125 270H42.625M35.125 270C34.5037 270 34 270.504 34 271.125M42.625 270C43.2463 270 43.75 270.504 43.75 271.125V272.625C43.75 273.246 43.2463 273.75 42.625 273.75M25.375 273.75H32.875M34 272.625V271.125M34 272.625C34 273.246 33.4963 273.75 32.875 273.75M34 272.625C34 273.246 34.5037 273.75 35.125 273.75M32.875 273.75C33.4963 273.75 34 274.254 34 274.875M34 276.375V274.875M34 274.875C34 274.254 34.5037 273.75 35.125 273.75M35.125 273.75H42.625" stroke="#0F172A" stroke-width="1.5" stroke-linecap="round" stroke-linejoin="round"/>
<rect x="16" y="305" width="36" height="34" rx="5" fill="#334155"/>
<path d="M38.8 317.2H29.2V326.8H38.8V317.2Z" fill="#FFDF63"/>
<path fill-rule="evenodd" clip-rule="evenodd" d="M33.1 313.6V312.1C33.1 311.603 33.503 311.2 34 311.2C34.4971 311.2 34.9 311.603 34.9 312.1V313.6H36.7V312.1C36.7 311.603 37.103 311.2 37.6 311.2C38.0971 311.2 38.5 311.603 38.5 312.1V313.6H39.1C40.9226 313.6 42.4 315.077 42.4 316.9V317.5H43.9C44.3971 317.5 44.8 317.903 44.8 318.4C44.8 318.897 44.3971 319.3 43.9 319.3H42.4V321.1H43.9C44.3971 321.1 44.8 321.503 44.8 322C44.8 322.497 44.3971 322.9 43.9 322.9H42.4V324.7H43.9C44.3971 324.7 44.8 325.103 44.8 325.6C44.8 326.097 44.3971 326.5 43.9 326.5H42.4V327.1C42.4 328.922 40.9226 330.4 39.1 330.4H38.5V331.9C38.5 332.397 38.0971 332.8 37.6 332.8C37.103 332.8 36.7 332.397 36.7 331.9V330.4H34.9V331.9C34.9 332.397 34.4971 332.8 34 332.8C33.503 332.8 33.1 332.397 33.1 331.9V330.4H31.3V331.9C31.3 332.397 30.8971 332.8 30.4 332.8C29.903 332.8 29.5 332.397 29.5 331.9V330.4H28.9C27.0775 330.4 25.6 328.922 25.6 327.1V326.5H24.1C23.603 326.5 23.2 326.097 23.2 325.6C23.2 325.103 23.603 324.7 24.1 324.7H25.6V322.9H24.1C23.603 322.9 23.2 322.497 23.2 322C23.2 321.503 23.603 321.1 24.1 321.1H25.6V319.3H24.1C23.603 319.3 23.2 318.897 23.2 318.4C23.2 317.903 23.603 317.5 24.1 317.5H25.6V316.9C25.6 315.077 27.0775 313.6 28.9 313.6H29.5V312.1C29.5 311.603 29.903 311.2 30.4 311.2C30.8971 311.2 31.3 311.603 31.3 312.1V313.6H33.1ZM27.4 316.9C27.4 316.072 28.0716 315.4 28.9 315.4H39.1C39.9284 315.4 40.6 316.072 40.6 316.9V327.1C40.6 327.928 39.9284 328.6 39.1 328.6H28.9C28.0716 328.6 27.4 327.928 27.4 327.1V316.9Z" fill="#FFDF63"/>
<rect x="16" y="342" width="36" height="34" rx="5" fill="#334155"/>
<path d="M25.375 366.5H42.625M25.375 366.5C24.7537 366.5 24.25 365.996 24.25 365.375M25.375 366.5H32.875C33.4963 366.5 34 365.996 34 365.375M24.25 365.375V352.625M24.25 365.375V363.875C24.25 363.254 24.7537 362.75 25.375 362.75M43.75 365.375V352.625M43.75 365.375C43.75 365.996 43.2463 366.5 42.625 366.5M43.75 365.375V363.875C43.75 363.254 43.2463 362.75 42.625 362.75M42.625 366.5H35.125C34.5037 366.5 34 365.996 34 365.375M43.75 352.625C43.75 352.004 43.2463 351.5 42.625 351.5H25.375C24.7537 351.5 24.25 352.004 24.25 352.625M43.75 352.625V354.125C43.75 354.746 43.2463 355.25 42.625 355.25M24.25 352.625V354.125C24.25 354.746 24.7537 355.25 25.375 355.25M25.375 355.25H42.625M25.375 355.25H32.875C33.4963 355.25 34 355.754 34 356.375M25.375 355.25C24.7537 355.25 24.25 355.754 24.25 356.375V357.875C24.25 358.496 24.7537 359 25.375 359M42.625 355.25H35.125C34.5037 355.25 34 355.754 34 356.375M42.625 355.25C43.2463 355.25 43.75 355.754 43.75 356.375V357.875C43.75 358.496 43.2463 359 42.625 359M25.375 359H32.875M25.375 359C24.7537 359 24.25 359.504 24.25 360.125V361.625C24.25 362.246 24.7537 362.75 25.375 362.75M34 357.875V356.375M34 357.875C34 358.496 33.4963 359 32.875 359M34 357.875C34 358.496 34.5037 359 35.125 359M32.875 359C33.4963 359 34 359.504 34 360.125M35.125 359H42.625M35.125 359C34.5037 359 34 359.504 34 360.125M42.625 359C43.2463 359 43.75 359.504 43.75 360.125V361.625C43.75 362.246 43.2463 362.75 42.625 362.75M25.375 362.75H32.875M34 361.625V360.125M34 361.625C34 362.246 33.4963 362.75 32.875 362.75M34 361.625C34 362.246 34.5037 362.75 35.125 362.75M32.875 362.75C33.4963 362.75 34 363.254 34 363.875M34 365.375V363.875M34 363.875C34 363.254 34.5037 362.75 35.125 362.75M35.125 362.75H42.625" stroke="#FFDF63" stroke-width="1.5" stroke-linecap="round" stroke-linejoin="round"/>
</svg>
