<svg width="160" height="260" viewBox="0 0 160 260" fill="none" xmlns="http://www.w3.org/2000/svg">
<rect x="0.5" y="0.5" width="159" height="259" rx="4.5" stroke="#9747FF" stroke-dasharray="10 5"/>
<path d="M80 20H135C137.761 20 140 22.2386 140 25V55C140 57.7614 137.761 60 135 60H80V20Z" fill="#FFDF63"/>
<path d="M20 25C20 22.2386 22.2386 20 25 20H80V60H25C22.2386 60 20 57.7614 20 55V25Z" fill="white"/>
<path d="M41.468 44V43.388L44.96 39.968C45.28 39.656 45.52 39.384 45.68 39.152C45.84 38.912 45.948 38.688 46.004 38.48C46.06 38.272 46.088 38.076 46.088 37.892C46.088 37.404 45.92 37.02 45.584 36.74C45.256 36.46 44.768 36.32 44.12 36.32C43.624 36.32 43.184 36.396 42.8 36.548C42.424 36.7 42.1 36.936 41.828 37.256L41.216 36.728C41.544 36.344 41.964 36.048 42.476 35.84C42.988 35.632 43.56 35.528 44.192 35.528C44.76 35.528 45.252 35.62 45.668 35.804C46.084 35.98 46.404 36.24 46.628 36.584C46.86 36.928 46.976 37.332 46.976 37.796C46.976 38.068 46.936 38.336 46.856 38.6C46.784 38.864 46.648 39.144 46.448 39.44C46.256 39.728 45.972 40.056 45.596 40.424L42.392 43.568L42.152 43.232H47.36V44H41.468ZM49.1883 44V35.6H52.6083C53.5043 35.6 54.2883 35.78 54.9603 36.14C55.6403 36.492 56.1683 36.984 56.5443 37.616C56.9203 38.248 57.1083 38.976 57.1083 39.8C57.1083 40.624 56.9203 41.352 56.5443 41.984C56.1683 42.616 55.6403 43.112 54.9603 43.472C54.2883 43.824 53.5043 44 52.6083 44H49.1883ZM50.0763 43.232H52.5603C53.3043 43.232 53.9483 43.088 54.4923 42.8C55.0443 42.504 55.4723 42.1 55.7763 41.588C56.0803 41.068 56.2323 40.472 56.2323 39.8C56.2323 39.12 56.0803 38.524 55.7763 38.012C55.4723 37.5 55.0443 37.1 54.4923 36.812C53.9483 36.516 53.3043 36.368 52.5603 36.368H50.0763V43.232Z" fill="black"/>
<path d="M104.132 44.072C103.524 44.072 102.948 43.976 102.404 43.784C101.868 43.584 101.436 43.32 101.108 42.992L101.528 42.308C101.8 42.588 102.164 42.82 102.62 43.004C103.084 43.188 103.588 43.28 104.132 43.28C104.828 43.28 105.36 43.128 105.728 42.824C106.104 42.52 106.292 42.112 106.292 41.6C106.292 41.088 106.108 40.68 105.74 40.376C105.38 40.072 104.808 39.92 104.024 39.92H103.424V39.284L106.016 36.032L106.136 36.368H101.456V35.6H106.856V36.212L104.264 39.464L103.844 39.188H104.168C105.176 39.188 105.928 39.412 106.424 39.86C106.928 40.308 107.18 40.884 107.18 41.588C107.18 42.06 107.068 42.484 106.844 42.86C106.62 43.236 106.28 43.532 105.824 43.748C105.376 43.964 104.812 44.072 104.132 44.072ZM109.141 44V35.6H112.561C113.457 35.6 114.241 35.78 114.913 36.14C115.593 36.492 116.121 36.984 116.497 37.616C116.873 38.248 117.061 38.976 117.061 39.8C117.061 40.624 116.873 41.352 116.497 41.984C116.121 42.616 115.593 43.112 114.913 43.472C114.241 43.824 113.457 44 112.561 44H109.141ZM110.029 43.232H112.513C113.257 43.232 113.901 43.088 114.445 42.8C114.997 42.504 115.425 42.1 115.729 41.588C116.033 41.068 116.185 40.472 116.185 39.8C116.185 39.12 116.033 38.524 115.729 38.012C115.425 37.5 114.997 37.1 114.445 36.812C113.901 36.516 113.257 36.368 112.513 36.368H110.029V43.232Z" fill="black"/>
<path d="M80 80H135C137.761 80 140 82.2386 140 85V115C140 117.761 137.761 120 135 120H80V80Z" fill="white"/>
<path d="M20 85C20 82.2386 22.2386 80 25 80H80V120H25C22.2386 120 20 117.761 20 115V85Z" fill="#FFDF63"/>
<path d="M41.468 104V103.388L44.96 99.968C45.28 99.656 45.52 99.384 45.68 99.152C45.84 98.912 45.948 98.688 46.004 98.48C46.06 98.272 46.088 98.076 46.088 97.892C46.088 97.404 45.92 97.02 45.584 96.74C45.256 96.46 44.768 96.32 44.12 96.32C43.624 96.32 43.184 96.396 42.8 96.548C42.424 96.7 42.1 96.936 41.828 97.256L41.216 96.728C41.544 96.344 41.964 96.048 42.476 95.84C42.988 95.632 43.56 95.528 44.192 95.528C44.76 95.528 45.252 95.62 45.668 95.804C46.084 95.98 46.404 96.24 46.628 96.584C46.86 96.928 46.976 97.332 46.976 97.796C46.976 98.068 46.936 98.336 46.856 98.6C46.784 98.864 46.648 99.144 46.448 99.44C46.256 99.728 45.972 100.056 45.596 100.424L42.392 103.568L42.152 103.232H47.36V104H41.468ZM49.1883 104V95.6H52.6083C53.5043 95.6 54.2883 95.78 54.9603 96.14C55.6403 96.492 56.1683 96.984 56.5443 97.616C56.9203 98.248 57.1083 98.976 57.1083 99.8C57.1083 100.624 56.9203 101.352 56.5443 101.984C56.1683 102.616 55.6403 103.112 54.9603 103.472C54.2883 103.824 53.5043 104 52.6083 104H49.1883ZM50.0763 103.232H52.5603C53.3043 103.232 53.9483 103.088 54.4923 102.8C55.0443 102.504 55.4723 102.1 55.7763 101.588C56.0803 101.068 56.2323 100.472 56.2323 99.8C56.2323 99.12 56.0803 98.524 55.7763 98.012C55.4723 97.5 55.0443 97.1 54.4923 96.812C53.9483 96.516 53.3043 96.368 52.5603 96.368H50.0763V103.232Z" fill="black"/>
<path d="M104.132 104.072C103.524 104.072 102.948 103.976 102.404 103.784C101.868 103.584 101.436 103.32 101.108 102.992L101.528 102.308C101.8 102.588 102.164 102.82 102.62 103.004C103.084 103.188 103.588 103.28 104.132 103.28C104.828 103.28 105.36 103.128 105.728 102.824C106.104 102.52 106.292 102.112 106.292 101.6C106.292 101.088 106.108 100.68 105.74 100.376C105.38 100.072 104.808 99.92 104.024 99.92H103.424V99.284L106.016 96.032L106.136 96.368H101.456V95.6H106.856V96.212L104.264 99.464L103.844 99.188H104.168C105.176 99.188 105.928 99.412 106.424 99.86C106.928 100.308 107.18 100.884 107.18 101.588C107.18 102.06 107.068 102.484 106.844 102.86C106.62 103.236 106.28 103.532 105.824 103.748C105.376 103.964 104.812 104.072 104.132 104.072ZM109.141 104V95.6H112.561C113.457 95.6 114.241 95.78 114.913 96.14C115.593 96.492 116.121 96.984 116.497 97.616C116.873 98.248 117.061 98.976 117.061 99.8C117.061 100.624 116.873 101.352 116.497 101.984C116.121 102.616 115.593 103.112 114.913 103.472C114.241 103.824 113.457 104 112.561 104H109.141ZM110.029 103.232H112.513C113.257 103.232 113.901 103.088 114.445 102.8C114.997 102.504 115.425 102.1 115.729 101.588C116.033 101.068 116.185 100.472 116.185 99.8C116.185 99.12 116.033 98.524 115.729 98.012C115.425 97.5 114.997 97.1 114.445 96.812C113.901 96.516 113.257 96.368 112.513 96.368H110.029V103.232Z" fill="black"/>
<path d="M80 140H135C137.761 140 140 142.239 140 145V175C140 177.761 137.761 180 135 180H80V140Z" fill="#FFDF63"/>
<path d="M20 145C20 142.239 22.2386 140 25 140H80V180H25C22.2386 180 20 177.761 20 175V145Z" fill="#1E293B"/>
<path d="M41.468 164V163.388L44.96 159.968C45.28 159.656 45.52 159.384 45.68 159.152C45.84 158.912 45.948 158.688 46.004 158.48C46.06 158.272 46.088 158.076 46.088 157.892C46.088 157.404 45.92 157.02 45.584 156.74C45.256 156.46 44.768 156.32 44.12 156.32C43.624 156.32 43.184 156.396 42.8 156.548C42.424 156.7 42.1 156.936 41.828 157.256L41.216 156.728C41.544 156.344 41.964 156.048 42.476 155.84C42.988 155.632 43.56 155.528 44.192 155.528C44.76 155.528 45.252 155.62 45.668 155.804C46.084 155.98 46.404 156.24 46.628 156.584C46.86 156.928 46.976 157.332 46.976 157.796C46.976 158.068 46.936 158.336 46.856 158.6C46.784 158.864 46.648 159.144 46.448 159.44C46.256 159.728 45.972 160.056 45.596 160.424L42.392 163.568L42.152 163.232H47.36V164H41.468ZM49.1883 164V155.6H52.6083C53.5043 155.6 54.2883 155.78 54.9603 156.14C55.6403 156.492 56.1683 156.984 56.5443 157.616C56.9203 158.248 57.1083 158.976 57.1083 159.8C57.1083 160.624 56.9203 161.352 56.5443 161.984C56.1683 162.616 55.6403 163.112 54.9603 163.472C54.2883 163.824 53.5043 164 52.6083 164H49.1883ZM50.0763 163.232H52.5603C53.3043 163.232 53.9483 163.088 54.4923 162.8C55.0443 162.504 55.4723 162.1 55.7763 161.588C56.0803 161.068 56.2323 160.472 56.2323 159.8C56.2323 159.12 56.0803 158.524 55.7763 158.012C55.4723 157.5 55.0443 157.1 54.4923 156.812C53.9483 156.516 53.3043 156.368 52.5603 156.368H50.0763V163.232Z" fill="#F9FAFB"/>
<path d="M104.132 164.072C103.524 164.072 102.948 163.976 102.404 163.784C101.868 163.584 101.436 163.32 101.108 162.992L101.528 162.308C101.8 162.588 102.164 162.82 102.62 163.004C103.084 163.188 103.588 163.28 104.132 163.28C104.828 163.28 105.36 163.128 105.728 162.824C106.104 162.52 106.292 162.112 106.292 161.6C106.292 161.088 106.108 160.68 105.74 160.376C105.38 160.072 104.808 159.92 104.024 159.92H103.424V159.284L106.016 156.032L106.136 156.368H101.456V155.6H106.856V156.212L104.264 159.464L103.844 159.188H104.168C105.176 159.188 105.928 159.412 106.424 159.86C106.928 160.308 107.18 160.884 107.18 161.588C107.18 162.06 107.068 162.484 106.844 162.86C106.62 163.236 106.28 163.532 105.824 163.748C105.376 163.964 104.812 164.072 104.132 164.072ZM109.141 164V155.6H112.561C113.457 155.6 114.241 155.78 114.913 156.14C115.593 156.492 116.121 156.984 116.497 157.616C116.873 158.248 117.061 158.976 117.061 159.8C117.061 160.624 116.873 161.352 116.497 161.984C116.121 162.616 115.593 163.112 114.913 163.472C114.241 163.824 113.457 164 112.561 164H109.141ZM110.029 163.232H112.513C113.257 163.232 113.901 163.088 114.445 162.8C114.997 162.504 115.425 162.1 115.729 161.588C116.033 161.068 116.185 160.472 116.185 159.8C116.185 159.12 116.033 158.524 115.729 158.012C115.425 157.5 114.997 157.1 114.445 156.812C113.901 156.516 113.257 156.368 112.513 156.368H110.029V163.232Z" fill="black"/>
<path d="M80 200H135C137.761 200 140 202.239 140 205V235C140 237.761 137.761 240 135 240H80V200Z" fill="#1E293B"/>
<path d="M20 205C20 202.239 22.2386 200 25 200H80V240H25C22.2386 240 20 237.761 20 235V205Z" fill="#FFDF63"/>
<path d="M41.468 224V223.388L44.96 219.968C45.28 219.656 45.52 219.384 45.68 219.152C45.84 218.912 45.948 218.688 46.004 218.48C46.06 218.272 46.088 218.076 46.088 217.892C46.088 217.404 45.92 217.02 45.584 216.74C45.256 216.46 44.768 216.32 44.12 216.32C43.624 216.32 43.184 216.396 42.8 216.548C42.424 216.7 42.1 216.936 41.828 217.256L41.216 216.728C41.544 216.344 41.964 216.048 42.476 215.84C42.988 215.632 43.56 215.528 44.192 215.528C44.76 215.528 45.252 215.62 45.668 215.804C46.084 215.98 46.404 216.24 46.628 216.584C46.86 216.928 46.976 217.332 46.976 217.796C46.976 218.068 46.936 218.336 46.856 218.6C46.784 218.864 46.648 219.144 46.448 219.44C46.256 219.728 45.972 220.056 45.596 220.424L42.392 223.568L42.152 223.232H47.36V224H41.468ZM49.1883 224V215.6H52.6083C53.5043 215.6 54.2883 215.78 54.9603 216.14C55.6403 216.492 56.1683 216.984 56.5443 217.616C56.9203 218.248 57.1083 218.976 57.1083 219.8C57.1083 220.624 56.9203 221.352 56.5443 221.984C56.1683 222.616 55.6403 223.112 54.9603 223.472C54.2883 223.824 53.5043 224 52.6083 224H49.1883ZM50.0763 223.232H52.5603C53.3043 223.232 53.9483 223.088 54.4923 222.8C55.0443 222.504 55.4723 222.1 55.7763 221.588C56.0803 221.068 56.2323 220.472 56.2323 219.8C56.2323 219.12 56.0803 218.524 55.7763 218.012C55.4723 217.5 55.0443 217.1 54.4923 216.812C53.9483 216.516 53.3043 216.368 52.5603 216.368H50.0763V223.232Z" fill="black"/>
<path d="M104.132 224.072C103.524 224.072 102.948 223.976 102.404 223.784C101.868 223.584 101.436 223.32 101.108 222.992L101.528 222.308C101.8 222.588 102.164 222.82 102.62 223.004C103.084 223.188 103.588 223.28 104.132 223.28C104.828 223.28 105.36 223.128 105.728 222.824C106.104 222.52 106.292 222.112 106.292 221.6C106.292 221.088 106.108 220.68 105.74 220.376C105.38 220.072 104.808 219.92 104.024 219.92H103.424V219.284L106.016 216.032L106.136 216.368H101.456V215.6H106.856V216.212L104.264 219.464L103.844 219.188H104.168C105.176 219.188 105.928 219.412 106.424 219.86C106.928 220.308 107.18 220.884 107.18 221.588C107.18 222.06 107.068 222.484 106.844 222.86C106.62 223.236 106.28 223.532 105.824 223.748C105.376 223.964 104.812 224.072 104.132 224.072ZM109.141 224V215.6H112.561C113.457 215.6 114.241 215.78 114.913 216.14C115.593 216.492 116.121 216.984 116.497 217.616C116.873 218.248 117.061 218.976 117.061 219.8C117.061 220.624 116.873 221.352 116.497 221.984C116.121 222.616 115.593 223.112 114.913 223.472C114.241 223.824 113.457 224 112.561 224H109.141ZM110.029 223.232H112.513C113.257 223.232 113.901 223.088 114.445 222.8C114.997 222.504 115.425 222.1 115.729 221.588C116.033 221.068 116.185 220.472 116.185 219.8C116.185 219.12 116.033 218.524 115.729 218.012C115.425 217.5 114.997 217.1 114.445 216.812C113.901 216.516 113.257 216.368 112.513 216.368H110.029V223.232Z" fill="#F9FAFB"/>
</svg>
